<svg width="55" height="49" viewBox="0 0 55 49" fill="none" xmlns="http://www.w3.org/2000/svg">
<path d="M2.87431 48.0601C2.45519 48.0601 2.08519 47.7584 2.01256 47.3321C1.93138 46.8552 2.25224 46.4032 2.72862 46.322L14.6804 44.2892C14.7287 44.2815 14.7778 44.2772 14.827 44.2772C15.0166 44.2772 34.0171 44.1892 50.7878 37.0517C51.5817 36.715 52.2037 36.0904 52.5395 35.2923C52.9441 34.3327 52.7544 33.1432 52.0456 32.187C51.7782 31.8264 51.4381 31.3616 51.0378 30.8147C47.8018 26.3944 40.2242 16.044 36.2251 13.1481C26.6113 6.18911 22.32 3.01296 21.4467 2.3644L17.9061 1.77651C17.0315 1.63125 16.1758 2.12771 15.8737 2.95571L13.9105 8.3279C13.6623 9.00808 13.699 9.74123 14.0139 10.3932C14.3309 11.0495 14.8885 11.5382 15.5836 11.7689L19.9505 13.2173C20.5311 13.4087 21.151 13.4343 21.7466 13.2874L26.1097 12.2047C26.5754 12.0902 27.0526 12.3739 27.1697 12.843C27.2859 13.3122 27 13.7873 26.5309 13.9035L22.167 14.9861C21.2506 15.2117 20.2931 15.1749 19.3993 14.8784L15.0325 13.4301C13.8844 13.049 12.9629 12.2406 12.4382 11.1546C11.9157 10.0728 11.8546 8.85598 12.2665 7.72805L14.2297 2.35586C14.8205 0.737449 16.4864 -0.238381 18.1924 0.0504375L21.9419 0.672508C22.0799 0.695579 22.2102 0.751121 22.3221 0.834007C22.3619 0.863914 26.4292 3.89736 37.2514 11.7313C41.4734 14.7879 48.887 24.9145 52.4498 29.7808C52.8476 30.3242 53.1855 30.7865 53.4513 31.1446C54.5271 32.5955 54.7958 34.4446 54.1524 35.9716C53.6384 37.1918 52.6865 38.148 51.4719 38.6624C34.9139 45.7094 16.2578 46.0144 14.9039 46.0264L3.02171 48.0481C2.97215 48.0558 2.92302 48.0601 2.87431 48.0601Z" fill="black"/>
<path d="M34.7476 32.1496C34.4656 32.1496 34.1892 32.0137 34.0204 31.7625C32.5336 29.5476 28.0543 19.3074 25.5165 13.3994C25.326 12.956 25.531 12.4407 25.9754 12.2502C26.418 12.0613 26.9328 12.2647 27.1247 12.709C29.1481 17.4198 34.0127 28.612 35.473 30.7867C35.7426 31.1883 35.6358 31.7317 35.2346 32.0009C35.0847 32.1017 34.9151 32.1496 34.7476 32.1496Z" fill="black"/>
<path d="M11.8385 32.1494C11.7347 32.1494 11.6308 32.1306 11.5326 32.0939C7.78221 30.6942 3.51274 29.2202 2.86034 29.1758C2.38994 29.1433 2.00713 28.7434 2.02293 28.2717C2.03917 27.8 2.40318 27.4258 2.87486 27.4258C3.88103 27.4258 9.31987 29.4039 11.8868 30.3584C13.7256 29.8936 24.0919 27.3719 33.1807 27.4651C33.6639 27.4694 34.0519 27.865 34.0476 28.3478C34.0433 28.8289 33.6524 29.2151 33.1726 29.2151C33.17 29.2151 33.1675 29.2151 33.1645 29.2151C23.6138 29.1006 12.1747 32.0905 12.0602 32.1212C11.9872 32.14 11.9128 32.1494 11.8385 32.1494Z" fill="black"/>
<path d="M34.7476 32.1496C34.4656 32.1496 34.1892 32.0137 34.0204 31.7625C32.5336 29.5476 28.0543 19.3074 25.5165 13.3994C25.326 12.956 25.531 12.4407 25.9754 12.2502C26.418 12.0613 26.9328 12.2647 27.1247 12.709C29.1481 17.4198 34.0127 28.612 35.473 30.7867C35.7426 31.1883 35.6358 31.7317 35.2346 32.0009C35.0847 32.1017 34.9151 32.1496 34.7476 32.1496Z" fill="black"/>
<path fill-rule="evenodd" clip-rule="evenodd" d="M14.1156 31.0023C14.1156 31.3089 14.0911 31.6105 14.0438 31.9058C18.2076 30.8135 25.2161 29.2684 31.5365 29.269C31.5352 29.269 31.6638 29.2699 31.7973 29.2709L31.8023 29.2709C31.945 29.272 32.0916 29.273 32.09 29.273C31.9061 29.2703 31.7216 29.269 31.5365 29.269C32.0309 29.269 32.9956 28.7824 33 28.1714C33.0044 27.5581 31.3877 27.0999 30.8898 27.0945C24.4587 27.0133 17.9806 28.4772 13.9391 29.5938C14.0547 30.0473 14.1156 30.5186 14.1156 31.0023ZM0.0136719 27.9155C0.0748558 27.474 0.334846 27.1246 0.681024 27.0273C0.431964 27.3062 0.208496 27.6032 0.0136719 27.9155Z" fill="#FF3939"/>
</svg>
