<svg width="54" height="50" viewBox="0 0 54 50" fill="none" xmlns="http://www.w3.org/2000/svg">
<path d="M1.62431 49.0288C1.20519 49.0288 0.835191 48.7272 0.762559 48.3008C0.681382 47.824 1.00224 47.372 1.47862 47.2908L13.4304 45.258C13.4787 45.2503 13.5278 45.246 13.577 45.246C13.7666 45.246 32.7671 45.158 49.5378 38.0204C50.3317 37.6837 50.9537 37.0591 51.2895 36.261C51.6941 35.3014 51.5044 34.112 50.7956 33.1558C50.5282 32.7952 50.1881 32.3303 49.7878 31.7835C46.5518 27.3632 38.9742 17.0127 34.9751 14.1168C25.3613 7.15786 21.07 3.98171 20.1967 3.33315L16.6561 2.74526C15.7815 2.6 14.9258 3.09646 14.6237 3.92446L12.6605 9.29665C12.4123 9.97683 12.449 10.71 12.7639 11.362C13.0809 12.0182 13.6385 12.507 14.3336 12.7377L18.7005 14.1861C19.2811 14.3775 19.901 14.4031 20.4966 14.2561L24.8597 13.1735C25.3254 13.059 25.8026 13.3427 25.9197 13.8118C26.0359 14.2809 25.75 14.756 25.2809 14.8722L20.917 15.9549C20.0006 16.1804 19.0431 16.1437 18.1493 15.8472L13.7825 14.3988C12.6344 14.0177 11.7129 13.2094 11.1882 12.1233C10.6657 11.0415 10.6046 9.82473 11.0165 8.6968L12.9797 3.32461C13.5705 1.7062 15.2364 0.730369 16.9424 1.01919L20.6919 1.64126C20.8299 1.66433 20.9602 1.71987 21.0721 1.80276C21.1119 1.83266 25.1792 4.86611 36.0014 12.7001C40.2234 15.7566 47.637 25.8832 51.1998 30.7495C51.5976 31.293 51.9355 31.7553 52.2013 32.1133C53.2771 33.5642 53.5458 35.4134 52.9024 36.9403C52.3884 38.1605 51.4365 39.1167 50.2219 39.6311C33.6639 46.6781 15.0078 46.9832 13.6539 46.9951L1.77171 49.0169C1.72215 49.0246 1.67302 49.0288 1.62431 49.0288Z" fill="black"/>
<path d="M1.62431 49.0288C1.20519 49.0288 0.835191 48.7272 0.762559 48.3008C0.681382 47.824 1.00224 47.372 1.47862 47.2908L13.4304 45.258C13.4787 45.2503 13.5278 45.246 13.577 45.246C13.7666 45.246 32.7671 45.158 49.5378 38.0204C50.3317 37.6837 50.9537 37.0591 51.2895 36.261C51.6941 35.3014 51.5044 34.112 50.7956 33.1558C50.5282 32.7952 50.1881 32.3303 49.7878 31.7835C46.5518 27.3632 38.9742 17.0127 34.9751 14.1168C25.3613 7.15786 21.07 3.98171 20.1967 3.33315L16.6561 2.74526C15.7815 2.6 14.9258 3.09646 14.6237 3.92446L12.6605 9.29665C12.4123 9.97683 12.449 10.71 12.7639 11.362C13.0809 12.0182 13.6385 12.507 14.3336 12.7377L18.7005 14.1861C19.2811 14.3775 19.901 14.4031 20.4966 14.2561L24.8597 13.1735C25.3254 13.059 25.8026 13.3427 25.9197 13.8118C26.0359 14.2809 25.75 14.756 25.2809 14.8722L20.917 15.9549C20.0006 16.1804 19.0431 16.1437 18.1493 15.8472L13.7825 14.3988C12.6344 14.0177 11.7129 13.2094 11.1882 12.1233C10.6657 11.0415 10.6046 9.82473 11.0165 8.6968L12.9797 3.32461C13.5705 1.7062 15.2364 0.730369 16.9424 1.01919L20.6919 1.64126C20.8299 1.66433 20.9602 1.71987 21.0721 1.80276C21.1119 1.83266 25.1792 4.86611 36.0014 12.7001C40.2234 15.7566 47.637 25.8832 51.1998 30.7495C51.5976 31.293 51.9355 31.7553 52.2013 32.1133C53.2771 33.5642 53.5458 35.4134 52.9024 36.9403C52.3884 38.1605 51.4365 39.1167 50.2219 39.6311C33.6639 46.6781 15.0078 46.9832 13.6539 46.9951L1.77171 49.0169C1.72215 49.0246 1.67302 49.0288 1.62431 49.0288Z" fill="#FF3939"/>
<path d="M1.62431 49.0288C1.20519 49.0288 0.835191 48.7272 0.762559 48.3008C0.681382 47.824 1.00224 47.372 1.47862 47.2908L13.4304 45.258C13.4787 45.2503 13.5278 45.246 13.577 45.246C13.7666 45.246 32.7671 45.158 49.5378 38.0204C50.3317 37.6837 50.9537 37.0591 51.2895 36.261C51.6941 35.3014 51.5044 34.112 50.7956 33.1558C50.5282 32.7952 50.1881 32.3303 49.7878 31.7835C46.5518 27.3632 38.9742 17.0127 34.9751 14.1168C25.3613 7.15786 21.07 3.98171 20.1967 3.33315L16.6561 2.74526C15.7815 2.6 14.9258 3.09646 14.6237 3.92446L12.6605 9.29665C12.4123 9.97683 12.449 10.71 12.7639 11.362C13.0809 12.0182 13.6385 12.507 14.3336 12.7377L18.7005 14.1861C19.2811 14.3775 19.901 14.4031 20.4966 14.2561L24.8597 13.1735C25.3254 13.059 25.8026 13.3427 25.9197 13.8118C26.0359 14.2809 25.75 14.756 25.2809 14.8722L20.917 15.9549C20.0006 16.1804 19.0431 16.1437 18.1493 15.8472L13.7825 14.3988C12.6344 14.0177 11.7129 13.2094 11.1882 12.1233C10.6657 11.0415 10.6046 9.82473 11.0165 8.6968L12.9797 3.32461C13.5705 1.7062 15.2364 0.730369 16.9424 1.01919L20.6919 1.64126C20.8299 1.66433 20.9602 1.71987 21.0721 1.80276C21.1119 1.83266 25.1792 4.86611 36.0014 12.7001C40.2234 15.7566 47.637 25.8832 51.1998 30.7495C51.5976 31.293 51.9355 31.7553 52.2013 32.1133C53.2771 33.5642 53.5458 35.4134 52.9024 36.9403C52.3884 38.1605 51.4365 39.1167 50.2219 39.6311C33.6639 46.6781 15.0078 46.9832 13.6539 46.9951L1.77171 49.0169C1.72215 49.0246 1.67302 49.0288 1.62431 49.0288Z" fill="black"/>
<path d="M1.62431 49.0288C1.20519 49.0288 0.835191 48.7272 0.762559 48.3008C0.681382 47.824 1.00224 47.372 1.47862 47.2908L13.4304 45.258C13.4787 45.2503 13.5278 45.246 13.577 45.246C13.7666 45.246 32.7671 45.158 49.5378 38.0204C50.3317 37.6837 50.9537 37.0591 51.2895 36.261C51.6941 35.3014 51.5044 34.112 50.7956 33.1558C50.5282 32.7952 50.1881 32.3303 49.7878 31.7835C46.5518 27.3632 38.9742 17.0127 34.9751 14.1168C25.3613 7.15786 21.07 3.98171 20.1967 3.33315L16.6561 2.74526C15.7815 2.6 14.9258 3.09646 14.6237 3.92446L12.6605 9.29665C12.4123 9.97683 12.449 10.71 12.7639 11.362C13.0809 12.0182 13.6385 12.507 14.3336 12.7377L18.7005 14.1861C19.2811 14.3775 19.901 14.4031 20.4966 14.2561L24.8597 13.1735C25.3254 13.059 25.8026 13.3427 25.9197 13.8118C26.0359 14.2809 25.75 14.756 25.2809 14.8722L20.917 15.9549C20.0006 16.1804 19.0431 16.1437 18.1493 15.8472L13.7825 14.3988C12.6344 14.0177 11.7129 13.2094 11.1882 12.1233C10.6657 11.0415 10.6046 9.82473 11.0165 8.6968L12.9797 3.32461C13.5705 1.7062 15.2364 0.730369 16.9424 1.01919L20.6919 1.64126C20.8299 1.66433 20.9602 1.71987 21.0721 1.80276C21.1119 1.83266 25.1792 4.86611 36.0014 12.7001C40.2234 15.7566 47.637 25.8832 51.1998 30.7495C51.5976 31.293 51.9355 31.7553 52.2013 32.1133C53.2771 33.5642 53.5458 35.4134 52.9024 36.9403C52.3884 38.1605 51.4365 39.1167 50.2219 39.6311C33.6639 46.6781 15.0078 46.9832 13.6539 46.9951L1.77171 49.0169C1.72215 49.0246 1.67302 49.0288 1.62431 49.0288Z" fill="black"/>
<path fill-rule="evenodd" clip-rule="evenodd" d="M32.5474 12.2076C32.17 11.2474 31.8838 10.3182 31.6934 9.42578C33.0572 10.4167 34.5734 11.5164 36.2522 12.7316C40.4733 15.7874 47.8845 25.9102 51.4482 30.7778L51.4506 30.781C51.4864 30.83 51.5218 30.8784 51.5567 30.926C51.9087 31.407 52.2103 31.819 52.452 32.1448C53.2857 33.2692 53.6348 34.6327 53.4502 35.9002C52.8453 35.438 52.2504 34.9742 51.6659 34.5092C51.5588 34.05 51.3503 33.5972 51.0464 33.1873C50.7923 32.8447 50.4727 32.4081 50.0982 31.8964L50.0385 31.815C46.8026 27.3947 39.2249 17.0442 35.2259 14.1483C34.2824 13.4654 33.3902 12.8189 32.5474 12.2076Z" fill="black"/>
<path fill-rule="evenodd" clip-rule="evenodd" d="M32.5474 12.2076C32.17 11.2474 31.8838 10.3182 31.6934 9.42578C33.0572 10.4167 34.5734 11.5164 36.2522 12.7316C40.4733 15.7874 47.8845 25.9102 51.4482 30.7778L51.4506 30.781C51.4864 30.83 51.5218 30.8784 51.5567 30.926C51.9087 31.407 52.2103 31.819 52.452 32.1448C53.2857 33.2692 53.6348 34.6327 53.4502 35.9002C52.8453 35.438 52.2504 34.9742 51.6659 34.5092C51.5588 34.05 51.3503 33.5972 51.0464 33.1873C50.7923 32.8447 50.4727 32.4081 50.0982 31.8964L50.0385 31.815C46.8026 27.3947 39.2249 17.0442 35.2259 14.1483C34.2824 13.4654 33.3902 12.8189 32.5474 12.2076Z" fill="#FF3939"/>
<path d="M33.4976 33.1183C33.2156 33.1183 32.9392 32.9825 32.7704 32.7312C31.2836 30.5164 26.8043 20.2762 24.2665 14.3682C24.076 13.9247 24.281 13.4095 24.7254 13.2189C25.168 13.0301 25.6828 13.2334 25.8747 13.6778C27.8981 18.3886 32.7627 29.5807 34.223 31.7554C34.4926 32.157 34.3858 32.7005 33.9846 32.9696C33.8347 33.0705 33.6651 33.1183 33.4976 33.1183Z" fill="black"/>
<path d="M33.4976 33.1183C33.2156 33.1183 32.9392 32.9825 32.7704 32.7312C31.2836 30.5164 26.8043 20.2762 24.2665 14.3682C24.076 13.9247 24.281 13.4095 24.7254 13.2189C25.168 13.0301 25.6828 13.2334 25.8747 13.6778C27.8981 18.3886 32.7627 29.5807 34.223 31.7554C34.4926 32.157 34.3858 32.7005 33.9846 32.9696C33.8347 33.0705 33.6651 33.1183 33.4976 33.1183Z" fill="black"/>
<path d="M10.5885 33.1182C10.4847 33.1182 10.3808 33.0994 10.2826 33.0626C6.53221 31.663 2.26274 30.189 1.61034 30.1445C1.13994 30.1121 0.757125 29.7122 0.772934 29.2405C0.789169 28.7688 1.15318 28.3945 1.62486 28.3945C2.63103 28.3945 8.06987 30.3727 10.6368 31.3271C12.4756 30.8623 22.8419 28.3407 31.9307 28.4338C32.4139 28.4381 32.8019 28.8337 32.7976 29.3165C32.7933 29.7976 32.4024 30.1838 31.9226 30.1838C31.92 30.1838 31.9175 30.1838 31.9145 30.1838C22.3638 30.0693 10.9247 33.0592 10.8102 33.09C10.7372 33.1088 10.6628 33.1182 10.5885 33.1182Z" fill="black"/>
<path d="M10.5885 33.1182C10.4847 33.1182 10.3808 33.0994 10.2826 33.0626C6.53221 31.663 2.26274 30.189 1.61034 30.1445C1.13994 30.1121 0.757125 29.7122 0.772934 29.2405C0.789169 28.7688 1.15318 28.3945 1.62486 28.3945C2.63103 28.3945 8.06987 30.3727 10.6368 31.3271C12.4756 30.8623 22.8419 28.3407 31.9307 28.4338C32.4139 28.4381 32.8019 28.8337 32.7976 29.3165C32.7933 29.7976 32.4024 30.1838 31.9226 30.1838C31.92 30.1838 31.9175 30.1838 31.9145 30.1838C22.3638 30.0693 10.9247 33.0592 10.8102 33.09C10.7372 33.1088 10.6628 33.1182 10.5885 33.1182Z" fill="black"/>
</svg>
