<svg width="55" height="49" viewBox="0 0 55 49" fill="none" xmlns="http://www.w3.org/2000/svg">
<path d="M52.1257 48.0601C52.5448 48.0601 52.9148 47.7584 52.9874 47.3321C53.0686 46.8552 52.7478 46.4032 52.2714 46.322L40.3196 44.2892C40.2713 44.2815 40.2222 44.2772 40.173 44.2772C39.9834 44.2772 20.9829 44.1892 4.21217 37.0517C3.41835 36.715 2.79628 36.0904 2.46046 35.2923C2.05586 34.3327 2.24556 33.1432 2.95436 32.187C3.22181 31.8264 3.5619 31.3616 3.96223 30.8147C7.19819 26.3944 14.7758 16.044 18.7749 13.1481C28.3887 6.18911 32.68 3.01296 33.5533 2.3644L37.0939 1.77651C37.9685 1.63125 38.8242 2.12771 39.1263 2.95571L41.0895 8.3279C41.3377 9.00808 41.301 9.74123 40.9861 10.3932C40.6691 11.0495 40.1115 11.5382 39.4164 11.7689L35.0495 13.2173C34.4689 13.4087 33.849 13.4343 33.2534 13.2874L28.8903 12.2047C28.4246 12.0902 27.9474 12.3739 27.8303 12.843C27.7141 13.3122 28 13.7873 28.4691 13.9035L32.833 14.9861C33.7494 15.2117 34.7069 15.1749 35.6007 14.8784L39.9675 13.4301C41.1156 13.049 42.0371 12.2406 42.5618 11.1546C43.0843 10.0728 43.1454 8.85598 42.7335 7.72805L40.7703 2.35586C40.1795 0.737449 38.5136 -0.238381 36.8076 0.0504375L33.0581 0.672508C32.9201 0.695579 32.7898 0.751121 32.6779 0.834007C32.6381 0.863914 28.5708 3.89736 17.7486 11.7313C13.5266 14.7879 6.11299 24.9145 2.55018 29.7808C2.15242 30.3242 1.81446 30.7865 1.54872 31.1446C0.472912 32.5955 0.204174 34.4446 0.847607 35.9716C1.36158 37.1918 2.31349 38.148 3.52815 38.6624C20.0861 45.7094 38.7422 46.0144 40.0961 46.0264L51.9783 48.0481C52.0278 48.0558 52.077 48.0601 52.1257 48.0601Z" fill="black"/>
<path d="M20.2524 32.1496C20.5344 32.1496 20.8108 32.0137 20.9796 31.7625C22.4664 29.5476 26.9457 19.3074 29.4835 13.3994C29.674 12.956 29.469 12.4407 29.0246 12.2502C28.582 12.0613 28.0672 12.2647 27.8753 12.709C25.8519 17.4198 20.9873 28.612 19.527 30.7867C19.2574 31.1883 19.3642 31.7317 19.7654 32.0009C19.9153 32.1017 20.0849 32.1496 20.2524 32.1496Z" fill="black"/>
<path d="M43.1615 32.1494C43.2653 32.1494 43.3692 32.1306 43.4674 32.0939C47.2178 30.6942 51.4873 29.2202 52.1397 29.1758C52.6101 29.1433 52.9929 28.7434 52.9771 28.2717C52.9608 27.8 52.5968 27.4258 52.1251 27.4258C51.119 27.4258 45.6801 29.4039 43.1132 30.3584C41.2744 29.8936 30.9081 27.3719 21.8193 27.4651C21.3361 27.4694 20.9481 27.865 20.9524 28.3478C20.9567 28.8289 21.3476 29.2151 21.8274 29.2151C21.83 29.2151 21.8325 29.2151 21.8355 29.2151C31.3862 29.1006 42.8253 32.0905 42.9398 32.1212C43.0128 32.14 43.0872 32.1494 43.1615 32.1494Z" fill="black"/>
<path d="M20.2524 32.1496C20.5344 32.1496 20.8108 32.0137 20.9796 31.7625C22.4664 29.5476 26.9457 19.3074 29.4835 13.3994C29.674 12.956 29.469 12.4407 29.0246 12.2502C28.582 12.0613 28.0672 12.2647 27.8753 12.709C25.8519 17.4198 20.9873 28.612 19.527 30.7867C19.2574 31.1883 19.3642 31.7317 19.7654 32.0009C19.9153 32.1017 20.0849 32.1496 20.2524 32.1496Z" fill="black"/>
<path fill-rule="evenodd" clip-rule="evenodd" d="M40.8844 31.0023C40.8844 31.3089 40.9089 31.6105 40.9562 31.9058C36.7924 30.8135 29.7839 29.2684 23.4635 29.269C23.4648 29.269 23.3362 29.2699 23.2027 29.2709L23.1977 29.2709C23.055 29.272 22.9084 29.273 22.91 29.273C23.0939 29.2703 23.2784 29.269 23.4635 29.269C22.9691 29.269 22.0044 28.7824 22 28.1714C21.9956 27.5581 23.6123 27.0999 24.1102 27.0945C30.5413 27.0133 37.0194 28.4772 41.0609 29.5938C40.9453 30.0473 40.8844 30.5186 40.8844 31.0023ZM54.9863 27.9155C54.9251 27.474 54.6652 27.1246 54.319 27.0273C54.568 27.3062 54.7915 27.6032 54.9863 27.9155Z" fill="#FF3939"/>
</svg>
