<svg width="54" height="50" viewBox="0 0 54 50" fill="none" xmlns="http://www.w3.org/2000/svg">
<path d="M52.3757 49.0288C52.7948 49.0288 53.1648 48.7272 53.2374 48.3008C53.3186 47.824 52.9978 47.372 52.5214 47.2908L40.5696 45.258C40.5213 45.2503 40.4722 45.246 40.423 45.246C40.2334 45.246 21.2329 45.158 4.46217 38.0204C3.66835 37.6837 3.04628 37.0591 2.71046 36.261C2.30586 35.3014 2.49556 34.112 3.20436 33.1558C3.47181 32.7952 3.8119 32.3303 4.21223 31.7835C7.44819 27.3632 15.0258 17.0127 19.0249 14.1168C28.6387 7.15786 32.93 3.98171 33.8033 3.33315L37.3439 2.74526C38.2185 2.6 39.0742 3.09646 39.3763 3.92446L41.3395 9.29665C41.5877 9.97683 41.551 10.71 41.2361 11.362C40.9191 12.0182 40.3615 12.507 39.6664 12.7377L35.2995 14.1861C34.7189 14.3775 34.099 14.4031 33.5034 14.2561L29.1403 13.1735C28.6746 13.059 28.1974 13.3427 28.0803 13.8118C27.9641 14.2809 28.25 14.756 28.7191 14.8722L33.083 15.9549C33.9994 16.1804 34.9569 16.1437 35.8507 15.8472L40.2175 14.3988C41.3656 14.0177 42.2871 13.2094 42.8118 12.1233C43.3343 11.0415 43.3954 9.82473 42.9835 8.6968L41.0203 3.32461C40.4295 1.7062 38.7636 0.730369 37.0576 1.01919L33.3081 1.64126C33.1701 1.66433 33.0398 1.71987 32.9279 1.80276C32.8881 1.83266 28.8208 4.86611 17.9986 12.7001C13.7766 15.7566 6.36299 25.8832 2.80018 30.7495C2.40242 31.293 2.06446 31.7553 1.79872 32.1133C0.722912 33.5642 0.454174 35.4134 1.09761 36.9403C1.61158 38.1605 2.56349 39.1167 3.77815 39.6311C20.3361 46.6781 38.9922 46.9832 40.3461 46.9951L52.2283 49.0169C52.2778 49.0246 52.327 49.0288 52.3757 49.0288Z" fill="black"/>
<path d="M52.3757 49.0288C52.7948 49.0288 53.1648 48.7272 53.2374 48.3008C53.3186 47.824 52.9978 47.372 52.5214 47.2908L40.5696 45.258C40.5213 45.2503 40.4722 45.246 40.423 45.246C40.2334 45.246 21.2329 45.158 4.46217 38.0204C3.66835 37.6837 3.04628 37.0591 2.71046 36.261C2.30586 35.3014 2.49556 34.112 3.20436 33.1558C3.47181 32.7952 3.8119 32.3303 4.21223 31.7835C7.44819 27.3632 15.0258 17.0127 19.0249 14.1168C28.6387 7.15786 32.93 3.98171 33.8033 3.33315L37.3439 2.74526C38.2185 2.6 39.0742 3.09646 39.3763 3.92446L41.3395 9.29665C41.5877 9.97683 41.551 10.71 41.2361 11.362C40.9191 12.0182 40.3615 12.507 39.6664 12.7377L35.2995 14.1861C34.7189 14.3775 34.099 14.4031 33.5034 14.2561L29.1403 13.1735C28.6746 13.059 28.1974 13.3427 28.0803 13.8118C27.9641 14.2809 28.25 14.756 28.7191 14.8722L33.083 15.9549C33.9994 16.1804 34.9569 16.1437 35.8507 15.8472L40.2175 14.3988C41.3656 14.0177 42.2871 13.2094 42.8118 12.1233C43.3343 11.0415 43.3954 9.82473 42.9835 8.6968L41.0203 3.32461C40.4295 1.7062 38.7636 0.730369 37.0576 1.01919L33.3081 1.64126C33.1701 1.66433 33.0398 1.71987 32.9279 1.80276C32.8881 1.83266 28.8208 4.86611 17.9986 12.7001C13.7766 15.7566 6.36299 25.8832 2.80018 30.7495C2.40242 31.293 2.06446 31.7553 1.79872 32.1133C0.722912 33.5642 0.454174 35.4134 1.09761 36.9403C1.61158 38.1605 2.56349 39.1167 3.77815 39.6311C20.3361 46.6781 38.9922 46.9832 40.3461 46.9951L52.2283 49.0169C52.2778 49.0246 52.327 49.0288 52.3757 49.0288Z" fill="#FF3939"/>
<path d="M52.3757 49.0288C52.7948 49.0288 53.1648 48.7272 53.2374 48.3008C53.3186 47.824 52.9978 47.372 52.5214 47.2908L40.5696 45.258C40.5213 45.2503 40.4722 45.246 40.423 45.246C40.2334 45.246 21.2329 45.158 4.46217 38.0204C3.66835 37.6837 3.04628 37.0591 2.71046 36.261C2.30586 35.3014 2.49556 34.112 3.20436 33.1558C3.47181 32.7952 3.8119 32.3303 4.21223 31.7835C7.44819 27.3632 15.0258 17.0127 19.0249 14.1168C28.6387 7.15786 32.93 3.98171 33.8033 3.33315L37.3439 2.74526C38.2185 2.6 39.0742 3.09646 39.3763 3.92446L41.3395 9.29665C41.5877 9.97683 41.551 10.71 41.2361 11.362C40.9191 12.0182 40.3615 12.507 39.6664 12.7377L35.2995 14.1861C34.7189 14.3775 34.099 14.4031 33.5034 14.2561L29.1403 13.1735C28.6746 13.059 28.1974 13.3427 28.0803 13.8118C27.9641 14.2809 28.25 14.756 28.7191 14.8722L33.083 15.9549C33.9994 16.1804 34.9569 16.1437 35.8507 15.8472L40.2175 14.3988C41.3656 14.0177 42.2871 13.2094 42.8118 12.1233C43.3343 11.0415 43.3954 9.82473 42.9835 8.6968L41.0203 3.32461C40.4295 1.7062 38.7636 0.730369 37.0576 1.01919L33.3081 1.64126C33.1701 1.66433 33.0398 1.71987 32.9279 1.80276C32.8881 1.83266 28.8208 4.86611 17.9986 12.7001C13.7766 15.7566 6.36299 25.8832 2.80018 30.7495C2.40242 31.293 2.06446 31.7553 1.79872 32.1133C0.722912 33.5642 0.454174 35.4134 1.09761 36.9403C1.61158 38.1605 2.56349 39.1167 3.77815 39.6311C20.3361 46.6781 38.9922 46.9832 40.3461 46.9951L52.2283 49.0169C52.2778 49.0246 52.327 49.0288 52.3757 49.0288Z" fill="black"/>
<path d="M52.3757 49.0288C52.7948 49.0288 53.1648 48.7272 53.2374 48.3008C53.3186 47.824 52.9978 47.372 52.5214 47.2908L40.5696 45.258C40.5213 45.2503 40.4722 45.246 40.423 45.246C40.2334 45.246 21.2329 45.158 4.46217 38.0204C3.66835 37.6837 3.04628 37.0591 2.71046 36.261C2.30586 35.3014 2.49556 34.112 3.20436 33.1558C3.47181 32.7952 3.8119 32.3303 4.21223 31.7835C7.44819 27.3632 15.0258 17.0127 19.0249 14.1168C28.6387 7.15786 32.93 3.98171 33.8033 3.33315L37.3439 2.74526C38.2185 2.6 39.0742 3.09646 39.3763 3.92446L41.3395 9.29665C41.5877 9.97683 41.551 10.71 41.2361 11.362C40.9191 12.0182 40.3615 12.507 39.6664 12.7377L35.2995 14.1861C34.7189 14.3775 34.099 14.4031 33.5034 14.2561L29.1403 13.1735C28.6746 13.059 28.1974 13.3427 28.0803 13.8118C27.9641 14.2809 28.25 14.756 28.7191 14.8722L33.083 15.9549C33.9994 16.1804 34.9569 16.1437 35.8507 15.8472L40.2175 14.3988C41.3656 14.0177 42.2871 13.2094 42.8118 12.1233C43.3343 11.0415 43.3954 9.82473 42.9835 8.6968L41.0203 3.32461C40.4295 1.7062 38.7636 0.730369 37.0576 1.01919L33.3081 1.64126C33.1701 1.66433 33.0398 1.71987 32.9279 1.80276C32.8881 1.83266 28.8208 4.86611 17.9986 12.7001C13.7766 15.7566 6.36299 25.8832 2.80018 30.7495C2.40242 31.293 2.06446 31.7553 1.79872 32.1133C0.722912 33.5642 0.454174 35.4134 1.09761 36.9403C1.61158 38.1605 2.56349 39.1167 3.77815 39.6311C20.3361 46.6781 38.9922 46.9832 40.3461 46.9951L52.2283 49.0169C52.2778 49.0246 52.327 49.0288 52.3757 49.0288Z" fill="black"/>
<path fill-rule="evenodd" clip-rule="evenodd" d="M21.4526 12.2076C21.83 11.2474 22.1162 10.3182 22.3066 9.42578C20.9428 10.4167 19.4266 11.5164 17.7478 12.7316C13.5267 15.7874 6.1155 25.9102 2.55178 30.7778L2.54942 30.781C2.51356 30.83 2.47819 30.8784 2.44332 30.926C2.09131 31.407 1.78975 31.819 1.54795 32.1448C0.714254 33.2692 0.365244 34.6327 0.549831 35.9002C1.15469 35.438 1.74956 34.9742 2.33412 34.5092C2.44125 34.05 2.64971 33.5972 2.95359 33.1873C3.20767 32.8447 3.5273 32.4081 3.90185 31.8964L3.96147 31.815C7.19743 27.3947 14.7751 17.0442 18.7741 14.1483C19.7176 13.4654 20.6098 12.8189 21.4526 12.2076Z" fill="black"/>
<path fill-rule="evenodd" clip-rule="evenodd" d="M21.4526 12.2076C21.83 11.2474 22.1162 10.3182 22.3066 9.42578C20.9428 10.4167 19.4266 11.5164 17.7478 12.7316C13.5267 15.7874 6.1155 25.9102 2.55178 30.7778L2.54942 30.781C2.51356 30.83 2.47819 30.8784 2.44332 30.926C2.09131 31.407 1.78975 31.819 1.54795 32.1448C0.714254 33.2692 0.365244 34.6327 0.549831 35.9002C1.15469 35.438 1.74956 34.9742 2.33412 34.5092C2.44125 34.05 2.64971 33.5972 2.95359 33.1873C3.20767 32.8447 3.5273 32.4081 3.90185 31.8964L3.96147 31.815C7.19743 27.3947 14.7751 17.0442 18.7741 14.1483C19.7176 13.4654 20.6098 12.8189 21.4526 12.2076Z" fill="#FF3939"/>
<path d="M20.5024 33.1183C20.7844 33.1183 21.0608 32.9825 21.2296 32.7312C22.7164 30.5164 27.1957 20.2762 29.7335 14.3682C29.924 13.9247 29.719 13.4095 29.2746 13.2189C28.832 13.0301 28.3172 13.2334 28.1253 13.6778C26.1019 18.3886 21.2373 29.5807 19.777 31.7554C19.5074 32.157 19.6142 32.7005 20.0154 32.9696C20.1653 33.0705 20.3349 33.1183 20.5024 33.1183Z" fill="black"/>
<path d="M20.5024 33.1183C20.7844 33.1183 21.0608 32.9825 21.2296 32.7312C22.7164 30.5164 27.1957 20.2762 29.7335 14.3682C29.924 13.9247 29.719 13.4095 29.2746 13.2189C28.832 13.0301 28.3172 13.2334 28.1253 13.6778C26.1019 18.3886 21.2373 29.5807 19.777 31.7554C19.5074 32.157 19.6142 32.7005 20.0154 32.9696C20.1653 33.0705 20.3349 33.1183 20.5024 33.1183Z" fill="black"/>
<path d="M43.4115 33.1182C43.5153 33.1182 43.6192 33.0994 43.7174 33.0626C47.4678 31.663 51.7373 30.189 52.3897 30.1445C52.8601 30.1121 53.2429 29.7122 53.2271 29.2405C53.2108 28.7688 52.8468 28.3945 52.3751 28.3945C51.369 28.3945 45.9301 30.3727 43.3632 31.3271C41.5244 30.8623 31.1581 28.3407 22.0693 28.4338C21.5861 28.4381 21.1981 28.8337 21.2024 29.3165C21.2067 29.7976 21.5976 30.1838 22.0774 30.1838C22.08 30.1838 22.0825 30.1838 22.0855 30.1838C31.6362 30.0693 43.0753 33.0592 43.1898 33.09C43.2628 33.1088 43.3372 33.1182 43.4115 33.1182Z" fill="black"/>
<path d="M43.4115 33.1182C43.5153 33.1182 43.6192 33.0994 43.7174 33.0626C47.4678 31.663 51.7373 30.189 52.3897 30.1445C52.8601 30.1121 53.2429 29.7122 53.2271 29.2405C53.2108 28.7688 52.8468 28.3945 52.3751 28.3945C51.369 28.3945 45.9301 30.3727 43.3632 31.3271C41.5244 30.8623 31.1581 28.3407 22.0693 28.4338C21.5861 28.4381 21.1981 28.8337 21.2024 29.3165C21.2067 29.7976 21.5976 30.1838 22.0774 30.1838C22.08 30.1838 22.0825 30.1838 22.0855 30.1838C31.6362 30.0693 43.0753 33.0592 43.1898 33.09C43.2628 33.1088 43.3372 33.1182 43.4115 33.1182Z" fill="black"/>
</svg>
