<svg width="51" height="51" viewBox="0 0 51 51" fill="none" xmlns="http://www.w3.org/2000/svg">
<path d="M46.0342 36.5336C44.132 32.8444 42.3353 29.3606 42.3353 24.9627C42.3353 22.7984 43.2375 18.9228 44.9622 13.631C48.0046 11.3158 49.9741 7.65637 49.9741 3.54463V1.76819C49.9741 1.34377 49.6305 1 49.2063 1C48.7821 1 48.4385 1.34377 48.4385 1.76819V3.54463C48.4385 9.67959 43.4496 14.67 37.3186 14.67H13.6814C7.55042 14.6709 2.56154 9.67959 2.56154 3.54463V1.76819C2.56154 1.34377 2.21795 1 1.79373 1C1.36951 1 1.02591 1.34377 1.02591 1.76819V3.54463C1.02591 7.65637 2.99536 11.3149 6.03878 13.63C7.76349 18.9228 8.66567 22.7984 8.66567 24.9627C8.66567 29.3606 6.86898 32.8444 4.96672 36.5336C3.01647 40.315 1 44.2251 1 49.2318C1 49.6562 1.3436 50 1.76781 50C2.19203 50 2.53563 49.6562 2.53563 49.2318C2.53563 47.1846 2.89554 45.3448 3.46564 43.601C10.0545 45.9353 16.937 47.1193 23.9317 47.1193H27.0683C34.063 47.1193 40.9455 45.9353 47.5344 43.601C48.1045 45.3438 48.4644 47.1846 48.4644 49.2318C48.4644 49.6562 48.808 50 49.2322 50C49.6564 50 50 49.6562 50 49.2318C50 44.2251 47.9835 40.315 46.0342 36.5336ZM13.6814 16.2073H37.3186C39.3408 16.2073 41.2527 15.7301 42.9495 14.8822C42.8181 15.3066 42.6923 15.7214 42.5724 16.1247C40.9743 16.9476 39.2468 17.3653 37.4366 17.3653H13.5634C11.7532 17.3653 10.0247 16.9476 8.42765 16.1247C8.30767 15.7214 8.18194 15.3066 8.05046 14.8822C9.74733 15.7291 11.6601 16.2073 13.6814 16.2073ZM27.0683 45.5829H23.9317C17.1164 45.5829 10.4105 44.4306 3.98968 42.1568C4.6548 40.4869 5.48212 38.8824 6.33055 37.2375C8.23377 33.5482 10.2013 29.7332 10.2013 24.9627C10.2013 23.3812 9.78956 21.068 8.97375 18.049C10.4307 18.6088 11.9941 18.9017 13.5634 18.9017H37.4357C39.0049 18.9017 40.5684 18.6088 42.0253 18.049C41.2095 21.068 40.7977 23.3812 40.7977 24.9627C40.7977 29.7332 42.7653 33.5482 44.6675 37.2384C45.516 38.8833 46.3433 40.4888 47.0084 42.1577C40.5895 44.4306 33.8836 45.5829 27.0683 45.5829Z" fill="black" stroke="black" stroke-width="0.4"/>
<path d="M25.4973 35.4999C25.9215 35.4999 26.2651 35.1563 26.2651 34.732V32.6321C26.2651 32.2079 25.9215 31.8643 25.4973 31.8643C25.0731 31.8643 24.7295 32.2079 24.7295 32.6321V34.732C24.7295 35.1563 25.0731 35.4999 25.4973 35.4999Z" fill="black" stroke="black" stroke-width="0.4"/>
<path d="M32.6586 38.88C27.9874 40.3799 23.0619 40.378 18.0173 38.8752C17.6104 38.7533 17.1833 38.9857 17.0624 39.3918C16.9414 39.798 17.1727 40.2263 17.5787 40.3473C20.2498 41.1433 22.891 41.5409 25.4863 41.5409C28.0863 41.5409 30.6402 41.1414 33.1279 40.3425C33.532 40.2129 33.7537 39.7807 33.6241 39.3765C33.4946 38.9732 33.0617 38.7504 32.6586 38.88Z" fill="black" stroke="black" stroke-width="0.4"/>
<path fill-rule="evenodd" clip-rule="evenodd" d="M7.6357 19C8.3161 21.6038 8.66592 23.615 8.66592 24.9627C8.66592 29.3599 6.86984 32.8432 4.96793 36.5318L4.96698 36.5336C4.21833 37.9852 3.45992 39.4557 2.80957 41H4.47897C5.04134 39.7378 5.67986 38.4995 6.33081 37.2375C8.23403 33.5482 10.2016 29.7332 10.2016 24.9627C10.2016 23.5516 9.87373 21.5579 9.22355 19H7.6357Z" fill="#FF3939"/>
</svg>
