<svg width="53" height="60" viewBox="0 0 53 60" fill="none" xmlns="http://www.w3.org/2000/svg">
<g filter="url(#filter0_d_1307_14514)">
<path d="M43.7692 51C43.4267 51 43.1134 50.7705 43.0202 50.4219C42.8194 49.6719 42.51 48.8174 42.183 47.9131C40.722 43.8779 38.7225 38.3525 42.5371 32.1797C42.5517 32.1553 42.5682 32.1328 42.5856 32.1104C45.1119 28.8662 46.4478 24.9717 46.4478 20.8496C46.4468 10.7656 38.2869 2.5625 28.2566 2.5625C21.2871 2.5625 15.7456 4.94922 12.6518 9.2832C10.1129 12.8398 9.41833 17.4199 10.794 21.5342C11.8369 24.6279 10.2788 27.874 8.16878 29.2256C6.55155 30.2598 6.54767 30.7783 6.55349 30.834C6.5923 31.2744 7.93401 31.8252 8.50639 32.0605C9.33974 32.4033 9.89079 32.6299 10.0227 33.1982C10.1411 33.7129 9.97907 34.3018 9.32907 35.7217C9.23497 35.9258 9.49691 36.208 9.98198 36.6279C10.143 36.7676 10.2818 36.8877 10.3953 37.0195C10.5815 37.2412 10.6601 37.5078 10.6213 37.7744C10.5689 38.1348 10.3341 38.3574 10.1217 38.5107C11.9582 39.918 11.9378 41.2617 11.9174 42.5625C11.9164 42.6543 11.9145 42.7471 11.9135 42.8408C11.9087 43.665 11.9271 44.5098 12.1891 44.9697C12.2822 45.1328 12.4995 45.5137 13.6996 45.5361C13.7558 45.5371 13.8141 45.5381 13.8723 45.5381C17.3949 45.5381 23.7629 43.2725 26.3862 40.5303C27.2127 39.666 27.6085 38.834 27.5629 38.0586C27.5377 37.6279 27.8637 37.2578 28.2915 37.2324C28.7193 37.207 29.087 37.5352 29.1123 37.9658C29.185 39.1953 28.6446 40.4229 27.5047 41.6143C26.3842 42.7861 24.7466 43.8477 22.9305 44.7188C24.2198 46.1553 24.7864 47.7822 24.8902 50.1826C24.9086 50.6133 24.5768 50.9785 24.149 50.9971C23.7202 51.0176 23.3583 50.6816 23.3399 50.251C23.2429 48.0186 22.7112 46.6494 21.4122 45.3857C18.6687 46.4902 15.7427 47.1445 13.6685 47.0986C10.34 47.0342 10.3526 44.6035 10.3623 42.8301C10.3632 42.7305 10.3642 42.6338 10.3662 42.5381C10.3846 41.3574 10.3953 40.6445 9.08557 39.6807C8.89251 39.5381 8.30945 39.1064 8.32788 38.4375C8.33856 38.0615 8.52579 37.792 8.73146 37.5996C8.16587 37.082 7.39461 36.2031 7.92139 35.0635C8.24833 34.3496 8.39676 33.9541 8.45982 33.7354C8.30072 33.6621 8.09117 33.5762 7.91945 33.5059C6.74267 33.0225 5.13029 32.3594 5.00708 30.9717C4.88872 29.6348 6.27894 28.5811 7.3364 27.9053C8.90512 26.9004 10.112 24.3691 9.32422 22.0332C7.78945 17.4404 8.56169 12.334 11.3916 8.37012C13.003 6.11328 15.1858 4.33203 17.879 3.0752C20.833 1.69824 24.3246 1 28.2566 1C33.4915 1 38.4353 3.06445 42.1772 6.81152C45.9317 10.5723 48 15.5576 48 20.8486C48 25.3096 46.5593 29.5244 43.8342 33.04C40.4474 38.5518 42.2189 43.4443 43.6421 47.3779C43.9817 48.3154 44.3018 49.2002 44.5201 50.0156C44.6317 50.4326 44.3862 50.8613 43.972 50.9727C43.904 50.9912 43.8361 51 43.7692 51Z" fill="black" stroke="black" stroke-width="0.1"/>
<path d="M14.3342 21.6105C14.3747 21.5644 14.4101 21.5233 14.4506 21.4772C14.5924 21.4618 14.7291 21.4618 14.8709 21.4772C14.9722 21.4874 15.0684 21.5028 15.1696 21.5233C15.2709 21.5438 15.3722 21.5644 15.4684 21.5951C15.6709 21.6515 15.8684 21.7336 16.0608 21.8259C16.8253 22.2207 17.5038 22.8156 18 23.5489C17.5899 22.7592 16.9772 22.0618 16.2177 21.549C16.0304 21.4208 15.8329 21.2823 15.6203 21.1746C15.4025 21.0618 15.1544 20.9951 14.9013 21.0003C14.643 21.0003 14.3899 21.0669 14.1671 21.1951C13.9494 21.3182 13.762 21.5182 13.6861 21.7541C13.8329 21.6567 13.9848 21.5849 14.1418 21.5387C14.0709 21.59 14.0101 21.6515 13.9494 21.7182C13.8684 21.8105 13.7975 21.9131 13.7468 22.0259C13.7063 22.113 13.6709 22.2105 13.6557 22.3079C13.6557 22.3028 13.6506 22.2976 13.6456 22.2925C13.6051 22.231 13.5797 22.1643 13.5544 22.0925C13.5089 21.9489 13.4835 21.8002 13.4987 21.6208H13.4835C13.4127 21.7695 13.3975 21.9489 13.4278 22.1182C13.4582 22.2874 13.5342 22.4464 13.6506 22.5746C13.681 22.6105 13.7165 22.6412 13.7519 22.6771C13.7519 22.6771 13.7519 22.6822 13.7468 22.6874C13.7114 22.6566 13.6709 22.6258 13.6354 22.5899C13.4987 22.4669 13.3772 22.3335 13.2759 22.1746C13.3316 22.3541 13.443 22.5182 13.5747 22.6515C13.5949 22.672 13.6152 22.6925 13.6354 22.713C13.6101 22.713 13.5848 22.7079 13.5595 22.7028C13.5089 22.672 13.4582 22.6361 13.4177 22.6002C13.3722 22.5592 13.3266 22.513 13.2962 22.4669C13.2608 22.4207 13.2253 22.3694 13.2 22.3182C13.1696 22.2669 13.1494 22.2053 13.1291 22.1489C13.1089 22.0874 13.0937 22.0259 13.0785 21.9592C13.0532 21.8259 13.0329 21.6874 13.0076 21.5336H12.9924C12.957 21.672 12.9418 21.8208 12.9468 21.9643C12.9519 22.113 12.9823 22.2566 13.0481 22.39C13.0987 22.4925 13.1747 22.5848 13.2658 22.6566C13.2557 22.6566 13.2405 22.6515 13.2304 22.6464C13.1392 22.6207 13.0532 22.5848 12.9722 22.5335C12.8861 22.4874 12.8051 22.4259 12.7342 22.3643C12.6582 22.3028 12.5873 22.2259 12.5165 22.1489C12.3848 21.99 12.2633 21.8207 12.1823 21.6105H12.1671C12.1924 21.8361 12.2886 22.0413 12.4152 22.2259C12.5418 22.4053 12.7038 22.5643 12.8962 22.6771C12.9924 22.7335 13.0987 22.7746 13.2051 22.7951C13.2911 22.8156 13.3823 22.8207 13.4684 22.8258C13.4785 22.8412 13.4886 22.8515 13.5038 22.8669C13.4734 22.8771 13.443 22.8822 13.4127 22.8874C13.3671 22.8976 13.3215 22.9079 13.2759 22.913C13.2557 22.913 13.2304 22.913 13.2101 22.9181H13.1848H13.1595C13.119 22.9181 13.0785 22.9079 13.0329 22.8976C12.8557 22.8515 12.6734 22.7746 12.4962 22.6822C12.4557 22.6566 12.4101 22.6361 12.3646 22.6105C12.3241 22.5848 12.2785 22.5592 12.238 22.5335C12.157 22.4771 12.0759 22.4156 12.0152 22.3335H12C12.0354 22.4412 12.1114 22.5182 12.1823 22.5899C12.2582 22.6617 12.3392 22.7233 12.4253 22.7848C12.5975 22.8976 12.7848 22.9951 12.9823 23.0566C13.0329 23.072 13.0835 23.0822 13.1342 23.0874C13.1494 23.0874 13.1646 23.0874 13.1797 23.0874C13.2608 23.1233 13.3418 23.1489 13.4329 23.1591C13.5646 23.1797 13.6962 23.1745 13.8278 23.1438C13.8278 23.1438 13.8329 23.1438 13.838 23.1438C13.9797 23.2258 14.1418 23.2771 14.3038 23.3027C14.2785 23.3899 14.2582 23.4771 14.243 23.5694C14.2228 23.6925 14.2127 23.8207 14.2076 23.9489C14.2076 24.0155 14.2076 24.0771 14.2076 24.1386C14.2076 24.2001 14.2177 24.2668 14.2228 24.3283L14.2329 24.4206L14.2481 24.5129C14.2582 24.5745 14.2734 24.636 14.2937 24.7027C14.3291 24.8257 14.3747 24.9488 14.4405 25.0616C14.5063 25.1744 14.5924 25.2821 14.6937 25.359C14.7848 25.4308 14.8861 25.477 14.9924 25.5078C14.962 25.5283 14.9266 25.5539 14.8962 25.5744C14.7949 25.6411 14.6937 25.6975 14.5873 25.7539C14.5924 25.7129 14.6025 25.6719 14.6329 25.6513C14.6633 25.6257 14.7291 25.6103 14.7595 25.6565C14.7595 25.6257 14.7291 25.6052 14.6987 25.5949C14.6684 25.5847 14.6329 25.5898 14.6025 25.6052C14.5418 25.6411 14.5114 25.7078 14.5013 25.7642C14.5013 25.7744 14.5013 25.7898 14.4962 25.8001C14.3848 25.8513 14.2684 25.8975 14.1468 25.9283C14.0506 25.918 13.9544 25.9129 13.8582 25.9283C13.7165 25.9436 13.5696 26 13.4532 26.0975C13.3418 26.2 13.2658 26.3385 13.2253 26.4769C13.1848 26.6154 13.1696 26.759 13.1747 26.9026C13.2152 26.7692 13.2506 26.6308 13.3063 26.5077C13.362 26.3846 13.4278 26.2667 13.5241 26.1847C13.6203 26.0975 13.7418 26.0462 13.8684 26.0154C13.9038 26.0052 13.9443 26 13.9848 25.9949C13.8835 26.0411 13.7873 26.1026 13.7165 26.1898C13.6253 26.2975 13.5747 26.4308 13.5595 26.5692C13.5443 26.7026 13.5646 26.8359 13.6101 26.959C13.6101 26.8256 13.6203 26.7026 13.6456 26.5795C13.6709 26.4616 13.7215 26.3487 13.7975 26.2616C13.8734 26.1693 13.9747 26.1026 14.081 26.0462C14.1418 26.0154 14.2025 25.9898 14.2633 25.9641C14.2684 25.9641 14.2734 25.9641 14.2785 25.9641C14.238 26 14.1975 26.0359 14.162 26.077C14.0911 26.159 14.0304 26.2513 13.9797 26.3539C13.9342 26.4564 13.9038 26.5641 13.8987 26.6769C13.8937 26.7898 13.9139 26.9026 13.9646 27H13.9747C13.9595 26.8769 13.9646 26.7795 13.9848 26.6821C13.9949 26.6359 14.0051 26.5846 14.0253 26.5385C14.0354 26.518 14.0405 26.4923 14.0506 26.4667L14.081 26.4L14.1114 26.3334C14.1215 26.3129 14.1367 26.2872 14.1468 26.2667C14.1722 26.2205 14.1975 26.1795 14.2228 26.1334C14.2532 26.0923 14.2785 26.0462 14.3139 26.0103C14.3342 25.9898 14.3494 25.9693 14.3696 25.9488C14.4051 25.9436 14.4405 25.9334 14.4759 25.9231C14.4709 25.9847 14.4709 26.0462 14.4709 26.1077C14.481 26.3334 14.5316 26.5641 14.643 26.759C14.6278 26.6462 14.6127 26.5385 14.6025 26.4308C14.5924 26.3231 14.5823 26.2154 14.5823 26.1077C14.5823 26.0359 14.5823 25.9693 14.5823 25.8975C14.6835 25.8667 14.7848 25.8257 14.881 25.7795C14.8506 25.8206 14.8253 25.8616 14.8 25.9026C14.7646 25.9744 14.7342 26.0462 14.7139 26.1231C14.6937 26.2 14.6886 26.2821 14.6937 26.359C14.7291 26.2872 14.7595 26.2205 14.7949 26.1488C14.8253 26.0821 14.8608 26.0154 14.8962 25.9488C14.9316 25.8821 14.9671 25.8206 15.0076 25.7539C15.0177 25.7334 15.0329 25.7129 15.043 25.6924C15.043 25.7283 15.043 25.7693 15.0481 25.8052C15.0684 26.0103 15.1342 26.2103 15.2456 26.3795C15.1949 26.1847 15.1595 25.9898 15.1494 25.7949C15.1494 25.7385 15.1494 25.677 15.1494 25.6206C15.2405 25.5642 15.3316 25.5026 15.4228 25.4411C15.438 25.4308 15.4532 25.4155 15.4734 25.4052C15.4937 25.5078 15.5342 25.6103 15.6 25.6924C15.6658 25.7744 15.7519 25.8411 15.8481 25.8718C15.7772 25.8001 15.7165 25.7231 15.6709 25.6411C15.6253 25.559 15.5949 25.4719 15.5797 25.3796C15.5797 25.359 15.5747 25.3437 15.5696 25.3232C15.6557 25.2565 15.7418 25.1847 15.8228 25.1129C15.8532 25.0873 15.8785 25.0668 15.9038 25.0411C15.919 25.0565 15.9443 25.0668 15.9646 25.0668C15.9848 25.0668 16.0101 25.0668 16.0304 25.0514C16.0506 25.0411 16.0658 25.0206 16.0709 24.9898C16.0456 24.9796 16.0253 24.9693 16.0101 24.9642C16 24.9642 15.9949 24.9591 15.9848 24.9591C16.1823 24.7898 16.3797 24.6257 16.5924 24.477C16.8608 24.2822 17.1544 24.1232 17.4633 23.9848C17.1291 24.036 16.8 24.1591 16.5013 24.3335C16.3494 24.4155 16.2076 24.5181 16.0709 24.6155C15.9392 24.7129 15.8177 24.8206 15.6911 24.9232C15.6911 24.9129 15.6861 24.9027 15.6759 24.8975C15.6608 24.8873 15.6456 24.8873 15.6304 24.8924C15.6 24.8924 15.5747 24.9078 15.5544 24.9283C15.5443 24.9386 15.5342 24.9488 15.5241 24.9642L15.5038 25.0001C15.4886 25.0257 15.4835 25.0514 15.4734 25.0719C15.4734 25.0873 15.4633 25.0975 15.4633 25.1129C15.4278 25.1385 15.3975 25.1693 15.362 25.195C15.3418 25.1693 15.3215 25.1488 15.2911 25.1334C15.2911 25.1334 15.2861 25.1334 15.281 25.1334C15.3266 24.9898 15.3519 24.8463 15.3722 24.6975C15.3924 24.5283 15.4025 24.354 15.3975 24.1796C15.3975 24.0155 15.3772 23.8514 15.3468 23.6873C15.4278 23.6976 15.5139 23.6873 15.5949 23.6668C15.6962 23.6361 15.7924 23.5796 15.8633 23.4976C15.8835 23.472 15.9038 23.4463 15.919 23.4155C16.0405 23.4617 16.157 23.513 16.2785 23.5591C16.243 23.6002 16.2076 23.6412 16.1772 23.6822C16.1468 23.7232 16.1165 23.7643 16.0861 23.8104C16.0557 23.8566 16.0203 23.9078 15.9747 23.9848V24.0001C16.1114 23.9694 16.2228 23.8873 16.3089 23.7848C16.3494 23.7284 16.3848 23.6719 16.4051 23.6053C16.4759 23.6309 16.5519 23.6617 16.6228 23.6873C16.6278 23.6873 16.6329 23.6873 16.638 23.6925C16.6127 23.7078 16.5924 23.7181 16.5671 23.7335C16.5165 23.7643 16.4709 23.8053 16.4253 23.8514C16.3797 23.8976 16.3392 23.9489 16.2937 24.0258V24.0412C16.4253 24.0053 16.5418 23.9437 16.6532 23.8719C16.7038 23.836 16.7544 23.795 16.8051 23.754C16.9013 23.7899 17.0025 23.8207 17.0987 23.8566C17.0785 23.8771 17.0532 23.8924 17.0278 23.9181C17.0684 23.9335 17.1139 23.9283 17.1544 23.9181C17.1747 23.913 17.1949 23.9027 17.2101 23.8924C17.3013 23.9232 17.3924 23.9489 17.4886 23.9745C17.4177 23.9283 17.3468 23.8873 17.2759 23.8463C17.3063 23.8207 17.3266 23.7848 17.3418 23.7489C17.3418 23.7489 17.3418 23.7386 17.3468 23.7335C17.5342 23.8053 17.7266 23.8719 17.919 23.9335C17.5899 23.7335 17.2557 23.5489 16.9114 23.3797C16.5671 23.2104 16.2177 23.0566 15.8582 22.9181C15.6759 22.8515 15.4987 22.7899 15.3114 22.7284C15.2203 22.7028 15.1291 22.672 15.0329 22.6515C14.9418 22.6258 14.8405 22.6053 14.7443 22.5899C14.5519 22.5592 14.3595 22.5438 14.162 22.5438C14.162 22.5438 14.157 22.5438 14.1519 22.5438C14.1468 22.5387 14.1367 22.5284 14.1316 22.5233C14.0203 22.4105 13.9291 22.272 13.8835 22.0874H13.8684L14.0759 21.8515L14.2987 21.6002L14.3342 21.6105ZM15.6 25.0052C15.6 24.995 15.6051 24.9898 15.6101 24.9796C15.6203 24.9642 15.6354 24.9437 15.6557 24.9334C15.6709 24.9232 15.6911 24.9232 15.7013 24.9334C15.7013 24.9334 15.6911 24.9386 15.6861 24.9437C15.6557 24.9745 15.6203 25.0001 15.5899 25.0309V25.0001L15.6 25.0052ZM13.5038 22.831C13.5089 22.831 13.5139 22.831 13.519 22.831C13.5291 22.8361 13.5392 22.8463 13.5544 22.8515C13.5544 22.8515 13.5494 22.8515 13.5443 22.8515C13.5291 22.8412 13.5139 22.8361 13.5038 22.8258V22.831ZM13.519 23.0207C13.5443 23.0104 13.5747 23.0002 13.6 22.9899C13.6051 22.9899 13.6152 22.9848 13.6203 22.9797C13.6304 22.9899 13.6405 22.9951 13.6506 23.0053C13.6101 23.0104 13.5646 23.0156 13.5241 23.0207H13.519ZM15.3013 25.195C15.3215 25.2001 15.3468 25.2103 15.3671 25.2257C15.3063 25.277 15.2405 25.3283 15.1747 25.3744C15.1797 25.3232 15.1899 25.2719 15.2 25.2257C15.2253 25.2052 15.2506 25.195 15.2759 25.195C15.2759 25.2052 15.2759 25.2103 15.2759 25.2206C15.2759 25.2103 15.281 25.2052 15.2861 25.195C15.2861 25.195 15.2911 25.195 15.2962 25.195H15.3013ZM15.2253 25.1437C15.1949 25.1488 15.1696 25.1642 15.1443 25.1744H15.1342C15.1342 25.1796 15.1291 25.195 15.1291 25.195C15.0987 25.2821 15.0785 25.3693 15.0633 25.4616C15.0481 25.4719 15.0329 25.4821 15.0177 25.4924C14.9266 25.4257 14.8456 25.359 14.7797 25.277C14.7038 25.1898 14.6481 25.0873 14.6076 24.9796C14.5215 24.7642 14.481 24.5283 14.4557 24.2924L14.4456 24.2053V24.1181C14.4304 24.0565 14.4253 24.0001 14.4253 23.9386C14.4253 23.8155 14.4203 23.6976 14.4253 23.5796C14.4253 23.4873 14.4304 23.4002 14.4405 23.313C14.4709 23.313 14.5013 23.313 14.5316 23.313C14.6532 23.3591 14.7848 23.3899 14.9165 23.4002C15.0127 23.4053 15.1139 23.4002 15.2101 23.3899C15.2101 23.4514 15.2101 23.513 15.2101 23.5745C15.1544 23.5745 15.0987 23.5745 15.0329 23.5745L15.0228 23.5899C15.0835 23.6258 15.1443 23.6514 15.2051 23.6719C15.2051 23.6822 15.2051 23.6925 15.2051 23.7027C15.2051 23.8719 15.2051 24.0412 15.2051 24.2104C15.2051 24.3796 15.2152 24.5488 15.2253 24.7181C15.2354 24.8616 15.2456 25.0052 15.2709 25.1488C15.2557 25.1488 15.2405 25.1488 15.2253 25.1488V25.1437ZM15.7924 23.4309C15.7266 23.4771 15.6557 23.5027 15.5797 23.5284C15.5089 23.5489 15.4278 23.5591 15.3468 23.5643C15.3316 23.4976 15.3114 23.4361 15.2911 23.3745C15.3924 23.354 15.4987 23.3284 15.5949 23.2925C15.6608 23.3181 15.7266 23.3489 15.7975 23.3745C15.8127 23.3797 15.8329 23.3899 15.8481 23.395C15.8329 23.4104 15.8177 23.4207 15.7975 23.4309H15.7924ZM16.8759 23.554C17.0177 23.6104 17.1595 23.6617 17.3013 23.7181L17.2253 23.7848L17.2051 23.8001C17.119 23.7489 17.0278 23.7027 16.9418 23.6566C16.9519 23.6463 16.962 23.6309 16.9722 23.6207L16.962 23.6104C16.9316 23.6104 16.9013 23.6207 16.8759 23.6258C16.8203 23.6002 16.7646 23.5694 16.7089 23.5437C16.4506 23.4155 16.1873 23.2976 15.919 23.1848H15.9342C16.0709 23.2361 16.2025 23.2873 16.3342 23.3438L16.8658 23.554H16.8759ZM14.0304 22.5694C13.9899 22.5694 13.9443 22.5797 13.9038 22.5899C13.9038 22.5899 13.8987 22.5899 13.8937 22.5899C13.8481 22.5489 13.8076 22.5079 13.7671 22.4617C13.7316 22.4259 13.7013 22.3848 13.6759 22.3438C13.7519 22.2669 13.8177 22.19 13.8835 22.1182L13.8987 22.1028C13.8835 22.2669 13.9392 22.4361 14.0304 22.5694Z" fill="black" stroke="black" stroke-width="0.4"/>
<path d="M15.1279 19.0248C14.9524 19.1139 11.8777 20.8642 11.2658 21.1562C11.8828 20.884 15.0226 19.505 15.0978 19.4851C15.4038 19.401 15.7248 19.3911 16.0458 19.4356C16.3417 19.4752 18.7527 20.6337 19.5 21L19 20.6436C19 20.6436 18.99 20.6337 18.985 20.6287C18.985 20.6287 18.995 20.6386 19 20.6386L19.5 20.9901C19.0887 20.6139 16.0558 18.0495 15.9103 18H15.9003H15.8853C14.6364 18.0347 11.5016 19.5099 11.3661 19.5743C11.3009 19.6089 11.2307 19.6485 11.1705 19.698C11.1505 19.7129 11.2859 19.8564 11.2658 19.8812C11.2658 19.8812 11.01 19.9951 11.1354 19.7723C11.0803 19.8267 11.0301 19.896 11.01 19.9951C11 20.0446 11 20.0792 11 20.1188C11 20.1584 11.005 20.198 11.015 20.2376C11.0451 20.3911 11.1103 20.5198 11.1755 20.6436C11.2408 20.7673 11.316 20.8861 11.4063 21L11.4364 20.9901C11.4163 20.8465 12.5798 20.6881 12.5397 20.5545C12.4996 20.4208 12.0251 20.8608 12 20.742C11.995 20.7123 13.3081 20.0594 13.3081 20.0297L11.2157 20.0693C11.5576 19.4851 11.2107 20.0396 11.2107 20.0297C11.2107 19.9851 11.2357 19.9307 11.2658 19.8812C11.7031 20.1188 16.3475 19.0347 16.3575 19.0248C16.6283 18.9059 14.9172 18.3267 15.7599 18.4208C15.8502 18.4455 17.5103 19.5644 18.4332 20.2228C17.5956 19.6733 16.1712 18.8861 15.9505 18.8515C15.6194 18.7921 15.4138 18.9208 15.1379 19.0396L15.1279 19.0248Z" fill="black"/>
<path d="M11.2658 19.8812C11.2859 19.8564 11.1505 19.7129 11.1705 19.698C11.2307 19.6485 11.3009 19.6089 11.3661 19.5743C11.5016 19.5099 14.6364 18.0347 15.8853 18H15.9003H15.9103C16.0558 18.0495 19.0887 20.6139 19.5 20.9901L19 20.6386C18.995 20.6386 18.985 20.6287 18.985 20.6287C18.99 20.6337 19 20.6436 19 20.6436L19.5 21C18.7527 20.6337 16.3417 19.4752 16.0458 19.4356C15.7248 19.3911 15.4038 19.401 15.0978 19.4851C15.0226 19.505 11.8828 20.884 11.2658 21.1562C11.8777 20.8642 14.9524 19.1139 15.1279 19.0248L15.1379 19.0396C15.4138 18.9208 15.6194 18.7921 15.9505 18.8515C16.1712 18.8861 17.5956 19.6733 18.4332 20.2228C17.5103 19.5644 15.8502 18.4455 15.7599 18.4208C14.9172 18.3267 16.6283 18.9059 16.3575 19.0248C16.3475 19.0347 11.7031 20.1188 11.2658 19.8812ZM11.2658 19.8812C11.2658 19.8812 11.01 19.9951 11.1354 19.7723C11.0803 19.8267 11.0301 19.896 11.01 19.9951C11 20.0446 11 20.0792 11 20.1188C11 20.1584 11.005 20.198 11.015 20.2376C11.0451 20.3911 11.1103 20.5198 11.1755 20.6436C11.2408 20.7673 11.316 20.8861 11.4063 21L11.4364 20.9901C11.4163 20.8465 12.5798 20.6881 12.5397 20.5545C12.4996 20.4208 12.0251 20.8608 12 20.742C11.995 20.7123 13.3081 20.0594 13.3081 20.0297L11.2157 20.0693C11.5576 19.4851 11.2107 20.0396 11.2107 20.0297C11.2107 19.9851 11.2357 19.9307 11.2658 19.8812Z" stroke="black" stroke-width="0.4"/>
<circle cx="20" cy="24" r="2" fill="#FF3939"/>
<circle cx="20" cy="24" r="2" fill="#FF3939"/>
<circle cx="20" cy="24" r="2" fill="#FF3939"/>
<circle cx="20" cy="24" r="2" fill="#FF3939"/>
</g>
<defs>
<filter id="filter0_d_1307_14514" x="0.949219" y="0.949219" width="51.1016" height="58.1016" filterUnits="userSpaceOnUse" color-interpolation-filters="sRGB">
<feFlood flood-opacity="0" result="BackgroundImageFix"/>
<feColorMatrix in="SourceAlpha" type="matrix" values="0 0 0 0 0 0 0 0 0 0 0 0 0 0 0 0 0 0 127 0" result="hardAlpha"/>
<feOffset dy="4"/>
<feGaussianBlur stdDeviation="2"/>
<feComposite in2="hardAlpha" operator="out"/>
<feColorMatrix type="matrix" values="0 0 0 0 0 0 0 0 0 0 0 0 0 0 0 0 0 0 0.25 0"/>
<feBlend mode="normal" in2="BackgroundImageFix" result="effect1_dropShadow_1307_14514"/>
<feBlend mode="normal" in="SourceGraphic" in2="effect1_dropShadow_1307_14514" result="shape"/>
</filter>
</defs>
</svg>
