<svg width="27" height="18" viewBox="0 0 27 18" fill="none" xmlns="http://www.w3.org/2000/svg">
<g clip-path="url(#clip0_1843_456)">
<path fill-rule="evenodd" clip-rule="evenodd" d="M18.7409 2.64062C20.5949 3.80197 21.5425 6.10005 20.8889 8.31386C20.1082 10.9725 17.3019 12.4917 14.6433 11.6899C11.9847 10.9092 10.4655 8.10286 11.2673 5.44427C11.6004 4.32017 12.3031 3.3809 13.1932 2.7683C12.8747 2.78639 12.5562 2.80626 12.2377 2.82785C11.5414 3.50305 11.0139 4.32595 10.7185 5.31764C9.85343 8.27163 11.5414 11.3733 14.4954 12.2595C17.4494 13.1246 20.5511 11.4366 21.4373 8.48263C22.0914 6.30934 21.3318 4.05165 19.7282 2.65905C19.3988 2.65074 19.0697 2.64462 18.7409 2.64062Z" fill="black"/>
<path d="M25.5303 6.39376C25.0873 5.57087 24.5598 4.76907 24.3488 4.47367C22.8085 2.44808 20.6985 2.06828 18.3353 1.83618C14.6217 1.47748 10.7393 1.87838 7.1945 3.10218C6.41381 3.37647 5.65421 3.67187 4.91571 4.03057C4.17721 4.36817 3.41762 4.74797 2.80572 5.29657C2.59472 5.46537 2.38372 5.63417 2.19382 5.80297C2.10942 5.86627 2.04612 5.95067 1.98282 6.01397C1.94062 6.05617 1.98282 6.11947 2.02502 6.11947C2.02502 6.11947 2.06722 6.11947 2.08832 6.11947C2.25712 5.99287 2.42592 5.86627 2.61582 5.76077C2.61582 5.76077 2.61582 5.76077 2.61582 5.78187C2.61582 5.78187 2.61582 5.82407 2.61582 5.84517C2.38372 6.28827 2.04612 6.66806 1.70852 7.04786C1.22322 7.57536 0.695724 8.06066 0.147125 8.50376C0.104925 8.52486 0.0838261 8.56706 0.041626 8.58816C0.147125 8.54596 0.252625 8.48266 0.358126 8.44046C0.885624 8.14506 1.41312 7.84966 1.94062 7.53316C2.48922 7.21666 3.01672 6.87906 3.56532 6.52036C4.64141 7.59646 5.65421 8.71476 6.8147 9.70646C9.621 12.0907 13.0181 13.9475 16.7528 14.053C18.4408 14.0952 20.1288 13.6943 21.6269 12.9558C23.0617 12.2595 23.9479 11.2467 25.1295 10.2551C22.7241 12.2806 19.5591 13.3989 16.4152 13.3356C12.8704 13.2723 9.7476 11.7109 7.1101 9.41106C6.54041 8.92576 5.99181 8.39826 5.50651 7.82856C5.40101 7.70196 4.15611 6.11947 4.21941 6.09837C4.47261 5.99287 4.72581 5.88737 4.97901 5.80297C7.4899 4.66357 10.1274 3.71407 12.8493 3.39757C14.3263 3.22877 15.8244 3.24987 17.3014 3.39757C18.8628 3.54527 20.2765 3.71407 21.7957 4.09387C22.7452 4.32597 23.5681 5.21217 24.1589 5.97177C24.4965 6.41486 24.7919 6.90016 25.0662 7.40656C25.1295 7.51206 25.256 7.84966 25.4037 8.10286C25.4459 8.20836 25.4881 8.31386 25.5303 8.41936C25.5303 8.44046 25.5514 8.48266 25.5725 8.52486C25.5725 8.58816 25.5725 8.65146 25.5936 8.71476C25.6147 8.84136 25.7202 8.92576 25.8468 8.90466C25.9945 8.77806 26.1 8.65146 26.1844 8.46156C26.3321 8.10286 25.9945 7.25886 25.5725 6.43597L25.5303 6.39376Z" fill="black"/>
<path d="M15.4444 7.36362C15.6554 7.21592 15.8875 7.06822 16.0985 6.89942C16.0352 6.32972 15.993 5.78112 15.9297 5.21142C15.8875 4.66283 15.8242 4.11423 15.7609 3.56563C15.7609 3.54453 15.8031 3.54453 15.8031 3.56563C15.9086 4.66283 16.0352 5.73892 16.1829 6.83612C16.7526 6.43522 17.3223 6.03432 17.892 5.63342C18.3562 5.31692 18.8204 4.95823 19.2846 4.68393C19.3057 4.68393 19.3268 4.68393 19.3057 4.72613C18.9259 5.04263 18.5039 5.33802 18.0819 5.63342C17.681 5.92882 17.2801 6.22422 16.8792 6.49852C16.6471 6.66732 16.415 6.83612 16.1829 6.98382C16.2673 7.78562 16.3728 8.56632 16.4572 9.36811L16.6471 10.9928C16.6471 11.1194 16.4994 11.1405 16.4783 10.9928C16.3517 9.68461 16.2251 8.35532 16.0985 7.04712C15.5499 7.44802 15.0013 7.84892 14.4316 8.24982C13.9674 8.58741 13.5032 8.90391 13.0601 9.24151C12.9546 9.32591 12.828 9.15711 12.9546 9.07271C13.7986 8.50302 14.6215 7.93332 15.4444 7.34252V7.36362Z" fill="black"/>
<path d="M14.9383 5.92847C14.3897 5.59087 13.8411 5.23217 13.2925 4.89457C13.2292 4.85237 13.2925 4.74687 13.3558 4.78907C13.9044 5.12667 14.453 5.46427 15.0016 5.82297C15.086 5.86517 15.0016 5.99177 14.9383 5.94957V5.92847Z" fill="black"/>
<path d="M16.668 7.93282C17.0267 8.77681 17.3854 9.59971 17.7441 10.4437C17.7441 10.4859 17.7019 10.5281 17.6808 10.4859C17.301 9.66301 16.9212 8.84012 16.5414 8.01722C16.4992 7.93282 16.6258 7.86952 16.668 7.95392V7.93282Z" fill="black"/>
<path d="M17.1324 7.65882C17.9131 8.35512 18.6938 9.05142 19.5167 9.70551C19.5589 9.72661 19.5167 9.81101 19.4745 9.76881C18.6516 9.11472 17.8287 8.46062 17.0269 7.76432C16.9636 7.70102 17.0691 7.61662 17.1324 7.65882Z" fill="black"/>
<path d="M19.559 8.03839C18.8205 7.78519 18.082 7.51089 17.3435 7.25769C17.2802 7.23659 17.3013 7.13109 17.3646 7.15219C18.1031 7.42649 18.8205 7.70079 19.559 7.97509C19.6012 7.97509 19.5801 8.05949 19.5379 8.05949L19.559 8.03839Z" fill="black"/>
<path d="M19.5162 7.19419L17.8282 7.13089C17.7649 7.13089 17.7649 7.02539 17.8282 7.02539C18.3979 7.06759 18.9465 7.08869 19.5162 7.13089C19.5584 7.13089 19.5584 7.19419 19.5162 7.19419Z" fill="black"/>
<path d="M19.7909 5.99163C18.968 6.22373 18.1451 6.49802 17.3433 6.79342C17.2589 6.83562 17.2167 6.68792 17.3011 6.64572C18.124 6.37143 18.9469 6.11823 19.7698 5.90723C19.8331 5.90723 19.8542 5.97053 19.7909 5.99163Z" fill="black"/>
<path d="M17.4276 5.50695C17.3854 5.54915 17.3221 5.48585 17.3643 5.44365C17.5753 5.21155 17.7863 5.00056 17.9973 4.76846C18.0184 4.72626 18.0817 4.76846 18.0395 4.81066C17.8285 5.04276 17.6386 5.27485 17.4276 5.50695Z" fill="black"/>
<path d="M16.8579 5.44286L17.5964 3.64936C17.5964 3.60716 17.6808 3.62826 17.6597 3.64936L16.9634 5.46396C16.9423 5.52726 16.8368 5.48506 16.8579 5.44286Z" fill="black"/>
<path d="M16.5415 5.61205C16.7947 4.74695 17.0268 3.86076 17.28 2.99566C17.28 2.95346 17.3644 2.97456 17.3433 3.01676C17.1112 3.88186 16.8791 4.76805 16.647 5.63315C16.647 5.69645 16.5204 5.67535 16.5415 5.59095V5.61205Z" fill="black"/>
<path d="M15.4228 5.29606C14.832 4.64196 14.2201 4.00896 13.6082 3.35487C13.5449 3.29157 13.6504 3.20717 13.6926 3.27047C14.2834 3.92456 14.8742 4.57866 15.4861 5.23276C15.5283 5.27496 15.465 5.33826 15.4228 5.29606Z" fill="black"/>
<path d="M15.0858 5.54898C14.5794 5.16918 14.0941 4.78938 13.6088 4.36739C13.5666 4.32519 13.6088 4.24079 13.6721 4.28299C14.1574 4.68388 14.6427 5.08478 15.128 5.48568C15.1702 5.50678 15.128 5.57008 15.0858 5.54898Z" fill="black"/>
<path d="M12.0679 5.9502C12.6165 6.14009 13.1862 6.30889 13.7348 6.49879C13.777 6.49879 13.7559 6.58319 13.7137 6.58319C13.144 6.41439 12.5954 6.24559 12.0257 6.07679C11.9624 6.07679 11.9835 5.95019 12.0679 5.97129V5.9502Z" fill="black"/>
<path d="M12.5956 7.48953C13.1653 7.38403 13.735 7.29963 14.3047 7.23633C14.368 7.23633 14.3891 7.32073 14.3047 7.32073C13.735 7.40513 13.1653 7.48953 12.5956 7.61613C12.5323 7.61613 12.4901 7.51063 12.5745 7.51063L12.5956 7.48953Z" fill="black"/>
<path d="M15.4865 8.94565C15.3388 9.30435 15.2122 9.64195 15.0645 10.0007C15.0434 10.064 14.9168 10.0429 14.9379 9.95845C15.0856 9.59975 15.2333 9.26215 15.381 8.90345C15.4021 8.84015 15.5076 8.86125 15.4865 8.92455V8.94565Z" fill="black"/>
<path d="M15.8662 8.69278L15.7185 9.83218C15.7185 9.87438 15.6552 9.87438 15.6552 9.83218L15.8029 8.69278C15.8029 8.65058 15.8662 8.65058 15.8662 8.69278Z" fill="black"/>
<path d="M15.8238 7.61617C15.8871 7.55287 15.9504 7.63727 15.9082 7.70057C15.1697 8.54457 14.4945 9.43076 13.8826 10.3592C13.8826 10.3803 13.8193 10.3592 13.8404 10.3381C14.4101 9.36746 15.0642 8.43907 15.8238 7.61617Z" fill="black"/>
<path d="M15.233 7.80663C15.2963 7.74333 15.3807 7.84883 15.3174 7.91213C14.8532 8.41853 14.3679 8.92492 13.8826 9.43132C13.8404 9.47352 13.756 9.41022 13.8193 9.34692C14.2835 8.84052 14.7477 8.31303 15.233 7.80663Z" fill="black"/>
<path d="M17.5755 7.6374C18.0397 7.9539 18.525 8.2493 19.0103 8.5447C19.0736 8.5658 19.0103 8.6502 18.9681 8.6291C18.4617 8.3759 17.9764 8.0805 17.5122 7.764C17.4278 7.7218 17.5122 7.5952 17.5755 7.6374Z" fill="black"/>
<path d="M12.1743 5.16871C12.765 5.37971 13.3558 5.63291 13.9466 5.88611C14.5374 6.1393 15.1071 6.3925 15.6979 6.6668C15.8034 6.709 15.6979 6.8567 15.6135 6.8145C15.0438 6.5402 14.4741 6.287 13.8833 6.01271C13.3136 5.75951 12.7228 5.52741 12.1532 5.27421C12.0899 5.25311 12.111 5.12651 12.1954 5.16871H12.1743Z" fill="black"/>
<path d="M16.2887 5.08461C16.3731 4.38831 16.4786 3.69201 16.563 2.99572C16.563 2.93242 16.6896 2.93242 16.6685 2.99572C16.5841 3.69201 16.4997 4.38831 16.4153 5.08461C16.4153 5.16901 16.2676 5.16901 16.2676 5.08461H16.2887Z" fill="black"/>
<path d="M13.6719 6.18185C13.271 7.51114 14.0306 8.90374 15.3599 9.30464C16.6892 9.70554 18.0818 8.94594 18.4827 7.61664C18.8836 6.28735 18.124 4.89475 16.7947 4.49385C15.4654 4.09295 14.0728 4.85255 13.6719 6.18185Z" fill="black"/>
</g>
<path d="M5.16406 14C12.6641 16 14.6631 15.6429 19.1631 15C22.6631 14.5 25.0777 13 25.664 13C26.559 13 27.1642 13.5 26.1642 15C25.1642 16.5 22.6631 17.5 18.1631 17.5C7.66313 17.5 4.16406 13.7333 5.16406 14Z" fill="#FF3939"/>
<defs>
<clipPath id="clip0_1843_456">
<rect width="26.185" height="15.4663" fill="white" transform="matrix(-1 0 0 1 26.1846 0)"/>
</clipPath>
</defs>
</svg>
