<svg width="28" height="24" viewBox="0 0 28 24" fill="none" xmlns="http://www.w3.org/2000/svg">
<g clip-path="url(#clip0_1843_524)">
<path fill-rule="evenodd" clip-rule="evenodd" d="M20.3952 2.64062C22.2492 3.80197 23.1968 6.10005 22.5432 8.31386C21.7625 10.9725 18.9562 12.4917 16.2976 11.6899C13.639 10.9092 12.1198 8.10286 12.9216 5.44427C13.2547 4.32017 13.9574 3.3809 14.8475 2.7683C14.529 2.78639 14.2105 2.80626 13.892 2.82785C13.1957 3.50305 12.6682 4.32595 12.3728 5.31764C11.5077 8.27163 13.1957 11.3733 16.1497 12.2595C19.1037 13.1246 22.2054 11.4366 23.0916 8.48263C23.7457 6.30934 22.9861 4.05165 21.3825 2.65905C21.0531 2.65074 20.724 2.64462 20.3952 2.64062Z" fill="black"/>
<path d="M27.1846 6.39376C26.7415 5.57087 26.214 4.76907 26.003 4.47367C24.4628 2.44808 22.3528 2.06828 19.9896 1.83618C16.276 1.47748 12.3936 1.87838 8.8488 3.10218C8.0681 3.37647 7.30851 3.67187 6.57001 4.03057C5.83151 4.36817 5.07191 4.74797 4.46001 5.29657C4.24901 5.46537 4.03802 5.63417 3.84812 5.80297C3.76372 5.86627 3.70042 5.95067 3.63712 6.01397C3.59492 6.05617 3.63712 6.11947 3.67932 6.11947C3.67932 6.11947 3.72152 6.11947 3.74262 6.11947C3.91142 5.99287 4.08022 5.86627 4.27011 5.76077C4.27011 5.76077 4.27011 5.76077 4.27011 5.78187C4.27011 5.78187 4.27011 5.82407 4.27011 5.84517C4.03802 6.28827 3.70042 6.66806 3.36282 7.04786C2.87752 7.57536 2.35002 8.06066 1.80142 8.50376C1.75922 8.52486 1.73812 8.56706 1.69592 8.58816C1.80142 8.54596 1.90692 8.48266 2.01242 8.44046C2.53992 8.14506 3.06742 7.84966 3.59492 7.53316C4.14351 7.21666 4.67101 6.87906 5.21961 6.52036C6.29571 7.59646 7.30851 8.71476 8.469 9.70646C11.2753 12.0907 14.6724 13.9475 18.4071 14.053C20.0951 14.0952 21.7831 13.6943 23.2812 12.9558C24.716 12.2595 25.6022 11.2467 26.7837 10.2551C24.3784 12.2806 21.2134 13.3989 18.0695 13.3356C14.5247 13.2723 11.4019 11.7109 8.7644 9.41106C8.1947 8.92576 7.6461 8.39826 7.16081 7.82856C7.05531 7.70196 5.81041 6.11947 5.87371 6.09837C6.12691 5.99287 6.38011 5.88737 6.63331 5.80297C9.1442 4.66357 11.7817 3.71407 14.5036 3.39757C15.9806 3.22877 17.4787 3.24987 18.9557 3.39757C20.5171 3.54527 21.9308 3.71407 23.45 4.09387C24.3995 4.32597 25.2224 5.21217 25.8131 5.97177C26.1507 6.41486 26.4461 6.90016 26.7204 7.40656C26.7837 7.51206 26.9103 7.84966 27.058 8.10286C27.1002 8.20836 27.1424 8.31386 27.1846 8.41936C27.1846 8.44046 27.2057 8.48266 27.2268 8.52486C27.2268 8.58816 27.2268 8.65146 27.2479 8.71476C27.269 8.84136 27.3745 8.92576 27.5011 8.90466C27.6488 8.77806 27.7543 8.65146 27.8387 8.46156C27.9864 8.10286 27.6488 7.25886 27.2268 6.43597L27.1846 6.39376Z" fill="black"/>
<path d="M17.0987 7.36362C17.3097 7.21592 17.5418 7.06822 17.7528 6.89942C17.6895 6.32972 17.6473 5.78112 17.584 5.21142C17.5418 4.66283 17.4785 4.11423 17.4152 3.56563C17.4152 3.54453 17.4574 3.54453 17.4574 3.56563C17.5629 4.66283 17.6895 5.73892 17.8372 6.83612C18.4069 6.43522 18.9766 6.03432 19.5463 5.63342C20.0105 5.31692 20.4747 4.95823 20.9389 4.68393C20.96 4.68393 20.9811 4.68393 20.96 4.72613C20.5802 5.04263 20.1582 5.33802 19.7362 5.63342C19.3353 5.92882 18.9344 6.22422 18.5335 6.49852C18.3014 6.66732 18.0693 6.83612 17.8372 6.98382C17.9216 7.78562 18.0271 8.56632 18.1115 9.36811L18.3014 10.9928C18.3014 11.1194 18.1537 11.1405 18.1326 10.9928C18.006 9.68461 17.8794 8.35532 17.7528 7.04712C17.2042 7.44802 16.6556 7.84892 16.0859 8.24982C15.6217 8.58741 15.1575 8.90391 14.7144 9.24151C14.6089 9.32591 14.4823 9.15711 14.6089 9.07271C15.4529 8.50302 16.2758 7.93332 17.0987 7.34252V7.36362Z" fill="black"/>
<path d="M16.5926 5.92847C16.044 5.59087 15.4954 5.23217 14.9468 4.89457C14.8835 4.85237 14.9468 4.74687 15.0101 4.78907C15.5587 5.12667 16.1073 5.46427 16.6559 5.82297C16.7403 5.86517 16.6559 5.99177 16.5926 5.94957V5.92847Z" fill="black"/>
<path d="M18.3223 7.93282C18.681 8.77681 19.0397 9.59971 19.3984 10.4437C19.3984 10.4859 19.3562 10.5281 19.3351 10.4859C18.9553 9.66301 18.5755 8.84012 18.1957 8.01722C18.1535 7.93282 18.2801 7.86952 18.3223 7.95392V7.93282Z" fill="black"/>
<path d="M18.7867 7.65882C19.5674 8.35512 20.3481 9.05142 21.171 9.70551C21.2132 9.72661 21.171 9.81101 21.1288 9.76881C20.3059 9.11472 19.483 8.46062 18.6812 7.76432C18.6179 7.70102 18.7234 7.61662 18.7867 7.65882Z" fill="black"/>
<path d="M21.2133 8.03839C20.4748 7.78519 19.7363 7.51089 18.9978 7.25769C18.9345 7.23659 18.9556 7.13109 19.0189 7.15219C19.7574 7.42649 20.4748 7.70079 21.2133 7.97509C21.2555 7.97509 21.2344 8.05949 21.1922 8.05949L21.2133 8.03839Z" fill="black"/>
<path d="M21.1705 7.19419L19.4825 7.13089C19.4192 7.13089 19.4192 7.02539 19.4825 7.02539C20.0522 7.06759 20.6008 7.08869 21.1705 7.13089C21.2127 7.13089 21.2127 7.19419 21.1705 7.19419Z" fill="black"/>
<path d="M21.4452 5.99163C20.6223 6.22373 19.7994 6.49802 18.9976 6.79342C18.9132 6.83562 18.871 6.68792 18.9554 6.64572C19.7783 6.37143 20.6012 6.11823 21.4241 5.90723C21.4874 5.90723 21.5085 5.97053 21.4452 5.99163Z" fill="black"/>
<path d="M19.0819 5.50695C19.0397 5.54915 18.9764 5.48585 19.0186 5.44365C19.2296 5.21155 19.4406 5.00056 19.6516 4.76846C19.6727 4.72626 19.736 4.76846 19.6938 4.81066C19.4828 5.04276 19.2929 5.27485 19.0819 5.50695Z" fill="black"/>
<path d="M18.5122 5.44286L19.2507 3.64936C19.2507 3.60716 19.3351 3.62826 19.314 3.64936L18.6177 5.46396C18.5966 5.52726 18.4911 5.48506 18.5122 5.44286Z" fill="black"/>
<path d="M18.1958 5.61205C18.449 4.74695 18.6811 3.86076 18.9343 2.99566C18.9343 2.95346 19.0187 2.97456 18.9976 3.01676C18.7655 3.88186 18.5334 4.76805 18.3013 5.63315C18.3013 5.69645 18.1747 5.67535 18.1958 5.59095V5.61205Z" fill="black"/>
<path d="M17.0771 5.29606C16.4863 4.64196 15.8744 4.00896 15.2625 3.35487C15.1992 3.29157 15.3047 3.20717 15.3469 3.27047C15.9377 3.92456 16.5285 4.57866 17.1404 5.23276C17.1826 5.27496 17.1193 5.33826 17.0771 5.29606Z" fill="black"/>
<path d="M16.7401 5.54898C16.2337 5.16918 15.7484 4.78938 15.2631 4.36739C15.2209 4.32519 15.2631 4.24079 15.3264 4.28299C15.8117 4.68388 16.297 5.08478 16.7823 5.48568C16.8245 5.50678 16.7823 5.57008 16.7401 5.54898Z" fill="black"/>
<path d="M13.7222 5.9502C14.2708 6.14009 14.8405 6.30889 15.3891 6.49879C15.4313 6.49879 15.4102 6.58319 15.368 6.58319C14.7983 6.41439 14.2497 6.24559 13.68 6.07679C13.6167 6.07679 13.6378 5.95019 13.7222 5.97129V5.9502Z" fill="black"/>
<path d="M14.2499 7.48953C14.8196 7.38403 15.3893 7.29963 15.959 7.23633C16.0223 7.23633 16.0434 7.32073 15.959 7.32073C15.3893 7.40513 14.8196 7.48953 14.2499 7.61613C14.1866 7.61613 14.1444 7.51063 14.2288 7.51063L14.2499 7.48953Z" fill="black"/>
<path d="M17.1408 8.94565C16.9931 9.30435 16.8665 9.64195 16.7188 10.0007C16.6977 10.064 16.5711 10.0429 16.5922 9.95845C16.7399 9.59975 16.8876 9.26215 17.0353 8.90345C17.0564 8.84015 17.1619 8.86125 17.1408 8.92455V8.94565Z" fill="black"/>
<path d="M17.5205 8.69278L17.3728 9.83218C17.3728 9.87438 17.3095 9.87438 17.3095 9.83218L17.4572 8.69278C17.4572 8.65058 17.5205 8.65058 17.5205 8.69278Z" fill="black"/>
<path d="M17.4781 7.61617C17.5414 7.55287 17.6047 7.63727 17.5625 7.70057C16.824 8.54457 16.1488 9.43076 15.5369 10.3592C15.5369 10.3803 15.4736 10.3592 15.4947 10.3381C16.0644 9.36746 16.7185 8.43907 17.4781 7.61617Z" fill="black"/>
<path d="M16.8873 7.80663C16.9506 7.74333 17.035 7.84883 16.9717 7.91213C16.5075 8.41853 16.0222 8.92492 15.5369 9.43132C15.4947 9.47352 15.4103 9.41022 15.4736 9.34692C15.9378 8.84052 16.402 8.31303 16.8873 7.80663Z" fill="black"/>
<path d="M19.2298 7.6374C19.694 7.9539 20.1793 8.2493 20.6646 8.5447C20.7279 8.5658 20.6646 8.6502 20.6224 8.6291C20.116 8.3759 19.6307 8.0805 19.1665 7.764C19.0821 7.7218 19.1665 7.5952 19.2298 7.6374Z" fill="black"/>
<path d="M13.8285 5.16871C14.4193 5.37971 15.0101 5.63291 15.6009 5.88611C16.1917 6.1393 16.7614 6.3925 17.3522 6.6668C17.4577 6.709 17.3522 6.8567 17.2678 6.8145C16.6981 6.5402 16.1284 6.287 15.5376 6.01271C14.9679 5.75951 14.3771 5.52741 13.8074 5.27421C13.7441 5.25311 13.7652 5.12651 13.8496 5.16871H13.8285Z" fill="black"/>
<path d="M17.943 5.08461C18.0274 4.38831 18.1329 3.69201 18.2173 2.99572C18.2173 2.93242 18.3439 2.93242 18.3228 2.99572C18.2384 3.69201 18.154 4.38831 18.0696 5.08461C18.0696 5.16901 17.9219 5.16901 17.9219 5.08461H17.943Z" fill="black"/>
<path d="M15.3262 6.18185C14.9253 7.51114 15.6849 8.90374 17.0142 9.30464C18.3435 9.70554 19.7361 8.94594 20.137 7.61664C20.5379 6.28735 19.7783 4.89475 18.449 4.49385C17.1197 4.09295 15.7271 4.85255 15.3262 6.18185Z" fill="black"/>
</g>
<path d="M1.31458 11.225C7.93759 16.4517 10.073 17.0353 14.813 18.4952C18.4997 19.6307 21.5232 19.3636 22.106 19.63C22.9956 20.0367 20.4291 21.1832 18.4873 21.022C17.6695 20.9541 16.3146 20.7769 12.6643 19.6209C7.98087 18.1378 0.43151 10.5281 1.31458 11.225Z" fill="#FF3939"/>
<defs>
<clipPath id="clip0_1843_524">
<rect width="26.185" height="15.4663" fill="white" transform="matrix(-1 0 0 1 27.8389 0)"/>
</clipPath>
</defs>
</svg>
