<svg width="27" height="17" viewBox="0 0 27 17" fill="none" xmlns="http://www.w3.org/2000/svg">
<g clip-path="url(#clip0_1843_592)">
<path fill-rule="evenodd" clip-rule="evenodd" d="M18.7409 3.64062C20.5949 4.80197 21.5425 7.10005 20.8889 9.31386C20.1082 11.9725 17.3019 13.4917 14.6433 12.6899C11.9847 11.9092 10.4655 9.10286 11.2673 6.44427C11.6004 5.32017 12.3031 4.3809 13.1932 3.7683C12.8747 3.78639 12.5562 3.80626 12.2377 3.82785C11.5414 4.50305 11.0139 5.32595 10.7185 6.31764C9.85343 9.27163 11.5414 12.3733 14.4954 13.2595C17.4494 14.1246 20.5511 12.4366 21.4373 9.48263C22.0914 7.30934 21.3318 5.05165 19.7282 3.65905C19.3988 3.65074 19.0697 3.64462 18.7409 3.64062Z" fill="black"/>
<path d="M25.5303 7.39376C25.0873 6.57087 24.5598 5.76907 24.3488 5.47367C22.8085 3.44808 20.6985 3.06828 18.3353 2.83618C14.6217 2.47748 10.7393 2.87838 7.1945 4.10218C6.41381 4.37647 5.65421 4.67187 4.91571 5.03057C4.17721 5.36817 3.41762 5.74797 2.80572 6.29657C2.59472 6.46537 2.38372 6.63417 2.19382 6.80297C2.10942 6.86627 2.04612 6.95067 1.98282 7.01397C1.94062 7.05617 1.98282 7.11947 2.02502 7.11947C2.02502 7.11947 2.06722 7.11947 2.08832 7.11947C2.25712 6.99287 2.42592 6.86627 2.61582 6.76077C2.61582 6.76077 2.61582 6.76077 2.61582 6.78187C2.61582 6.78187 2.61582 6.82407 2.61582 6.84517C2.38372 7.28827 2.04612 7.66806 1.70852 8.04786C1.22322 8.57536 0.695724 9.06066 0.147125 9.50376C0.104925 9.52486 0.0838261 9.56706 0.041626 9.58816C0.147125 9.54596 0.252625 9.48266 0.358126 9.44046C0.885624 9.14506 1.41312 8.84966 1.94062 8.53316C2.48922 8.21666 3.01672 7.87906 3.56532 7.52036C4.64141 8.59646 5.65421 9.71476 6.8147 10.7065C9.621 13.0907 13.0181 14.9475 16.7528 15.053C18.4408 15.0952 20.1288 14.6943 21.6269 13.9558C23.0617 13.2595 23.9479 12.2467 25.1295 11.2551C22.7241 13.2806 19.5591 14.3989 16.4152 14.3356C12.8704 14.2723 9.7476 12.7109 7.1101 10.4111C6.54041 9.92576 5.99181 9.39826 5.50651 8.82856C5.40101 8.70196 4.15611 7.11947 4.21941 7.09837C4.47261 6.99287 4.72581 6.88737 4.97901 6.80297C7.4899 5.66357 10.1274 4.71407 12.8493 4.39757C14.3263 4.22877 15.8244 4.24987 17.3014 4.39757C18.8628 4.54527 20.2765 4.71407 21.7957 5.09387C22.7452 5.32597 23.5681 6.21217 24.1589 6.97177C24.4965 7.41486 24.7919 7.90016 25.0662 8.40656C25.1295 8.51206 25.256 8.84966 25.4037 9.10286C25.4459 9.20836 25.4881 9.31386 25.5303 9.41936C25.5303 9.44046 25.5514 9.48266 25.5725 9.52486C25.5725 9.58816 25.5725 9.65146 25.5936 9.71476C25.6147 9.84136 25.7202 9.92576 25.8468 9.90466C25.9945 9.77806 26.1 9.65146 26.1844 9.46156C26.3321 9.10286 25.9945 8.25886 25.5725 7.43597L25.5303 7.39376Z" fill="black"/>
<path d="M15.4444 8.36362C15.6554 8.21592 15.8875 8.06822 16.0985 7.89942C16.0352 7.32972 15.993 6.78112 15.9297 6.21142C15.8875 5.66283 15.8242 5.11423 15.7609 4.56563C15.7609 4.54453 15.8031 4.54453 15.8031 4.56563C15.9086 5.66283 16.0352 6.73892 16.1829 7.83612C16.7526 7.43522 17.3223 7.03432 17.892 6.63342C18.3562 6.31692 18.8204 5.95823 19.2846 5.68393C19.3057 5.68393 19.3268 5.68393 19.3057 5.72613C18.9259 6.04263 18.5039 6.33802 18.0819 6.63342C17.681 6.92882 17.2801 7.22422 16.8792 7.49852C16.6471 7.66732 16.415 7.83612 16.1829 7.98382C16.2673 8.78562 16.3728 9.56632 16.4572 10.3681L16.6471 11.9928C16.6471 12.1194 16.4994 12.1405 16.4783 11.9928C16.3517 10.6846 16.2251 9.35532 16.0985 8.04712C15.5499 8.44802 15.0013 8.84892 14.4316 9.24982C13.9674 9.58741 13.5032 9.90391 13.0601 10.2415C12.9546 10.3259 12.828 10.1571 12.9546 10.0727C13.7986 9.50302 14.6215 8.93332 15.4444 8.34252V8.36362Z" fill="black"/>
<path d="M14.9383 6.92847C14.3897 6.59087 13.8411 6.23217 13.2925 5.89457C13.2292 5.85237 13.2925 5.74687 13.3558 5.78907C13.9044 6.12667 14.453 6.46427 15.0016 6.82297C15.086 6.86517 15.0016 6.99177 14.9383 6.94957V6.92847Z" fill="black"/>
<path d="M16.668 8.93282C17.0267 9.77681 17.3854 10.5997 17.7441 11.4437C17.7441 11.4859 17.7019 11.5281 17.6808 11.4859C17.301 10.663 16.9212 9.84012 16.5414 9.01722C16.4992 8.93282 16.6258 8.86952 16.668 8.95392V8.93282Z" fill="black"/>
<path d="M17.1324 8.65882C17.9131 9.35512 18.6938 10.0514 19.5167 10.7055C19.5589 10.7266 19.5167 10.811 19.4745 10.7688C18.6516 10.1147 17.8287 9.46062 17.0269 8.76432C16.9636 8.70102 17.0691 8.61662 17.1324 8.65882Z" fill="black"/>
<path d="M19.559 9.03839C18.8205 8.78519 18.082 8.51089 17.3435 8.25769C17.2802 8.23659 17.3013 8.13109 17.3646 8.15219C18.1031 8.42649 18.8205 8.70079 19.559 8.97509C19.6012 8.97509 19.5801 9.05949 19.5379 9.05949L19.559 9.03839Z" fill="black"/>
<path d="M19.5162 8.19419L17.8282 8.13089C17.7649 8.13089 17.7649 8.02539 17.8282 8.02539C18.3979 8.06759 18.9465 8.08869 19.5162 8.13089C19.5584 8.13089 19.5584 8.19419 19.5162 8.19419Z" fill="black"/>
<path d="M19.7909 6.99163C18.968 7.22373 18.1451 7.49802 17.3433 7.79342C17.2589 7.83562 17.2167 7.68792 17.3011 7.64572C18.124 7.37143 18.9469 7.11823 19.7698 6.90723C19.8331 6.90723 19.8542 6.97053 19.7909 6.99163Z" fill="black"/>
<path d="M17.4276 6.50695C17.3854 6.54915 17.3221 6.48585 17.3643 6.44365C17.5753 6.21155 17.7863 6.00056 17.9973 5.76846C18.0184 5.72626 18.0817 5.76846 18.0395 5.81066C17.8285 6.04276 17.6386 6.27485 17.4276 6.50695Z" fill="black"/>
<path d="M16.8579 6.44286L17.5964 4.64936C17.5964 4.60716 17.6808 4.62826 17.6597 4.64936L16.9634 6.46396C16.9423 6.52726 16.8368 6.48506 16.8579 6.44286Z" fill="black"/>
<path d="M16.5415 6.61205C16.7947 5.74695 17.0268 4.86076 17.28 3.99566C17.28 3.95346 17.3644 3.97456 17.3433 4.01676C17.1112 4.88186 16.8791 5.76805 16.647 6.63315C16.647 6.69645 16.5204 6.67535 16.5415 6.59095V6.61205Z" fill="black"/>
<path d="M15.4228 6.29606C14.832 5.64196 14.2201 5.00896 13.6082 4.35487C13.5449 4.29157 13.6504 4.20717 13.6926 4.27047C14.2834 4.92456 14.8742 5.57866 15.4861 6.23276C15.5283 6.27496 15.465 6.33826 15.4228 6.29606Z" fill="black"/>
<path d="M15.0858 6.54898C14.5794 6.16918 14.0941 5.78938 13.6088 5.36739C13.5666 5.32519 13.6088 5.24079 13.6721 5.28299C14.1574 5.68388 14.6427 6.08478 15.128 6.48568C15.1702 6.50678 15.128 6.57008 15.0858 6.54898Z" fill="black"/>
<path d="M12.0679 6.9502C12.6165 7.14009 13.1862 7.30889 13.7348 7.49879C13.777 7.49879 13.7559 7.58319 13.7137 7.58319C13.144 7.41439 12.5954 7.24559 12.0257 7.07679C11.9624 7.07679 11.9835 6.95019 12.0679 6.97129V6.9502Z" fill="black"/>
<path d="M12.5956 8.48953C13.1653 8.38403 13.735 8.29963 14.3047 8.23633C14.368 8.23633 14.3891 8.32073 14.3047 8.32073C13.735 8.40513 13.1653 8.48953 12.5956 8.61613C12.5323 8.61613 12.4901 8.51063 12.5745 8.51063L12.5956 8.48953Z" fill="black"/>
<path d="M15.4865 9.94565C15.3388 10.3044 15.2122 10.642 15.0645 11.0007C15.0434 11.064 14.9168 11.0429 14.9379 10.9585C15.0856 10.5998 15.2333 10.2622 15.381 9.90345C15.4021 9.84015 15.5076 9.86125 15.4865 9.92455V9.94565Z" fill="black"/>
<path d="M15.8662 9.69278L15.7185 10.8322C15.7185 10.8744 15.6552 10.8744 15.6552 10.8322L15.8029 9.69278C15.8029 9.65058 15.8662 9.65058 15.8662 9.69278Z" fill="black"/>
<path d="M15.8238 8.61617C15.8871 8.55287 15.9504 8.63727 15.9082 8.70057C15.1697 9.54457 14.4945 10.4308 13.8826 11.3592C13.8826 11.3803 13.8193 11.3592 13.8404 11.3381C14.4101 10.3675 15.0642 9.43907 15.8238 8.61617Z" fill="black"/>
<path d="M15.233 8.80663C15.2963 8.74333 15.3807 8.84883 15.3174 8.91213C14.8532 9.41853 14.3679 9.92492 13.8826 10.4313C13.8404 10.4735 13.756 10.4102 13.8193 10.3469C14.2835 9.84052 14.7477 9.31303 15.233 8.80663Z" fill="black"/>
<path d="M17.5755 8.6374C18.0397 8.9539 18.525 9.2493 19.0103 9.5447C19.0736 9.5658 19.0103 9.6502 18.9681 9.6291C18.4617 9.3759 17.9764 9.0805 17.5122 8.764C17.4278 8.7218 17.5122 8.5952 17.5755 8.6374Z" fill="black"/>
<path d="M12.1743 6.16871C12.765 6.37971 13.3558 6.63291 13.9466 6.88611C14.5374 7.1393 15.1071 7.3925 15.6979 7.6668C15.8034 7.709 15.6979 7.8567 15.6135 7.8145C15.0438 7.5402 14.4741 7.287 13.8833 7.01271C13.3136 6.75951 12.7228 6.52741 12.1532 6.27421C12.0899 6.25311 12.111 6.12651 12.1954 6.16871H12.1743Z" fill="black"/>
<path d="M16.2887 6.08461C16.3731 5.38831 16.4786 4.69201 16.563 3.99572C16.563 3.93242 16.6896 3.93242 16.6685 3.99572C16.5841 4.69201 16.4997 5.38831 16.4153 6.08461C16.4153 6.16901 16.2676 6.16901 16.2676 6.08461H16.2887Z" fill="black"/>
<path d="M13.6719 7.18185C13.271 8.51114 14.0306 9.90374 15.3599 10.3046C16.6892 10.7055 18.0818 9.94594 18.4827 8.61664C18.8836 7.28735 18.124 5.89475 16.7947 5.49385C15.4654 5.09295 14.0728 5.85255 13.6719 7.18185Z" fill="black"/>
</g>
<path d="M23.5176 4C16.0176 2 14.0185 2.35705 9.51851 2.99996C6.01851 3.5 3.60399 5 3.01766 5C2.12261 5 1.51741 4.49996 2.51741 2.99996C3.51741 1.49996 6.01852 0.5 10.5185 0.5C21.0185 0.5 24.5176 4.26667 23.5176 4Z" fill="#FF3939"/>
<defs>
<clipPath id="clip0_1843_592">
<rect width="26.185" height="15.4663" fill="white" transform="matrix(-1 0 0 1 26.1846 1)"/>
</clipPath>
</defs>
</svg>
