<svg width="61" height="18" viewBox="0 0 61 18" fill="none" xmlns="http://www.w3.org/2000/svg">
<g clip-path="url(#clip0_1240_5909)">
<path fill-rule="evenodd" clip-rule="evenodd" d="M42.26 2.64062C40.406 3.80197 39.4585 6.10005 40.1121 8.31386C40.8928 10.9725 43.6991 12.4917 46.3577 11.6899C49.0163 10.9092 50.5354 8.10286 49.7337 5.44427C49.4006 4.32017 48.6978 3.3809 47.8078 2.7683C48.1263 2.78639 48.4448 2.80626 48.7633 2.82785C49.4596 3.50305 49.9871 4.32595 50.2824 5.31764C51.1475 8.27163 49.4596 11.3733 46.5056 12.2595C43.5516 13.1246 40.4499 11.4366 39.5637 8.48263C38.9096 6.30934 39.6692 4.05165 41.2728 2.65905C41.6022 2.65074 41.9313 2.64462 42.26 2.64062Z" fill="black"/>
<path d="M35.4701 6.39376C35.9132 5.57087 36.4407 4.76907 36.6517 4.47367C38.192 2.44808 40.302 2.06828 42.6652 1.83618C46.3788 1.47748 50.2612 1.87838 53.806 3.10218C54.5867 3.37647 55.3463 3.67187 56.0848 4.03057C56.8233 4.36817 57.5829 4.74797 58.1948 5.29657C58.4058 5.46537 58.6168 5.63417 58.8067 5.80297C58.8911 5.86627 58.9544 5.95067 59.0177 6.01397C59.0599 6.05617 59.0177 6.11947 58.9755 6.11947C58.9755 6.11947 58.9333 6.11947 58.9122 6.11947C58.7434 5.99287 58.5746 5.86627 58.3847 5.76077C58.3847 5.76077 58.3847 5.76077 58.3847 5.78187C58.3847 5.78187 58.3847 5.82407 58.3847 5.84517C58.6168 6.28827 58.9544 6.66806 59.292 7.04786C59.7773 7.57536 60.3048 8.06066 60.8534 8.50376C60.8956 8.52486 60.9167 8.56706 60.9589 8.58816C60.8534 8.54596 60.7479 8.48266 60.6424 8.44046C60.1149 8.14506 59.5874 7.84966 59.0599 7.53316C58.5113 7.21666 57.9838 6.87906 57.4352 6.52036C56.3591 7.59646 55.3463 8.71476 54.1858 9.70646C51.3795 12.0907 47.9824 13.9475 44.2477 14.053C42.5597 14.0952 40.8717 13.6943 39.3736 12.9558C37.9388 12.2595 37.0526 11.2467 35.871 10.2551C38.2764 12.2806 41.4414 13.3989 44.5853 13.3356C48.1301 13.2723 51.2529 11.7109 53.8904 9.41106C54.4601 8.92576 55.0087 8.39826 55.494 7.82856C55.5995 7.70196 56.8444 6.11947 56.7811 6.09837C56.5279 5.99287 56.2747 5.88737 56.0215 5.80297C53.5106 4.66357 50.8731 3.71407 48.1512 3.39757C46.6742 3.22877 45.1761 3.24987 43.6991 3.39757C42.1377 3.54527 40.724 3.71407 39.2048 4.09387C38.2553 4.32597 37.4324 5.21217 36.8416 5.97177C36.504 6.41486 36.2086 6.90016 35.9343 7.40656C35.871 7.51206 35.7444 7.84966 35.5967 8.10286C35.5545 8.20836 35.5123 8.31386 35.4701 8.41936C35.4701 8.44046 35.449 8.48266 35.4279 8.52486C35.4279 8.58816 35.4279 8.65146 35.4068 8.71476C35.3857 8.84136 35.2802 8.92576 35.1536 8.90466C35.0059 8.77806 34.9004 8.65146 34.816 8.46156C34.6683 8.10286 35.0059 7.25886 35.4279 6.43597L35.4701 6.39376Z" fill="black"/>
<path d="M45.5556 7.36362C45.3446 7.21592 45.1125 7.06822 44.9015 6.89942C44.9648 6.32972 45.007 5.78112 45.0703 5.21142C45.1125 4.66283 45.1758 4.11423 45.2391 3.56563C45.2391 3.54453 45.1969 3.54453 45.1969 3.56563C45.0914 4.66283 44.9648 5.73892 44.8171 6.83612C44.2474 6.43522 43.6777 6.03432 43.108 5.63342C42.6438 5.31692 42.1796 4.95823 41.7154 4.68393C41.6943 4.68393 41.6732 4.68393 41.6943 4.72613C42.0741 5.04263 42.4961 5.33802 42.9181 5.63342C43.319 5.92882 43.7199 6.22422 44.1208 6.49852C44.3529 6.66732 44.585 6.83612 44.8171 6.98382C44.7327 7.78562 44.6272 8.56632 44.5428 9.36811L44.3529 10.9928C44.3529 11.1194 44.5006 11.1405 44.5217 10.9928C44.6483 9.68461 44.7749 8.35532 44.9015 7.04712C45.4501 7.44802 45.9987 7.84892 46.5684 8.24982C47.0326 8.58741 47.4968 8.90391 47.9399 9.24151C48.0454 9.32591 48.172 9.15711 48.0454 9.07271C47.2014 8.50302 46.3785 7.93332 45.5556 7.34252V7.36362Z" fill="black"/>
<path d="M46.0622 5.92847C46.6108 5.59087 47.1594 5.23217 47.708 4.89457C47.7713 4.85237 47.708 4.74687 47.6447 4.78907C47.0961 5.12667 46.5475 5.46427 45.9989 5.82297C45.9145 5.86517 45.9989 5.99177 46.0622 5.94957V5.92847Z" fill="black"/>
<path d="M44.332 7.93282C43.9733 8.77681 43.6146 9.59971 43.2559 10.4437C43.2559 10.4859 43.2981 10.5281 43.3192 10.4859C43.699 9.66301 44.0788 8.84012 44.4586 8.01722C44.5008 7.93282 44.3742 7.86952 44.332 7.95392V7.93282Z" fill="black"/>
<path d="M43.8676 7.65882C43.0869 8.35512 42.3062 9.05142 41.4833 9.70551C41.4411 9.72661 41.4833 9.81101 41.5255 9.76881C42.3484 9.11472 43.1713 8.46062 43.9731 7.76432C44.0364 7.70102 43.9309 7.61662 43.8676 7.65882Z" fill="black"/>
<path d="M41.4415 8.03839C42.18 7.78519 42.9185 7.51089 43.657 7.25769C43.7203 7.23659 43.6992 7.13109 43.6359 7.15219C42.8974 7.42649 42.18 7.70079 41.4415 7.97509C41.3993 7.97509 41.4204 8.05949 41.4626 8.05949L41.4415 8.03839Z" fill="black"/>
<path d="M41.4833 7.19419L43.1713 7.13089C43.2346 7.13089 43.2346 7.02539 43.1713 7.02539C42.6016 7.06759 42.053 7.08869 41.4833 7.13089C41.4411 7.13089 41.4411 7.19419 41.4833 7.19419Z" fill="black"/>
<path d="M41.2091 5.99163C42.032 6.22373 42.8549 6.49802 43.6567 6.79342C43.7411 6.83562 43.7833 6.68792 43.6989 6.64572C42.876 6.37143 42.0531 6.11823 41.2302 5.90723C41.1669 5.90723 41.1458 5.97053 41.2091 5.99163Z" fill="black"/>
<path d="M43.5724 5.50695C43.6146 5.54915 43.6779 5.48585 43.6357 5.44365C43.4247 5.21155 43.2137 5.00056 43.0027 4.76846C42.9816 4.72626 42.9183 4.76846 42.9605 4.81066C43.1715 5.04276 43.3614 5.27485 43.5724 5.50695Z" fill="black"/>
<path d="M44.1421 5.44286L43.4036 3.64936C43.4036 3.60716 43.3192 3.62826 43.3403 3.64936L44.0366 5.46396C44.0577 5.52726 44.1632 5.48506 44.1421 5.44286Z" fill="black"/>
<path d="M44.4585 5.61205C44.2053 4.74695 43.9732 3.86076 43.72 2.99566C43.72 2.95346 43.6356 2.97456 43.6567 3.01676C43.8888 3.88186 44.1209 4.76805 44.353 5.63315C44.353 5.69645 44.4796 5.67535 44.4585 5.59095V5.61205Z" fill="black"/>
<path d="M45.5767 5.29606C46.1675 4.64196 46.7794 4.00896 47.3913 3.35487C47.4546 3.29157 47.3491 3.20717 47.3069 3.27047C46.7161 3.92456 46.1253 4.57866 45.5134 5.23276C45.4712 5.27496 45.5345 5.33826 45.5767 5.29606Z" fill="black"/>
<path d="M45.9142 5.54898C46.4206 5.16918 46.9059 4.78938 47.3912 4.36739C47.4334 4.32519 47.3912 4.24079 47.3279 4.28299C46.8426 4.68388 46.3573 5.08478 45.872 5.48568C45.8298 5.50678 45.872 5.57008 45.9142 5.54898Z" fill="black"/>
<path d="M48.9316 5.9502C48.383 6.14009 47.8133 6.30889 47.2647 6.49879C47.2225 6.49879 47.2436 6.58319 47.2858 6.58319C47.8555 6.41439 48.4041 6.24559 48.9738 6.07679C49.0371 6.07679 49.016 5.95019 48.9316 5.97129V5.9502Z" fill="black"/>
<path d="M48.4044 7.48953C47.8347 7.38403 47.265 7.29963 46.6953 7.23633C46.632 7.23633 46.6109 7.32073 46.6953 7.32073C47.265 7.40513 47.8347 7.48953 48.4044 7.61613C48.4677 7.61613 48.5099 7.51063 48.4255 7.51063L48.4044 7.48953Z" fill="black"/>
<path d="M45.5135 8.94565C45.6612 9.30435 45.7878 9.64195 45.9355 10.0007C45.9566 10.064 46.0832 10.0429 46.0621 9.95845C45.9144 9.59975 45.7667 9.26215 45.619 8.90345C45.5979 8.84015 45.4924 8.86125 45.5135 8.92455V8.94565Z" fill="black"/>
<path d="M45.1338 8.69278L45.2815 9.83218C45.2815 9.87438 45.3448 9.87438 45.3448 9.83218L45.1971 8.69278C45.1971 8.65058 45.1338 8.65058 45.1338 8.69278Z" fill="black"/>
<path d="M45.1757 7.61617C45.1124 7.55287 45.0491 7.63727 45.0913 7.70057C45.8298 8.54457 46.505 9.43076 47.1169 10.3592C47.1169 10.3803 47.1802 10.3592 47.1591 10.3381C46.5894 9.36746 45.9353 8.43907 45.1757 7.61617Z" fill="black"/>
<path d="M45.7665 7.80663C45.7032 7.74333 45.6188 7.84883 45.6821 7.91213C46.1463 8.41853 46.6316 8.92492 47.1169 9.43132C47.1591 9.47352 47.2435 9.41022 47.1802 9.34692C46.716 8.84052 46.2518 8.31303 45.7665 7.80663Z" fill="black"/>
<path d="M43.4245 7.6374C42.9603 7.9539 42.475 8.2493 41.9897 8.5447C41.9264 8.5658 41.9897 8.6502 42.0319 8.6291C42.5383 8.3759 43.0236 8.0805 43.4878 7.764C43.5722 7.7218 43.4878 7.5952 43.4245 7.6374Z" fill="black"/>
<path d="M48.8262 5.16871C48.2354 5.37971 47.6446 5.63291 47.0538 5.88611C46.463 6.1393 45.8933 6.3925 45.3025 6.6668C45.197 6.709 45.3025 6.8567 45.3869 6.8145C45.9566 6.5402 46.5263 6.287 47.1171 6.01271C47.6868 5.75951 48.2776 5.52741 48.8473 5.27421C48.9106 5.25311 48.8895 5.12651 48.8051 5.16871H48.8262Z" fill="black"/>
<path d="M44.7118 5.08461C44.6274 4.38831 44.5219 3.69201 44.4375 2.99572C44.4375 2.93242 44.3109 2.93242 44.332 2.99572C44.4164 3.69201 44.5008 4.38831 44.5852 5.08461C44.5852 5.16901 44.7329 5.16901 44.7329 5.08461H44.7118Z" fill="black"/>
<path d="M47.3281 6.18185C47.729 7.51114 46.9694 8.90374 45.6401 9.30464C44.3108 9.70554 42.9182 8.94594 42.5173 7.61664C42.1164 6.28735 42.876 4.89475 44.2053 4.49385C45.5346 4.09295 46.9272 4.85255 47.3281 6.18185Z" fill="black"/>
</g>
<g clip-path="url(#clip1_1240_5909)">
<path fill-rule="evenodd" clip-rule="evenodd" d="M18.7409 2.64062C20.5949 3.80197 21.5425 6.10005 20.8889 8.31386C20.1082 10.9725 17.3019 12.4917 14.6433 11.6899C11.9847 10.9092 10.4655 8.10286 11.2673 5.44427C11.6004 4.32017 12.3031 3.3809 13.1932 2.7683C12.8747 2.78639 12.5562 2.80626 12.2377 2.82785C11.5414 3.50305 11.0139 4.32595 10.7185 5.31764C9.85343 8.27163 11.5414 11.3733 14.4954 12.2595C17.4494 13.1246 20.5511 11.4366 21.4373 8.48263C22.0914 6.30934 21.3318 4.05165 19.7282 2.65905C19.3988 2.65074 19.0697 2.64462 18.7409 2.64062Z" fill="black"/>
<path d="M25.5308 6.39376C25.0877 5.57087 24.5602 4.76907 24.3492 4.47367C22.8089 2.44808 20.699 2.06828 18.3358 1.83618C14.6222 1.47748 10.7398 1.87838 7.19499 3.10218C6.4143 3.37647 5.6547 3.67187 4.9162 4.03057C4.1777 4.36817 3.4181 4.74797 2.80621 5.29657C2.59521 5.46537 2.38421 5.63417 2.19431 5.80297C2.10991 5.86627 2.04661 5.95067 1.98331 6.01397C1.94111 6.05617 1.98331 6.11947 2.02551 6.11947C2.02551 6.11947 2.06771 6.11947 2.08881 6.11947C2.25761 5.99287 2.42641 5.86627 2.61631 5.76077C2.61631 5.76077 2.61631 5.76077 2.61631 5.78187C2.61631 5.78187 2.61631 5.82407 2.61631 5.84517C2.38421 6.28827 2.04661 6.66806 1.70901 7.04786C1.22371 7.57536 0.696213 8.06066 0.147614 8.50376C0.105413 8.52486 0.0843143 8.56706 0.0421143 8.58816C0.147614 8.54596 0.253113 8.48266 0.358614 8.44046C0.886112 8.14506 1.41361 7.84966 1.94111 7.53316C2.48971 7.21666 3.01721 6.87906 3.5658 6.52036C4.6419 7.59646 5.6547 8.71476 6.81519 9.70646C9.62148 12.0907 13.0186 13.9475 16.7533 14.053C18.4413 14.0952 20.1293 13.6943 21.6273 12.9558C23.0621 12.2595 23.9483 11.2467 25.1299 10.2551C22.7245 12.2806 19.5596 13.3989 16.4157 13.3356C12.8709 13.2723 9.74809 11.7109 7.11059 9.41106C6.54089 8.92576 5.9923 8.39826 5.507 7.82856C5.4015 7.70196 4.1566 6.11947 4.2199 6.09837C4.4731 5.99287 4.7263 5.88737 4.9795 5.80297C7.49039 4.66357 10.1279 3.71407 12.8498 3.39757C14.3268 3.22877 15.8249 3.24987 17.3019 3.39757C18.8633 3.54527 20.277 3.71407 21.7961 4.09387C22.7456 4.32597 23.5685 5.21217 24.1593 5.97177C24.4969 6.41486 24.7923 6.90016 25.0666 7.40656C25.1299 7.51206 25.2565 7.84966 25.4042 8.10286C25.4464 8.20836 25.4886 8.31386 25.5308 8.41936C25.5308 8.44046 25.5519 8.48266 25.573 8.52486C25.573 8.58816 25.573 8.65146 25.5941 8.71476C25.6152 8.84136 25.7207 8.92576 25.8473 8.90466C25.995 8.77806 26.1005 8.65146 26.1849 8.46156C26.3326 8.10286 25.995 7.25886 25.573 6.43597L25.5308 6.39376Z" fill="black"/>
<path d="M15.4454 7.36362C15.6564 7.21592 15.8885 7.06822 16.0995 6.89942C16.0362 6.32972 15.994 5.78112 15.9307 5.21142C15.8885 4.66283 15.8252 4.11423 15.7619 3.56563C15.7619 3.54453 15.8041 3.54453 15.8041 3.56563C15.9096 4.66283 16.0362 5.73892 16.1839 6.83612C16.7536 6.43522 17.3233 6.03432 17.893 5.63342C18.3572 5.31692 18.8214 4.95823 19.2856 4.68393C19.3067 4.68393 19.3278 4.68393 19.3067 4.72613C18.9269 5.04263 18.5049 5.33802 18.0829 5.63342C17.682 5.92882 17.2811 6.22422 16.8802 6.49852C16.6481 6.66732 16.416 6.83612 16.1839 6.98382C16.2683 7.78562 16.3738 8.56632 16.4582 9.36811L16.6481 10.9928C16.6481 11.1194 16.5004 11.1405 16.4793 10.9928C16.3527 9.68461 16.2261 8.35532 16.0995 7.04712C15.5509 7.44802 15.0023 7.84892 14.4326 8.24982C13.9684 8.58741 13.5042 8.90391 13.0611 9.24151C12.9556 9.32591 12.829 9.15711 12.9556 9.07271C13.7996 8.50302 14.6225 7.93332 15.4454 7.34252V7.36362Z" fill="black"/>
<path d="M14.9388 5.92847C14.3902 5.59087 13.8416 5.23217 13.293 4.89457C13.2297 4.85237 13.293 4.74687 13.3563 4.78907C13.9049 5.12667 14.4535 5.46427 15.0021 5.82297C15.0865 5.86517 15.0021 5.99177 14.9388 5.94957V5.92847Z" fill="black"/>
<path d="M16.669 7.93282C17.0277 8.77681 17.3864 9.59971 17.7451 10.4437C17.7451 10.4859 17.7029 10.5281 17.6818 10.4859C17.302 9.66301 16.9222 8.84012 16.5424 8.01722C16.5002 7.93282 16.6268 7.86952 16.669 7.95392V7.93282Z" fill="black"/>
<path d="M17.1334 7.65882C17.9141 8.35512 18.6948 9.05142 19.5177 9.70551C19.5599 9.72661 19.5177 9.81101 19.4755 9.76881C18.6526 9.11472 17.8297 8.46062 17.0279 7.76432C16.9646 7.70102 17.0701 7.61662 17.1334 7.65882Z" fill="black"/>
<path d="M19.5595 8.03839C18.821 7.78519 18.0825 7.51089 17.344 7.25769C17.2807 7.23659 17.3018 7.13109 17.3651 7.15219C18.1036 7.42649 18.821 7.70079 19.5595 7.97509C19.6017 7.97509 19.5806 8.05949 19.5384 8.05949L19.5595 8.03839Z" fill="black"/>
<path d="M19.5177 7.19419L17.8297 7.13089C17.7664 7.13089 17.7664 7.02539 17.8297 7.02539C18.3994 7.06759 18.948 7.08869 19.5177 7.13089C19.5599 7.13089 19.5599 7.19419 19.5177 7.19419Z" fill="black"/>
<path d="M19.7919 5.99163C18.969 6.22373 18.1461 6.49802 17.3443 6.79342C17.2599 6.83562 17.2177 6.68792 17.3021 6.64572C18.125 6.37143 18.9479 6.11823 19.7708 5.90723C19.8341 5.90723 19.8552 5.97053 19.7919 5.99163Z" fill="black"/>
<path d="M17.4286 5.50695C17.3864 5.54915 17.3231 5.48585 17.3653 5.44365C17.5763 5.21155 17.7873 5.00056 17.9983 4.76846C18.0194 4.72626 18.0827 4.76846 18.0405 4.81066C17.8295 5.04276 17.6396 5.27485 17.4286 5.50695Z" fill="black"/>
<path d="M16.8589 5.44286L17.5974 3.64936C17.5974 3.60716 17.6818 3.62826 17.6607 3.64936L16.9644 5.46396C16.9433 5.52726 16.8378 5.48506 16.8589 5.44286Z" fill="black"/>
<path d="M16.5425 5.61205C16.7957 4.74695 17.0278 3.86076 17.281 2.99566C17.281 2.95346 17.3654 2.97456 17.3443 3.01676C17.1122 3.88186 16.8801 4.76805 16.648 5.63315C16.648 5.69645 16.5214 5.67535 16.5425 5.59095V5.61205Z" fill="black"/>
<path d="M15.4242 5.29606C14.8335 4.64196 14.2216 4.00896 13.6097 3.35487C13.5464 3.29157 13.6519 3.20717 13.6941 3.27047C14.2849 3.92456 14.8756 4.57866 15.4875 5.23276C15.5297 5.27496 15.4664 5.33826 15.4242 5.29606Z" fill="black"/>
<path d="M15.0868 5.54898C14.5804 5.16918 14.0951 4.78938 13.6098 4.36739C13.5676 4.32519 13.6098 4.24079 13.6731 4.28299C14.1584 4.68388 14.6437 5.08478 15.129 5.48568C15.1712 5.50678 15.129 5.57008 15.0868 5.54898Z" fill="black"/>
<path d="M12.0694 5.9502C12.618 6.14009 13.1877 6.30889 13.7363 6.49879C13.7785 6.49879 13.7574 6.58319 13.7152 6.58319C13.1455 6.41439 12.5969 6.24559 12.0272 6.07679C11.9639 6.07679 11.985 5.95019 12.0694 5.97129V5.9502Z" fill="black"/>
<path d="M12.5966 7.48953C13.1663 7.38403 13.736 7.29963 14.3057 7.23633C14.369 7.23633 14.3901 7.32073 14.3057 7.32073C13.736 7.40513 13.1663 7.48953 12.5966 7.61613C12.5333 7.61613 12.4911 7.51063 12.5755 7.51063L12.5966 7.48953Z" fill="black"/>
<path d="M15.4875 8.94565C15.3398 9.30435 15.2132 9.64195 15.0655 10.0007C15.0444 10.064 14.9178 10.0429 14.9389 9.95845C15.0866 9.59975 15.2343 9.26215 15.382 8.90345C15.4031 8.84015 15.5086 8.86125 15.4875 8.92455V8.94565Z" fill="black"/>
<path d="M15.8672 8.69278L15.7195 9.83218C15.7195 9.87438 15.6562 9.87438 15.6562 9.83218L15.8039 8.69278C15.8039 8.65058 15.8672 8.65058 15.8672 8.69278Z" fill="black"/>
<path d="M15.8253 7.61617C15.8886 7.55287 15.9519 7.63727 15.9097 7.70057C15.1712 8.54457 14.496 9.43076 13.8841 10.3592C13.8841 10.3803 13.8208 10.3592 13.8419 10.3381C14.4116 9.36746 15.0657 8.43907 15.8253 7.61617Z" fill="black"/>
<path d="M15.2345 7.80663C15.2978 7.74333 15.3822 7.84883 15.3189 7.91213C14.8547 8.41853 14.3694 8.92492 13.8841 9.43132C13.8419 9.47352 13.7575 9.41022 13.8208 9.34692C14.285 8.84052 14.7492 8.31303 15.2345 7.80663Z" fill="black"/>
<path d="M17.5765 7.6374C18.0407 7.9539 18.526 8.2493 19.0113 8.5447C19.0746 8.5658 19.0113 8.6502 18.9691 8.6291C18.4627 8.3759 17.9774 8.0805 17.5132 7.764C17.4288 7.7218 17.5132 7.5952 17.5765 7.6374Z" fill="black"/>
<path d="M12.1747 5.16871C12.7655 5.37971 13.3563 5.63291 13.9471 5.88611C14.5379 6.1393 15.1076 6.3925 15.6984 6.6668C15.8039 6.709 15.6984 6.8567 15.614 6.8145C15.0443 6.5402 14.4746 6.287 13.8838 6.01271C13.3141 5.75951 12.7233 5.52741 12.1536 5.27421C12.0903 5.25311 12.1114 5.12651 12.1958 5.16871H12.1747Z" fill="black"/>
<path d="M16.2892 5.08461C16.3736 4.38831 16.4791 3.69201 16.5635 2.99572C16.5635 2.93242 16.6901 2.93242 16.669 2.99572C16.5846 3.69201 16.5002 4.38831 16.4158 5.08461C16.4158 5.16901 16.2681 5.16901 16.2681 5.08461H16.2892Z" fill="black"/>
<path d="M13.6729 6.18185C13.272 7.51114 14.0316 8.90374 15.3609 9.30464C16.6902 9.70554 18.0828 8.94594 18.4837 7.61664C18.8846 6.28735 18.125 4.89475 16.7957 4.49385C15.4664 4.09295 14.0738 4.85255 13.6729 6.18185Z" fill="black"/>
</g>
<path d="M5.16406 14C12.6641 16 14.6631 15.6429 19.1631 15C22.6631 14.5 25.0777 13 25.664 13C26.559 13 27.1642 13.5 26.1642 15C25.1642 16.5 22.6631 17.5 18.1631 17.5C7.66313 17.5 4.16406 13.7333 5.16406 14Z" fill="#FF3939"/>
<path d="M55.5176 14C48.0176 16 46.0185 15.6429 41.5185 15C38.0185 14.5 35.604 13 35.0177 13C34.1226 13 33.5174 13.5 34.5174 15C35.5174 16.5 38.0185 17.5 42.5185 17.5C53.0185 17.5 56.5176 13.7333 55.5176 14Z" fill="#FF3939"/>
<defs>
<clipPath id="clip0_1240_5909">
<rect width="26.185" height="15.4663" fill="white" transform="translate(34.8159)"/>
</clipPath>
<clipPath id="clip1_1240_5909">
<rect width="26.185" height="15.4663" fill="white" transform="matrix(-1 0 0 1 26.1851 0)"/>
</clipPath>
</defs>
</svg>
