<svg width="67" height="24" viewBox="0 0 67 24" fill="none" xmlns="http://www.w3.org/2000/svg">
<g clip-path="url(#clip0_1240_5970)">
<path fill-rule="evenodd" clip-rule="evenodd" d="M44.2605 2.64062C42.4065 3.80197 41.459 6.10005 42.1126 8.31386C42.8933 10.9725 45.6996 12.4917 48.3582 11.6899C51.0167 10.9092 52.5359 8.10286 51.7341 5.44427C51.4011 4.32017 50.6983 3.3809 49.8083 2.7683C50.1268 2.78639 50.4453 2.80626 50.7637 2.82785C51.46 3.50305 51.9875 4.32595 52.2829 5.31764C53.148 8.27163 51.46 11.3733 48.506 12.2595C45.5521 13.1246 42.4504 11.4366 41.5642 8.48263C40.9101 6.30934 41.6697 4.05165 43.2733 2.65905C43.6027 2.65074 43.9318 2.64462 44.2605 2.64062Z" fill="black"/>
<path d="M37.4706 6.39376C37.9137 5.57087 38.4412 4.76907 38.6522 4.47367C40.1925 2.44808 42.3025 2.06828 44.6657 1.83618C48.3793 1.47748 52.2617 1.87838 55.8065 3.10218C56.5872 3.37647 57.3468 3.67187 58.0853 4.03057C58.8238 4.36817 59.5834 4.74797 60.1953 5.29657C60.4063 5.46537 60.6173 5.63417 60.8072 5.80297C60.8916 5.86627 60.9549 5.95067 61.0182 6.01397C61.0604 6.05617 61.0182 6.11947 60.976 6.11947C60.976 6.11947 60.9338 6.11947 60.9127 6.11947C60.7439 5.99287 60.5751 5.86627 60.3852 5.76077C60.3852 5.76077 60.3852 5.76077 60.3852 5.78187C60.3852 5.78187 60.3852 5.82407 60.3852 5.84517C60.6173 6.28827 60.9549 6.66806 61.2925 7.04786C61.7778 7.57536 62.3053 8.06066 62.8539 8.50376C62.8961 8.52486 62.9172 8.56706 62.9594 8.58816C62.8539 8.54596 62.7484 8.48266 62.6429 8.44046C62.1154 8.14506 61.5879 7.84966 61.0604 7.53316C60.5118 7.21666 59.9843 6.87906 59.4357 6.52036C58.3596 7.59646 57.3468 8.71476 56.1863 9.70646C53.38 12.0907 49.9829 13.9475 46.2482 14.053C44.5602 14.0952 42.8722 13.6943 41.3741 12.9558C39.9393 12.2595 39.0531 11.2467 37.8715 10.2551C40.2769 12.2806 43.4419 13.3989 46.5858 13.3356C50.1306 13.2723 53.2534 11.7109 55.8909 9.41106C56.4606 8.92576 57.0092 8.39826 57.4945 7.82856C57.6 7.70196 58.8449 6.11947 58.7816 6.09837C58.5284 5.99287 58.2752 5.88737 58.022 5.80297C55.5111 4.66357 52.8736 3.71407 50.1517 3.39757C48.6747 3.22877 47.1766 3.24987 45.6996 3.39757C44.1382 3.54527 42.7245 3.71407 41.2053 4.09387C40.2558 4.32597 39.4329 5.21217 38.8421 5.97177C38.5045 6.41486 38.2091 6.90016 37.9348 7.40656C37.8715 7.51206 37.7449 7.84966 37.5972 8.10286C37.555 8.20836 37.5128 8.31386 37.4706 8.41936C37.4706 8.44046 37.4495 8.48266 37.4284 8.52486C37.4284 8.58816 37.4284 8.65146 37.4073 8.71476C37.3862 8.84136 37.2807 8.92576 37.1541 8.90466C37.0064 8.77806 36.9009 8.65146 36.8165 8.46156C36.6688 8.10286 37.0064 7.25886 37.4284 6.43597L37.4706 6.39376Z" fill="black"/>
<path d="M47.5561 7.36362C47.3451 7.21592 47.113 7.06822 46.902 6.89942C46.9653 6.32972 47.0075 5.78112 47.0708 5.21142C47.113 4.66283 47.1763 4.11423 47.2396 3.56563C47.2396 3.54453 47.1974 3.54453 47.1974 3.56563C47.0919 4.66283 46.9653 5.73892 46.8176 6.83612C46.2479 6.43522 45.6782 6.03432 45.1085 5.63342C44.6443 5.31692 44.1801 4.95823 43.7159 4.68393C43.6948 4.68393 43.6737 4.68393 43.6948 4.72613C44.0746 5.04263 44.4966 5.33802 44.9186 5.63342C45.3195 5.92882 45.7204 6.22422 46.1213 6.49852C46.3534 6.66732 46.5855 6.83612 46.8176 6.98382C46.7332 7.78562 46.6277 8.56632 46.5433 9.36811L46.3534 10.9928C46.3534 11.1194 46.5011 11.1405 46.5222 10.9928C46.6488 9.68461 46.7754 8.35532 46.902 7.04712C47.4506 7.44802 47.9992 7.84892 48.5689 8.24982C49.0331 8.58741 49.4973 8.90391 49.9404 9.24151C50.0459 9.32591 50.1725 9.15711 50.0459 9.07271C49.2019 8.50302 48.379 7.93332 47.5561 7.34252V7.36362Z" fill="black"/>
<path d="M48.0627 5.92847C48.6113 5.59087 49.1599 5.23217 49.7085 4.89457C49.7718 4.85237 49.7085 4.74687 49.6452 4.78907C49.0966 5.12667 48.548 5.46427 47.9994 5.82297C47.915 5.86517 47.9994 5.99177 48.0627 5.94957V5.92847Z" fill="black"/>
<path d="M46.3324 7.93282C45.9737 8.77681 45.615 9.59971 45.2563 10.4437C45.2563 10.4859 45.2985 10.5281 45.3196 10.4859C45.6994 9.66301 46.0792 8.84012 46.459 8.01722C46.5012 7.93282 46.3746 7.86952 46.3324 7.95392V7.93282Z" fill="black"/>
<path d="M45.8681 7.65882C45.0874 8.35512 44.3067 9.05142 43.4838 9.70551C43.4416 9.72661 43.4838 9.81101 43.526 9.76881C44.3489 9.11472 45.1718 8.46062 45.9736 7.76432C46.0369 7.70102 45.9314 7.61662 45.8681 7.65882Z" fill="black"/>
<path d="M43.4419 8.03839C44.1804 7.78519 44.9189 7.51089 45.6574 7.25769C45.7207 7.23659 45.6996 7.13109 45.6363 7.15219C44.8978 7.42649 44.1804 7.70079 43.4419 7.97509C43.3997 7.97509 43.4208 8.05949 43.463 8.05949L43.4419 8.03839Z" fill="black"/>
<path d="M43.4838 7.19419L45.1718 7.13089C45.2351 7.13089 45.2351 7.02539 45.1718 7.02539C44.6021 7.06759 44.0535 7.08869 43.4838 7.13089C43.4416 7.13089 43.4416 7.19419 43.4838 7.19419Z" fill="black"/>
<path d="M43.2096 5.99163C44.0325 6.22373 44.8554 6.49802 45.6572 6.79342C45.7416 6.83562 45.7838 6.68792 45.6994 6.64572C44.8765 6.37143 44.0536 6.11823 43.2307 5.90723C43.1674 5.90723 43.1463 5.97053 43.2096 5.99163Z" fill="black"/>
<path d="M45.5729 5.50695C45.6151 5.54915 45.6784 5.48585 45.6362 5.44365C45.4252 5.21155 45.2142 5.00056 45.0032 4.76846C44.9821 4.72626 44.9188 4.76846 44.961 4.81066C45.172 5.04276 45.3619 5.27485 45.5729 5.50695Z" fill="black"/>
<path d="M46.1426 5.44286L45.4041 3.64936C45.4041 3.60716 45.3197 3.62826 45.3408 3.64936L46.0371 5.46396C46.0582 5.52726 46.1637 5.48506 46.1426 5.44286Z" fill="black"/>
<path d="M46.459 5.61205C46.2058 4.74695 45.9737 3.86076 45.7205 2.99566C45.7205 2.95346 45.6361 2.97456 45.6572 3.01676C45.8893 3.88186 46.1214 4.76805 46.3535 5.63315C46.3535 5.69645 46.4801 5.67535 46.459 5.59095V5.61205Z" fill="black"/>
<path d="M47.5772 5.29606C48.168 4.64196 48.7799 4.00896 49.3918 3.35487C49.4551 3.29157 49.3496 3.20717 49.3074 3.27047C48.7166 3.92456 48.1258 4.57866 47.5139 5.23276C47.4717 5.27496 47.535 5.33826 47.5772 5.29606Z" fill="black"/>
<path d="M47.9147 5.54898C48.4211 5.16918 48.9064 4.78938 49.3917 4.36739C49.4339 4.32519 49.3917 4.24079 49.3284 4.28299C48.8431 4.68388 48.3578 5.08478 47.8725 5.48568C47.8303 5.50678 47.8725 5.57008 47.9147 5.54898Z" fill="black"/>
<path d="M50.9321 5.9502C50.3835 6.14009 49.8138 6.30889 49.2652 6.49879C49.223 6.49879 49.2441 6.58319 49.2863 6.58319C49.856 6.41439 50.4046 6.24559 50.9743 6.07679C51.0376 6.07679 51.0165 5.95019 50.9321 5.97129V5.9502Z" fill="black"/>
<path d="M50.4049 7.48953C49.8352 7.38403 49.2655 7.29963 48.6958 7.23633C48.6325 7.23633 48.6114 7.32073 48.6958 7.32073C49.2655 7.40513 49.8352 7.48953 50.4049 7.61613C50.4682 7.61613 50.5104 7.51063 50.426 7.51063L50.4049 7.48953Z" fill="black"/>
<path d="M47.514 8.94565C47.6617 9.30435 47.7883 9.64195 47.936 10.0007C47.9571 10.064 48.0837 10.0429 48.0626 9.95845C47.9149 9.59975 47.7672 9.26215 47.6195 8.90345C47.5984 8.84015 47.4929 8.86125 47.514 8.92455V8.94565Z" fill="black"/>
<path d="M47.1343 8.69278L47.282 9.83218C47.282 9.87438 47.3453 9.87438 47.3453 9.83218L47.1976 8.69278C47.1976 8.65058 47.1343 8.65058 47.1343 8.69278Z" fill="black"/>
<path d="M47.1762 7.61617C47.1129 7.55287 47.0496 7.63727 47.0918 7.70057C47.8303 8.54457 48.5055 9.43076 49.1174 10.3592C49.1174 10.3803 49.1807 10.3592 49.1596 10.3381C48.5899 9.36746 47.9358 8.43907 47.1762 7.61617Z" fill="black"/>
<path d="M47.767 7.80663C47.7037 7.74333 47.6193 7.84883 47.6826 7.91213C48.1468 8.41853 48.6321 8.92492 49.1174 9.43132C49.1596 9.47352 49.244 9.41022 49.1807 9.34692C48.7165 8.84052 48.2523 8.31303 47.767 7.80663Z" fill="black"/>
<path d="M45.425 7.6374C44.9608 7.9539 44.4755 8.2493 43.9902 8.5447C43.9269 8.5658 43.9902 8.6502 44.0324 8.6291C44.5388 8.3759 45.0241 8.0805 45.4883 7.764C45.5727 7.7218 45.4883 7.5952 45.425 7.6374Z" fill="black"/>
<path d="M50.8267 5.16871C50.2359 5.37971 49.6451 5.63291 49.0543 5.88611C48.4635 6.1393 47.8938 6.3925 47.303 6.6668C47.1975 6.709 47.303 6.8567 47.3874 6.8145C47.9571 6.5402 48.5268 6.287 49.1176 6.01271C49.6873 5.75951 50.2781 5.52741 50.8478 5.27421C50.9111 5.25311 50.89 5.12651 50.8056 5.16871H50.8267Z" fill="black"/>
<path d="M46.7122 5.08461C46.6279 4.38831 46.5223 3.69201 46.438 2.99572C46.438 2.93242 46.3114 2.93242 46.3325 2.99572C46.4169 3.69201 46.5012 4.38831 46.5856 5.08461C46.5856 5.16901 46.7333 5.16901 46.7333 5.08461H46.7122Z" fill="black"/>
<path d="M49.3286 6.18185C49.7295 7.51114 48.9699 8.90374 47.6406 9.30464C46.3113 9.70554 44.9187 8.94594 44.5178 7.61664C44.1169 6.28735 44.8765 4.89475 46.2058 4.49385C47.5351 4.09295 48.9277 4.85255 49.3286 6.18185Z" fill="black"/>
</g>
<g clip-path="url(#clip1_1240_5970)">
<path fill-rule="evenodd" clip-rule="evenodd" d="M20.7414 2.64062C22.5954 3.80197 23.543 6.10005 22.8894 8.31386C22.1087 10.9725 19.3024 12.4917 16.6438 11.6899C13.9852 10.9092 12.466 8.10286 13.2678 5.44427C13.6009 4.32017 14.3036 3.3809 15.1937 2.7683C14.8752 2.78639 14.5567 2.80626 14.2382 2.82785C13.5419 3.50305 13.0144 4.32595 12.719 5.31764C11.8539 8.27163 13.5419 11.3733 16.4959 12.2595C19.4499 13.1246 22.5516 11.4366 23.4378 8.48263C24.0919 6.30934 23.3323 4.05165 21.7287 2.65905C21.3993 2.65074 21.0702 2.64462 20.7414 2.64062Z" fill="black"/>
<path d="M27.5313 6.39376C27.0882 5.57087 26.5607 4.76907 26.3497 4.47367C24.8094 2.44808 22.6994 2.06828 20.3362 1.83618C16.6227 1.47748 12.7403 1.87838 9.19548 3.10218C8.41478 3.37647 7.65519 3.67187 6.91669 4.03057C6.17819 4.36817 5.41859 4.74797 4.80669 5.29657C4.59569 5.46537 4.3847 5.63417 4.1948 5.80297C4.1104 5.86627 4.0471 5.95067 3.9838 6.01397C3.9416 6.05617 3.9838 6.11947 4.026 6.11947C4.026 6.11947 4.0682 6.11947 4.0893 6.11947C4.2581 5.99287 4.4269 5.86627 4.61679 5.76077C4.61679 5.76077 4.61679 5.76077 4.61679 5.78187C4.61679 5.78187 4.61679 5.82407 4.61679 5.84517C4.3847 6.28827 4.0471 6.66806 3.7095 7.04786C3.2242 7.57536 2.6967 8.06066 2.1481 8.50376C2.1059 8.52486 2.0848 8.56706 2.0426 8.58816C2.1481 8.54596 2.2536 8.48266 2.3591 8.44046C2.8866 8.14506 3.4141 7.84966 3.9416 7.53316C4.49019 7.21666 5.01769 6.87906 5.56629 6.52036C6.64239 7.59646 7.65519 8.71476 8.81568 9.70646C11.622 12.0907 15.0191 13.9475 18.7538 14.053C20.4417 14.0952 22.1297 13.6943 23.6278 12.9558C25.0626 12.2595 25.9488 11.2467 27.1304 10.2551C24.725 12.2806 21.56 13.3989 18.4162 13.3356C14.8714 13.2723 11.7486 11.7109 9.11108 9.41106C8.54138 8.92576 7.99278 8.39826 7.50749 7.82856C7.40199 7.70196 6.15709 6.11947 6.22039 6.09837C6.47359 5.99287 6.72679 5.88737 6.97999 5.80297C9.49088 4.66357 12.1284 3.71407 14.8503 3.39757C16.3273 3.22877 17.8254 3.24987 19.3024 3.39757C20.8637 3.54527 22.2774 3.71407 23.7966 4.09387C24.7461 4.32597 25.569 5.21217 26.1598 5.97177C26.4974 6.41486 26.7928 6.90016 27.0671 7.40656C27.1304 7.51206 27.257 7.84966 27.4047 8.10286C27.4469 8.20836 27.4891 8.31386 27.5313 8.41936C27.5313 8.44046 27.5524 8.48266 27.5735 8.52486C27.5735 8.58816 27.5735 8.65146 27.5946 8.71476C27.6157 8.84136 27.7212 8.92576 27.8478 8.90466C27.9955 8.77806 28.101 8.65146 28.1854 8.46156C28.3331 8.10286 27.9955 7.25886 27.5735 6.43597L27.5313 6.39376Z" fill="black"/>
<path d="M17.4459 7.36362C17.6569 7.21592 17.889 7.06822 18.1 6.89942C18.0367 6.32972 17.9945 5.78112 17.9312 5.21142C17.889 4.66283 17.8257 4.11423 17.7624 3.56563C17.7624 3.54453 17.8046 3.54453 17.8046 3.56563C17.9101 4.66283 18.0367 5.73892 18.1844 6.83612C18.7541 6.43522 19.3238 6.03432 19.8935 5.63342C20.3577 5.31692 20.8219 4.95823 21.2861 4.68393C21.3072 4.68393 21.3283 4.68393 21.3072 4.72613C20.9274 5.04263 20.5054 5.33802 20.0834 5.63342C19.6825 5.92882 19.2816 6.22422 18.8807 6.49852C18.6486 6.66732 18.4165 6.83612 18.1844 6.98382C18.2688 7.78562 18.3743 8.56632 18.4587 9.36811L18.6486 10.9928C18.6486 11.1194 18.5009 11.1405 18.4798 10.9928C18.3532 9.68461 18.2266 8.35532 18.1 7.04712C17.5514 7.44802 17.0028 7.84892 16.4331 8.24982C15.9689 8.58741 15.5047 8.90391 15.0616 9.24151C14.9561 9.32591 14.8295 9.15711 14.9561 9.07271C15.8001 8.50302 16.623 7.93332 17.4459 7.34252V7.36362Z" fill="black"/>
<path d="M16.9393 5.92847C16.3907 5.59087 15.8421 5.23217 15.2935 4.89457C15.2302 4.85237 15.2935 4.74687 15.3568 4.78907C15.9054 5.12667 16.454 5.46427 17.0026 5.82297C17.087 5.86517 17.0026 5.99177 16.9393 5.94957V5.92847Z" fill="black"/>
<path d="M18.6695 7.93282C19.0282 8.77681 19.3869 9.59971 19.7456 10.4437C19.7456 10.4859 19.7034 10.5281 19.6823 10.4859C19.3025 9.66301 18.9227 8.84012 18.5429 8.01722C18.5007 7.93282 18.6273 7.86952 18.6695 7.95392V7.93282Z" fill="black"/>
<path d="M19.1339 7.65882C19.9146 8.35512 20.6953 9.05142 21.5182 9.70551C21.5604 9.72661 21.5182 9.81101 21.476 9.76881C20.6531 9.11472 19.8302 8.46062 19.0284 7.76432C18.9651 7.70102 19.0706 7.61662 19.1339 7.65882Z" fill="black"/>
<path d="M21.56 8.03839C20.8215 7.78519 20.083 7.51089 19.3445 7.25769C19.2812 7.23659 19.3023 7.13109 19.3656 7.15219C20.1041 7.42649 20.8215 7.70079 21.56 7.97509C21.6022 7.97509 21.5811 8.05949 21.5389 8.05949L21.56 8.03839Z" fill="black"/>
<path d="M21.5182 7.19419L19.8302 7.13089C19.7669 7.13089 19.7669 7.02539 19.8302 7.02539C20.3999 7.06759 20.9485 7.08869 21.5182 7.13089C21.5604 7.13089 21.5604 7.19419 21.5182 7.19419Z" fill="black"/>
<path d="M21.7923 5.99163C20.9694 6.22373 20.1466 6.49802 19.3448 6.79342C19.2604 6.83562 19.2182 6.68792 19.3026 6.64572C20.1255 6.37143 20.9483 6.11823 21.7712 5.90723C21.8345 5.90723 21.8556 5.97053 21.7923 5.99163Z" fill="black"/>
<path d="M19.4291 5.50695C19.3869 5.54915 19.3236 5.48585 19.3658 5.44365C19.5768 5.21155 19.7878 5.00056 19.9988 4.76846C20.0199 4.72626 20.0832 4.76846 20.041 4.81066C19.83 5.04276 19.6401 5.27485 19.4291 5.50695Z" fill="black"/>
<path d="M18.8594 5.44286L19.5979 3.64936C19.5979 3.60716 19.6823 3.62826 19.6612 3.64936L18.9649 5.46396C18.9438 5.52726 18.8383 5.48506 18.8594 5.44286Z" fill="black"/>
<path d="M18.543 5.61205C18.7962 4.74695 19.0283 3.86076 19.2815 2.99566C19.2815 2.95346 19.3659 2.97456 19.3448 3.01676C19.1127 3.88186 18.8806 4.76805 18.6485 5.63315C18.6485 5.69645 18.5219 5.67535 18.543 5.59095V5.61205Z" fill="black"/>
<path d="M17.4247 5.29606C16.8339 4.64196 16.222 4.00896 15.6101 3.35487C15.5468 3.29157 15.6523 3.20717 15.6945 3.27047C16.2853 3.92456 16.8761 4.57866 17.488 5.23276C17.5302 5.27496 17.4669 5.33826 17.4247 5.29606Z" fill="black"/>
<path d="M17.0873 5.54898C16.5809 5.16918 16.0956 4.78938 15.6103 4.36739C15.5681 4.32519 15.6103 4.24079 15.6736 4.28299C16.1589 4.68388 16.6442 5.08478 17.1295 5.48568C17.1717 5.50678 17.1295 5.57008 17.0873 5.54898Z" fill="black"/>
<path d="M14.0699 5.9502C14.6185 6.14009 15.1882 6.30889 15.7368 6.49879C15.779 6.49879 15.7579 6.58319 15.7157 6.58319C15.146 6.41439 14.5974 6.24559 14.0277 6.07679C13.9644 6.07679 13.9855 5.95019 14.0699 5.97129V5.9502Z" fill="black"/>
<path d="M14.5971 7.48953C15.1668 7.38403 15.7365 7.29963 16.3061 7.23633C16.3694 7.23633 16.3905 7.32073 16.3061 7.32073C15.7365 7.40513 15.1668 7.48953 14.5971 7.61613C14.5338 7.61613 14.4916 7.51063 14.576 7.51063L14.5971 7.48953Z" fill="black"/>
<path d="M17.4879 8.94565C17.3402 9.30435 17.2136 9.64195 17.0659 10.0007C17.0448 10.064 16.9183 10.0429 16.9394 9.95845C17.087 9.59975 17.2347 9.26215 17.3824 8.90345C17.4035 8.84015 17.509 8.86125 17.4879 8.92455V8.94565Z" fill="black"/>
<path d="M17.8677 8.69278L17.72 9.83218C17.72 9.87438 17.6567 9.87438 17.6567 9.83218L17.8044 8.69278C17.8044 8.65058 17.8677 8.65058 17.8677 8.69278Z" fill="black"/>
<path d="M17.8258 7.61617C17.8891 7.55287 17.9524 7.63727 17.9102 7.70057C17.1717 8.54457 16.4965 9.43076 15.8846 10.3592C15.8846 10.3803 15.8213 10.3592 15.8424 10.3381C16.4121 9.36746 17.0662 8.43907 17.8258 7.61617Z" fill="black"/>
<path d="M17.235 7.80663C17.2983 7.74333 17.3827 7.84883 17.3194 7.91213C16.8552 8.41853 16.3699 8.92492 15.8846 9.43132C15.8424 9.47352 15.758 9.41022 15.8213 9.34692C16.2855 8.84052 16.7497 8.31303 17.235 7.80663Z" fill="black"/>
<path d="M19.577 7.6374C20.0412 7.9539 20.5265 8.2493 21.0118 8.5447C21.0751 8.5658 21.0118 8.6502 20.9696 8.6291C20.4632 8.3759 19.9779 8.0805 19.5137 7.764C19.4293 7.7218 19.5137 7.5952 19.577 7.6374Z" fill="black"/>
<path d="M14.1752 5.16871C14.766 5.37971 15.3568 5.63291 15.9476 5.88611C16.5384 6.1393 17.1081 6.3925 17.6989 6.6668C17.8044 6.709 17.6989 6.8567 17.6145 6.8145C17.0448 6.5402 16.4751 6.287 15.8843 6.01271C15.3146 5.75951 14.7238 5.52741 14.1541 5.27421C14.0908 5.25311 14.1119 5.12651 14.1963 5.16871H14.1752Z" fill="black"/>
<path d="M18.2897 5.08461C18.3741 4.38831 18.4796 3.69201 18.564 2.99572C18.564 2.93242 18.6906 2.93242 18.6695 2.99572C18.5851 3.69201 18.5007 4.38831 18.4163 5.08461C18.4163 5.16901 18.2686 5.16901 18.2686 5.08461H18.2897Z" fill="black"/>
<path d="M15.6734 6.18185C15.2725 7.51114 16.0321 8.90374 17.3614 9.30464C18.6907 9.70554 20.0833 8.94594 20.4842 7.61664C20.8851 6.28735 20.1255 4.89475 18.7962 4.49385C17.4669 4.09295 16.0743 4.85255 15.6734 6.18185Z" fill="black"/>
</g>
<path d="M65.0557 9.6901C58.7304 15.2735 56.6304 15.9737 51.978 17.6924C48.3594 19.0291 45.3258 18.9288 44.7585 19.2269C43.8926 19.682 46.5183 20.6855 48.4484 20.4176C49.2611 20.3048 50.6042 20.0533 54.1854 18.6981C58.78 16.9594 65.899 8.94565 65.0557 9.6901Z" fill="#FF3939"/>
<path d="M1.66126 11.225C8.28427 16.4517 10.4197 17.0353 15.1597 18.4952C18.8463 19.6307 21.8699 19.3636 22.4526 19.63C23.3423 20.0367 20.7758 21.1832 18.8339 21.022C18.0162 20.9541 16.6613 20.7769 13.011 19.6209C8.32755 18.1378 0.778189 10.5281 1.66126 11.225Z" fill="#FF3939"/>
<defs>
<clipPath id="clip0_1240_5970">
<rect width="26.185" height="15.4663" fill="white" transform="translate(36.8164)"/>
</clipPath>
<clipPath id="clip1_1240_5970">
<rect width="26.185" height="15.4663" fill="white" transform="matrix(-1 0 0 1 28.1855 0)"/>
</clipPath>
</defs>
</svg>
