<svg width="29" height="20" viewBox="0 0 29 20" fill="none" xmlns="http://www.w3.org/2000/svg">
<g clip-path="url(#clip0_1843_765)">
<path fill-rule="evenodd" clip-rule="evenodd" d="M10.26 2.64062C8.40604 3.80197 7.45848 6.10005 8.11208 8.31386C8.89278 10.9725 11.6991 12.4917 14.3577 11.6899C17.0163 10.9092 18.5354 8.10286 17.7337 5.44427C17.4006 4.32017 16.6978 3.3809 15.8078 2.7683C16.1263 2.78639 16.4448 2.80626 16.7633 2.82785C17.4596 3.50305 17.9871 4.32595 18.2824 5.31764C19.1475 8.27163 17.4596 11.3733 14.5056 12.2595C11.5516 13.1246 8.44988 11.4366 7.56368 8.48263C6.90958 6.30934 7.66918 4.05165 9.27278 2.65905C9.60221 2.65074 9.93129 2.64462 10.26 2.64062Z" fill="black"/>
<path d="M3.47063 6.39376C3.91373 5.57087 4.44122 4.76907 4.65222 4.47367C6.19252 2.44808 8.30251 2.06828 10.6657 1.83618C14.3793 1.47748 18.2617 1.87838 21.8065 3.10218C22.5872 3.37647 23.3468 3.67187 24.0853 4.03057C24.8238 4.36817 25.5834 4.74797 26.1953 5.29657C26.4063 5.46537 26.6173 5.63417 26.8072 5.80297C26.8916 5.86627 26.9549 5.95067 27.0182 6.01397C27.0604 6.05617 27.0182 6.11947 26.976 6.11947C26.976 6.11947 26.9338 6.11947 26.9127 6.11947C26.7439 5.99287 26.5751 5.86627 26.3852 5.76077C26.3852 5.76077 26.3852 5.76077 26.3852 5.78187C26.3852 5.78187 26.3852 5.82407 26.3852 5.84517C26.6173 6.28827 26.9549 6.66806 27.2925 7.04786C27.7778 7.57536 28.3053 8.06066 28.8539 8.50376C28.8961 8.52486 28.9172 8.56706 28.9594 8.58816C28.8539 8.54596 28.7484 8.48266 28.6429 8.44046C28.1154 8.14506 27.5879 7.84966 27.0604 7.53316C26.5118 7.21666 25.9843 6.87906 25.4357 6.52036C24.3596 7.59646 23.3468 8.71476 22.1863 9.70646C19.38 12.0907 15.9829 13.9475 12.2482 14.053C10.5602 14.0952 8.87221 13.6943 7.37412 12.9558C5.93932 12.2595 5.05312 11.2467 3.87153 10.2551C6.27692 12.2806 9.44191 13.3989 12.5858 13.3356C16.1306 13.2723 19.2534 11.7109 21.8909 9.41106C22.4606 8.92576 23.0092 8.39826 23.4945 7.82856C23.6 7.70196 24.8449 6.11947 24.7816 6.09837C24.5284 5.99287 24.2752 5.88737 24.022 5.80297C21.5111 4.66357 18.8736 3.71407 16.1517 3.39757C14.6747 3.22877 13.1766 3.24987 11.6996 3.39757C10.1382 3.54527 8.72451 3.71407 7.20532 4.09387C6.25582 4.32597 5.43292 5.21217 4.84212 5.97177C4.50452 6.41486 4.20913 6.90016 3.93483 7.40656C3.87153 7.51206 3.74493 7.84966 3.59723 8.10286C3.55503 8.20836 3.51283 8.31386 3.47063 8.41936C3.47063 8.44046 3.44953 8.48266 3.42843 8.52486C3.42843 8.58816 3.42843 8.65146 3.40733 8.71476C3.38623 8.84136 3.28073 8.92576 3.15413 8.90466C3.00643 8.77806 2.90093 8.65146 2.81653 8.46156C2.66883 8.10286 3.00643 7.25886 3.42843 6.43597L3.47063 6.39376Z" fill="black"/>
<path d="M13.5566 7.36362C13.3456 7.21592 13.1135 7.06822 12.9025 6.89942C12.9658 6.32972 13.008 5.78112 13.0713 5.21142C13.1135 4.66283 13.1768 4.11423 13.2401 3.56563C13.2401 3.54453 13.1979 3.54453 13.1979 3.56563C13.0924 4.66283 12.9658 5.73892 12.8181 6.83612C12.2484 6.43522 11.6787 6.03432 11.109 5.63342C10.6448 5.31692 10.1806 4.95823 9.71636 4.68393C9.69526 4.68393 9.67416 4.68393 9.69526 4.72613C10.0751 5.04263 10.4971 5.33802 10.9191 5.63342C11.32 5.92882 11.7209 6.22422 12.1218 6.49852C12.3539 6.66732 12.586 6.83612 12.8181 6.98382C12.7337 7.78562 12.6282 8.56632 12.5438 9.36811L12.3539 10.9928C12.3539 11.1194 12.5016 11.1405 12.5227 10.9928C12.6493 9.68461 12.7759 8.35532 12.9025 7.04712C13.4511 7.44802 13.9997 7.84892 14.5693 8.24982C15.0335 8.58741 15.4977 8.90391 15.9408 9.24151C16.0463 9.32591 16.1729 9.15711 16.0463 9.07271C15.2023 8.50302 14.3794 7.93332 13.5566 7.34252V7.36362Z" fill="black"/>
<path d="M14.0627 5.92847C14.6113 5.59087 15.1599 5.23217 15.7085 4.89457C15.7718 4.85237 15.7085 4.74687 15.6452 4.78907C15.0966 5.12667 14.548 5.46427 13.9994 5.82297C13.915 5.86517 13.9994 5.99177 14.0627 5.94957V5.92847Z" fill="black"/>
<path d="M12.3329 7.93282C11.9742 8.77681 11.6155 9.59971 11.2568 10.4437C11.2568 10.4859 11.299 10.5281 11.3201 10.4859C11.6999 9.66301 12.0797 8.84012 12.4595 8.01722C12.5017 7.93282 12.3751 7.86952 12.3329 7.95392V7.93282Z" fill="black"/>
<path d="M11.8686 7.65882C11.0879 8.35512 10.3072 9.05142 9.48428 9.70551C9.44208 9.72661 9.48428 9.81101 9.52648 9.76881C10.3494 9.11472 11.1723 8.46062 11.9741 7.76432C12.0374 7.70102 11.9319 7.61662 11.8686 7.65882Z" fill="black"/>
<path d="M9.44195 8.03839C10.1804 7.78519 10.9189 7.51089 11.6574 7.25769C11.7207 7.23659 11.6996 7.13109 11.6363 7.15219C10.8978 7.42649 10.1804 7.70079 9.44195 7.97509C9.39975 7.97509 9.42085 8.05949 9.46305 8.05949L9.44195 8.03839Z" fill="black"/>
<path d="M9.48477 7.19419L11.1728 7.13089C11.2361 7.13089 11.2361 7.02539 11.1728 7.02539C10.6031 7.06759 10.0545 7.08869 9.48477 7.13089C9.44258 7.13089 9.44258 7.19419 9.48477 7.19419Z" fill="black"/>
<path d="M9.2101 5.99163C10.033 6.22373 10.8559 6.49802 11.6577 6.79342C11.7421 6.83562 11.7843 6.68792 11.6999 6.64572C10.877 6.37143 10.0541 6.11823 9.2312 5.90723C9.1679 5.90723 9.1468 5.97053 9.2101 5.99163Z" fill="black"/>
<path d="M11.5734 5.50695C11.6156 5.54915 11.6789 5.48585 11.6367 5.44365C11.4257 5.21155 11.2147 5.00056 11.0037 4.76846C10.9826 4.72626 10.9193 4.76846 10.9615 4.81066C11.1725 5.04276 11.3624 5.27485 11.5734 5.50695Z" fill="black"/>
<path d="M12.1431 5.44286L11.4046 3.64936C11.4046 3.60716 11.3202 3.62826 11.3413 3.64936L12.0376 5.46396C12.0587 5.52726 12.1642 5.48506 12.1431 5.44286Z" fill="black"/>
<path d="M12.4595 5.61205C12.2063 4.74695 11.9742 3.86076 11.721 2.99566C11.721 2.95346 11.6366 2.97456 11.6577 3.01676C11.8898 3.88186 12.1219 4.76805 12.354 5.63315C12.354 5.69645 12.4806 5.67535 12.4595 5.59095V5.61205Z" fill="black"/>
<path d="M13.5782 5.29606C14.169 4.64196 14.7809 4.00896 15.3928 3.35487C15.4561 3.29157 15.3506 3.20717 15.3084 3.27047C14.7176 3.92456 14.1268 4.57866 13.5149 5.23276C13.4727 5.27496 13.536 5.33826 13.5782 5.29606Z" fill="black"/>
<path d="M13.9151 5.54898C14.4215 5.16918 14.9068 4.78938 15.3921 4.36739C15.4343 4.32519 15.3921 4.24079 15.3288 4.28299C14.8435 4.68388 14.3582 5.08478 13.8729 5.48568C13.8307 5.50678 13.8729 5.57008 13.9151 5.54898Z" fill="black"/>
<path d="M16.9331 5.9502C16.3845 6.14009 15.8148 6.30889 15.2662 6.49879C15.224 6.49879 15.2451 6.58319 15.2873 6.58319C15.857 6.41439 16.4056 6.24559 16.9753 6.07679C17.0386 6.07679 17.0175 5.95019 16.9331 5.97129V5.9502Z" fill="black"/>
<path d="M16.4054 7.48953C15.8357 7.38403 15.266 7.29963 14.6963 7.23633C14.633 7.23633 14.6119 7.32073 14.6963 7.32073C15.266 7.40513 15.8357 7.48953 16.4054 7.61613C16.4687 7.61613 16.5109 7.51063 16.4265 7.51063L16.4054 7.48953Z" fill="black"/>
<path d="M13.5145 8.94565C13.6622 9.30435 13.7888 9.64195 13.9365 10.0007C13.9576 10.064 14.0842 10.0429 14.0631 9.95845C13.9154 9.59975 13.7677 9.26215 13.62 8.90345C13.5989 8.84015 13.4934 8.86125 13.5145 8.92455V8.94565Z" fill="black"/>
<path d="M13.1348 8.69278L13.2825 9.83218C13.2825 9.87438 13.3458 9.87438 13.3458 9.83218L13.1981 8.69278C13.1981 8.65058 13.1348 8.65058 13.1348 8.69278Z" fill="black"/>
<path d="M13.1772 7.61617C13.1139 7.55287 13.0506 7.63727 13.0928 7.70057C13.8313 8.54457 14.5065 9.43076 15.1184 10.3592C15.1184 10.3803 15.1817 10.3592 15.1606 10.3381C14.5909 9.36746 13.9368 8.43907 13.1772 7.61617Z" fill="black"/>
<path d="M13.768 7.80663C13.7047 7.74333 13.6203 7.84883 13.6836 7.91213C14.1478 8.41853 14.633 8.92492 15.1183 9.43132C15.1605 9.47352 15.2449 9.41022 15.1816 9.34692C14.7174 8.84052 14.2533 8.31303 13.768 7.80663Z" fill="black"/>
<path d="M11.4254 7.6374C10.9612 7.9539 10.4759 8.2493 9.99065 8.5447C9.92735 8.5658 9.99065 8.6502 10.0328 8.6291C10.5392 8.3759 11.0245 8.0805 11.4887 7.764C11.5731 7.7218 11.4887 7.5952 11.4254 7.6374Z" fill="black"/>
<path d="M16.8267 5.16871C16.2359 5.37971 15.6451 5.63291 15.0543 5.88611C14.4635 6.1393 13.8938 6.3925 13.303 6.6668C13.1975 6.709 13.303 6.8567 13.3874 6.8145C13.9571 6.5402 14.5268 6.287 15.1176 6.01271C15.6873 5.75951 16.2781 5.52741 16.8478 5.27421C16.9111 5.25311 16.89 5.12651 16.8056 5.16871H16.8267Z" fill="black"/>
<path d="M12.7122 5.08461C12.6279 4.38831 12.5223 3.69201 12.438 2.99572C12.438 2.93242 12.3114 2.93242 12.3325 2.99572C12.4169 3.69201 12.5012 4.38831 12.5856 5.08461C12.5856 5.16901 12.7333 5.16901 12.7333 5.08461H12.7122Z" fill="black"/>
<path d="M15.3291 6.18185C15.73 7.51114 14.9704 8.90374 13.6411 9.30464C12.3118 9.70554 10.9192 8.94594 10.5183 7.61664C10.1174 6.28735 10.877 4.89475 12.2063 4.49385C13.5356 4.09295 14.9282 4.85255 15.3291 6.18185Z" fill="black"/>
</g>
<path d="M1.47499 9.5663C2.88607 13.2319 3.62498 13.9464 5.22274 15.6021C6.46544 16.8899 7.79349 17.4375 7.96754 17.678C8.23321 18.045 8.20905 18.4407 7.30087 18.4732C6.39269 18.5056 5.24273 17.7749 3.907 15.9295C0.790296 11.6237 1.28685 9.07754 1.47499 9.5663Z" fill="#FF3939"/>
<defs>
<clipPath id="clip0_1843_765">
<rect width="26.185" height="15.4663" fill="white" transform="translate(2.81641)"/>
</clipPath>
</defs>
</svg>
