<svg width="27" height="18" viewBox="0 0 27 18" fill="none" xmlns="http://www.w3.org/2000/svg">
<g clip-path="url(#clip0_1843_490)">
<path fill-rule="evenodd" clip-rule="evenodd" d="M8.26005 2.64062C6.40604 3.80197 5.45848 6.10005 6.11208 8.31386C6.89278 10.9725 9.69907 12.4917 12.3577 11.6899C15.0163 10.9092 16.5354 8.10286 15.7337 5.44427C15.4006 4.32017 14.6978 3.3809 13.8078 2.7683C14.1263 2.78639 14.4448 2.80626 14.7633 2.82785C15.4596 3.50305 15.9871 4.32595 16.2824 5.31764C17.1475 8.27163 15.4596 11.3733 12.5056 12.2595C9.55157 13.1246 6.44988 11.4366 5.56368 8.48263C4.90958 6.30934 5.66918 4.05165 7.27278 2.65905C7.60221 2.65074 7.93129 2.64462 8.26005 2.64062Z" fill="black"/>
<path d="M1.47063 6.39376C1.91373 5.57087 2.44122 4.76907 2.65222 4.47367C4.19252 2.44808 6.30251 2.06828 8.66571 1.83618C12.3793 1.47748 16.2617 1.87838 19.8065 3.10218C20.5872 3.37647 21.3468 3.67187 22.0853 4.03057C22.8238 4.36817 23.5834 4.74797 24.1953 5.29657C24.4063 5.46537 24.6173 5.63417 24.8072 5.80297C24.8916 5.86627 24.9549 5.95067 25.0182 6.01397C25.0604 6.05617 25.0182 6.11947 24.976 6.11947C24.976 6.11947 24.9338 6.11947 24.9127 6.11947C24.7439 5.99287 24.5751 5.86627 24.3852 5.76077C24.3852 5.76077 24.3852 5.76077 24.3852 5.78187C24.3852 5.78187 24.3852 5.82407 24.3852 5.84517C24.6173 6.28827 24.9549 6.66806 25.2925 7.04786C25.7778 7.57536 26.3053 8.06066 26.8539 8.50376C26.8961 8.52486 26.9172 8.56706 26.9594 8.58816C26.8539 8.54596 26.7484 8.48266 26.6429 8.44046C26.1154 8.14506 25.5879 7.84966 25.0604 7.53316C24.5118 7.21666 23.9843 6.87906 23.4357 6.52036C22.3596 7.59646 21.3468 8.71476 20.1863 9.70646C17.38 12.0907 13.9829 13.9475 10.2482 14.053C8.56021 14.0952 6.87221 13.6943 5.37412 12.9558C3.93932 12.2595 3.05312 11.2467 1.87153 10.2551C4.27692 12.2806 7.44191 13.3989 10.5858 13.3356C14.1306 13.2723 17.2534 11.7109 19.8909 9.41106C20.4606 8.92576 21.0092 8.39826 21.4945 7.82856C21.6 7.70196 22.8449 6.11947 22.7816 6.09837C22.5284 5.99287 22.2752 5.88737 22.022 5.80297C19.5111 4.66357 16.8736 3.71407 14.1517 3.39757C12.6747 3.22877 11.1766 3.24987 9.6996 3.39757C8.13821 3.54527 6.72451 3.71407 5.20532 4.09387C4.25582 4.32597 3.43292 5.21217 2.84212 5.97177C2.50452 6.41486 2.20913 6.90016 1.93483 7.40656C1.87153 7.51206 1.74493 7.84966 1.59723 8.10286C1.55503 8.20836 1.51283 8.31386 1.47063 8.41936C1.47063 8.44046 1.44953 8.48266 1.42843 8.52486C1.42843 8.58816 1.42843 8.65146 1.40733 8.71476C1.38623 8.84136 1.28073 8.92576 1.15413 8.90466C1.00643 8.77806 0.900929 8.65146 0.81653 8.46156C0.66883 8.10286 1.00643 7.25886 1.42843 6.43597L1.47063 6.39376Z" fill="black"/>
<path d="M11.5566 7.36362C11.3456 7.21592 11.1135 7.06822 10.9025 6.89942C10.9658 6.32972 11.008 5.78112 11.0713 5.21142C11.1135 4.66283 11.1768 4.11423 11.2401 3.56563C11.2401 3.54453 11.1979 3.54453 11.1979 3.56563C11.0924 4.66283 10.9658 5.73892 10.8181 6.83612C10.2484 6.43522 9.67866 6.03432 9.10896 5.63342C8.64476 5.31692 8.18056 4.95823 7.71636 4.68393C7.69526 4.68393 7.67416 4.68393 7.69526 4.72613C8.07506 5.04263 8.49706 5.33802 8.91906 5.63342C9.31996 5.92882 9.72086 6.22422 10.1218 6.49852C10.3539 6.66732 10.586 6.83612 10.8181 6.98382C10.7337 7.78562 10.6282 8.56632 10.5438 9.36811L10.3539 10.9928C10.3539 11.1194 10.5016 11.1405 10.5227 10.9928C10.6493 9.68461 10.7759 8.35532 10.9025 7.04712C11.4511 7.44802 11.9997 7.84892 12.5693 8.24982C13.0335 8.58741 13.4977 8.90391 13.9408 9.24151C14.0463 9.32591 14.1729 9.15711 14.0463 9.07271C13.2023 8.50302 12.3794 7.93332 11.5566 7.34252V7.36362Z" fill="black"/>
<path d="M12.0627 5.92847C12.6113 5.59087 13.1599 5.23217 13.7085 4.89457C13.7718 4.85237 13.7085 4.74687 13.6452 4.78907C13.0966 5.12667 12.548 5.46427 11.9994 5.82297C11.915 5.86517 11.9994 5.99177 12.0627 5.94957V5.92847Z" fill="black"/>
<path d="M10.3329 7.93282C9.97423 8.77681 9.61553 9.59971 9.25684 10.4437C9.25684 10.4859 9.29904 10.5281 9.32014 10.4859C9.69993 9.66301 10.0797 8.84012 10.4595 8.01722C10.5017 7.93282 10.3751 7.86952 10.3329 7.95392V7.93282Z" fill="black"/>
<path d="M9.86857 7.65882C9.08787 8.35512 8.30717 9.05142 7.48428 9.70551C7.44208 9.72661 7.48428 9.81101 7.52648 9.76881C8.34937 9.11472 9.17227 8.46062 9.97407 7.76432C10.0374 7.70102 9.93187 7.61662 9.86857 7.65882Z" fill="black"/>
<path d="M7.44195 8.03839C8.18045 7.78519 8.91894 7.51089 9.65744 7.25769C9.72074 7.23659 9.69964 7.13109 9.63634 7.15219C8.89784 7.42649 8.18045 7.70079 7.44195 7.97509C7.39975 7.97509 7.42085 8.05949 7.46305 8.05949L7.44195 8.03839Z" fill="black"/>
<path d="M7.48477 7.19419L9.17277 7.13089C9.23607 7.13089 9.23607 7.02539 9.17277 7.02539C8.60307 7.06759 8.05447 7.08869 7.48477 7.13089C7.44258 7.13089 7.44258 7.19419 7.48477 7.19419Z" fill="black"/>
<path d="M7.2101 5.99163C8.03299 6.22373 8.85589 6.49802 9.65769 6.79342C9.74209 6.83562 9.78429 6.68792 9.69989 6.64572C8.87699 6.37143 8.05409 6.11823 7.2312 5.90723C7.1679 5.90723 7.1468 5.97053 7.2101 5.99163Z" fill="black"/>
<path d="M9.57336 5.50695C9.61556 5.54915 9.67886 5.48585 9.63666 5.44365C9.42566 5.21155 9.21466 5.00056 9.00366 4.76846C8.98256 4.72626 8.91926 4.76846 8.96146 4.81066C9.17246 5.04276 9.36236 5.27485 9.57336 5.50695Z" fill="black"/>
<path d="M10.1431 5.44286L9.40458 3.64936C9.40458 3.60716 9.32018 3.62826 9.34128 3.64936L10.0376 5.46396C10.0587 5.52726 10.1642 5.48506 10.1431 5.44286Z" fill="black"/>
<path d="M10.4595 5.61205C10.2063 4.74695 9.97418 3.86076 9.72098 2.99566C9.72098 2.95346 9.63658 2.97456 9.65768 3.01676C9.88978 3.88186 10.1219 4.76805 10.354 5.63315C10.354 5.69645 10.4806 5.67535 10.4595 5.59095V5.61205Z" fill="black"/>
<path d="M11.5782 5.29606C12.169 4.64196 12.7809 4.00896 13.3928 3.35487C13.4561 3.29157 13.3506 3.20717 13.3084 3.27047C12.7176 3.92456 12.1268 4.57866 11.5149 5.23276C11.4727 5.27496 11.536 5.33826 11.5782 5.29606Z" fill="black"/>
<path d="M11.9151 5.54898C12.4215 5.16918 12.9068 4.78938 13.3921 4.36739C13.4343 4.32519 13.3921 4.24079 13.3288 4.28299C12.8435 4.68388 12.3582 5.08478 11.8729 5.48568C11.8307 5.50678 11.8729 5.57008 11.9151 5.54898Z" fill="black"/>
<path d="M14.9331 5.9502C14.3845 6.14009 13.8148 6.30889 13.2662 6.49879C13.224 6.49879 13.2451 6.58319 13.2873 6.58319C13.857 6.41439 14.4056 6.24559 14.9753 6.07679C15.0386 6.07679 15.0175 5.95019 14.9331 5.97129V5.9502Z" fill="black"/>
<path d="M14.4054 7.48953C13.8357 7.38403 13.266 7.29963 12.6963 7.23633C12.633 7.23633 12.6119 7.32073 12.6963 7.32073C13.266 7.40513 13.8357 7.48953 14.4054 7.61613C14.4687 7.61613 14.5109 7.51063 14.4265 7.51063L14.4054 7.48953Z" fill="black"/>
<path d="M11.5145 8.94565C11.6622 9.30435 11.7888 9.64195 11.9365 10.0007C11.9576 10.064 12.0842 10.0429 12.0631 9.95845C11.9154 9.59975 11.7677 9.26215 11.62 8.90345C11.5989 8.84015 11.4934 8.86125 11.5145 8.92455V8.94565Z" fill="black"/>
<path d="M11.1348 8.69278L11.2825 9.83218C11.2825 9.87438 11.3458 9.87438 11.3458 9.83218L11.1981 8.69278C11.1981 8.65058 11.1348 8.65058 11.1348 8.69278Z" fill="black"/>
<path d="M11.1772 7.61617C11.1139 7.55287 11.0506 7.63727 11.0928 7.70057C11.8313 8.54457 12.5065 9.43076 13.1184 10.3592C13.1184 10.3803 13.1817 10.3592 13.1606 10.3381C12.5909 9.36746 11.9368 8.43907 11.1772 7.61617Z" fill="black"/>
<path d="M11.768 7.80663C11.7047 7.74333 11.6203 7.84883 11.6836 7.91213C12.1478 8.41853 12.633 8.92492 13.1183 9.43132C13.1605 9.47352 13.2449 9.41022 13.1816 9.34692C12.7174 8.84052 12.2533 8.31303 11.768 7.80663Z" fill="black"/>
<path d="M9.42544 7.6374C8.96124 7.9539 8.47595 8.2493 7.99065 8.5447C7.92735 8.5658 7.99065 8.6502 8.03285 8.6291C8.53925 8.3759 9.02454 8.0805 9.48874 7.764C9.57314 7.7218 9.48874 7.5952 9.42544 7.6374Z" fill="black"/>
<path d="M14.8267 5.16871C14.2359 5.37971 13.6451 5.63291 13.0543 5.88611C12.4635 6.1393 11.8938 6.3925 11.303 6.6668C11.1975 6.709 11.303 6.8567 11.3874 6.8145C11.9571 6.5402 12.5268 6.287 13.1176 6.01271C13.6873 5.75951 14.2781 5.52741 14.8478 5.27421C14.9111 5.25311 14.89 5.12651 14.8056 5.16871H14.8267Z" fill="black"/>
<path d="M10.7122 5.08461C10.6279 4.38831 10.5223 3.69201 10.438 2.99572C10.438 2.93242 10.3114 2.93242 10.3325 2.99572C10.4169 3.69201 10.5012 4.38831 10.5856 5.08461C10.5856 5.16901 10.7333 5.16901 10.7333 5.08461H10.7122Z" fill="black"/>
<path d="M13.3291 6.18185C13.73 7.51114 12.9704 8.90374 11.6411 9.30464C10.3118 9.70554 8.91917 8.94594 8.51827 7.61664C8.11737 6.28735 8.87697 4.89475 10.2063 4.49385C11.5356 4.09295 12.9282 4.85255 13.3291 6.18185Z" fill="black"/>
</g>
<path d="M21.5176 14C14.0176 16 12.0185 15.6429 7.51851 15C4.01851 14.5 1.60399 13 1.01766 13C0.122606 13 -0.482587 13.5 0.517413 15C1.51741 16.5 4.01852 17.5 8.51852 17.5C19.0185 17.5 22.5176 13.7333 21.5176 14Z" fill="#FF3939"/>
<defs>
<clipPath id="clip0_1843_490">
<rect width="26.185" height="15.4663" fill="white" transform="translate(0.816406)"/>
</clipPath>
</defs>
</svg>
