<svg width="30" height="23" viewBox="0 0 30 23" fill="none" xmlns="http://www.w3.org/2000/svg">
<g clip-path="url(#clip0_1843_558)">
<path fill-rule="evenodd" clip-rule="evenodd" d="M7.44364 2.64062C5.58963 3.80197 4.64207 6.10005 5.29567 8.31386C6.07637 10.9725 8.88266 12.4917 11.5413 11.6899C14.1998 10.9092 15.719 8.10286 14.9172 5.44427C14.5842 4.32017 13.8814 3.3809 12.9914 2.7683C13.3099 2.78639 13.6284 2.80626 13.9468 2.82785C14.6431 3.50305 15.1706 4.32595 15.466 5.31764C16.3311 8.27163 14.6431 11.3733 11.6892 12.2595C8.73516 13.1246 5.63347 11.4366 4.74728 8.48263C4.09318 6.30934 4.85278 4.05165 6.45637 2.65905C6.78581 2.65074 7.11488 2.64462 7.44364 2.64062Z" fill="black"/>
<path d="M0.654221 6.39376C1.09732 5.57087 1.62482 4.76907 1.83582 4.47367C3.37611 2.44808 5.48611 2.06828 7.8493 1.83618C11.5629 1.47748 15.4453 1.87838 18.9901 3.10218C19.7708 3.37647 20.5304 3.67187 21.2689 4.03057C22.0074 4.36817 22.767 4.74797 23.3789 5.29657C23.5899 5.46537 23.8008 5.63417 23.9907 5.80297C24.0751 5.86627 24.1384 5.95067 24.2017 6.01397C24.2439 6.05617 24.2017 6.11947 24.1595 6.11947C24.1595 6.11947 24.1173 6.11947 24.0963 6.11947C23.9275 5.99287 23.7586 5.86627 23.5688 5.76077C23.5688 5.76077 23.5688 5.76077 23.5688 5.78187C23.5688 5.78187 23.5688 5.82407 23.5688 5.84517C23.8008 6.28827 24.1385 6.66806 24.476 7.04786C24.9613 7.57536 25.4888 8.06066 26.0374 8.50376C26.0796 8.52486 26.1007 8.56706 26.1429 8.58816C26.0374 8.54596 25.9319 8.48266 25.8264 8.44046C25.2989 8.14506 24.7714 7.84966 24.2439 7.53316C23.6954 7.21666 23.1679 6.87906 22.6193 6.52036C21.5432 7.59646 20.5304 8.71476 19.3699 9.70646C16.5636 12.0907 13.1665 13.9475 9.43179 14.053C7.7438 14.0952 6.0558 13.6943 4.55771 12.9558C3.12291 12.2595 2.23672 11.2467 1.05512 10.2551C3.46051 12.2806 6.6255 13.3989 9.76939 13.3356C13.3142 13.2723 16.437 11.7109 19.0745 9.41106C19.6442 8.92576 20.1928 8.39826 20.6781 7.82856C20.7836 7.70196 22.0285 6.11947 21.9652 6.09837C21.712 5.99287 21.4588 5.88737 21.2056 5.80297C18.6947 4.66357 16.0572 3.71407 13.3353 3.39757C11.8583 3.22877 10.3602 3.24987 8.8832 3.39757C7.3218 3.54527 5.9081 3.71407 4.38891 4.09387C3.43941 4.32597 2.61652 5.21217 2.02572 5.97177C1.68812 6.41486 1.39272 6.90016 1.11842 7.40656C1.05512 7.51206 0.928521 7.84966 0.780821 8.10286C0.738621 8.20836 0.696421 8.31386 0.654221 8.41936C0.654221 8.44046 0.633121 8.48266 0.612022 8.52486C0.612022 8.58816 0.612022 8.65146 0.590922 8.71476C0.569822 8.84136 0.464322 8.92576 0.337722 8.90466C0.190023 8.77806 0.0845231 8.65146 0.000123367 8.46156C-0.147576 8.10286 0.190023 7.25886 0.612022 6.43597L0.654221 6.39376Z" fill="black"/>
<path d="M10.7401 7.36362C10.5291 7.21592 10.297 7.06822 10.086 6.89942C10.1493 6.32972 10.1915 5.78112 10.2548 5.21142C10.297 4.66283 10.3603 4.11423 10.4236 3.56563C10.4236 3.54453 10.3814 3.54453 10.3814 3.56563C10.2759 4.66283 10.1493 5.73892 10.0016 6.83612C9.43195 6.43522 8.86225 6.03432 8.29255 5.63342C7.82835 5.31692 7.36416 4.95823 6.89996 4.68393C6.87886 4.68393 6.85776 4.68393 6.87886 4.72613C7.25866 5.04263 7.68066 5.33802 8.10265 5.63342C8.50355 5.92882 8.90445 6.22422 9.30535 6.49852C9.53745 6.66732 9.76955 6.83612 10.0016 6.98382C9.91725 7.78562 9.81175 8.56632 9.72735 9.36811L9.53745 10.9928C9.53745 11.1194 9.68515 11.1405 9.70625 10.9928C9.83285 9.68461 9.95945 8.35532 10.086 7.04712C10.6346 7.44802 11.1832 7.84892 11.7529 8.24982C12.2171 8.58741 12.6813 8.90391 13.1244 9.24151C13.2299 9.32591 13.3565 9.15711 13.2299 9.07271C12.3859 8.50302 11.563 7.93332 10.7401 7.34252V7.36362Z" fill="black"/>
<path d="M11.2463 5.92847C11.7949 5.59087 12.3435 5.23217 12.8921 4.89457C12.9554 4.85237 12.8921 4.74687 12.8288 4.78907C12.2802 5.12667 11.7316 5.46427 11.183 5.82297C11.0986 5.86517 11.183 5.99177 11.2463 5.94957V5.92847Z" fill="black"/>
<path d="M9.51653 7.93282C9.15783 8.77681 8.79913 9.59971 8.44043 10.4437C8.44043 10.4859 8.48263 10.5281 8.50373 10.4859C8.88353 9.66301 9.26333 8.84012 9.64313 8.01722C9.68533 7.93282 9.55873 7.86952 9.51653 7.95392V7.93282Z" fill="black"/>
<path d="M9.05216 7.65882C8.27147 8.35512 7.49077 9.05142 6.66787 9.70551C6.62567 9.72661 6.66787 9.81101 6.71007 9.76881C7.53297 9.11472 8.35587 8.46062 9.15766 7.76432C9.22096 7.70102 9.11546 7.61662 9.05216 7.65882Z" fill="black"/>
<path d="M6.62554 8.03839C7.36404 7.78519 8.10254 7.51089 8.84104 7.25769C8.90433 7.23659 8.88323 7.13109 8.81993 7.15219C8.08144 7.42649 7.36404 7.70079 6.62554 7.97509C6.58334 7.97509 6.60444 8.05949 6.64664 8.05949L6.62554 8.03839Z" fill="black"/>
<path d="M6.66837 7.19419L8.35636 7.13089C8.41966 7.13089 8.41966 7.02539 8.35636 7.02539C7.78666 7.06759 7.23807 7.08869 6.66837 7.13089C6.62617 7.13089 6.62617 7.19419 6.66837 7.19419Z" fill="black"/>
<path d="M6.39369 5.99163C7.21659 6.22373 8.03948 6.49802 8.84128 6.79342C8.92568 6.83562 8.96788 6.68792 8.88348 6.64572C8.06058 6.37143 7.23769 6.11823 6.41479 5.90723C6.35149 5.90723 6.33039 5.97053 6.39369 5.99163Z" fill="black"/>
<path d="M8.75695 5.50695C8.79915 5.54915 8.86245 5.48585 8.82025 5.44365C8.60925 5.21155 8.39825 5.00056 8.18725 4.76846C8.16615 4.72626 8.10285 4.76846 8.14505 4.81066C8.35605 5.04276 8.54595 5.27485 8.75695 5.50695Z" fill="black"/>
<path d="M9.32667 5.44286L8.58817 3.64936C8.58817 3.60716 8.50377 3.62826 8.52487 3.64936L9.22117 5.46396C9.24227 5.52726 9.34777 5.48506 9.32667 5.44286Z" fill="black"/>
<path d="M9.64307 5.61205C9.38988 4.74695 9.15778 3.86076 8.90458 2.99566C8.90458 2.95346 8.82018 2.97456 8.84128 3.01676C9.07338 3.88186 9.30548 4.76805 9.53757 5.63315C9.53757 5.69645 9.66417 5.67535 9.64307 5.59095V5.61205Z" fill="black"/>
<path d="M10.7618 5.29606C11.3526 4.64196 11.9645 4.00896 12.5764 3.35487C12.6397 3.29157 12.5342 3.20717 12.492 3.27047C11.9012 3.92456 11.3104 4.57866 10.6985 5.23276C10.6563 5.27496 10.7196 5.33826 10.7618 5.29606Z" fill="black"/>
<path d="M11.0987 5.54898C11.6051 5.16918 12.0904 4.78938 12.5757 4.36739C12.6179 4.32519 12.5757 4.24079 12.5124 4.28299C12.0271 4.68388 11.5418 5.08478 11.0565 5.48568C11.0143 5.50678 11.0565 5.57008 11.0987 5.54898Z" fill="black"/>
<path d="M14.1167 5.9502C13.5681 6.14009 12.9984 6.30889 12.4498 6.49879C12.4076 6.49879 12.4287 6.58319 12.4709 6.58319C13.0406 6.41439 13.5892 6.24559 14.1589 6.07679C14.2222 6.07679 14.2011 5.95019 14.1167 5.97129V5.9502Z" fill="black"/>
<path d="M13.589 7.48953C13.0193 7.38403 12.4496 7.29963 11.8799 7.23633C11.8166 7.23633 11.7955 7.32073 11.8799 7.32073C12.4496 7.40513 13.0193 7.48953 13.589 7.61613C13.6523 7.61613 13.6945 7.51063 13.6101 7.51063L13.589 7.48953Z" fill="black"/>
<path d="M10.6981 8.94565C10.8458 9.30435 10.9724 9.64195 11.1201 10.0007C11.1412 10.064 11.2678 10.0429 11.2467 9.95845C11.099 9.59975 10.9513 9.26215 10.8036 8.90345C10.7825 8.84015 10.677 8.86125 10.6981 8.92455V8.94565Z" fill="black"/>
<path d="M10.3184 8.69278L10.4661 9.83218C10.4661 9.87438 10.5294 9.87438 10.5294 9.83218L10.3817 8.69278C10.3817 8.65058 10.3184 8.65058 10.3184 8.69278Z" fill="black"/>
<path d="M10.3608 7.61617C10.2975 7.55287 10.2342 7.63727 10.2764 7.70057C11.0149 8.54457 11.6901 9.43076 12.302 10.3592C12.302 10.3803 12.3653 10.3592 12.3442 10.3381C11.7745 9.36746 11.1204 8.43907 10.3608 7.61617Z" fill="black"/>
<path d="M10.9515 7.80663C10.8882 7.74333 10.8038 7.84883 10.8671 7.91213C11.3313 8.41853 11.8166 8.92492 12.3019 9.43132C12.3441 9.47352 12.4285 9.41022 12.3652 9.34692C11.901 8.84052 11.4368 8.31303 10.9515 7.80663Z" fill="black"/>
<path d="M8.60904 7.6374C8.14484 7.9539 7.65954 8.2493 7.17424 8.5447C7.11094 8.5658 7.17424 8.6502 7.21644 8.6291C7.72284 8.3759 8.20814 8.0805 8.67234 7.764C8.75674 7.7218 8.67234 7.5952 8.60904 7.6374Z" fill="black"/>
<path d="M14.0103 5.16871C13.4195 5.37971 12.8287 5.63291 12.2379 5.88611C11.6471 6.1393 11.0774 6.3925 10.4866 6.6668C10.3811 6.709 10.4866 6.8567 10.571 6.8145C11.1407 6.5402 11.7104 6.287 12.3012 6.01271C12.8709 5.75951 13.4617 5.52741 14.0314 5.27421C14.0947 5.25311 14.0736 5.12651 13.9892 5.16871H14.0103Z" fill="black"/>
<path d="M9.89584 5.08461C9.81144 4.38831 9.70594 3.69201 9.62154 2.99572C9.62154 2.93242 9.49494 2.93242 9.51604 2.99572C9.60044 3.69201 9.68484 4.38831 9.76924 5.08461C9.76924 5.16901 9.91694 5.16901 9.91694 5.08461H9.89584Z" fill="black"/>
<path d="M12.5126 6.18185C12.9135 7.51114 12.1539 8.90374 10.8247 9.30464C9.49536 9.70554 8.10276 8.94594 7.70186 7.61664C7.30096 6.28735 8.06056 4.89475 9.38986 4.49385C10.7192 4.09295 12.1117 4.85255 12.5126 6.18185Z" fill="black"/>
</g>
<path d="M28.2388 9.6901C21.9135 15.2735 19.8135 15.9737 15.1611 17.6924C11.5425 19.0291 8.50887 18.9288 7.94164 19.2269C7.07575 19.682 9.70142 20.6855 11.6315 20.4176C12.4442 20.3048 13.7873 20.0533 17.3685 18.6981C21.9631 16.9594 29.0821 8.94565 28.2388 9.6901Z" fill="#FF3939"/>
<defs>
<clipPath id="clip0_1843_558">
<rect width="26.185" height="15.4663" fill="white"/>
</clipPath>
</defs>
</svg>
