<svg width="27" height="17" viewBox="0 0 27 17" fill="none" xmlns="http://www.w3.org/2000/svg">
<g clip-path="url(#clip0_1843_626)">
<path fill-rule="evenodd" clip-rule="evenodd" d="M7.44364 3.64062C5.58963 4.80197 4.64207 7.10005 5.29567 9.31386C6.07637 11.9725 8.88266 13.4917 11.5413 12.6899C14.1998 11.9092 15.719 9.10286 14.9172 6.44427C14.5842 5.32017 13.8814 4.3809 12.9914 3.7683C13.3099 3.78639 13.6284 3.80626 13.9468 3.82785C14.6431 4.50305 15.1706 5.32595 15.466 6.31764C16.3311 9.27163 14.6431 12.3733 11.6892 13.2595C8.73516 14.1246 5.63347 12.4366 4.74728 9.48263C4.09318 7.30934 4.85278 5.05165 6.45637 3.65905C6.78581 3.65074 7.11488 3.64462 7.44364 3.64062Z" fill="black"/>
<path d="M0.654221 7.39376C1.09732 6.57087 1.62482 5.76907 1.83582 5.47367C3.37611 3.44808 5.48611 3.06828 7.8493 2.83618C11.5629 2.47748 15.4453 2.87838 18.9901 4.10218C19.7708 4.37647 20.5304 4.67187 21.2689 5.03057C22.0074 5.36817 22.767 5.74797 23.3789 6.29657C23.5899 6.46537 23.8008 6.63417 23.9907 6.80297C24.0751 6.86627 24.1384 6.95067 24.2017 7.01397C24.2439 7.05617 24.2017 7.11947 24.1595 7.11947C24.1595 7.11947 24.1173 7.11947 24.0963 7.11947C23.9275 6.99287 23.7586 6.86627 23.5688 6.76077C23.5688 6.76077 23.5688 6.76077 23.5688 6.78187C23.5688 6.78187 23.5688 6.82407 23.5688 6.84517C23.8008 7.28827 24.1385 7.66806 24.476 8.04786C24.9613 8.57536 25.4888 9.06066 26.0374 9.50376C26.0796 9.52486 26.1007 9.56706 26.1429 9.58816C26.0374 9.54596 25.9319 9.48266 25.8264 9.44046C25.2989 9.14506 24.7714 8.84966 24.2439 8.53316C23.6954 8.21666 23.1679 7.87906 22.6193 7.52036C21.5432 8.59646 20.5304 9.71476 19.3699 10.7065C16.5636 13.0907 13.1665 14.9475 9.43179 15.053C7.7438 15.0952 6.0558 14.6943 4.55771 13.9558C3.12291 13.2595 2.23672 12.2467 1.05512 11.2551C3.46051 13.2806 6.6255 14.3989 9.76939 14.3356C13.3142 14.2723 16.437 12.7109 19.0745 10.4111C19.6442 9.92576 20.1928 9.39826 20.6781 8.82856C20.7836 8.70196 22.0285 7.11947 21.9652 7.09837C21.712 6.99287 21.4588 6.88737 21.2056 6.80297C18.6947 5.66357 16.0572 4.71407 13.3353 4.39757C11.8583 4.22877 10.3602 4.24987 8.8832 4.39757C7.3218 4.54527 5.9081 4.71407 4.38891 5.09387C3.43941 5.32597 2.61652 6.21217 2.02572 6.97177C1.68812 7.41486 1.39272 7.90016 1.11842 8.40656C1.05512 8.51206 0.928521 8.84966 0.780821 9.10286C0.738621 9.20836 0.696421 9.31386 0.654221 9.41936C0.654221 9.44046 0.633121 9.48266 0.612022 9.52486C0.612022 9.58816 0.612022 9.65146 0.590922 9.71476C0.569822 9.84136 0.464322 9.92576 0.337722 9.90466C0.190023 9.77806 0.0845231 9.65146 0.000123367 9.46156C-0.147576 9.10286 0.190023 8.25886 0.612022 7.43597L0.654221 7.39376Z" fill="black"/>
<path d="M10.7401 8.36362C10.5291 8.21592 10.297 8.06822 10.086 7.89942C10.1493 7.32972 10.1915 6.78112 10.2548 6.21142C10.297 5.66283 10.3603 5.11423 10.4236 4.56563C10.4236 4.54453 10.3814 4.54453 10.3814 4.56563C10.2759 5.66283 10.1493 6.73892 10.0016 7.83612C9.43195 7.43522 8.86225 7.03432 8.29255 6.63342C7.82835 6.31692 7.36416 5.95823 6.89996 5.68393C6.87886 5.68393 6.85776 5.68393 6.87886 5.72613C7.25866 6.04263 7.68066 6.33802 8.10265 6.63342C8.50355 6.92882 8.90445 7.22422 9.30535 7.49852C9.53745 7.66732 9.76955 7.83612 10.0016 7.98382C9.91725 8.78562 9.81175 9.56632 9.72735 10.3681L9.53745 11.9928C9.53745 12.1194 9.68515 12.1405 9.70625 11.9928C9.83285 10.6846 9.95945 9.35532 10.086 8.04712C10.6346 8.44802 11.1832 8.84892 11.7529 9.24982C12.2171 9.58741 12.6813 9.90391 13.1244 10.2415C13.2299 10.3259 13.3565 10.1571 13.2299 10.0727C12.3859 9.50302 11.563 8.93332 10.7401 8.34252V8.36362Z" fill="black"/>
<path d="M11.2463 6.92847C11.7949 6.59087 12.3435 6.23217 12.8921 5.89457C12.9554 5.85237 12.8921 5.74687 12.8288 5.78907C12.2802 6.12667 11.7316 6.46427 11.183 6.82297C11.0986 6.86517 11.183 6.99177 11.2463 6.94957V6.92847Z" fill="black"/>
<path d="M9.51653 8.93282C9.15783 9.77681 8.79913 10.5997 8.44043 11.4437C8.44043 11.4859 8.48263 11.5281 8.50373 11.4859C8.88353 10.663 9.26333 9.84012 9.64313 9.01722C9.68533 8.93282 9.55873 8.86952 9.51653 8.95392V8.93282Z" fill="black"/>
<path d="M9.05216 8.65882C8.27147 9.35512 7.49077 10.0514 6.66787 10.7055C6.62567 10.7266 6.66787 10.811 6.71007 10.7688C7.53297 10.1147 8.35587 9.46062 9.15766 8.76432C9.22096 8.70102 9.11546 8.61662 9.05216 8.65882Z" fill="black"/>
<path d="M6.62554 9.03839C7.36404 8.78519 8.10254 8.51089 8.84104 8.25769C8.90433 8.23659 8.88323 8.13109 8.81993 8.15219C8.08144 8.42649 7.36404 8.70079 6.62554 8.97509C6.58334 8.97509 6.60444 9.05949 6.64664 9.05949L6.62554 9.03839Z" fill="black"/>
<path d="M6.66837 8.19419L8.35636 8.13089C8.41966 8.13089 8.41966 8.02539 8.35636 8.02539C7.78666 8.06759 7.23807 8.08869 6.66837 8.13089C6.62617 8.13089 6.62617 8.19419 6.66837 8.19419Z" fill="black"/>
<path d="M6.39369 6.99163C7.21659 7.22373 8.03948 7.49802 8.84128 7.79342C8.92568 7.83562 8.96788 7.68792 8.88348 7.64572C8.06058 7.37143 7.23769 7.11823 6.41479 6.90723C6.35149 6.90723 6.33039 6.97053 6.39369 6.99163Z" fill="black"/>
<path d="M8.75695 6.50695C8.79915 6.54915 8.86245 6.48585 8.82025 6.44365C8.60925 6.21155 8.39825 6.00056 8.18725 5.76846C8.16615 5.72626 8.10285 5.76846 8.14505 5.81066C8.35605 6.04276 8.54595 6.27485 8.75695 6.50695Z" fill="black"/>
<path d="M9.32667 6.44286L8.58817 4.64936C8.58817 4.60716 8.50377 4.62826 8.52487 4.64936L9.22117 6.46396C9.24227 6.52726 9.34777 6.48506 9.32667 6.44286Z" fill="black"/>
<path d="M9.64307 6.61205C9.38988 5.74695 9.15778 4.86076 8.90458 3.99566C8.90458 3.95346 8.82018 3.97456 8.84128 4.01676C9.07338 4.88186 9.30548 5.76805 9.53757 6.63315C9.53757 6.69645 9.66417 6.67535 9.64307 6.59095V6.61205Z" fill="black"/>
<path d="M10.7618 6.29606C11.3526 5.64196 11.9645 5.00896 12.5764 4.35487C12.6397 4.29157 12.5342 4.20717 12.492 4.27047C11.9012 4.92456 11.3104 5.57866 10.6985 6.23276C10.6563 6.27496 10.7196 6.33826 10.7618 6.29606Z" fill="black"/>
<path d="M11.0987 6.54898C11.6051 6.16918 12.0904 5.78938 12.5757 5.36739C12.6179 5.32519 12.5757 5.24079 12.5124 5.28299C12.0271 5.68388 11.5418 6.08478 11.0565 6.48568C11.0143 6.50678 11.0565 6.57008 11.0987 6.54898Z" fill="black"/>
<path d="M14.1167 6.9502C13.5681 7.14009 12.9984 7.30889 12.4498 7.49879C12.4076 7.49879 12.4287 7.58319 12.4709 7.58319C13.0406 7.41439 13.5892 7.24559 14.1589 7.07679C14.2222 7.07679 14.2011 6.95019 14.1167 6.97129V6.9502Z" fill="black"/>
<path d="M13.589 8.48953C13.0193 8.38403 12.4496 8.29963 11.8799 8.23633C11.8166 8.23633 11.7955 8.32073 11.8799 8.32073C12.4496 8.40513 13.0193 8.48953 13.589 8.61613C13.6523 8.61613 13.6945 8.51063 13.6101 8.51063L13.589 8.48953Z" fill="black"/>
<path d="M10.6981 9.94565C10.8458 10.3044 10.9724 10.642 11.1201 11.0007C11.1412 11.064 11.2678 11.0429 11.2467 10.9585C11.099 10.5998 10.9513 10.2622 10.8036 9.90345C10.7825 9.84015 10.677 9.86125 10.6981 9.92455V9.94565Z" fill="black"/>
<path d="M10.3184 9.69278L10.4661 10.8322C10.4661 10.8744 10.5294 10.8744 10.5294 10.8322L10.3817 9.69278C10.3817 9.65058 10.3184 9.65058 10.3184 9.69278Z" fill="black"/>
<path d="M10.3608 8.61617C10.2975 8.55287 10.2342 8.63727 10.2764 8.70057C11.0149 9.54457 11.6901 10.4308 12.302 11.3592C12.302 11.3803 12.3653 11.3592 12.3442 11.3381C11.7745 10.3675 11.1204 9.43907 10.3608 8.61617Z" fill="black"/>
<path d="M10.9515 8.80663C10.8882 8.74333 10.8038 8.84883 10.8671 8.91213C11.3313 9.41853 11.8166 9.92492 12.3019 10.4313C12.3441 10.4735 12.4285 10.4102 12.3652 10.3469C11.901 9.84052 11.4368 9.31303 10.9515 8.80663Z" fill="black"/>
<path d="M8.60904 8.6374C8.14484 8.9539 7.65954 9.2493 7.17424 9.5447C7.11094 9.5658 7.17424 9.6502 7.21644 9.6291C7.72284 9.3759 8.20814 9.0805 8.67234 8.764C8.75674 8.7218 8.67234 8.5952 8.60904 8.6374Z" fill="black"/>
<path d="M14.0103 6.16871C13.4195 6.37971 12.8287 6.63291 12.2379 6.88611C11.6471 7.1393 11.0774 7.3925 10.4866 7.6668C10.3811 7.709 10.4866 7.8567 10.571 7.8145C11.1407 7.5402 11.7104 7.287 12.3012 7.01271C12.8709 6.75951 13.4617 6.52741 14.0314 6.27421C14.0947 6.25311 14.0736 6.12651 13.9892 6.16871H14.0103Z" fill="black"/>
<path d="M9.89584 6.08461C9.81144 5.38831 9.70594 4.69201 9.62154 3.99572C9.62154 3.93242 9.49494 3.93242 9.51604 3.99572C9.60044 4.69201 9.68484 5.38831 9.76924 6.08461C9.76924 6.16901 9.91694 6.16901 9.91694 6.08461H9.89584Z" fill="black"/>
<path d="M12.5126 7.18185C12.9135 8.51114 12.1539 9.90374 10.8247 10.3046C9.49536 10.7055 8.10276 9.94594 7.70186 8.61664C7.30096 7.28735 8.06056 5.89475 9.38986 5.49385C10.7192 5.09295 12.1117 5.85255 12.5126 7.18185Z" fill="black"/>
</g>
<path d="M1.34766 4C8.84766 2 10.8467 2.35705 15.3467 2.99996C18.8467 3.5 21.2612 5 21.8476 5C22.7426 5 23.3478 4.49996 22.3478 2.99996C21.3478 1.49996 18.8467 0.5 14.3467 0.5C3.84672 0.5 0.347656 4.26667 1.34766 4Z" fill="#FF3939"/>
<defs>
<clipPath id="clip0_1843_626">
<rect width="26.185" height="15.4663" fill="white" transform="translate(0 1)"/>
</clipPath>
</defs>
</svg>
