<svg width="61" height="17" viewBox="0 0 61 17" fill="none" xmlns="http://www.w3.org/2000/svg">
<g clip-path="url(#clip0_1240_6031)">
<path fill-rule="evenodd" clip-rule="evenodd" d="M42.26 3.64062C40.406 4.80197 39.4585 7.10005 40.1121 9.31386C40.8928 11.9725 43.6991 13.4917 46.3577 12.6899C49.0163 11.9092 50.5354 9.10286 49.7337 6.44427C49.4006 5.32017 48.6978 4.3809 47.8078 3.7683C48.1263 3.78639 48.4448 3.80626 48.7633 3.82785C49.4596 4.50305 49.9871 5.32595 50.2824 6.31764C51.1475 9.27163 49.4596 12.3733 46.5056 13.2595C43.5516 14.1246 40.4499 12.4366 39.5637 9.48263C38.9096 7.30934 39.6692 5.05165 41.2728 3.65905C41.6022 3.65074 41.9313 3.64462 42.26 3.64062Z" fill="black"/>
<path d="M35.4701 7.39376C35.9132 6.57087 36.4407 5.76907 36.6517 5.47367C38.192 3.44808 40.302 3.06828 42.6652 2.83618C46.3788 2.47748 50.2612 2.87838 53.806 4.10218C54.5867 4.37647 55.3463 4.67187 56.0848 5.03057C56.8233 5.36817 57.5829 5.74797 58.1948 6.29657C58.4058 6.46537 58.6168 6.63417 58.8067 6.80297C58.8911 6.86627 58.9544 6.95067 59.0177 7.01397C59.0599 7.05617 59.0177 7.11947 58.9755 7.11947C58.9755 7.11947 58.9333 7.11947 58.9122 7.11947C58.7434 6.99287 58.5746 6.86627 58.3847 6.76077C58.3847 6.76077 58.3847 6.76077 58.3847 6.78187C58.3847 6.78187 58.3847 6.82407 58.3847 6.84517C58.6168 7.28827 58.9544 7.66806 59.292 8.04786C59.7773 8.57536 60.3048 9.06066 60.8534 9.50376C60.8956 9.52486 60.9167 9.56706 60.9589 9.58816C60.8534 9.54596 60.7479 9.48266 60.6424 9.44046C60.1149 9.14506 59.5874 8.84966 59.0599 8.53316C58.5113 8.21666 57.9838 7.87906 57.4352 7.52036C56.3591 8.59646 55.3463 9.71476 54.1858 10.7065C51.3795 13.0907 47.9824 14.9475 44.2477 15.053C42.5597 15.0952 40.8717 14.6943 39.3736 13.9558C37.9388 13.2595 37.0526 12.2467 35.871 11.2551C38.2764 13.2806 41.4414 14.3989 44.5853 14.3356C48.1301 14.2723 51.2529 12.7109 53.8904 10.4111C54.4601 9.92576 55.0087 9.39826 55.494 8.82856C55.5995 8.70196 56.8444 7.11947 56.7811 7.09837C56.5279 6.99287 56.2747 6.88737 56.0215 6.80297C53.5106 5.66357 50.8731 4.71407 48.1512 4.39757C46.6742 4.22877 45.1761 4.24987 43.6991 4.39757C42.1377 4.54527 40.724 4.71407 39.2048 5.09387C38.2553 5.32597 37.4324 6.21217 36.8416 6.97177C36.504 7.41486 36.2086 7.90016 35.9343 8.40656C35.871 8.51206 35.7444 8.84966 35.5967 9.10286C35.5545 9.20836 35.5123 9.31386 35.4701 9.41936C35.4701 9.44046 35.449 9.48266 35.4279 9.52486C35.4279 9.58816 35.4279 9.65146 35.4068 9.71476C35.3857 9.84136 35.2802 9.92576 35.1536 9.90466C35.0059 9.77806 34.9004 9.65146 34.816 9.46156C34.6683 9.10286 35.0059 8.25886 35.4279 7.43597L35.4701 7.39376Z" fill="black"/>
<path d="M45.5556 8.36362C45.3446 8.21592 45.1125 8.06822 44.9015 7.89942C44.9648 7.32972 45.007 6.78112 45.0703 6.21142C45.1125 5.66283 45.1758 5.11423 45.2391 4.56563C45.2391 4.54453 45.1969 4.54453 45.1969 4.56563C45.0914 5.66283 44.9648 6.73892 44.8171 7.83612C44.2474 7.43522 43.6777 7.03432 43.108 6.63342C42.6438 6.31692 42.1796 5.95823 41.7154 5.68393C41.6943 5.68393 41.6732 5.68393 41.6943 5.72613C42.0741 6.04263 42.4961 6.33802 42.9181 6.63342C43.319 6.92882 43.7199 7.22422 44.1208 7.49852C44.3529 7.66732 44.585 7.83612 44.8171 7.98382C44.7327 8.78562 44.6272 9.56632 44.5428 10.3681L44.3529 11.9928C44.3529 12.1194 44.5006 12.1405 44.5217 11.9928C44.6483 10.6846 44.7749 9.35532 44.9015 8.04712C45.4501 8.44802 45.9987 8.84892 46.5684 9.24982C47.0326 9.58741 47.4968 9.90391 47.9399 10.2415C48.0454 10.3259 48.172 10.1571 48.0454 10.0727C47.2014 9.50302 46.3785 8.93332 45.5556 8.34252V8.36362Z" fill="black"/>
<path d="M46.0622 6.92847C46.6108 6.59087 47.1594 6.23217 47.708 5.89457C47.7713 5.85237 47.708 5.74687 47.6447 5.78907C47.0961 6.12667 46.5475 6.46427 45.9989 6.82297C45.9145 6.86517 45.9989 6.99177 46.0622 6.94957V6.92847Z" fill="black"/>
<path d="M44.332 8.93282C43.9733 9.77681 43.6146 10.5997 43.2559 11.4437C43.2559 11.4859 43.2981 11.5281 43.3192 11.4859C43.699 10.663 44.0788 9.84012 44.4586 9.01722C44.5008 8.93282 44.3742 8.86952 44.332 8.95392V8.93282Z" fill="black"/>
<path d="M43.8676 8.65882C43.0869 9.35512 42.3062 10.0514 41.4833 10.7055C41.4411 10.7266 41.4833 10.811 41.5255 10.7688C42.3484 10.1147 43.1713 9.46062 43.9731 8.76432C44.0364 8.70102 43.9309 8.61662 43.8676 8.65882Z" fill="black"/>
<path d="M41.4415 9.03839C42.18 8.78519 42.9185 8.51089 43.657 8.25769C43.7203 8.23659 43.6992 8.13109 43.6359 8.15219C42.8974 8.42649 42.18 8.70079 41.4415 8.97509C41.3993 8.97509 41.4204 9.05949 41.4626 9.05949L41.4415 9.03839Z" fill="black"/>
<path d="M41.4833 8.19419L43.1713 8.13089C43.2346 8.13089 43.2346 8.02539 43.1713 8.02539C42.6016 8.06759 42.053 8.08869 41.4833 8.13089C41.4411 8.13089 41.4411 8.19419 41.4833 8.19419Z" fill="black"/>
<path d="M41.2091 6.99163C42.032 7.22373 42.8549 7.49802 43.6567 7.79342C43.7411 7.83562 43.7833 7.68792 43.6989 7.64572C42.876 7.37143 42.0531 7.11823 41.2302 6.90723C41.1669 6.90723 41.1458 6.97053 41.2091 6.99163Z" fill="black"/>
<path d="M43.5724 6.50695C43.6146 6.54915 43.6779 6.48585 43.6357 6.44365C43.4247 6.21155 43.2137 6.00056 43.0027 5.76846C42.9816 5.72626 42.9183 5.76846 42.9605 5.81066C43.1715 6.04276 43.3614 6.27485 43.5724 6.50695Z" fill="black"/>
<path d="M44.1421 6.44286L43.4036 4.64936C43.4036 4.60716 43.3192 4.62826 43.3403 4.64936L44.0366 6.46396C44.0577 6.52726 44.1632 6.48506 44.1421 6.44286Z" fill="black"/>
<path d="M44.4585 6.61205C44.2053 5.74695 43.9732 4.86076 43.72 3.99566C43.72 3.95346 43.6356 3.97456 43.6567 4.01676C43.8888 4.88186 44.1209 5.76805 44.353 6.63315C44.353 6.69645 44.4796 6.67535 44.4585 6.59095V6.61205Z" fill="black"/>
<path d="M45.5767 6.29606C46.1675 5.64196 46.7794 5.00896 47.3913 4.35487C47.4546 4.29157 47.3491 4.20717 47.3069 4.27047C46.7161 4.92456 46.1253 5.57866 45.5134 6.23276C45.4712 6.27496 45.5345 6.33826 45.5767 6.29606Z" fill="black"/>
<path d="M45.9142 6.54898C46.4206 6.16918 46.9059 5.78938 47.3912 5.36739C47.4334 5.32519 47.3912 5.24079 47.3279 5.28299C46.8426 5.68388 46.3573 6.08478 45.872 6.48568C45.8298 6.50678 45.872 6.57008 45.9142 6.54898Z" fill="black"/>
<path d="M48.9316 6.9502C48.383 7.14009 47.8133 7.30889 47.2647 7.49879C47.2225 7.49879 47.2436 7.58319 47.2858 7.58319C47.8555 7.41439 48.4041 7.24559 48.9738 7.07679C49.0371 7.07679 49.016 6.95019 48.9316 6.97129V6.9502Z" fill="black"/>
<path d="M48.4044 8.48953C47.8347 8.38403 47.265 8.29963 46.6953 8.23633C46.632 8.23633 46.6109 8.32073 46.6953 8.32073C47.265 8.40513 47.8347 8.48953 48.4044 8.61613C48.4677 8.61613 48.5099 8.51063 48.4255 8.51063L48.4044 8.48953Z" fill="black"/>
<path d="M45.5135 9.94565C45.6612 10.3044 45.7878 10.642 45.9355 11.0007C45.9566 11.064 46.0832 11.0429 46.0621 10.9585C45.9144 10.5998 45.7667 10.2622 45.619 9.90345C45.5979 9.84015 45.4924 9.86125 45.5135 9.92455V9.94565Z" fill="black"/>
<path d="M45.1338 9.69278L45.2815 10.8322C45.2815 10.8744 45.3448 10.8744 45.3448 10.8322L45.1971 9.69278C45.1971 9.65058 45.1338 9.65058 45.1338 9.69278Z" fill="black"/>
<path d="M45.1757 8.61617C45.1124 8.55287 45.0491 8.63727 45.0913 8.70057C45.8298 9.54457 46.505 10.4308 47.1169 11.3592C47.1169 11.3803 47.1802 11.3592 47.1591 11.3381C46.5894 10.3675 45.9353 9.43907 45.1757 8.61617Z" fill="black"/>
<path d="M45.7665 8.80663C45.7032 8.74333 45.6188 8.84883 45.6821 8.91213C46.1463 9.41853 46.6316 9.92492 47.1169 10.4313C47.1591 10.4735 47.2435 10.4102 47.1802 10.3469C46.716 9.84052 46.2518 9.31303 45.7665 8.80663Z" fill="black"/>
<path d="M43.4245 8.6374C42.9603 8.9539 42.475 9.2493 41.9897 9.5447C41.9264 9.5658 41.9897 9.6502 42.0319 9.6291C42.5383 9.3759 43.0236 9.0805 43.4878 8.764C43.5722 8.7218 43.4878 8.5952 43.4245 8.6374Z" fill="black"/>
<path d="M48.8262 6.16871C48.2354 6.37971 47.6446 6.63291 47.0538 6.88611C46.463 7.1393 45.8933 7.3925 45.3025 7.6668C45.197 7.709 45.3025 7.8567 45.3869 7.8145C45.9566 7.5402 46.5263 7.287 47.1171 7.01271C47.6868 6.75951 48.2776 6.52741 48.8473 6.27421C48.9106 6.25311 48.8895 6.12651 48.8051 6.16871H48.8262Z" fill="black"/>
<path d="M44.7118 6.08461C44.6274 5.38831 44.5219 4.69201 44.4375 3.99572C44.4375 3.93242 44.3109 3.93242 44.332 3.99572C44.4164 4.69201 44.5008 5.38831 44.5852 6.08461C44.5852 6.16901 44.7329 6.16901 44.7329 6.08461H44.7118Z" fill="black"/>
<path d="M47.3281 7.18185C47.729 8.51114 46.9694 9.90374 45.6401 10.3046C44.3108 10.7055 42.9182 9.94594 42.5173 8.61664C42.1164 7.28735 42.876 5.89475 44.2053 5.49385C45.5346 5.09295 46.9272 5.85255 47.3281 7.18185Z" fill="black"/>
</g>
<g clip-path="url(#clip1_1240_6031)">
<path fill-rule="evenodd" clip-rule="evenodd" d="M18.7409 3.64062C20.5949 4.80197 21.5425 7.10005 20.8889 9.31386C20.1082 11.9725 17.3019 13.4917 14.6433 12.6899C11.9847 11.9092 10.4655 9.10286 11.2673 6.44427C11.6004 5.32017 12.3031 4.3809 13.1932 3.7683C12.8747 3.78639 12.5562 3.80626 12.2377 3.82785C11.5414 4.50305 11.0139 5.32595 10.7185 6.31764C9.85343 9.27163 11.5414 12.3733 14.4954 13.2595C17.4494 14.1246 20.5511 12.4366 21.4373 9.48263C22.0914 7.30934 21.3318 5.05165 19.7282 3.65905C19.3988 3.65074 19.0697 3.64462 18.7409 3.64062Z" fill="black"/>
<path d="M25.5308 7.39376C25.0877 6.57087 24.5602 5.76907 24.3492 5.47367C22.8089 3.44808 20.699 3.06828 18.3358 2.83618C14.6222 2.47748 10.7398 2.87838 7.19499 4.10218C6.4143 4.37647 5.6547 4.67187 4.9162 5.03057C4.1777 5.36817 3.4181 5.74797 2.80621 6.29657C2.59521 6.46537 2.38421 6.63417 2.19431 6.80297C2.10991 6.86627 2.04661 6.95067 1.98331 7.01397C1.94111 7.05617 1.98331 7.11947 2.02551 7.11947C2.02551 7.11947 2.06771 7.11947 2.08881 7.11947C2.25761 6.99287 2.42641 6.86627 2.61631 6.76077C2.61631 6.76077 2.61631 6.76077 2.61631 6.78187C2.61631 6.78187 2.61631 6.82407 2.61631 6.84517C2.38421 7.28827 2.04661 7.66806 1.70901 8.04786C1.22371 8.57536 0.696213 9.06066 0.147614 9.50376C0.105413 9.52486 0.0843143 9.56706 0.0421143 9.58816C0.147614 9.54596 0.253113 9.48266 0.358614 9.44046C0.886112 9.14506 1.41361 8.84966 1.94111 8.53316C2.48971 8.21666 3.01721 7.87906 3.5658 7.52036C4.6419 8.59646 5.6547 9.71476 6.81519 10.7065C9.62148 13.0907 13.0186 14.9475 16.7533 15.053C18.4413 15.0952 20.1293 14.6943 21.6273 13.9558C23.0621 13.2595 23.9483 12.2467 25.1299 11.2551C22.7245 13.2806 19.5596 14.3989 16.4157 14.3356C12.8709 14.2723 9.74809 12.7109 7.11059 10.4111C6.54089 9.92576 5.9923 9.39826 5.507 8.82856C5.4015 8.70196 4.1566 7.11947 4.2199 7.09837C4.4731 6.99287 4.7263 6.88737 4.9795 6.80297C7.49039 5.66357 10.1279 4.71407 12.8498 4.39757C14.3268 4.22877 15.8249 4.24987 17.3019 4.39757C18.8633 4.54527 20.277 4.71407 21.7961 5.09387C22.7456 5.32597 23.5685 6.21217 24.1593 6.97177C24.4969 7.41486 24.7923 7.90016 25.0666 8.40656C25.1299 8.51206 25.2565 8.84966 25.4042 9.10286C25.4464 9.20836 25.4886 9.31386 25.5308 9.41936C25.5308 9.44046 25.5519 9.48266 25.573 9.52486C25.573 9.58816 25.573 9.65146 25.5941 9.71476C25.6152 9.84136 25.7207 9.92576 25.8473 9.90466C25.995 9.77806 26.1005 9.65146 26.1849 9.46156C26.3326 9.10286 25.995 8.25886 25.573 7.43597L25.5308 7.39376Z" fill="black"/>
<path d="M15.4454 8.36362C15.6564 8.21592 15.8885 8.06822 16.0995 7.89942C16.0362 7.32972 15.994 6.78112 15.9307 6.21142C15.8885 5.66283 15.8252 5.11423 15.7619 4.56563C15.7619 4.54453 15.8041 4.54453 15.8041 4.56563C15.9096 5.66283 16.0362 6.73892 16.1839 7.83612C16.7536 7.43522 17.3233 7.03432 17.893 6.63342C18.3572 6.31692 18.8214 5.95823 19.2856 5.68393C19.3067 5.68393 19.3278 5.68393 19.3067 5.72613C18.9269 6.04263 18.5049 6.33802 18.0829 6.63342C17.682 6.92882 17.2811 7.22422 16.8802 7.49852C16.6481 7.66732 16.416 7.83612 16.1839 7.98382C16.2683 8.78562 16.3738 9.56632 16.4582 10.3681L16.6481 11.9928C16.6481 12.1194 16.5004 12.1405 16.4793 11.9928C16.3527 10.6846 16.2261 9.35532 16.0995 8.04712C15.5509 8.44802 15.0023 8.84892 14.4326 9.24982C13.9684 9.58741 13.5042 9.90391 13.0611 10.2415C12.9556 10.3259 12.829 10.1571 12.9556 10.0727C13.7996 9.50302 14.6225 8.93332 15.4454 8.34252V8.36362Z" fill="black"/>
<path d="M14.9388 6.92847C14.3902 6.59087 13.8416 6.23217 13.293 5.89457C13.2297 5.85237 13.293 5.74687 13.3563 5.78907C13.9049 6.12667 14.4535 6.46427 15.0021 6.82297C15.0865 6.86517 15.0021 6.99177 14.9388 6.94957V6.92847Z" fill="black"/>
<path d="M16.669 8.93282C17.0277 9.77681 17.3864 10.5997 17.7451 11.4437C17.7451 11.4859 17.7029 11.5281 17.6818 11.4859C17.302 10.663 16.9222 9.84012 16.5424 9.01722C16.5002 8.93282 16.6268 8.86952 16.669 8.95392V8.93282Z" fill="black"/>
<path d="M17.1334 8.65882C17.9141 9.35512 18.6948 10.0514 19.5177 10.7055C19.5599 10.7266 19.5177 10.811 19.4755 10.7688C18.6526 10.1147 17.8297 9.46062 17.0279 8.76432C16.9646 8.70102 17.0701 8.61662 17.1334 8.65882Z" fill="black"/>
<path d="M19.5595 9.03839C18.821 8.78519 18.0825 8.51089 17.344 8.25769C17.2807 8.23659 17.3018 8.13109 17.3651 8.15219C18.1036 8.42649 18.821 8.70079 19.5595 8.97509C19.6017 8.97509 19.5806 9.05949 19.5384 9.05949L19.5595 9.03839Z" fill="black"/>
<path d="M19.5177 8.19419L17.8297 8.13089C17.7664 8.13089 17.7664 8.02539 17.8297 8.02539C18.3994 8.06759 18.948 8.08869 19.5177 8.13089C19.5599 8.13089 19.5599 8.19419 19.5177 8.19419Z" fill="black"/>
<path d="M19.7919 6.99163C18.969 7.22373 18.1461 7.49802 17.3443 7.79342C17.2599 7.83562 17.2177 7.68792 17.3021 7.64572C18.125 7.37143 18.9479 7.11823 19.7708 6.90723C19.8341 6.90723 19.8552 6.97053 19.7919 6.99163Z" fill="black"/>
<path d="M17.4286 6.50695C17.3864 6.54915 17.3231 6.48585 17.3653 6.44365C17.5763 6.21155 17.7873 6.00056 17.9983 5.76846C18.0194 5.72626 18.0827 5.76846 18.0405 5.81066C17.8295 6.04276 17.6396 6.27485 17.4286 6.50695Z" fill="black"/>
<path d="M16.8589 6.44286L17.5974 4.64936C17.5974 4.60716 17.6818 4.62826 17.6607 4.64936L16.9644 6.46396C16.9433 6.52726 16.8378 6.48506 16.8589 6.44286Z" fill="black"/>
<path d="M16.5425 6.61205C16.7957 5.74695 17.0278 4.86076 17.281 3.99566C17.281 3.95346 17.3654 3.97456 17.3443 4.01676C17.1122 4.88186 16.8801 5.76805 16.648 6.63315C16.648 6.69645 16.5214 6.67535 16.5425 6.59095V6.61205Z" fill="black"/>
<path d="M15.4242 6.29606C14.8335 5.64196 14.2216 5.00896 13.6097 4.35487C13.5464 4.29157 13.6519 4.20717 13.6941 4.27047C14.2849 4.92456 14.8756 5.57866 15.4875 6.23276C15.5297 6.27496 15.4664 6.33826 15.4242 6.29606Z" fill="black"/>
<path d="M15.0868 6.54898C14.5804 6.16918 14.0951 5.78938 13.6098 5.36739C13.5676 5.32519 13.6098 5.24079 13.6731 5.28299C14.1584 5.68388 14.6437 6.08478 15.129 6.48568C15.1712 6.50678 15.129 6.57008 15.0868 6.54898Z" fill="black"/>
<path d="M12.0694 6.9502C12.618 7.14009 13.1877 7.30889 13.7363 7.49879C13.7785 7.49879 13.7574 7.58319 13.7152 7.58319C13.1455 7.41439 12.5969 7.24559 12.0272 7.07679C11.9639 7.07679 11.985 6.95019 12.0694 6.97129V6.9502Z" fill="black"/>
<path d="M12.5966 8.48953C13.1663 8.38403 13.736 8.29963 14.3057 8.23633C14.369 8.23633 14.3901 8.32073 14.3057 8.32073C13.736 8.40513 13.1663 8.48953 12.5966 8.61613C12.5333 8.61613 12.4911 8.51063 12.5755 8.51063L12.5966 8.48953Z" fill="black"/>
<path d="M15.4875 9.94565C15.3398 10.3044 15.2132 10.642 15.0655 11.0007C15.0444 11.064 14.9178 11.0429 14.9389 10.9585C15.0866 10.5998 15.2343 10.2622 15.382 9.90345C15.4031 9.84015 15.5086 9.86125 15.4875 9.92455V9.94565Z" fill="black"/>
<path d="M15.8672 9.69278L15.7195 10.8322C15.7195 10.8744 15.6562 10.8744 15.6562 10.8322L15.8039 9.69278C15.8039 9.65058 15.8672 9.65058 15.8672 9.69278Z" fill="black"/>
<path d="M15.8253 8.61617C15.8886 8.55287 15.9519 8.63727 15.9097 8.70057C15.1712 9.54457 14.496 10.4308 13.8841 11.3592C13.8841 11.3803 13.8208 11.3592 13.8419 11.3381C14.4116 10.3675 15.0657 9.43907 15.8253 8.61617Z" fill="black"/>
<path d="M15.2345 8.80663C15.2978 8.74333 15.3822 8.84883 15.3189 8.91213C14.8547 9.41853 14.3694 9.92492 13.8841 10.4313C13.8419 10.4735 13.7575 10.4102 13.8208 10.3469C14.285 9.84052 14.7492 9.31303 15.2345 8.80663Z" fill="black"/>
<path d="M17.5765 8.6374C18.0407 8.9539 18.526 9.2493 19.0113 9.5447C19.0746 9.5658 19.0113 9.6502 18.9691 9.6291C18.4627 9.3759 17.9774 9.0805 17.5132 8.764C17.4288 8.7218 17.5132 8.5952 17.5765 8.6374Z" fill="black"/>
<path d="M12.1747 6.16871C12.7655 6.37971 13.3563 6.63291 13.9471 6.88611C14.5379 7.1393 15.1076 7.3925 15.6984 7.6668C15.8039 7.709 15.6984 7.8567 15.614 7.8145C15.0443 7.5402 14.4746 7.287 13.8838 7.01271C13.3141 6.75951 12.7233 6.52741 12.1536 6.27421C12.0903 6.25311 12.1114 6.12651 12.1958 6.16871H12.1747Z" fill="black"/>
<path d="M16.2892 6.08461C16.3736 5.38831 16.4791 4.69201 16.5635 3.99572C16.5635 3.93242 16.6901 3.93242 16.669 3.99572C16.5846 4.69201 16.5002 5.38831 16.4158 6.08461C16.4158 6.16901 16.2681 6.16901 16.2681 6.08461H16.2892Z" fill="black"/>
<path d="M13.6729 7.18185C13.272 8.51114 14.0316 9.90374 15.3609 10.3046C16.6902 10.7055 18.0828 9.94594 18.4837 8.61664C18.8846 7.28735 18.125 5.89475 16.7957 5.49385C15.4664 5.09295 14.0738 5.85255 13.6729 7.18185Z" fill="black"/>
</g>
<path d="M24.5 4C17 2 15.0009 2.35705 10.5009 2.99996C7.00093 3.5 4.58641 5 4.00008 5C3.10503 5 2.49984 4.49996 3.49984 2.99996C4.49984 1.49996 7.00094 0.5 11.5009 0.5C22.0009 0.5 25.5 4.26667 24.5 4Z" fill="#FF3939"/>
<path d="M36.1641 4C43.6641 2 45.6631 2.35705 50.1631 2.99996C53.6631 3.5 56.0777 5 56.664 5C57.559 5 58.1642 4.49996 57.1642 2.99996C56.1642 1.49996 53.6631 0.5 49.1631 0.5C38.6631 0.5 35.1641 4.26667 36.1641 4Z" fill="#FF3939"/>
<defs>
<clipPath id="clip0_1240_6031">
<rect width="26.185" height="15.4663" fill="white" transform="translate(34.8159 1)"/>
</clipPath>
<clipPath id="clip1_1240_6031">
<rect width="26.185" height="15.4663" fill="white" transform="matrix(-1 0 0 1 26.1851 1)"/>
</clipPath>
</defs>
</svg>
