<svg width="44" height="47" viewBox="0 0 44 47" fill="none" xmlns="http://www.w3.org/2000/svg">
<g id="Group">
<path id="Vector" d="M21.0005 45.5003C21.0005 45.5003 29.3335 47.5003 33.0005 33.0003C34.5752 26.5003 38.7487 16.6474 40.6519 13.8693C43.0979 10.3021 42.9658 6.1136 41.2197 4.09254C39.295 1.86081 37.1919 1.00025 34.7423 1.00025" stroke="black" stroke-width="2" stroke-linecap="round" stroke-linejoin="round"/>
<path id="Vector_2" d="M22.5117 45.5003C22.5117 45.5003 14.1787 47.5003 10.5117 33.0003C8.93701 26.5003 4.76349 16.6474 2.86026 13.8693C0.414286 10.3021 0.546405 6.1136 2.29251 4.09254C4.21716 1.86081 6.32035 1.00025 8.7699 1.00025" stroke="black" stroke-width="2" stroke-linecap="round" stroke-linejoin="round"/>
<path id="Vector_3" d="M21.0005 45.5003C21.0005 45.5003 29.3335 47.5003 33.0005 33.0003" stroke="#FF3939" stroke-width="2" stroke-linecap="round" stroke-linejoin="round"/>
<path id="Vector_4" d="M22.5117 45.5003C22.5117 45.5003 14.1787 47.5003 10.5117 33.0003" stroke="#FF3939" stroke-width="2" stroke-linecap="round" stroke-linejoin="round"/>
</g>
</svg>
