<svg width="44" height="47" viewBox="0 0 44 47" fill="none" xmlns="http://www.w3.org/2000/svg">
<g id="Group">
<path id="Vector" d="M21.0005 45.5C21.0005 45.5 29.3335 47.5 33.0005 33C34.5752 26.5 38.7487 16.6472 40.6519 13.8691C43.0979 10.3019 42.9658 6.11335 41.2197 4.09229C39.295 1.86056 37.1919 1.00001 34.7423 1.00001" stroke="black" stroke-width="2" stroke-linecap="round" stroke-linejoin="round"/>
<path id="Vector_2" d="M22.5117 45.5C22.5117 45.5 14.1787 47.5 10.5117 33C8.93701 26.5 4.76349 16.6472 2.86026 13.8691C0.414286 10.3019 0.546405 6.11335 2.29251 4.09229C4.21716 1.86056 6.32035 1.00001 8.7699 1.00001" stroke="black" stroke-width="2" stroke-linecap="round" stroke-linejoin="round"/>
<path id="Vector_3" d="M21.0005 45.5C21.0005 45.5 29.3335 47.5 33.0005 33" stroke="#FF3939" stroke-width="2" stroke-linecap="round" stroke-linejoin="round"/>
<path id="Vector_4" d="M22.5117 45.5C22.5117 45.5 14.1787 47.5 10.5117 33" stroke="#FF3939" stroke-width="2" stroke-linecap="round" stroke-linejoin="round"/>
</g>
</svg>
