<svg width="24" height="45" viewBox="0 0 24 45" fill="none" xmlns="http://www.w3.org/2000/svg">
<g id="Group">
<path id="Vector" d="M4.03261 1C4.89317 6.47042 7.51055 12.4336 10.2922 16.4507C13.1809 20.625 19.8976 29.5733 21.3223 32.0336C24.211 37.022 22.9577 42.0425 16.6553 43.1815C15.0842 43.4672 13.1631 43.2994 11.4134 42.5531" stroke="black" stroke-width="2" stroke-linecap="round" stroke-linejoin="round"/>
<path id="Vector_2" d="M4.03259 1C4.89314 6.47042 7.51052 12.4336 10.2922 16.4507C13.1809 20.625 19.8975 29.5733 21.3223 32.0336" stroke="#FF3939" stroke-width="2" stroke-linecap="round" stroke-linejoin="round"/>
<path id="Vector_3" d="M17.6766 39.85C17.9337 39.3251 17.723 38.6931 17.573 38.4075C17.116 37.5362 15.8376 36.44 13.838 36.6292C11.8384 36.8185 10.6564 38.0575 8.51398 40.0536C6.36794 42.0532 5.18958 43.0852 3.51132 43.0887C1.70094 43.0887 0.972508 41.7033 1.00107 40.8427C1.02964 39.9822 1.42242 39.4287 1.74379 39.1787" stroke="black" stroke-width="2" stroke-linecap="round" stroke-linejoin="round"/>
</g>
</svg>
