<svg width="44" height="47" viewBox="0 0 44 47" fill="none" xmlns="http://www.w3.org/2000/svg">
<rect width="44" height="47" fill="#D7D7D7"/>
<g id="Simula&#195;&#167;&#195;&#163;o - modelo gerado (&#195;&#129;reas pr&#195;&#169;-mapeadas)">
<rect width="1920" height="1080" transform="translate(-1399 -230)" fill="#F2F2F2"/>
<g id="Rectangle 391" filter="url(#filter0_d_661_6)">
<rect x="-51" y="-102" width="432" height="760" rx="40" fill="white"/>
</g>
<rect id="Ret&#195;&#162;ngulo 5549" x="-20" y="-15" width="81" height="76" rx="16" fill="#F7F8FA" stroke="#1FBFAD" stroke-width="2"/>
<g id="Group">
<path id="Vector" d="M11.7014 1C12.0942 2.62113 12.7084 10.4768 10.3445 16.8007C8.36273 22.1068 4.76339 27.9415 2.86017 30.7195C0.414191 34.2867 0.54631 38.4753 2.29242 40.4963C4.21706 42.728 6.32025 43.5886 8.7698 43.5886" stroke="black" stroke-width="2" stroke-linecap="round" stroke-linejoin="round"/>
<path id="Vector_2" d="M7.09521 40.5105C7.77366 39.9428 9.20554 39.1001 10.8481 39.1429C12.4907 39.1858 14.2832 40.4784 15.7722 41.8781C17.2612 43.2779 19.0894 45.0526 21.9353 45.0526" stroke="black" stroke-width="2" stroke-linecap="round" stroke-linejoin="round"/>
<path id="Vector_3" d="M32.1652 1C31.7724 2.62113 31.1582 10.4768 33.5221 16.8007C35.5039 22.1068 39.1032 27.9415 41.0064 30.7195C43.4524 34.2867 43.3203 38.4753 41.5742 40.4963C39.6495 42.728 37.5464 43.5886 35.0968 43.5886" stroke="black" stroke-width="2" stroke-linecap="round" stroke-linejoin="round"/>
<path id="Vector_4" d="M36.7718 40.5105C36.0933 39.9428 34.6614 39.1001 33.0189 39.1429C31.3763 39.1858 29.5838 40.4784 28.0948 41.8781C26.6058 43.2779 24.7775 45.0526 21.9316 45.0526" stroke="black" stroke-width="2" stroke-linecap="round" stroke-linejoin="round"/>
</g>
<rect id="Rectangle 408" x="-6" y="27" width="56" height="2" fill="#FF3939"/>
</g>
<defs>
<filter id="filter0_d_661_6" x="-67" y="-109" width="464" height="792" filterUnits="userSpaceOnUse" color-interpolation-filters="sRGB">
<feFlood flood-opacity="0" result="BackgroundImageFix"/>
<feColorMatrix in="SourceAlpha" type="matrix" values="0 0 0 0 0 0 0 0 0 0 0 0 0 0 0 0 0 0 127 0" result="hardAlpha"/>
<feOffset dy="9"/>
<feGaussianBlur stdDeviation="8"/>
<feComposite in2="hardAlpha" operator="out"/>
<feColorMatrix type="matrix" values="0 0 0 0 0 0 0 0 0 0 0 0 0 0 0 0 0 0 0.01 0"/>
<feBlend mode="normal" in2="BackgroundImageFix" result="effect1_dropShadow_661_6"/>
<feBlend mode="normal" in="SourceGraphic" in2="effect1_dropShadow_661_6" result="shape"/>
</filter>
</defs>
</svg>
