<svg width="65" height="22" viewBox="0 0 65 22" fill="none" xmlns="http://www.w3.org/2000/svg">
<path d="M59.9633 6.75336C59.8446 6.39165 59.4644 6.08237 59.0653 6.12463C58.7103 6.09456 58.3562 6.05595 58.0024 6.0149C57.8218 5.99377 57.6417 5.97182 57.4615 5.94906C57.4174 5.94337 57.3733 5.93768 57.3292 5.93199C57.3292 5.93199 57.3292 5.93199 57.3287 5.93199C57.2001 5.91411 57.0711 5.89663 56.9424 5.87835C56.4534 5.80844 55.9657 5.73122 55.4792 5.64547C54.3879 5.45323 53.301 5.22117 52.2369 4.9127C51.0334 4.56358 50.1247 4.17749 49.0173 3.63411C46.8083 2.55019 44.6788 1.20983 42.299 0.507536C41.1974 0.182402 40.0252 0.0206477 38.879 0.166145C37.7151 0.313675 36.6222 0.678638 35.5687 1.18503C34.4667 1.715 33.389 2.39535 32.4345 3.18298C31.8598 2.614 31.1923 2.11532 30.5285 1.68249C28.676 0.473803 26.4146 -0.201663 24.1878 0.0535675C23.4642 0.136477 22.7563 0.281974 22.0686 0.520948C21.397 0.754638 20.7641 1.07205 20.1177 1.36386C19.8447 1.487 19.5705 1.6069 19.2947 1.72394C19.2296 1.75158 19.1644 1.77922 19.0993 1.80645C19.0873 1.81132 19.0482 1.82758 19.023 1.83815C19.016 1.84099 19.0106 1.84343 19.0082 1.84424C18.863 1.90358 18.7183 1.96292 18.5728 2.02144C17.9638 2.26611 17.3503 2.5002 16.7344 2.72617C14.3868 3.58859 12 4.34737 9.59965 5.05413C8.30299 5.43576 6.99354 5.77186 5.69482 6.14536C5.67544 6.15105 5.65565 6.15552 5.63586 6.16081C5.60123 6.16975 5.56784 6.18194 5.53485 6.19535C5.51712 6.20226 5.50022 6.21039 5.48332 6.21811C5.48167 6.21892 5.48043 6.21933 5.47878 6.22014C5.46105 6.22868 5.44332 6.23762 5.42642 6.24737C5.4157 6.25306 5.4058 6.25916 5.3955 6.26566C5.38808 6.27054 5.38065 6.27501 5.37323 6.27989C5.27057 6.34695 5.18275 6.43636 5.12173 6.55056C5.10937 6.57373 5.09823 6.5973 5.08793 6.62087C4.99887 6.80132 4.97084 7.00941 5.03474 7.20408C5.04422 7.23334 5.05536 7.26139 5.06731 7.28902C5.10978 7.40444 5.17781 7.51011 5.2714 7.59668C7.63425 10.3847 10.2362 12.9894 13.1528 15.2178C15.6084 17.0943 18.2483 18.6886 21.1154 19.8774C23.5327 20.8796 26.0687 21.534 28.6731 21.8339C31.0368 22.1062 33.4158 22.033 35.7679 21.6925C37.9254 21.3799 40.0417 20.8154 42.0801 20.0538C44.0562 19.3157 45.9668 18.4102 47.7932 17.3633C49.4028 16.4407 50.9489 15.4113 52.4295 14.2989C53.729 13.3223 54.9853 12.2924 56.1863 11.2C57.0224 10.4392 57.8334 9.65112 58.611 8.83219C58.982 8.44122 59.351 8.04577 59.6965 7.63244C59.7114 7.61456 59.7266 7.59668 59.7415 7.57839C59.7691 7.54506 59.7938 7.51052 59.8161 7.47597C59.9761 7.27683 60.0503 7.01916 59.9629 6.75296L59.9633 6.75336ZM16.0524 4.77167C17.2807 4.34046 18.4998 3.88283 19.7012 3.38294C20.276 3.14397 20.8478 2.89768 21.4114 2.63351C21.5401 2.57336 21.6675 2.51117 21.7961 2.45143C21.8744 2.41485 21.9536 2.3799 22.0328 2.34495C22.0455 2.33926 22.0546 2.3352 22.0612 2.33235C22.1004 2.3165 22.1395 2.30065 22.1787 2.28521C22.5032 2.158 22.8347 2.04827 23.1719 1.95804C23.4873 1.87351 23.8069 1.80889 24.1297 1.75768C24.142 1.75564 24.1511 1.75402 24.1594 1.7528C24.1672 1.75199 24.1763 1.75117 24.1882 1.74995C24.2591 1.74223 24.3301 1.73451 24.4014 1.72841C24.5638 1.71378 24.7271 1.70444 24.8904 1.69956C25.1715 1.69143 25.4531 1.69793 25.7335 1.71907C25.8531 1.72801 25.9726 1.74101 26.0918 1.75443C26.1116 1.75727 26.1466 1.76215 26.1825 1.76784C26.2559 1.77962 26.3288 1.79222 26.4018 1.80563C26.9217 1.90236 27.4317 2.04867 27.9252 2.23644C27.9797 2.25716 28.0337 2.28033 28.0885 2.30024C28.0885 2.30024 28.0885 2.30024 28.0893 2.30024C28.0918 2.30146 28.0935 2.30228 28.0963 2.30309C28.2089 2.35227 28.3215 2.40266 28.4324 2.4555C28.6468 2.55751 28.8574 2.66724 29.064 2.78388C29.4421 2.99725 29.807 3.23379 30.157 3.48983C30.1883 3.51259 30.2192 3.53575 30.2502 3.55892C30.3244 3.61744 30.3986 3.67556 30.472 3.73531C30.599 3.83894 30.7239 3.94542 30.8463 4.05434C31.1572 4.33071 31.4388 4.6278 31.7216 4.93099C31.7352 4.94562 31.7476 4.96147 31.7604 4.97691C32.056 5.33984 32.6707 5.26628 32.9775 4.97691C33.2339 4.73509 33.5106 4.51156 33.7885 4.29413C33.8054 4.28112 33.8219 4.26731 33.8388 4.25349C33.8437 4.24983 33.8487 4.24658 33.8532 4.24333C33.9262 4.18887 33.9987 4.13441 34.0721 4.08076C34.2502 3.95111 34.4304 3.82472 34.6135 3.70157C34.9919 3.44756 35.3807 3.20859 35.7807 2.98872C35.9967 2.87004 36.2156 2.75665 36.4379 2.64976C36.5517 2.5949 36.6663 2.54206 36.7817 2.49085C36.8361 2.46647 36.891 2.4433 36.9462 2.41973C36.9693 2.41079 37.0452 2.38031 37.0728 2.36974C37.5696 2.1771 38.0813 2.01982 38.6049 1.91537C38.7203 1.8922 38.8366 1.87351 38.9524 1.854C38.9665 1.85156 38.978 1.84953 38.9883 1.8479C39.0007 1.84709 39.0155 1.84546 39.0349 1.84384C39.0868 1.83896 39.1388 1.83327 39.1912 1.8288C39.476 1.80482 39.7626 1.79954 40.0483 1.81295C40.1778 1.81905 40.3072 1.82839 40.4363 1.84181C40.4631 1.84465 40.4903 1.8479 40.5171 1.85075C40.5191 1.85197 40.6569 1.87025 40.6733 1.8731C40.9483 1.91781 41.2209 1.97674 41.4905 2.04623C42.0376 2.18767 42.5678 2.37787 43.0931 2.58392C43.1104 2.59083 43.1248 2.59652 43.1368 2.60099C43.143 2.60384 43.1512 2.60709 43.1624 2.61197C43.2279 2.6396 43.2935 2.66765 43.359 2.69609C43.491 2.7534 43.6221 2.81192 43.7528 2.87167C44.0315 2.99928 44.3077 3.13177 44.5823 3.26711C45.6864 3.81252 46.7641 4.40711 47.8654 4.95781C48.9716 5.51094 50.1058 6.02222 51.2874 6.39856C52.3338 6.73182 53.4078 6.97811 54.4868 7.18295C54.7762 7.23781 55.0669 7.28983 55.358 7.34023C50.8063 8.757 46.1457 9.83238 41.4171 10.49C41.3318 10.5018 41.2464 10.5135 41.1611 10.5253C41.1553 10.5261 41.0456 10.5408 41.0052 10.5461C40.8791 10.5627 40.7525 10.579 40.6263 10.5948C40.2631 10.6407 39.8995 10.6838 39.5358 10.7249C38.9054 10.7956 38.2738 10.859 37.6418 10.9143C36.402 11.0232 35.1598 11.1024 33.9163 11.1512C31.6363 11.2402 29.3518 11.2264 27.0735 11.102C26.0374 11.0455 25.0021 10.9663 23.9697 10.8639C23.4894 10.8163 23.0099 10.7635 22.5308 10.7054C22.4088 10.6907 22.2863 10.6753 22.1643 10.6599C22.1037 10.6521 22.0431 10.6444 21.9825 10.6367C21.9664 10.6347 21.766 10.6095 21.9161 10.6281C22.0653 10.6468 21.8666 10.6216 21.8505 10.6192C21.7907 10.6111 21.731 10.603 21.6712 10.5948C21.5331 10.5757 21.3949 10.5562 21.2568 10.5363C19.5561 10.2912 17.8649 9.97991 16.1906 9.59747C13.7617 9.04271 11.3618 8.34327 9.03769 7.45159C8.83072 7.37193 8.62416 7.29105 8.41843 7.20814C8.39699 7.19961 8.37555 7.19067 8.35411 7.18213C8.64684 7.09922 8.93957 7.0155 9.2323 6.93137C11.5246 6.27054 13.8038 5.56175 16.0537 4.77167H16.0524ZM35.0451 20.094C35.0777 20.0891 35.14 20.0806 35.1395 20.0814C35.1383 20.0851 35.0785 20.0908 35.0451 20.094ZM35.0389 20.0948C35.0192 20.0977 35.0241 20.0969 35.0389 20.0948V20.0948ZM52.4563 12.1404C52.2934 12.2697 52.1301 12.3981 51.9656 12.5257C51.8906 12.5838 51.8156 12.6415 51.7405 12.6993C51.7385 12.7009 51.7376 12.7017 51.7356 12.7029C51.6894 12.7379 51.6432 12.7728 51.597 12.8074C51.252 13.0671 50.9032 13.3223 50.5511 13.5726C49.8027 14.1046 49.0379 14.6151 48.2579 15.1012C46.5695 16.153 44.8066 17.091 42.9752 17.8778C42.9175 17.9026 42.8597 17.927 42.802 17.9518C42.7711 17.9648 42.572 18.0473 42.706 17.9924C42.8387 17.938 42.635 18.0217 42.6091 18.0323C42.5423 18.0595 42.4755 18.0867 42.4087 18.1136C42.1733 18.2082 41.937 18.3001 41.6995 18.3895C41.2027 18.5765 40.7014 18.7516 40.1959 18.9146C39.1652 19.2466 38.1171 19.5271 37.0563 19.7482C36.5249 19.8591 35.9901 19.955 35.4529 20.0359C35.3197 20.0558 35.1866 20.0733 35.0534 20.0928C35.0497 20.0932 35.0472 20.0936 35.0443 20.094C35.0352 20.0948 35.0274 20.0956 35.0241 20.0961C34.9474 20.1058 34.8707 20.1152 34.794 20.1241C34.5145 20.157 34.2346 20.1855 33.9542 20.2094C32.8183 20.3074 31.6763 20.3334 30.5375 20.2846C29.9459 20.2594 29.3547 20.2139 28.7663 20.1481C28.622 20.1318 28.4781 20.1143 28.3342 20.0965C28.3342 20.0965 28.3338 20.0965 28.3334 20.0965C28.3281 20.0956 28.3223 20.0948 28.3153 20.094C28.2324 20.0822 28.1499 20.0709 28.0671 20.0587C27.7649 20.014 27.4635 19.964 27.1629 19.9087C25.926 19.6811 24.7061 19.3649 23.5137 18.9678C22.894 18.7614 22.2826 18.5322 21.6782 18.2851C21.644 18.2708 21.5805 18.2444 21.5512 18.2318C21.4749 18.1993 21.3991 18.1668 21.3232 18.1339C21.1591 18.0627 20.9958 17.9896 20.8334 17.9156C20.5139 17.7697 20.1972 17.6185 19.8831 17.4621C18.5641 16.8045 17.293 16.055 16.0722 15.2337C15.7453 15.0138 15.422 14.7886 15.1021 14.5586C14.9446 14.4452 14.7884 14.331 14.6325 14.2156C14.5538 14.1575 14.4758 14.0985 14.3975 14.04C14.3748 14.023 14.3521 14.0059 14.3295 13.9888C14.32 13.9815 14.2586 13.9348 14.2355 13.9169C13.5795 13.4121 12.9396 12.8874 12.3142 12.3461C11.1932 11.3751 10.1216 10.3498 9.09294 9.28413C10.919 9.9604 12.7912 10.5184 14.6824 10.9866C18.2355 11.8657 21.874 12.42 25.5253 12.6997C30.2452 13.0614 34.999 12.9423 39.7003 12.4046C45.296 11.7649 50.8112 10.5591 56.1743 8.86673C56.0288 9.00817 55.8832 9.14919 55.736 9.289C54.6851 10.2868 53.5897 11.239 52.4546 12.1421L52.4563 12.1404Z" fill="black"/>
<circle cx="3" cy="11" r="3" fill="#FF3939"/>
<circle cx="3" cy="11" r="3" fill="#FF3939"/>
<circle cx="3" cy="11" r="3" fill="#FF3939"/>
<circle cx="3" cy="11" r="3" fill="#FF3939"/>
<circle cx="62" cy="11" r="3" fill="#FF3939"/>
<circle cx="62" cy="11" r="3" fill="#FF3939"/>
<circle cx="62" cy="11" r="3" fill="#FF3939"/>
<circle cx="62" cy="11" r="3" fill="#FF3939"/>
</svg>
