<svg width="55" height="22" viewBox="0 0 55 22" fill="none" xmlns="http://www.w3.org/2000/svg">
<path d="M54.9633 6.75336C54.8446 6.39165 54.4644 6.08237 54.0653 6.12463C53.7103 6.09456 53.3562 6.05595 53.0024 6.0149C52.8218 5.99377 52.6417 5.97182 52.4615 5.94906C52.4174 5.94337 52.3733 5.93768 52.3292 5.93199C52.3292 5.93199 52.3292 5.93199 52.3287 5.93199C52.2001 5.91411 52.0711 5.89663 51.9424 5.87835C51.4534 5.80844 50.9657 5.73122 50.4792 5.64547C49.3879 5.45323 48.301 5.22117 47.2369 4.9127C46.0334 4.56358 45.1247 4.17749 44.0173 3.63411C41.8083 2.55019 39.6788 1.20983 37.299 0.507536C36.1974 0.182402 35.0252 0.0206477 33.879 0.166145C32.7151 0.313675 31.6222 0.678638 30.5687 1.18503C29.4667 1.715 28.389 2.39535 27.4345 3.18298C26.8598 2.614 26.1923 2.11532 25.5285 1.68249C23.676 0.473803 21.4146 -0.201663 19.1878 0.0535675C18.4642 0.136477 17.7563 0.281974 17.0686 0.520948C16.397 0.754638 15.7641 1.07205 15.1177 1.36386C14.8447 1.487 14.5705 1.6069 14.2947 1.72394C14.2296 1.75158 14.1644 1.77922 14.0993 1.80645C14.0873 1.81132 14.0482 1.82758 14.023 1.83815C14.016 1.84099 14.0106 1.84343 14.0082 1.84424C13.863 1.90358 13.7183 1.96292 13.5728 2.02144C12.9638 2.26611 12.3503 2.5002 11.7344 2.72617C9.38678 3.58859 7.00002 4.34737 4.59965 5.05413C3.30299 5.43576 1.99354 5.77186 0.694822 6.14536C0.675444 6.15105 0.655654 6.15552 0.635864 6.16081C0.601232 6.16975 0.567836 6.18194 0.534852 6.19535C0.517124 6.20226 0.50022 6.21039 0.483316 6.21811C0.481667 6.21892 0.48043 6.21933 0.478781 6.22014C0.461052 6.22868 0.443323 6.23762 0.426419 6.24737C0.4157 6.25306 0.405805 6.25916 0.395497 6.26566C0.388076 6.27054 0.380655 6.27501 0.373234 6.27989C0.270573 6.34695 0.182754 6.43636 0.121735 6.55056C0.109366 6.57373 0.0982342 6.5973 0.0879269 6.62087C-0.00112841 6.80132 -0.0291643 7.00941 0.0347411 7.20408C0.0442238 7.23334 0.0553557 7.26139 0.0673122 7.28902C0.109778 7.40444 0.177807 7.51011 0.271397 7.59668C2.63425 10.3847 5.23623 12.9894 8.15279 15.2178C10.6084 17.0943 13.2483 18.6886 16.1154 19.8774C18.5327 20.8796 21.0687 21.534 23.6731 21.8339C26.0368 22.1062 28.4158 22.033 30.7679 21.6925C32.9254 21.3799 35.0417 20.8154 37.0801 20.0538C39.0562 19.3157 40.9668 18.4102 42.7932 17.3633C44.4028 16.4407 45.9489 15.4113 47.4295 14.2989C48.729 13.3223 49.9853 12.2924 51.1863 11.2C52.0224 10.4392 52.8334 9.65112 53.611 8.83219C53.982 8.44122 54.351 8.04577 54.6965 7.63244C54.7114 7.61456 54.7266 7.59668 54.7415 7.57839C54.7691 7.54506 54.7938 7.51052 54.8161 7.47597C54.9761 7.27683 55.0503 7.01916 54.9629 6.75296L54.9633 6.75336ZM11.0524 4.77167C12.2807 4.34046 13.4998 3.88283 14.7012 3.38294C15.276 3.14397 15.8478 2.89768 16.4114 2.63351C16.5401 2.57336 16.6675 2.51117 16.7961 2.45143C16.8744 2.41485 16.9536 2.3799 17.0328 2.34495C17.0455 2.33926 17.0546 2.3352 17.0612 2.33235C17.1004 2.3165 17.1395 2.30065 17.1787 2.28521C17.5032 2.158 17.8347 2.04827 18.1719 1.95804C18.4873 1.87351 18.8069 1.80889 19.1297 1.75768C19.142 1.75564 19.1511 1.75402 19.1594 1.7528C19.1672 1.75199 19.1763 1.75117 19.1882 1.74995C19.2591 1.74223 19.3301 1.73451 19.4014 1.72841C19.5638 1.71378 19.7271 1.70444 19.8904 1.69956C20.1715 1.69143 20.4531 1.69793 20.7335 1.71907C20.8531 1.72801 20.9726 1.74101 21.0918 1.75443C21.1116 1.75727 21.1466 1.76215 21.1825 1.76784C21.2559 1.77962 21.3288 1.79222 21.4018 1.80563C21.9217 1.90236 22.4317 2.04867 22.9252 2.23644C22.9797 2.25716 23.0337 2.28033 23.0885 2.30024C23.0885 2.30024 23.0885 2.30024 23.0893 2.30024C23.0918 2.30146 23.0935 2.30228 23.0963 2.30309C23.2089 2.35227 23.3215 2.40266 23.4324 2.4555C23.6468 2.55751 23.8574 2.66724 24.064 2.78388C24.4421 2.99725 24.807 3.23379 25.157 3.48983C25.1883 3.51259 25.2192 3.53575 25.2502 3.55892C25.3244 3.61744 25.3986 3.67556 25.472 3.73531C25.599 3.83894 25.7239 3.94542 25.8463 4.05434C26.1572 4.33071 26.4388 4.6278 26.7216 4.93099C26.7352 4.94562 26.7476 4.96147 26.7604 4.97691C27.056 5.33984 27.6707 5.26628 27.9775 4.97691C28.2339 4.73509 28.5106 4.51156 28.7885 4.29413C28.8054 4.28112 28.8219 4.26731 28.8388 4.25349C28.8437 4.24983 28.8487 4.24658 28.8532 4.24333C28.9262 4.18887 28.9987 4.13441 29.0721 4.08076C29.2502 3.95111 29.4304 3.82472 29.6135 3.70157C29.9919 3.44756 30.3807 3.20859 30.7807 2.98872C30.9967 2.87004 31.2156 2.75665 31.4379 2.64976C31.5517 2.5949 31.6663 2.54206 31.7817 2.49085C31.8361 2.46647 31.891 2.4433 31.9462 2.41973C31.9693 2.41079 32.0452 2.38031 32.0728 2.36974C32.5696 2.1771 33.0813 2.01982 33.6049 1.91537C33.7203 1.8922 33.8366 1.87351 33.9524 1.854C33.9665 1.85156 33.978 1.84953 33.9883 1.8479C34.0007 1.84709 34.0155 1.84546 34.0349 1.84384C34.0868 1.83896 34.1388 1.83327 34.1912 1.8288C34.476 1.80482 34.7626 1.79954 35.0483 1.81295C35.1778 1.81905 35.3072 1.82839 35.4363 1.84181C35.4631 1.84465 35.4903 1.8479 35.5171 1.85075C35.5191 1.85197 35.6569 1.87025 35.6733 1.8731C35.9483 1.91781 36.2209 1.97674 36.4905 2.04623C37.0376 2.18767 37.5678 2.37787 38.0931 2.58392C38.1104 2.59083 38.1248 2.59652 38.1368 2.60099C38.143 2.60384 38.1512 2.60709 38.1624 2.61197C38.2279 2.6396 38.2935 2.66765 38.359 2.69609C38.491 2.7534 38.6221 2.81192 38.7528 2.87167C39.0315 2.99928 39.3077 3.13177 39.5823 3.26711C40.6864 3.81252 41.7641 4.40711 42.8654 4.95781C43.9716 5.51094 45.1058 6.02222 46.2874 6.39856C47.3338 6.73182 48.4078 6.97811 49.4868 7.18295C49.7762 7.23781 50.0669 7.28983 50.358 7.34023C45.8063 8.757 41.1457 9.83238 36.4171 10.49C36.3318 10.5018 36.2464 10.5135 36.1611 10.5253C36.1553 10.5261 36.0456 10.5408 36.0052 10.5461C35.8791 10.5627 35.7525 10.579 35.6263 10.5948C35.2631 10.6407 34.8995 10.6838 34.5358 10.7249C33.9054 10.7956 33.2738 10.859 32.6418 10.9143C31.402 11.0232 30.1598 11.1024 28.9163 11.1512C26.6363 11.2402 24.3518 11.2264 22.0735 11.102C21.0374 11.0455 20.0021 10.9663 18.9697 10.8639C18.4894 10.8163 18.0099 10.7635 17.5308 10.7054C17.4088 10.6907 17.2863 10.6753 17.1643 10.6599C17.1037 10.6521 17.0431 10.6444 16.9825 10.6367C16.9664 10.6347 16.766 10.6095 16.9161 10.6281C17.0653 10.6468 16.8666 10.6216 16.8505 10.6192C16.7907 10.6111 16.731 10.603 16.6712 10.5948C16.5331 10.5757 16.3949 10.5562 16.2568 10.5363C14.5561 10.2912 12.8649 9.97991 11.1906 9.59747C8.76175 9.04271 6.36179 8.34327 4.03769 7.45159C3.83072 7.37193 3.62416 7.29105 3.41843 7.20814C3.39699 7.19961 3.37555 7.19067 3.35411 7.18213C3.64684 7.09922 3.93957 7.0155 4.2323 6.93137C6.52464 6.27054 8.8038 5.56175 11.0537 4.77167H11.0524ZM30.0451 20.094C30.0777 20.0891 30.14 20.0806 30.1395 20.0814C30.1383 20.0851 30.0785 20.0908 30.0451 20.094ZM30.0389 20.0948C30.0192 20.0977 30.0241 20.0969 30.0389 20.0948V20.0948ZM47.4563 12.1404C47.2934 12.2697 47.1301 12.3981 46.9656 12.5257C46.8906 12.5838 46.8156 12.6415 46.7405 12.6993C46.7385 12.7009 46.7376 12.7017 46.7356 12.7029C46.6894 12.7379 46.6432 12.7728 46.597 12.8074C46.252 13.0671 45.9032 13.3223 45.5511 13.5726C44.8027 14.1046 44.0379 14.6151 43.2579 15.1012C41.5695 16.153 39.8066 17.091 37.9752 17.8778C37.9175 17.9026 37.8597 17.927 37.802 17.9518C37.7711 17.9648 37.572 18.0473 37.706 17.9924C37.8387 17.938 37.635 18.0217 37.6091 18.0323C37.5423 18.0595 37.4755 18.0867 37.4087 18.1136C37.1733 18.2082 36.937 18.3001 36.6995 18.3895C36.2027 18.5765 35.7014 18.7516 35.1959 18.9146C34.1652 19.2466 33.1171 19.5271 32.0563 19.7482C31.5249 19.8591 30.9901 19.955 30.4529 20.0359C30.3197 20.0558 30.1866 20.0733 30.0534 20.0928C30.0497 20.0932 30.0472 20.0936 30.0443 20.094C30.0352 20.0948 30.0274 20.0956 30.0241 20.0961C29.9474 20.1058 29.8707 20.1152 29.794 20.1241C29.5145 20.157 29.2346 20.1855 28.9542 20.2094C27.8183 20.3074 26.6763 20.3334 25.5375 20.2846C24.9459 20.2594 24.3547 20.2139 23.7663 20.1481C23.622 20.1318 23.4781 20.1143 23.3342 20.0965C23.3342 20.0965 23.3338 20.0965 23.3334 20.0965C23.3281 20.0956 23.3223 20.0948 23.3153 20.094C23.2324 20.0822 23.1499 20.0709 23.0671 20.0587C22.7649 20.014 22.4635 19.964 22.1629 19.9087C20.926 19.6811 19.7061 19.3649 18.5137 18.9678C17.894 18.7614 17.2826 18.5322 16.6782 18.2851C16.644 18.2708 16.5805 18.2444 16.5512 18.2318C16.4749 18.1993 16.3991 18.1668 16.3232 18.1339C16.1591 18.0627 15.9958 17.9896 15.8334 17.9156C15.5139 17.7697 15.1972 17.6185 14.8831 17.4621C13.5641 16.8045 12.293 16.055 11.0722 15.2337C10.7453 15.0138 10.422 14.7886 10.1021 14.5586C9.94461 14.4452 9.78836 14.331 9.63251 14.2156C9.55376 14.1575 9.47584 14.0985 9.3975 14.04C9.37483 14.023 9.35215 14.0059 9.32947 13.9888C9.31999 13.9815 9.25856 13.9348 9.23547 13.9169C8.57951 13.4121 7.93963 12.8874 7.31419 12.3461C6.19316 11.3751 5.12161 10.3498 4.09294 9.28413C5.91899 9.9604 7.79121 10.5184 9.6824 10.9866C13.2355 11.8657 16.874 12.42 20.5253 12.6997C25.2452 13.0614 29.999 12.9423 34.7003 12.4046C40.296 11.7649 45.8112 10.5591 51.1743 8.86673C51.0288 9.00817 50.8832 9.14919 50.736 9.289C49.6851 10.2868 48.5897 11.239 47.4546 12.1421L47.4563 12.1404Z" fill="black"/>
<mask id="mask0_1240_6476" style="mask-type:alpha" maskUnits="userSpaceOnUse" x="6" y="12" width="40" height="10">
<ellipse cx="11.5" cy="17.5" rx="5.5" ry="4.5" fill="#D9D9D9"/>
<ellipse cx="40.5" cy="16.5" rx="5.5" ry="4.5" fill="#D9D9D9"/>
</mask>
<g mask="url(#mask0_1240_6476)">
<path d="M54.9633 6.75336C54.8446 6.39165 54.4644 6.08237 54.0653 6.12463C53.7103 6.09456 53.3562 6.05595 53.0024 6.0149C52.8218 5.99377 52.6417 5.97182 52.4615 5.94906C52.4174 5.94337 52.3733 5.93768 52.3292 5.93199C52.3292 5.93199 52.3292 5.93199 52.3287 5.93199C52.2001 5.91411 52.0711 5.89663 51.9424 5.87835C51.4534 5.80844 50.9657 5.73122 50.4792 5.64547C49.3879 5.45323 48.301 5.22117 47.2369 4.9127C46.0334 4.56358 45.1247 4.17749 44.0173 3.63411C41.8083 2.55019 39.6788 1.20983 37.299 0.507536C36.1974 0.182402 35.0252 0.0206477 33.879 0.166145C32.7151 0.313675 31.6222 0.678638 30.5687 1.18503C29.4667 1.715 28.389 2.39535 27.4345 3.18298C26.8598 2.614 26.1923 2.11532 25.5285 1.68249C23.676 0.473803 21.4146 -0.201663 19.1878 0.0535675C18.4642 0.136477 17.7563 0.281974 17.0686 0.520948C16.397 0.754638 15.7641 1.07205 15.1177 1.36386C14.8447 1.487 14.5705 1.6069 14.2947 1.72394C14.2296 1.75158 14.1644 1.77922 14.0993 1.80645C14.0873 1.81132 14.0482 1.82758 14.023 1.83815C14.016 1.84099 14.0106 1.84343 14.0082 1.84424C13.863 1.90358 13.7183 1.96292 13.5728 2.02144C12.9638 2.26611 12.3503 2.5002 11.7344 2.72617C9.38678 3.58859 7.00002 4.34737 4.59965 5.05413C3.30299 5.43576 1.99354 5.77186 0.694822 6.14536C0.675444 6.15105 0.655654 6.15552 0.635864 6.16081C0.601232 6.16975 0.567836 6.18194 0.534852 6.19535C0.517124 6.20226 0.50022 6.21039 0.483316 6.21811C0.481667 6.21892 0.48043 6.21933 0.478781 6.22014C0.461052 6.22868 0.443323 6.23762 0.426419 6.24737C0.4157 6.25306 0.405805 6.25916 0.395497 6.26566C0.388076 6.27054 0.380655 6.27501 0.373234 6.27989C0.270573 6.34695 0.182754 6.43636 0.121735 6.55056C0.109366 6.57373 0.0982342 6.5973 0.0879269 6.62087C-0.00112841 6.80132 -0.0291643 7.00941 0.0347411 7.20408C0.0442238 7.23334 0.0553557 7.26139 0.0673122 7.28902C0.109778 7.40444 0.177807 7.51011 0.271397 7.59668C2.63425 10.3847 5.23623 12.9894 8.15279 15.2178C10.6084 17.0943 13.2483 18.6886 16.1154 19.8774C18.5327 20.8796 21.0687 21.534 23.6731 21.8339C26.0368 22.1062 28.4158 22.033 30.7679 21.6925C32.9254 21.3799 35.0417 20.8154 37.0801 20.0538C39.0562 19.3157 40.9668 18.4102 42.7932 17.3633C44.4028 16.4407 45.9489 15.4113 47.4295 14.2989C48.729 13.3223 49.9853 12.2924 51.1863 11.2C52.0224 10.4392 52.8334 9.65112 53.611 8.83219C53.982 8.44122 54.351 8.04577 54.6965 7.63244C54.7114 7.61456 54.7266 7.59668 54.7415 7.57839C54.7691 7.54506 54.7938 7.51052 54.8161 7.47597C54.9761 7.27683 55.0503 7.01916 54.9629 6.75296L54.9633 6.75336ZM11.0524 4.77167C12.2807 4.34046 13.4998 3.88283 14.7012 3.38294C15.276 3.14397 15.8478 2.89768 16.4114 2.63351C16.5401 2.57336 16.6675 2.51117 16.7961 2.45143C16.8744 2.41485 16.9536 2.3799 17.0328 2.34495C17.0455 2.33926 17.0546 2.3352 17.0612 2.33235C17.1004 2.3165 17.1395 2.30065 17.1787 2.28521C17.5032 2.158 17.8347 2.04827 18.1719 1.95804C18.4873 1.87351 18.8069 1.80889 19.1297 1.75768C19.142 1.75564 19.1511 1.75402 19.1594 1.7528C19.1672 1.75199 19.1763 1.75117 19.1882 1.74995C19.2591 1.74223 19.3301 1.73451 19.4014 1.72841C19.5638 1.71378 19.7271 1.70444 19.8904 1.69956C20.1715 1.69143 20.4531 1.69793 20.7335 1.71907C20.8531 1.72801 20.9726 1.74101 21.0918 1.75443C21.1116 1.75727 21.1466 1.76215 21.1825 1.76784C21.2559 1.77962 21.3288 1.79222 21.4018 1.80563C21.9217 1.90236 22.4317 2.04867 22.9252 2.23644C22.9797 2.25716 23.0337 2.28033 23.0885 2.30024C23.0885 2.30024 23.0885 2.30024 23.0893 2.30024C23.0918 2.30146 23.0935 2.30228 23.0963 2.30309C23.2089 2.35227 23.3215 2.40266 23.4324 2.4555C23.6468 2.55751 23.8574 2.66724 24.064 2.78388C24.4421 2.99725 24.807 3.23379 25.157 3.48983C25.1883 3.51259 25.2192 3.53575 25.2502 3.55892C25.3244 3.61744 25.3986 3.67556 25.472 3.73531C25.599 3.83894 25.7239 3.94542 25.8463 4.05434C26.1572 4.33071 26.4388 4.6278 26.7216 4.93099C26.7352 4.94562 26.7476 4.96147 26.7604 4.97691C27.056 5.33984 27.6707 5.26628 27.9775 4.97691C28.2339 4.73509 28.5106 4.51156 28.7885 4.29413C28.8054 4.28112 28.8219 4.26731 28.8388 4.25349C28.8437 4.24983 28.8487 4.24658 28.8532 4.24333C28.9262 4.18887 28.9987 4.13441 29.0721 4.08076C29.2502 3.95111 29.4304 3.82472 29.6135 3.70157C29.9919 3.44756 30.3807 3.20859 30.7807 2.98872C30.9967 2.87004 31.2156 2.75665 31.4379 2.64976C31.5517 2.5949 31.6663 2.54206 31.7817 2.49085C31.8361 2.46647 31.891 2.4433 31.9462 2.41973C31.9693 2.41079 32.0452 2.38031 32.0728 2.36974C32.5696 2.1771 33.0813 2.01982 33.6049 1.91537C33.7203 1.8922 33.8366 1.87351 33.9524 1.854C33.9665 1.85156 33.978 1.84953 33.9883 1.8479C34.0007 1.84709 34.0155 1.84546 34.0349 1.84384C34.0868 1.83896 34.1388 1.83327 34.1912 1.8288C34.476 1.80482 34.7626 1.79954 35.0483 1.81295C35.1778 1.81905 35.3072 1.82839 35.4363 1.84181C35.4631 1.84465 35.4903 1.8479 35.5171 1.85075C35.5191 1.85197 35.6569 1.87025 35.6733 1.8731C35.9483 1.91781 36.2209 1.97674 36.4905 2.04623C37.0376 2.18767 37.5678 2.37787 38.0931 2.58392C38.1104 2.59083 38.1248 2.59652 38.1368 2.60099C38.143 2.60384 38.1512 2.60709 38.1624 2.61197C38.2279 2.6396 38.2935 2.66765 38.359 2.69609C38.491 2.7534 38.6221 2.81192 38.7528 2.87167C39.0315 2.99928 39.3077 3.13177 39.5823 3.26711C40.6864 3.81252 41.7641 4.40711 42.8654 4.95781C43.9716 5.51094 45.1058 6.02222 46.2874 6.39856C47.3338 6.73182 48.4078 6.97811 49.4868 7.18295C49.7762 7.23781 50.0669 7.28983 50.358 7.34023C45.8063 8.757 41.1457 9.83238 36.4171 10.49C36.3318 10.5018 36.2464 10.5135 36.1611 10.5253C36.1553 10.5261 36.0456 10.5408 36.0052 10.5461C35.8791 10.5627 35.7525 10.579 35.6263 10.5948C35.2631 10.6407 34.8995 10.6838 34.5358 10.7249C33.9054 10.7956 33.2738 10.859 32.6418 10.9143C31.402 11.0232 30.1598 11.1024 28.9163 11.1512C26.6363 11.2402 24.3518 11.2264 22.0735 11.102C21.0374 11.0455 20.0021 10.9663 18.9697 10.8639C18.4894 10.8163 18.0099 10.7635 17.5308 10.7054C17.4088 10.6907 17.2863 10.6753 17.1643 10.6599C17.1037 10.6521 17.0431 10.6444 16.9825 10.6367C16.9664 10.6347 16.766 10.6095 16.9161 10.6281C17.0653 10.6468 16.8666 10.6216 16.8505 10.6192C16.7907 10.6111 16.731 10.603 16.6712 10.5948C16.5331 10.5757 16.3949 10.5562 16.2568 10.5363C14.5561 10.2912 12.8649 9.97991 11.1906 9.59747C8.76175 9.04271 6.36179 8.34327 4.03769 7.45159C3.83072 7.37193 3.62416 7.29105 3.41843 7.20814C3.39699 7.19961 3.37555 7.19067 3.35411 7.18213C3.64684 7.09922 3.93957 7.0155 4.2323 6.93137C6.52464 6.27054 8.8038 5.56175 11.0537 4.77167H11.0524ZM30.0451 20.094C30.0777 20.0891 30.14 20.0806 30.1395 20.0814C30.1383 20.0851 30.0785 20.0908 30.0451 20.094ZM30.0389 20.0948C30.0192 20.0977 30.0241 20.0969 30.0389 20.0948V20.0948ZM47.4563 12.1404C47.2934 12.2697 47.1301 12.3981 46.9656 12.5257C46.8906 12.5838 46.8156 12.6415 46.7405 12.6993C46.7385 12.7009 46.7376 12.7017 46.7356 12.7029C46.6894 12.7379 46.6432 12.7728 46.597 12.8074C46.252 13.0671 45.9032 13.3223 45.5511 13.5726C44.8027 14.1046 44.0379 14.6151 43.2579 15.1012C41.5695 16.153 39.8066 17.091 37.9752 17.8778C37.9175 17.9026 37.8597 17.927 37.802 17.9518C37.7711 17.9648 37.572 18.0473 37.706 17.9924C37.8387 17.938 37.635 18.0217 37.6091 18.0323C37.5423 18.0595 37.4755 18.0867 37.4087 18.1136C37.1733 18.2082 36.937 18.3001 36.6995 18.3895C36.2027 18.5765 35.7014 18.7516 35.1959 18.9146C34.1652 19.2466 33.1171 19.5271 32.0563 19.7482C31.5249 19.8591 30.9901 19.955 30.4529 20.0359C30.3197 20.0558 30.1866 20.0733 30.0534 20.0928C30.0497 20.0932 30.0472 20.0936 30.0443 20.094C30.0352 20.0948 30.0274 20.0956 30.0241 20.0961C29.9474 20.1058 29.8707 20.1152 29.794 20.1241C29.5145 20.157 29.2346 20.1855 28.9542 20.2094C27.8183 20.3074 26.6763 20.3334 25.5375 20.2846C24.9459 20.2594 24.3547 20.2139 23.7663 20.1481C23.622 20.1318 23.4781 20.1143 23.3342 20.0965C23.3342 20.0965 23.3338 20.0965 23.3334 20.0965C23.3281 20.0956 23.3223 20.0948 23.3153 20.094C23.2324 20.0822 23.1499 20.0709 23.0671 20.0587C22.7649 20.014 22.4635 19.964 22.1629 19.9087C20.926 19.6811 19.7061 19.3649 18.5137 18.9678C17.894 18.7614 17.2826 18.5322 16.6782 18.2851C16.644 18.2708 16.5805 18.2444 16.5512 18.2318C16.4749 18.1993 16.3991 18.1668 16.3232 18.1339C16.1591 18.0627 15.9958 17.9896 15.8334 17.9156C15.5139 17.7697 15.1972 17.6185 14.8831 17.4621C13.5641 16.8045 12.293 16.055 11.0722 15.2337C10.7453 15.0138 10.422 14.7886 10.1021 14.5586C9.94461 14.4452 9.78836 14.331 9.63251 14.2156C9.55376 14.1575 9.47584 14.0985 9.3975 14.04C9.37483 14.023 9.35215 14.0059 9.32947 13.9888C9.31999 13.9815 9.25856 13.9348 9.23547 13.9169C8.57951 13.4121 7.93963 12.8874 7.31419 12.3461C6.19316 11.3751 5.12161 10.3498 4.09294 9.28413C5.91899 9.9604 7.79121 10.5184 9.6824 10.9866C13.2355 11.8657 16.874 12.42 20.5253 12.6997C25.2452 13.0614 29.999 12.9423 34.7003 12.4046C40.296 11.7649 45.8112 10.5591 51.1743 8.86673C51.0288 9.00817 50.8832 9.14919 50.736 9.289C49.6851 10.2868 48.5897 11.239 47.4546 12.1421L47.4563 12.1404Z" fill="#FF3939"/>
</g>
</svg>
