<svg width="55" height="31" viewBox="0 0 55 31" fill="none" xmlns="http://www.w3.org/2000/svg">
<path d="M54.9633 15.7534C54.8446 15.3917 54.4644 15.0824 54.0653 15.1246C53.7103 15.0946 53.3562 15.056 53.0024 15.0149C52.8218 14.9938 52.6417 14.9718 52.4615 14.9491C52.4174 14.9434 52.3733 14.9377 52.3292 14.932C52.3292 14.932 52.3292 14.932 52.3287 14.932C52.2001 14.9141 52.0711 14.8966 51.9424 14.8783C51.4534 14.8084 50.9657 14.7312 50.4792 14.6455C49.3879 14.4532 48.301 14.2212 47.2369 13.9127C46.0334 13.5636 45.1247 13.1775 44.0173 12.6341C41.8083 11.5502 39.6788 10.2098 37.299 9.50754C36.1974 9.1824 35.0252 9.02065 33.879 9.16615C32.7151 9.31367 31.6222 9.67864 30.5687 10.185C29.4667 10.715 28.389 11.3953 27.4345 12.183C26.8598 11.614 26.1923 11.1153 25.5285 10.6825C23.676 9.4738 21.4146 8.79834 19.1878 9.05357C18.4642 9.13648 17.7563 9.28197 17.0686 9.52095C16.397 9.75464 15.7641 10.0721 15.1177 10.3639C14.8447 10.487 14.5705 10.6069 14.2947 10.7239C14.2296 10.7516 14.1644 10.7792 14.0993 10.8064C14.0873 10.8113 14.0482 10.8276 14.023 10.8381C14.016 10.841 14.0106 10.8434 14.0082 10.8442C13.863 10.9036 13.7183 10.9629 13.5728 11.0214C12.9638 11.2661 12.3503 11.5002 11.7344 11.7262C9.38678 12.5886 7.00002 13.3474 4.59965 14.0541C3.30299 14.4358 1.99354 14.7719 0.694822 15.1454C0.675444 15.1511 0.655654 15.1555 0.635864 15.1608C0.601232 15.1697 0.567836 15.1819 0.534852 15.1954C0.517124 15.2023 0.50022 15.2104 0.483316 15.2181C0.481667 15.2189 0.48043 15.2193 0.478781 15.2201C0.461052 15.2287 0.443323 15.2376 0.426419 15.2474C0.4157 15.2531 0.405805 15.2592 0.395497 15.2657C0.388076 15.2705 0.380655 15.275 0.373234 15.2799C0.270573 15.3469 0.182754 15.4364 0.121735 15.5506C0.109366 15.5737 0.0982342 15.5973 0.0879269 15.6209C-0.00112841 15.8013 -0.0291643 16.0094 0.0347411 16.2041C0.0442238 16.2333 0.0553557 16.2614 0.0673122 16.289C0.109778 16.4044 0.177807 16.5101 0.271397 16.5967C2.63425 19.3847 5.23623 21.9894 8.15279 24.2178C10.6084 26.0943 13.2483 27.6886 16.1154 28.8774C18.5327 29.8796 21.0687 30.534 23.6731 30.8339C26.0368 31.1062 28.4158 31.033 30.7679 30.6925C32.9254 30.3799 35.0417 29.8154 37.0801 29.0538C39.0562 28.3157 40.9668 27.4102 42.7932 26.3633C44.4028 25.4407 45.9489 24.4113 47.4295 23.2989C48.729 22.3223 49.9853 21.2924 51.1863 20.2C52.0224 19.4392 52.8334 18.6511 53.611 17.8322C53.982 17.4412 54.351 17.0458 54.6965 16.6324C54.7114 16.6146 54.7266 16.5967 54.7415 16.5784C54.7691 16.5451 54.7938 16.5105 54.8161 16.476C54.9761 16.2768 55.0503 16.0192 54.9629 15.753L54.9633 15.7534ZM11.0524 13.7717C12.2807 13.3405 13.4998 12.8828 14.7012 12.3829C15.276 12.144 15.8478 11.8977 16.4114 11.6335C16.5401 11.5734 16.6675 11.5112 16.7961 11.4514C16.8744 11.4149 16.9536 11.3799 17.0328 11.345C17.0455 11.3393 17.0546 11.3352 17.0612 11.3324C17.1004 11.3165 17.1395 11.3007 17.1787 11.2852C17.5032 11.158 17.8347 11.0483 18.1719 10.958C18.4873 10.8735 18.8069 10.8089 19.1297 10.7577C19.142 10.7556 19.1511 10.754 19.1594 10.7528C19.1672 10.752 19.1763 10.7512 19.1882 10.75C19.2591 10.7422 19.3301 10.7345 19.4014 10.7284C19.5638 10.7138 19.7271 10.7044 19.8904 10.6996C20.1715 10.6914 20.4531 10.6979 20.7335 10.7191C20.8531 10.728 20.9726 10.741 21.0918 10.7544C21.1116 10.7573 21.1466 10.7621 21.1825 10.7678C21.2559 10.7796 21.3288 10.7922 21.4018 10.8056C21.9217 10.9024 22.4317 11.0487 22.9252 11.2364C22.9797 11.2572 23.0337 11.2803 23.0885 11.3002C23.0885 11.3002 23.0885 11.3002 23.0893 11.3002C23.0918 11.3015 23.0935 11.3023 23.0963 11.3031C23.2089 11.3523 23.3215 11.4027 23.4324 11.4555C23.6468 11.5575 23.8574 11.6672 24.064 11.7839C24.4421 11.9973 24.807 12.2338 25.157 12.4898C25.1883 12.5126 25.2192 12.5358 25.2502 12.5589C25.3244 12.6174 25.3986 12.6756 25.472 12.7353C25.599 12.8389 25.7239 12.9454 25.8463 13.0543C26.1572 13.3307 26.4388 13.6278 26.7216 13.931C26.7352 13.9456 26.7476 13.9615 26.7604 13.9769C27.056 14.3398 27.6707 14.2663 27.9775 13.9769C28.2339 13.7351 28.5106 13.5116 28.7885 13.2941C28.8054 13.2811 28.8219 13.2673 28.8388 13.2535C28.8437 13.2498 28.8487 13.2466 28.8532 13.2433C28.9262 13.1889 28.9987 13.1344 29.0721 13.0808C29.2502 12.9511 29.4304 12.8247 29.6135 12.7016C29.9919 12.4476 30.3807 12.2086 30.7807 11.9887C30.9967 11.87 31.2156 11.7567 31.4379 11.6498C31.5517 11.5949 31.6663 11.5421 31.7817 11.4909C31.8361 11.4665 31.891 11.4433 31.9462 11.4197C31.9693 11.4108 32.0452 11.3803 32.0728 11.3697C32.5696 11.1771 33.0813 11.0198 33.6049 10.9154C33.7203 10.8922 33.8366 10.8735 33.9524 10.854C33.9665 10.8516 33.978 10.8495 33.9883 10.8479C34.0007 10.8471 34.0155 10.8455 34.0349 10.8438C34.0868 10.839 34.1388 10.8333 34.1912 10.8288C34.476 10.8048 34.7626 10.7995 35.0483 10.8129C35.1778 10.819 35.3072 10.8284 35.4363 10.8418C35.4631 10.8447 35.4903 10.8479 35.5171 10.8507C35.5191 10.852 35.6569 10.8703 35.6733 10.8731C35.9483 10.9178 36.2209 10.9767 36.4905 11.0462C37.0376 11.1877 37.5678 11.3779 38.0931 11.5839C38.1104 11.5908 38.1248 11.5965 38.1368 11.601C38.143 11.6038 38.1512 11.6071 38.1624 11.612C38.2279 11.6396 38.2935 11.6676 38.359 11.6961C38.491 11.7534 38.6221 11.8119 38.7528 11.8717C39.0315 11.9993 39.3077 12.1318 39.5823 12.2671C40.6864 12.8125 41.7641 13.4071 42.8654 13.9578C43.9716 14.5109 45.1058 15.0222 46.2874 15.3986C47.3338 15.7318 48.4078 15.9781 49.4868 16.1829C49.7762 16.2378 50.0669 16.2898 50.358 16.3402C45.8063 17.757 41.1457 18.8324 36.4171 19.49C36.3318 19.5018 36.2464 19.5135 36.1611 19.5253C36.1553 19.5261 36.0456 19.5408 36.0052 19.5461C35.8791 19.5627 35.7525 19.579 35.6263 19.5948C35.2631 19.6407 34.8995 19.6838 34.5358 19.7249C33.9054 19.7956 33.2738 19.859 32.6418 19.9143C31.402 20.0232 30.1598 20.1024 28.9163 20.1512C26.6363 20.2402 24.3518 20.2264 22.0735 20.102C21.0374 20.0455 20.0021 19.9663 18.9697 19.8639C18.4894 19.8163 18.0099 19.7635 17.5308 19.7054C17.4088 19.6907 17.2863 19.6753 17.1643 19.6599C17.1037 19.6521 17.0431 19.6444 16.9825 19.6367C16.9664 19.6347 16.766 19.6095 16.9161 19.6281C17.0653 19.6468 16.8666 19.6216 16.8505 19.6192C16.7907 19.6111 16.731 19.603 16.6712 19.5948C16.5331 19.5757 16.3949 19.5562 16.2568 19.5363C14.5561 19.2912 12.8649 18.9799 11.1906 18.5975C8.76175 18.0427 6.36179 17.3433 4.03769 16.4516C3.83072 16.3719 3.62416 16.2911 3.41843 16.2081C3.39699 16.1996 3.37555 16.1907 3.35411 16.1821C3.64684 16.0992 3.93957 16.0155 4.2323 15.9314C6.52464 15.2705 8.8038 14.5617 11.0537 13.7717H11.0524ZM30.0451 29.094C30.0777 29.0891 30.14 29.0806 30.1395 29.0814C30.1383 29.0851 30.0785 29.0908 30.0451 29.094ZM30.0389 29.0948C30.0192 29.0977 30.0241 29.0969 30.0389 29.0948V29.0948ZM47.4563 21.1404C47.2934 21.2697 47.1301 21.3981 46.9656 21.5257C46.8906 21.5838 46.8156 21.6415 46.7405 21.6993C46.7385 21.7009 46.7376 21.7017 46.7356 21.7029C46.6894 21.7379 46.6432 21.7728 46.597 21.8074C46.252 22.0671 45.9032 22.3223 45.5511 22.5726C44.8027 23.1046 44.0379 23.6151 43.2579 24.1012C41.5695 25.153 39.8066 26.091 37.9752 26.8778C37.9175 26.9026 37.8597 26.927 37.802 26.9518C37.7711 26.9648 37.572 27.0473 37.706 26.9924C37.8387 26.938 37.635 27.0217 37.6091 27.0323C37.5423 27.0595 37.4755 27.0867 37.4087 27.1136C37.1733 27.2082 36.937 27.3001 36.6995 27.3895C36.2027 27.5765 35.7014 27.7516 35.1959 27.9146C34.1652 28.2466 33.1171 28.5271 32.0563 28.7482C31.5249 28.8591 30.9901 28.955 30.4529 29.0359C30.3197 29.0558 30.1866 29.0733 30.0534 29.0928C30.0497 29.0932 30.0472 29.0936 30.0443 29.094C30.0352 29.0948 30.0274 29.0956 30.0241 29.0961C29.9474 29.1058 29.8707 29.1152 29.794 29.1241C29.5145 29.157 29.2346 29.1855 28.9542 29.2094C27.8183 29.3074 26.6763 29.3334 25.5375 29.2846C24.9459 29.2594 24.3547 29.2139 23.7663 29.1481C23.622 29.1318 23.4781 29.1143 23.3342 29.0965C23.3342 29.0965 23.3338 29.0965 23.3334 29.0965C23.3281 29.0956 23.3223 29.0948 23.3153 29.094C23.2324 29.0822 23.1499 29.0709 23.0671 29.0587C22.7649 29.014 22.4635 28.964 22.1629 28.9087C20.926 28.6811 19.7061 28.3649 18.5137 27.9678C17.894 27.7614 17.2826 27.5322 16.6782 27.2851C16.644 27.2708 16.5805 27.2444 16.5512 27.2318C16.4749 27.1993 16.3991 27.1668 16.3232 27.1339C16.1591 27.0627 15.9958 26.9896 15.8334 26.9156C15.5139 26.7697 15.1972 26.6185 14.8831 26.4621C13.5641 25.8045 12.293 25.055 11.0722 24.2337C10.7453 24.0138 10.422 23.7886 10.1021 23.5586C9.94461 23.4452 9.78836 23.331 9.63251 23.2156C9.55376 23.1575 9.47584 23.0985 9.3975 23.04C9.37483 23.023 9.35215 23.0059 9.32947 22.9888C9.31999 22.9815 9.25856 22.9348 9.23547 22.9169C8.57951 22.4121 7.93963 21.8874 7.31419 21.3461C6.19316 20.3751 5.12161 19.3498 4.09294 18.2841C5.91899 18.9604 7.79121 19.5184 9.6824 19.9866C13.2355 20.8657 16.874 21.42 20.5253 21.6997C25.2452 22.0614 29.999 21.9423 34.7003 21.4046C40.296 20.7649 45.8112 19.5591 51.1743 17.8667C51.0288 18.0082 50.8832 18.1492 50.736 18.289C49.6851 19.2868 48.5897 20.239 47.4546 21.1421L47.4563 21.1404Z" fill="black"/>
<path d="M22.5 1L20 10C24.5 9.5 27.5 13.5 27.5 13.5" stroke="#FF3939" stroke-width="1.7" stroke-linecap="round"/>
<path d="M32.5 1L35 10C30.5 10 27.5 13.5 27.5 13.5" stroke="#FF3939" stroke-width="1.7" stroke-linecap="round"/>
</svg>
