<svg width="61" height="22" viewBox="0 0 61 22" fill="none" xmlns="http://www.w3.org/2000/svg">
<path d="M57.9633 6.75336C57.8446 6.39165 57.4644 6.08237 57.0653 6.12463C56.7103 6.09456 56.3562 6.05595 56.0024 6.0149C55.8218 5.99377 55.6417 5.97182 55.4615 5.94906C55.4174 5.94337 55.3733 5.93768 55.3292 5.93199C55.3292 5.93199 55.3292 5.93199 55.3287 5.93199C55.2001 5.91411 55.0711 5.89663 54.9424 5.87835C54.4534 5.80844 53.9657 5.73122 53.4792 5.64547C52.3879 5.45323 51.301 5.22117 50.2369 4.9127C49.0334 4.56358 48.1247 4.17749 47.0173 3.63411C44.8083 2.55019 42.6788 1.20983 40.299 0.507536C39.1974 0.182402 38.0252 0.0206477 36.879 0.166145C35.7151 0.313675 34.6222 0.678638 33.5687 1.18503C32.4667 1.715 31.389 2.39535 30.4345 3.18298C29.8598 2.614 29.1923 2.11532 28.5285 1.68249C26.676 0.473803 24.4146 -0.201663 22.1878 0.0535675C21.4642 0.136477 20.7563 0.281974 20.0686 0.520948C19.397 0.754638 18.7641 1.07205 18.1177 1.36386C17.8447 1.487 17.5705 1.6069 17.2947 1.72394C17.2296 1.75158 17.1644 1.77922 17.0993 1.80645C17.0873 1.81132 17.0482 1.82758 17.023 1.83815C17.016 1.84099 17.0106 1.84343 17.0082 1.84424C16.863 1.90358 16.7183 1.96292 16.5728 2.02144C15.9638 2.26611 15.3503 2.5002 14.7344 2.72617C12.3868 3.58859 10 4.34737 7.59965 5.05413C6.30299 5.43576 4.99354 5.77186 3.69482 6.14536C3.67544 6.15105 3.65565 6.15552 3.63586 6.16081C3.60123 6.16975 3.56784 6.18194 3.53485 6.19535C3.51712 6.20226 3.50022 6.21039 3.48332 6.21811C3.48167 6.21892 3.48043 6.21933 3.47878 6.22014C3.46105 6.22868 3.44332 6.23762 3.42642 6.24737C3.4157 6.25306 3.4058 6.25916 3.3955 6.26566C3.38808 6.27054 3.38065 6.27501 3.37323 6.27989C3.27057 6.34695 3.18275 6.43636 3.12173 6.55056C3.10937 6.57373 3.09823 6.5973 3.08793 6.62087C2.99887 6.80132 2.97084 7.00941 3.03474 7.20408C3.04422 7.23334 3.05536 7.26139 3.06731 7.28902C3.10978 7.40444 3.17781 7.51011 3.2714 7.59668C5.63425 10.3847 8.23623 12.9894 11.1528 15.2178C13.6084 17.0943 16.2483 18.6886 19.1154 19.8774C21.5327 20.8796 24.0687 21.534 26.6731 21.8339C29.0368 22.1062 31.4158 22.033 33.7679 21.6925C35.9254 21.3799 38.0417 20.8154 40.0801 20.0538C42.0562 19.3157 43.9668 18.4102 45.7932 17.3633C47.4028 16.4407 48.9489 15.4113 50.4295 14.2989C51.729 13.3223 52.9853 12.2924 54.1863 11.2C55.0224 10.4392 55.8334 9.65112 56.611 8.83219C56.982 8.44122 57.351 8.04577 57.6965 7.63244C57.7114 7.61456 57.7266 7.59668 57.7415 7.57839C57.7691 7.54506 57.7938 7.51052 57.8161 7.47597C57.9761 7.27683 58.0503 7.01916 57.9629 6.75296L57.9633 6.75336ZM14.0524 4.77167C15.2807 4.34046 16.4998 3.88283 17.7012 3.38294C18.276 3.14397 18.8478 2.89768 19.4114 2.63351C19.5401 2.57336 19.6675 2.51117 19.7961 2.45143C19.8744 2.41485 19.9536 2.3799 20.0328 2.34495C20.0455 2.33926 20.0546 2.3352 20.0612 2.33235C20.1004 2.3165 20.1395 2.30065 20.1787 2.28521C20.5032 2.158 20.8347 2.04827 21.1719 1.95804C21.4873 1.87351 21.8069 1.80889 22.1297 1.75768C22.142 1.75564 22.1511 1.75402 22.1594 1.7528C22.1672 1.75199 22.1763 1.75117 22.1882 1.74995C22.2591 1.74223 22.3301 1.73451 22.4014 1.72841C22.5638 1.71378 22.7271 1.70444 22.8904 1.69956C23.1715 1.69143 23.4531 1.69793 23.7335 1.71907C23.8531 1.72801 23.9726 1.74101 24.0918 1.75443C24.1116 1.75727 24.1466 1.76215 24.1825 1.76784C24.2559 1.77962 24.3288 1.79222 24.4018 1.80563C24.9217 1.90236 25.4317 2.04867 25.9252 2.23644C25.9797 2.25716 26.0337 2.28033 26.0885 2.30024C26.0885 2.30024 26.0885 2.30024 26.0893 2.30024C26.0918 2.30146 26.0935 2.30228 26.0963 2.30309C26.2089 2.35227 26.3215 2.40266 26.4324 2.4555C26.6468 2.55751 26.8574 2.66724 27.064 2.78388C27.4421 2.99725 27.807 3.23379 28.157 3.48983C28.1883 3.51259 28.2192 3.53575 28.2502 3.55892C28.3244 3.61744 28.3986 3.67556 28.472 3.73531C28.599 3.83894 28.7239 3.94542 28.8463 4.05434C29.1572 4.33071 29.4388 4.6278 29.7216 4.93099C29.7352 4.94562 29.7476 4.96147 29.7604 4.97691C30.056 5.33984 30.6707 5.26628 30.9775 4.97691C31.2339 4.73509 31.5106 4.51156 31.7885 4.29413C31.8054 4.28112 31.8219 4.26731 31.8388 4.25349C31.8437 4.24983 31.8487 4.24658 31.8532 4.24333C31.9262 4.18887 31.9987 4.13441 32.0721 4.08076C32.2502 3.95111 32.4304 3.82472 32.6135 3.70157C32.9919 3.44756 33.3807 3.20859 33.7807 2.98872C33.9967 2.87004 34.2156 2.75665 34.4379 2.64976C34.5517 2.5949 34.6663 2.54206 34.7817 2.49085C34.8361 2.46647 34.891 2.4433 34.9462 2.41973C34.9693 2.41079 35.0452 2.38031 35.0728 2.36974C35.5696 2.1771 36.0813 2.01982 36.6049 1.91537C36.7203 1.8922 36.8366 1.87351 36.9524 1.854C36.9665 1.85156 36.978 1.84953 36.9883 1.8479C37.0007 1.84709 37.0155 1.84546 37.0349 1.84384C37.0868 1.83896 37.1388 1.83327 37.1912 1.8288C37.476 1.80482 37.7626 1.79954 38.0483 1.81295C38.1778 1.81905 38.3072 1.82839 38.4363 1.84181C38.4631 1.84465 38.4903 1.8479 38.5171 1.85075C38.5191 1.85197 38.6569 1.87025 38.6733 1.8731C38.9483 1.91781 39.2209 1.97674 39.4905 2.04623C40.0376 2.18767 40.5678 2.37787 41.0931 2.58392C41.1104 2.59083 41.1248 2.59652 41.1368 2.60099C41.143 2.60384 41.1512 2.60709 41.1624 2.61197C41.2279 2.6396 41.2935 2.66765 41.359 2.69609C41.491 2.7534 41.6221 2.81192 41.7528 2.87167C42.0315 2.99928 42.3077 3.13177 42.5823 3.26711C43.6864 3.81252 44.7641 4.40711 45.8654 4.95781C46.9716 5.51094 48.1058 6.02222 49.2874 6.39856C50.3338 6.73182 51.4078 6.97811 52.4868 7.18295C52.7762 7.23781 53.0669 7.28983 53.358 7.34023C48.8063 8.757 44.1457 9.83238 39.4171 10.49C39.3318 10.5018 39.2464 10.5135 39.1611 10.5253C39.1553 10.5261 39.0456 10.5408 39.0052 10.5461C38.8791 10.5627 38.7525 10.579 38.6263 10.5948C38.2631 10.6407 37.8995 10.6838 37.5358 10.7249C36.9054 10.7956 36.2738 10.859 35.6418 10.9143C34.402 11.0232 33.1598 11.1024 31.9163 11.1512C29.6363 11.2402 27.3518 11.2264 25.0735 11.102C24.0374 11.0455 23.0021 10.9663 21.9697 10.8639C21.4894 10.8163 21.0099 10.7635 20.5308 10.7054C20.4088 10.6907 20.2863 10.6753 20.1643 10.6599C20.1037 10.6521 20.0431 10.6444 19.9825 10.6367C19.9664 10.6347 19.766 10.6095 19.9161 10.6281C20.0653 10.6468 19.8666 10.6216 19.8505 10.6192C19.7907 10.6111 19.731 10.603 19.6712 10.5948C19.5331 10.5757 19.3949 10.5562 19.2568 10.5363C17.5561 10.2912 15.8649 9.97991 14.1906 9.59747C11.7617 9.04271 9.36179 8.34327 7.03769 7.45159C6.83072 7.37193 6.62416 7.29105 6.41843 7.20814C6.39699 7.19961 6.37555 7.19067 6.35411 7.18213C6.64684 7.09922 6.93957 7.0155 7.2323 6.93137C9.52464 6.27054 11.8038 5.56175 14.0537 4.77167H14.0524ZM33.0451 20.094C33.0777 20.0891 33.14 20.0806 33.1395 20.0814C33.1383 20.0851 33.0785 20.0908 33.0451 20.094ZM33.0389 20.0948C33.0192 20.0977 33.0241 20.0969 33.0389 20.0948V20.0948ZM50.4563 12.1404C50.2934 12.2697 50.1301 12.3981 49.9656 12.5257C49.8906 12.5838 49.8156 12.6415 49.7405 12.6993C49.7385 12.7009 49.7376 12.7017 49.7356 12.7029C49.6894 12.7379 49.6432 12.7728 49.597 12.8074C49.252 13.0671 48.9032 13.3223 48.5511 13.5726C47.8027 14.1046 47.0379 14.6151 46.2579 15.1012C44.5695 16.153 42.8066 17.091 40.9752 17.8778C40.9175 17.9026 40.8597 17.927 40.802 17.9518C40.7711 17.9648 40.572 18.0473 40.706 17.9924C40.8387 17.938 40.635 18.0217 40.6091 18.0323C40.5423 18.0595 40.4755 18.0867 40.4087 18.1136C40.1733 18.2082 39.937 18.3001 39.6995 18.3895C39.2027 18.5765 38.7014 18.7516 38.1959 18.9146C37.1652 19.2466 36.1171 19.5271 35.0563 19.7482C34.5249 19.8591 33.9901 19.955 33.4529 20.0359C33.3197 20.0558 33.1866 20.0733 33.0534 20.0928C33.0497 20.0932 33.0472 20.0936 33.0443 20.094C33.0352 20.0948 33.0274 20.0956 33.0241 20.0961C32.9474 20.1058 32.8707 20.1152 32.794 20.1241C32.5145 20.157 32.2346 20.1855 31.9542 20.2094C30.8183 20.3074 29.6763 20.3334 28.5375 20.2846C27.9459 20.2594 27.3547 20.2139 26.7663 20.1481C26.622 20.1318 26.4781 20.1143 26.3342 20.0965C26.3342 20.0965 26.3338 20.0965 26.3334 20.0965C26.3281 20.0956 26.3223 20.0948 26.3153 20.094C26.2324 20.0822 26.1499 20.0709 26.0671 20.0587C25.7649 20.014 25.4635 19.964 25.1629 19.9087C23.926 19.6811 22.7061 19.3649 21.5137 18.9678C20.894 18.7614 20.2826 18.5322 19.6782 18.2851C19.644 18.2708 19.5805 18.2444 19.5512 18.2318C19.4749 18.1993 19.3991 18.1668 19.3232 18.1339C19.1591 18.0627 18.9958 17.9896 18.8334 17.9156C18.5139 17.7697 18.1972 17.6185 17.8831 17.4621C16.5641 16.8045 15.293 16.055 14.0722 15.2337C13.7453 15.0138 13.422 14.7886 13.1021 14.5586C12.9446 14.4452 12.7884 14.331 12.6325 14.2156C12.5538 14.1575 12.4758 14.0985 12.3975 14.04C12.3748 14.023 12.3521 14.0059 12.3295 13.9888C12.32 13.9815 12.2586 13.9348 12.2355 13.9169C11.5795 13.4121 10.9396 12.8874 10.3142 12.3461C9.19316 11.3751 8.12161 10.3498 7.09294 9.28413C8.91899 9.9604 10.7912 10.5184 12.6824 10.9866C16.2355 11.8657 19.874 12.42 23.5253 12.6997C28.2452 13.0614 32.999 12.9423 37.7003 12.4046C43.296 11.7649 48.8112 10.5591 54.1743 8.86673C54.0288 9.00817 53.8832 9.14919 53.736 9.289C52.6851 10.2868 51.5897 11.239 50.4546 12.1421L50.4563 12.1404Z" fill="black"/>
<circle cx="3" cy="8" r="3" fill="#FF3939"/>
<circle cx="3" cy="8" r="3" fill="#FF3939"/>
<circle cx="3" cy="8" r="3" fill="#FF3939"/>
<circle cx="3" cy="8" r="3" fill="#FF3939"/>
<circle cx="58" cy="8" r="3" fill="#FF3939"/>
<circle cx="58" cy="8" r="3" fill="#FF3939"/>
<circle cx="58" cy="8" r="3" fill="#FF3939"/>
<circle cx="58" cy="8" r="3" fill="#FF3939"/>
</svg>
