<svg width="60" height="28" viewBox="0 0 60 28" fill="none" xmlns="http://www.w3.org/2000/svg">
<path d="M57.9633 12.7534C57.8446 12.3917 57.4644 12.0824 57.0653 12.1246C56.7103 12.0946 56.3562 12.056 56.0024 12.0149C55.8218 11.9938 55.6417 11.9718 55.4615 11.9491C55.4174 11.9434 55.3733 11.9377 55.3292 11.932C55.3292 11.932 55.3292 11.932 55.3287 11.932C55.2001 11.9141 55.0711 11.8966 54.9424 11.8783C54.4534 11.8084 53.9657 11.7312 53.4792 11.6455C52.3879 11.4532 51.301 11.2212 50.2369 10.9127C49.0334 10.5636 48.1247 10.1775 47.0173 9.63411C44.8083 8.55019 42.6788 7.20983 40.299 6.50754C39.1974 6.1824 38.0252 6.02065 36.879 6.16615C35.7151 6.31367 34.6222 6.67864 33.5687 7.18503C32.4667 7.715 31.389 8.39535 30.4345 9.18298C29.8598 8.614 29.1923 8.11532 28.5285 7.68249C26.676 6.4738 24.4146 5.79834 22.1878 6.05357C21.4642 6.13648 20.7563 6.28197 20.0686 6.52095C19.397 6.75464 18.7641 7.07205 18.1177 7.36386C17.8447 7.487 17.5705 7.6069 17.2947 7.72394C17.2296 7.75158 17.1644 7.77922 17.0993 7.80645C17.0873 7.81132 17.0482 7.82758 17.023 7.83815C17.016 7.84099 17.0106 7.84343 17.0082 7.84424C16.863 7.90358 16.7183 7.96292 16.5728 8.02144C15.9638 8.26611 15.3503 8.5002 14.7344 8.72617C12.3868 9.58859 10 10.3474 7.59965 11.0541C6.30299 11.4358 4.99354 11.7719 3.69482 12.1454C3.67544 12.1511 3.65565 12.1555 3.63586 12.1608C3.60123 12.1697 3.56784 12.1819 3.53485 12.1954C3.51712 12.2023 3.50022 12.2104 3.48332 12.2181C3.48167 12.2189 3.48043 12.2193 3.47878 12.2201C3.46105 12.2287 3.44332 12.2376 3.42642 12.2474C3.4157 12.2531 3.4058 12.2592 3.3955 12.2657C3.38808 12.2705 3.38065 12.275 3.37323 12.2799C3.27057 12.3469 3.18275 12.4364 3.12173 12.5506C3.10937 12.5737 3.09823 12.5973 3.08793 12.6209C2.99887 12.8013 2.97084 13.0094 3.03474 13.2041C3.04422 13.2333 3.05536 13.2614 3.06731 13.289C3.10978 13.4044 3.17781 13.5101 3.2714 13.5967C5.63425 16.3847 8.23623 18.9894 11.1528 21.2178C13.6084 23.0943 16.2483 24.6886 19.1154 25.8774C21.5327 26.8796 24.0687 27.534 26.6731 27.8339C29.0368 28.1062 31.4158 28.033 33.7679 27.6925C35.9254 27.3799 38.0417 26.8154 40.0801 26.0538C42.0562 25.3157 43.9668 24.4102 45.7932 23.3633C47.4028 22.4407 48.9489 21.4113 50.4295 20.2989C51.729 19.3223 52.9853 18.2924 54.1863 17.2C55.0224 16.4392 55.8334 15.6511 56.611 14.8322C56.982 14.4412 57.351 14.0458 57.6965 13.6324C57.7114 13.6146 57.7266 13.5967 57.7415 13.5784C57.7691 13.5451 57.7938 13.5105 57.8161 13.476C57.9761 13.2768 58.0503 13.0192 57.9629 12.753L57.9633 12.7534ZM14.0524 10.7717C15.2807 10.3405 16.4998 9.88283 17.7012 9.38294C18.276 9.14397 18.8478 8.89768 19.4114 8.63351C19.5401 8.57336 19.6675 8.51117 19.7961 8.45143C19.8744 8.41485 19.9536 8.3799 20.0328 8.34495C20.0455 8.33926 20.0546 8.3352 20.0612 8.33235C20.1004 8.3165 20.1395 8.30065 20.1787 8.28521C20.5032 8.158 20.8347 8.04827 21.1719 7.95804C21.4873 7.87351 21.8069 7.80889 22.1297 7.75768C22.142 7.75564 22.1511 7.75402 22.1594 7.7528C22.1672 7.75199 22.1763 7.75117 22.1882 7.74995C22.2591 7.74223 22.3301 7.73451 22.4014 7.72841C22.5638 7.71378 22.7271 7.70444 22.8904 7.69956C23.1715 7.69143 23.4531 7.69793 23.7335 7.71907C23.8531 7.72801 23.9726 7.74101 24.0918 7.75443C24.1116 7.75727 24.1466 7.76215 24.1825 7.76784C24.2559 7.77962 24.3288 7.79222 24.4018 7.80563C24.9217 7.90236 25.4317 8.04867 25.9252 8.23644C25.9797 8.25716 26.0337 8.28033 26.0885 8.30024C26.0885 8.30024 26.0885 8.30024 26.0893 8.30024C26.0918 8.30146 26.0935 8.30228 26.0963 8.30309C26.2089 8.35227 26.3215 8.40266 26.4324 8.4555C26.6468 8.55751 26.8574 8.66724 27.064 8.78388C27.4421 8.99725 27.807 9.23379 28.157 9.48983C28.1883 9.51259 28.2192 9.53575 28.2502 9.55892C28.3244 9.61744 28.3986 9.67556 28.472 9.73531C28.599 9.83894 28.7239 9.94542 28.8463 10.0543C29.1572 10.3307 29.4388 10.6278 29.7216 10.931C29.7352 10.9456 29.7476 10.9615 29.7604 10.9769C30.056 11.3398 30.6707 11.2663 30.9775 10.9769C31.2339 10.7351 31.5106 10.5116 31.7885 10.2941C31.8054 10.2811 31.8219 10.2673 31.8388 10.2535C31.8437 10.2498 31.8487 10.2466 31.8532 10.2433C31.9262 10.1889 31.9987 10.1344 32.0721 10.0808C32.2502 9.95111 32.4304 9.82472 32.6135 9.70157C32.9919 9.44756 33.3807 9.20859 33.7807 8.98872C33.9967 8.87004 34.2156 8.75665 34.4379 8.64976C34.5517 8.5949 34.6663 8.54206 34.7817 8.49085C34.8361 8.46647 34.891 8.4433 34.9462 8.41973C34.9693 8.41079 35.0452 8.38031 35.0728 8.36974C35.5696 8.1771 36.0813 8.01982 36.6049 7.91537C36.7203 7.8922 36.8366 7.87351 36.9524 7.854C36.9665 7.85156 36.978 7.84953 36.9883 7.8479C37.0007 7.84709 37.0155 7.84546 37.0349 7.84384C37.0868 7.83896 37.1388 7.83327 37.1912 7.8288C37.476 7.80482 37.7626 7.79954 38.0483 7.81295C38.1778 7.81905 38.3072 7.82839 38.4363 7.84181C38.4631 7.84465 38.4903 7.8479 38.5171 7.85075C38.5191 7.85197 38.6569 7.87025 38.6733 7.8731C38.9483 7.91781 39.2209 7.97674 39.4905 8.04623C40.0376 8.18767 40.5678 8.37787 41.0931 8.58392C41.1104 8.59083 41.1248 8.59652 41.1368 8.60099C41.143 8.60384 41.1512 8.60709 41.1624 8.61197C41.2279 8.6396 41.2935 8.66765 41.359 8.69609C41.491 8.7534 41.6221 8.81192 41.7528 8.87167C42.0315 8.99928 42.3077 9.13177 42.5823 9.26711C43.6864 9.81252 44.7641 10.4071 45.8654 10.9578C46.9716 11.5109 48.1058 12.0222 49.2874 12.3986C50.3338 12.7318 51.4078 12.9781 52.4868 13.1829C52.7762 13.2378 53.0669 13.2898 53.358 13.3402C48.8063 14.757 44.1457 15.8324 39.4171 16.49C39.3318 16.5018 39.2464 16.5135 39.1611 16.5253C39.1553 16.5261 39.0456 16.5408 39.0052 16.5461C38.8791 16.5627 38.7525 16.579 38.6263 16.5948C38.2631 16.6407 37.8995 16.6838 37.5358 16.7249C36.9054 16.7956 36.2738 16.859 35.6418 16.9143C34.402 17.0232 33.1598 17.1024 31.9163 17.1512C29.6363 17.2402 27.3518 17.2264 25.0735 17.102C24.0374 17.0455 23.0021 16.9663 21.9697 16.8639C21.4894 16.8163 21.0099 16.7635 20.5308 16.7054C20.4088 16.6907 20.2863 16.6753 20.1643 16.6599C20.1037 16.6521 20.0431 16.6444 19.9825 16.6367C19.9664 16.6347 19.766 16.6095 19.9161 16.6281C20.0653 16.6468 19.8666 16.6216 19.8505 16.6192C19.7907 16.6111 19.731 16.603 19.6712 16.5948C19.5331 16.5757 19.3949 16.5562 19.2568 16.5363C17.5561 16.2912 15.8649 15.9799 14.1906 15.5975C11.7617 15.0427 9.36179 14.3433 7.03769 13.4516C6.83072 13.3719 6.62416 13.2911 6.41843 13.2081C6.39699 13.1996 6.37555 13.1907 6.35411 13.1821C6.64684 13.0992 6.93957 13.0155 7.2323 12.9314C9.52464 12.2705 11.8038 11.5617 14.0537 10.7717H14.0524ZM33.0451 26.094C33.0777 26.0891 33.14 26.0806 33.1395 26.0814C33.1383 26.0851 33.0785 26.0908 33.0451 26.094ZM33.0389 26.0948C33.0192 26.0977 33.0241 26.0969 33.0389 26.0948V26.0948ZM50.4563 18.1404C50.2934 18.2697 50.1301 18.3981 49.9656 18.5257C49.8906 18.5838 49.8156 18.6415 49.7405 18.6993C49.7385 18.7009 49.7376 18.7017 49.7356 18.7029C49.6894 18.7379 49.6432 18.7728 49.597 18.8074C49.252 19.0671 48.9032 19.3223 48.5511 19.5726C47.8027 20.1046 47.0379 20.6151 46.2579 21.1012C44.5695 22.153 42.8066 23.091 40.9752 23.8778C40.9175 23.9026 40.8597 23.927 40.802 23.9518C40.7711 23.9648 40.572 24.0473 40.706 23.9924C40.8387 23.938 40.635 24.0217 40.6091 24.0323C40.5423 24.0595 40.4755 24.0867 40.4087 24.1136C40.1733 24.2082 39.937 24.3001 39.6995 24.3895C39.2027 24.5765 38.7014 24.7516 38.1959 24.9146C37.1652 25.2466 36.1171 25.5271 35.0563 25.7482C34.5249 25.8591 33.9901 25.955 33.4529 26.0359C33.3197 26.0558 33.1866 26.0733 33.0534 26.0928C33.0497 26.0932 33.0472 26.0936 33.0443 26.094C33.0352 26.0948 33.0274 26.0956 33.0241 26.0961C32.9474 26.1058 32.8707 26.1152 32.794 26.1241C32.5145 26.157 32.2346 26.1855 31.9542 26.2094C30.8183 26.3074 29.6763 26.3334 28.5375 26.2846C27.9459 26.2594 27.3547 26.2139 26.7663 26.1481C26.622 26.1318 26.4781 26.1143 26.3342 26.0965C26.3342 26.0965 26.3338 26.0965 26.3334 26.0965C26.3281 26.0956 26.3223 26.0948 26.3153 26.094C26.2324 26.0822 26.1499 26.0709 26.0671 26.0587C25.7649 26.014 25.4635 25.964 25.1629 25.9087C23.926 25.6811 22.7061 25.3649 21.5137 24.9678C20.894 24.7614 20.2826 24.5322 19.6782 24.2851C19.644 24.2708 19.5805 24.2444 19.5512 24.2318C19.4749 24.1993 19.3991 24.1668 19.3232 24.1339C19.1591 24.0627 18.9958 23.9896 18.8334 23.9156C18.5139 23.7697 18.1972 23.6185 17.8831 23.4621C16.5641 22.8045 15.293 22.055 14.0722 21.2337C13.7453 21.0138 13.422 20.7886 13.1021 20.5586C12.9446 20.4452 12.7884 20.331 12.6325 20.2156C12.5538 20.1575 12.4758 20.0985 12.3975 20.04C12.3748 20.023 12.3521 20.0059 12.3295 19.9888C12.32 19.9815 12.2586 19.9348 12.2355 19.9169C11.5795 19.4121 10.9396 18.8874 10.3142 18.3461C9.19316 17.3751 8.12161 16.3498 7.09294 15.2841C8.91899 15.9604 10.7912 16.5184 12.6824 16.9866C16.2355 17.8657 19.874 18.42 23.5253 18.6997C28.2452 19.0614 32.999 18.9423 37.7003 18.4046C43.296 17.7649 48.8112 16.5591 54.1743 14.8667C54.0288 15.0082 53.8832 15.1492 53.736 15.289C52.6851 16.2868 51.5897 17.239 50.4546 18.1421L50.4563 18.1404Z" fill="black"/>
<mask id="mask0_1240_6483" style="mask-type:alpha" maskUnits="userSpaceOnUse" x="0" y="0" width="60" height="14">
<ellipse cx="11" cy="7" rx="11" ry="7" fill="#D9D9D9"/>
<ellipse cx="50" cy="7" rx="10" ry="7" fill="#D9D9D9"/>
</mask>
<g mask="url(#mask0_1240_6483)">
<path d="M57.9633 12.7534C57.8446 12.3917 57.4644 12.0824 57.0653 12.1246C56.7103 12.0946 56.3562 12.056 56.0024 12.0149C55.8218 11.9938 55.6417 11.9718 55.4615 11.9491C55.4174 11.9434 55.3733 11.9377 55.3292 11.932C55.3292 11.932 55.3292 11.932 55.3287 11.932C55.2001 11.9141 55.0711 11.8966 54.9424 11.8783C54.4534 11.8084 53.9657 11.7312 53.4792 11.6455C52.3879 11.4532 51.301 11.2212 50.2369 10.9127C49.0334 10.5636 48.1247 10.1775 47.0173 9.63411C44.8083 8.55019 42.6788 7.20983 40.299 6.50754C39.1974 6.1824 38.0252 6.02065 36.879 6.16615C35.7151 6.31367 34.6222 6.67864 33.5687 7.18503C32.4667 7.715 31.389 8.39535 30.4345 9.18298C29.8598 8.614 29.1923 8.11532 28.5285 7.68249C26.676 6.4738 24.4146 5.79834 22.1878 6.05357C21.4642 6.13648 20.7563 6.28197 20.0686 6.52095C19.397 6.75464 18.7641 7.07205 18.1177 7.36386C17.8447 7.487 17.5705 7.6069 17.2947 7.72394C17.2296 7.75158 17.1644 7.77922 17.0993 7.80645C17.0873 7.81132 17.0482 7.82758 17.023 7.83815C17.016 7.84099 17.0106 7.84343 17.0082 7.84424C16.863 7.90358 16.7183 7.96292 16.5728 8.02144C15.9638 8.26611 15.3503 8.5002 14.7344 8.72617C12.3868 9.58859 10 10.3474 7.59965 11.0541C6.30299 11.4358 4.99354 11.7719 3.69482 12.1454C3.67544 12.1511 3.65565 12.1555 3.63586 12.1608C3.60123 12.1697 3.56784 12.1819 3.53485 12.1954C3.51712 12.2023 3.50022 12.2104 3.48332 12.2181C3.48167 12.2189 3.48043 12.2193 3.47878 12.2201C3.46105 12.2287 3.44332 12.2376 3.42642 12.2474C3.4157 12.2531 3.4058 12.2592 3.3955 12.2657C3.38808 12.2705 3.38065 12.275 3.37323 12.2799C3.27057 12.3469 3.18275 12.4364 3.12173 12.5506C3.10937 12.5737 3.09823 12.5973 3.08793 12.6209C2.99887 12.8013 2.97084 13.0094 3.03474 13.2041C3.04422 13.2333 3.05536 13.2614 3.06731 13.289C3.10978 13.4044 3.17781 13.5101 3.2714 13.5967C5.63425 16.3847 8.23623 18.9894 11.1528 21.2178C13.6084 23.0943 16.2483 24.6886 19.1154 25.8774C21.5327 26.8796 24.0687 27.534 26.6731 27.8339C29.0368 28.1062 31.4158 28.033 33.7679 27.6925C35.9254 27.3799 38.0417 26.8154 40.0801 26.0538C42.0562 25.3157 43.9668 24.4102 45.7932 23.3633C47.4028 22.4407 48.9489 21.4113 50.4295 20.2989C51.729 19.3223 52.9853 18.2924 54.1863 17.2C55.0224 16.4392 55.8334 15.6511 56.611 14.8322C56.982 14.4412 57.351 14.0458 57.6965 13.6324C57.7114 13.6146 57.7266 13.5967 57.7415 13.5784C57.7691 13.5451 57.7938 13.5105 57.8161 13.476C57.9761 13.2768 58.0503 13.0192 57.9629 12.753L57.9633 12.7534ZM14.0524 10.7717C15.2807 10.3405 16.4998 9.88283 17.7012 9.38294C18.276 9.14397 18.8478 8.89768 19.4114 8.63351C19.5401 8.57336 19.6675 8.51117 19.7961 8.45143C19.8744 8.41485 19.9536 8.3799 20.0328 8.34495C20.0455 8.33926 20.0546 8.3352 20.0612 8.33235C20.1004 8.3165 20.1395 8.30065 20.1787 8.28521C20.5032 8.158 20.8347 8.04827 21.1719 7.95804C21.4873 7.87351 21.8069 7.80889 22.1297 7.75768C22.142 7.75564 22.1511 7.75402 22.1594 7.7528C22.1672 7.75199 22.1763 7.75117 22.1882 7.74995C22.2591 7.74223 22.3301 7.73451 22.4014 7.72841C22.5638 7.71378 22.7271 7.70444 22.8904 7.69956C23.1715 7.69143 23.4531 7.69793 23.7335 7.71907C23.8531 7.72801 23.9726 7.74101 24.0918 7.75443C24.1116 7.75727 24.1466 7.76215 24.1825 7.76784C24.2559 7.77962 24.3288 7.79222 24.4018 7.80563C24.9217 7.90236 25.4317 8.04867 25.9252 8.23644C25.9797 8.25716 26.0337 8.28033 26.0885 8.30024C26.0885 8.30024 26.0885 8.30024 26.0893 8.30024C26.0918 8.30146 26.0935 8.30228 26.0963 8.30309C26.2089 8.35227 26.3215 8.40266 26.4324 8.4555C26.6468 8.55751 26.8574 8.66724 27.064 8.78388C27.4421 8.99725 27.807 9.23379 28.157 9.48983C28.1883 9.51259 28.2192 9.53575 28.2502 9.55892C28.3244 9.61744 28.3986 9.67556 28.472 9.73531C28.599 9.83894 28.7239 9.94542 28.8463 10.0543C29.1572 10.3307 29.4388 10.6278 29.7216 10.931C29.7352 10.9456 29.7476 10.9615 29.7604 10.9769C30.056 11.3398 30.6707 11.2663 30.9775 10.9769C31.2339 10.7351 31.5106 10.5116 31.7885 10.2941C31.8054 10.2811 31.8219 10.2673 31.8388 10.2535C31.8437 10.2498 31.8487 10.2466 31.8532 10.2433C31.9262 10.1889 31.9987 10.1344 32.0721 10.0808C32.2502 9.95111 32.4304 9.82472 32.6135 9.70157C32.9919 9.44756 33.3807 9.20859 33.7807 8.98872C33.9967 8.87004 34.2156 8.75665 34.4379 8.64976C34.5517 8.5949 34.6663 8.54206 34.7817 8.49085C34.8361 8.46647 34.891 8.4433 34.9462 8.41973C34.9693 8.41079 35.0452 8.38031 35.0728 8.36974C35.5696 8.1771 36.0813 8.01982 36.6049 7.91537C36.7203 7.8922 36.8366 7.87351 36.9524 7.854C36.9665 7.85156 36.978 7.84953 36.9883 7.8479C37.0007 7.84709 37.0155 7.84546 37.0349 7.84384C37.0868 7.83896 37.1388 7.83327 37.1912 7.8288C37.476 7.80482 37.7626 7.79954 38.0483 7.81295C38.1778 7.81905 38.3072 7.82839 38.4363 7.84181C38.4631 7.84465 38.4903 7.8479 38.5171 7.85075C38.5191 7.85197 38.6569 7.87025 38.6733 7.8731C38.9483 7.91781 39.2209 7.97674 39.4905 8.04623C40.0376 8.18767 40.5678 8.37787 41.0931 8.58392C41.1104 8.59083 41.1248 8.59652 41.1368 8.60099C41.143 8.60384 41.1512 8.60709 41.1624 8.61197C41.2279 8.6396 41.2935 8.66765 41.359 8.69609C41.491 8.7534 41.6221 8.81192 41.7528 8.87167C42.0315 8.99928 42.3077 9.13177 42.5823 9.26711C43.6864 9.81252 44.7641 10.4071 45.8654 10.9578C46.9716 11.5109 48.1058 12.0222 49.2874 12.3986C50.3338 12.7318 51.4078 12.9781 52.4868 13.1829C52.7762 13.2378 53.0669 13.2898 53.358 13.3402C48.8063 14.757 44.1457 15.8324 39.4171 16.49C39.3318 16.5018 39.2464 16.5135 39.1611 16.5253C39.1553 16.5261 39.0456 16.5408 39.0052 16.5461C38.8791 16.5627 38.7525 16.579 38.6263 16.5948C38.2631 16.6407 37.8995 16.6838 37.5358 16.7249C36.9054 16.7956 36.2738 16.859 35.6418 16.9143C34.402 17.0232 33.1598 17.1024 31.9163 17.1512C29.6363 17.2402 27.3518 17.2264 25.0735 17.102C24.0374 17.0455 23.0021 16.9663 21.9697 16.8639C21.4894 16.8163 21.0099 16.7635 20.5308 16.7054C20.4088 16.6907 20.2863 16.6753 20.1643 16.6599C20.1037 16.6521 20.0431 16.6444 19.9825 16.6367C19.9664 16.6347 19.766 16.6095 19.9161 16.6281C20.0653 16.6468 19.8666 16.6216 19.8505 16.6192C19.7907 16.6111 19.731 16.603 19.6712 16.5948C19.5331 16.5757 19.3949 16.5562 19.2568 16.5363C17.5561 16.2912 15.8649 15.9799 14.1906 15.5975C11.7617 15.0427 9.36179 14.3433 7.03769 13.4516C6.83072 13.3719 6.62416 13.2911 6.41843 13.2081C6.39699 13.1996 6.37555 13.1907 6.35411 13.1821C6.64684 13.0992 6.93957 13.0155 7.2323 12.9314C9.52464 12.2705 11.8038 11.5617 14.0537 10.7717H14.0524ZM33.0451 26.094C33.0777 26.0891 33.14 26.0806 33.1395 26.0814C33.1383 26.0851 33.0785 26.0908 33.0451 26.094ZM33.0389 26.0948C33.0192 26.0977 33.0241 26.0969 33.0389 26.0948V26.0948ZM50.4563 18.1404C50.2934 18.2697 50.1301 18.3981 49.9656 18.5257C49.8906 18.5838 49.8156 18.6415 49.7405 18.6993C49.7385 18.7009 49.7376 18.7017 49.7356 18.7029C49.6894 18.7379 49.6432 18.7728 49.597 18.8074C49.252 19.0671 48.9032 19.3223 48.5511 19.5726C47.8027 20.1046 47.0379 20.6151 46.2579 21.1012C44.5695 22.153 42.8066 23.091 40.9752 23.8778C40.9175 23.9026 40.8597 23.927 40.802 23.9518C40.7711 23.9648 40.572 24.0473 40.706 23.9924C40.8387 23.938 40.635 24.0217 40.6091 24.0323C40.5423 24.0595 40.4755 24.0867 40.4087 24.1136C40.1733 24.2082 39.937 24.3001 39.6995 24.3895C39.2027 24.5765 38.7014 24.7516 38.1959 24.9146C37.1652 25.2466 36.1171 25.5271 35.0563 25.7482C34.5249 25.8591 33.9901 25.955 33.4529 26.0359C33.3197 26.0558 33.1866 26.0733 33.0534 26.0928C33.0497 26.0932 33.0472 26.0936 33.0443 26.094C33.0352 26.0948 33.0274 26.0956 33.0241 26.0961C32.9474 26.1058 32.8707 26.1152 32.794 26.1241C32.5145 26.157 32.2346 26.1855 31.9542 26.2094C30.8183 26.3074 29.6763 26.3334 28.5375 26.2846C27.9459 26.2594 27.3547 26.2139 26.7663 26.1481C26.622 26.1318 26.4781 26.1143 26.3342 26.0965C26.3342 26.0965 26.3338 26.0965 26.3334 26.0965C26.3281 26.0956 26.3223 26.0948 26.3153 26.094C26.2324 26.0822 26.1499 26.0709 26.0671 26.0587C25.7649 26.014 25.4635 25.964 25.1629 25.9087C23.926 25.6811 22.7061 25.3649 21.5137 24.9678C20.894 24.7614 20.2826 24.5322 19.6782 24.2851C19.644 24.2708 19.5805 24.2444 19.5512 24.2318C19.4749 24.1993 19.3991 24.1668 19.3232 24.1339C19.1591 24.0627 18.9958 23.9896 18.8334 23.9156C18.5139 23.7697 18.1972 23.6185 17.8831 23.4621C16.5641 22.8045 15.293 22.055 14.0722 21.2337C13.7453 21.0138 13.422 20.7886 13.1021 20.5586C12.9446 20.4452 12.7884 20.331 12.6325 20.2156C12.5538 20.1575 12.4758 20.0985 12.3975 20.04C12.3748 20.023 12.3521 20.0059 12.3295 19.9888C12.32 19.9815 12.2586 19.9348 12.2355 19.9169C11.5795 19.4121 10.9396 18.8874 10.3142 18.3461C9.19316 17.3751 8.12161 16.3498 7.09294 15.2841C8.91899 15.9604 10.7912 16.5184 12.6824 16.9866C16.2355 17.8657 19.874 18.42 23.5253 18.6997C28.2452 19.0614 32.999 18.9423 37.7003 18.4046C43.296 17.7649 48.8112 16.5591 54.1743 14.8667C54.0288 15.0082 53.8832 15.1492 53.736 15.289C52.6851 16.2868 51.5897 17.239 50.4546 18.1421L50.4563 18.1404Z" fill="#FF3939"/>
</g>
</svg>
