<svg width="55" height="25" viewBox="0 0 55 25" fill="none" xmlns="http://www.w3.org/2000/svg">
<g id="ic-area-1">
<path id="-ic" d="M54.9633 9.75336C54.8446 9.39165 54.4644 9.08237 54.0653 9.12463C53.7103 9.09456 53.3562 9.05595 53.0024 9.0149C52.8218 8.99377 52.6417 8.97182 52.4615 8.94906C52.4174 8.94337 52.3733 8.93768 52.3292 8.93199C52.3292 8.93199 52.3292 8.93199 52.3287 8.93199C52.2001 8.91411 52.0711 8.89663 51.9424 8.87835C51.4534 8.80844 50.9657 8.73122 50.4792 8.64547C49.3879 8.45323 48.301 8.22117 47.2369 7.9127C46.0334 7.56358 45.1247 7.17749 44.0173 6.63411C41.8083 5.55019 39.6788 4.20983 37.299 3.50754C36.1974 3.1824 35.0252 3.02065 33.879 3.16615C32.7151 3.31367 31.6222 3.67864 30.5687 4.18503C29.4667 4.715 28.389 5.39535 27.4345 6.18298C26.8598 5.614 26.1923 5.11532 25.5285 4.68249C23.676 3.4738 21.4146 2.79834 19.1878 3.05357C18.4642 3.13648 17.7563 3.28197 17.0686 3.52095C16.397 3.75464 15.7641 4.07205 15.1177 4.36386C14.8447 4.487 14.5705 4.6069 14.2947 4.72394C14.2296 4.75158 14.1644 4.77922 14.0993 4.80645C14.0873 4.81132 14.0482 4.82758 14.023 4.83815C14.016 4.84099 14.0106 4.84343 14.0082 4.84424C13.863 4.90358 13.7183 4.96292 13.5728 5.02144C12.9638 5.26611 12.3503 5.5002 11.7344 5.72617C9.38678 6.58859 7.00002 7.34737 4.59965 8.05413C3.30299 8.43576 1.99354 8.77186 0.694822 9.14536C0.675444 9.15105 0.655654 9.15552 0.635864 9.16081C0.601232 9.16975 0.567836 9.18194 0.534852 9.19535C0.517124 9.20226 0.50022 9.21039 0.483316 9.21811C0.481667 9.21892 0.48043 9.21933 0.478781 9.22014C0.461052 9.22868 0.443323 9.23762 0.426419 9.24737C0.4157 9.25306 0.405805 9.25916 0.395497 9.26566C0.388076 9.27054 0.380655 9.27501 0.373234 9.27989C0.270573 9.34695 0.182754 9.43636 0.121735 9.55056C0.109366 9.57373 0.0982342 9.5973 0.0879269 9.62087C-0.00112841 9.80132 -0.0291643 10.0094 0.0347411 10.2041C0.0442238 10.2333 0.0553557 10.2614 0.0673122 10.289C0.109778 10.4044 0.177807 10.5101 0.271397 10.5967C2.63425 13.3847 5.23623 15.9894 8.15279 18.2178C10.6084 20.0943 13.2483 21.6886 16.1154 22.8774C18.5327 23.8796 21.0687 24.534 23.6731 24.8339C26.0368 25.1062 28.4158 25.033 30.7679 24.6925C32.9254 24.3799 35.0417 23.8154 37.0801 23.0538C39.0562 22.3157 40.9668 21.4102 42.7932 20.3633C44.4028 19.4407 45.9489 18.4113 47.4295 17.2989C48.729 16.3223 49.9853 15.2924 51.1863 14.2C52.0224 13.4392 52.8334 12.6511 53.611 11.8322C53.982 11.4412 54.351 11.0458 54.6965 10.6324C54.7114 10.6146 54.7266 10.5967 54.7415 10.5784C54.7691 10.5451 54.7938 10.5105 54.8161 10.476C54.9761 10.2768 55.0503 10.0192 54.9629 9.75296L54.9633 9.75336ZM11.0524 7.77167C12.2807 7.34046 13.4998 6.88283 14.7012 6.38294C15.276 6.14397 15.8478 5.89768 16.4114 5.63351C16.5401 5.57336 16.6675 5.51117 16.7961 5.45143C16.8744 5.41485 16.9536 5.3799 17.0328 5.34495C17.0455 5.33926 17.0546 5.3352 17.0612 5.33235C17.1004 5.3165 17.1395 5.30065 17.1787 5.28521C17.5032 5.158 17.8347 5.04827 18.1719 4.95804C18.4873 4.87351 18.8069 4.80889 19.1297 4.75768C19.142 4.75564 19.1511 4.75402 19.1594 4.7528C19.1672 4.75199 19.1763 4.75117 19.1882 4.74995C19.2591 4.74223 19.3301 4.73451 19.4014 4.72841C19.5638 4.71378 19.7271 4.70444 19.8904 4.69956C20.1715 4.69143 20.4531 4.69793 20.7335 4.71907C20.8531 4.72801 20.9726 4.74101 21.0918 4.75443C21.1116 4.75727 21.1466 4.76215 21.1825 4.76784C21.2559 4.77962 21.3288 4.79222 21.4018 4.80563C21.9217 4.90236 22.4317 5.04867 22.9252 5.23644C22.9797 5.25716 23.0337 5.28033 23.0885 5.30024C23.0885 5.30024 23.0885 5.30024 23.0893 5.30024C23.0918 5.30146 23.0935 5.30228 23.0963 5.30309C23.2089 5.35227 23.3215 5.40266 23.4324 5.4555C23.6468 5.55751 23.8574 5.66724 24.064 5.78388C24.4421 5.99725 24.807 6.23379 25.157 6.48983C25.1883 6.51259 25.2192 6.53575 25.2502 6.55892C25.3244 6.61744 25.3986 6.67556 25.472 6.73531C25.599 6.83894 25.7239 6.94542 25.8463 7.05434C26.1572 7.33071 26.4388 7.6278 26.7216 7.93099C26.7352 7.94562 26.7476 7.96147 26.7604 7.97691C27.056 8.33984 27.6707 8.26628 27.9775 7.97691C28.2339 7.73509 28.5106 7.51156 28.7885 7.29413C28.8054 7.28112 28.8219 7.26731 28.8388 7.25349C28.8437 7.24983 28.8487 7.24658 28.8532 7.24333C28.9262 7.18887 28.9987 7.13441 29.0721 7.08076C29.2502 6.95111 29.4304 6.82472 29.6135 6.70157C29.9919 6.44756 30.3807 6.20859 30.7807 5.98872C30.9967 5.87004 31.2156 5.75665 31.4379 5.64976C31.5517 5.5949 31.6663 5.54206 31.7817 5.49085C31.8361 5.46647 31.891 5.4433 31.9462 5.41973C31.9693 5.41079 32.0452 5.38031 32.0728 5.36974C32.5696 5.1771 33.0813 5.01982 33.6049 4.91537C33.7203 4.8922 33.8366 4.87351 33.9524 4.854C33.9665 4.85156 33.978 4.84953 33.9883 4.8479C34.0007 4.84709 34.0155 4.84546 34.0349 4.84384C34.0868 4.83896 34.1388 4.83327 34.1912 4.8288C34.476 4.80482 34.7626 4.79954 35.0483 4.81295C35.1778 4.81905 35.3072 4.82839 35.4363 4.84181C35.4631 4.84465 35.4903 4.8479 35.5171 4.85075C35.5191 4.85197 35.6569 4.87025 35.6733 4.8731C35.9483 4.91781 36.2209 4.97674 36.4905 5.04623C37.0376 5.18767 37.5678 5.37787 38.0931 5.58392C38.1104 5.59083 38.1248 5.59652 38.1368 5.60099C38.143 5.60384 38.1512 5.60709 38.1624 5.61197C38.2279 5.6396 38.2935 5.66765 38.359 5.69609C38.491 5.7534 38.6221 5.81192 38.7528 5.87167C39.0315 5.99928 39.3077 6.13177 39.5823 6.26711C40.6864 6.81252 41.7641 7.40711 42.8654 7.95781C43.9716 8.51094 45.1058 9.02222 46.2874 9.39856C47.3338 9.73182 48.4078 9.97811 49.4868 10.1829C49.7762 10.2378 50.0669 10.2898 50.358 10.3402C45.8063 11.757 41.1457 12.8324 36.4171 13.49C36.3318 13.5018 36.2464 13.5135 36.1611 13.5253C36.1553 13.5261 36.0456 13.5408 36.0052 13.5461C35.8791 13.5627 35.7525 13.579 35.6263 13.5948C35.2631 13.6407 34.8995 13.6838 34.5358 13.7249C33.9054 13.7956 33.2738 13.859 32.6418 13.9143C31.402 14.0232 30.1598 14.1024 28.9163 14.1512C26.6363 14.2402 24.3518 14.2264 22.0735 14.102C21.0374 14.0455 20.0021 13.9663 18.9697 13.8639C18.4894 13.8163 18.0099 13.7635 17.5308 13.7054C17.4088 13.6907 17.2863 13.6753 17.1643 13.6599C17.1037 13.6521 17.0431 13.6444 16.9825 13.6367C16.9664 13.6347 16.766 13.6095 16.9161 13.6281C17.0653 13.6468 16.8666 13.6216 16.8505 13.6192C16.7907 13.6111 16.731 13.603 16.6712 13.5948C16.5331 13.5757 16.3949 13.5562 16.2568 13.5363C14.5561 13.2912 12.8649 12.9799 11.1906 12.5975C8.76175 12.0427 6.36179 11.3433 4.03769 10.4516C3.83072 10.3719 3.62416 10.2911 3.41843 10.2081C3.39699 10.1996 3.37555 10.1907 3.35411 10.1821C3.64684 10.0992 3.93957 10.0155 4.2323 9.93137C6.52464 9.27054 8.8038 8.56175 11.0537 7.77167H11.0524ZM30.0451 23.094C30.0777 23.0891 30.14 23.0806 30.1395 23.0814C30.1383 23.0851 30.0785 23.0908 30.0451 23.094ZM30.0389 23.0948C30.0192 23.0977 30.0241 23.0969 30.0389 23.0948V23.0948ZM47.4563 15.1404C47.2934 15.2697 47.1301 15.3981 46.9656 15.5257C46.8906 15.5838 46.8156 15.6415 46.7405 15.6993C46.7385 15.7009 46.7376 15.7017 46.7356 15.7029C46.6894 15.7379 46.6432 15.7728 46.597 15.8074C46.252 16.0671 45.9032 16.3223 45.5511 16.5726C44.8027 17.1046 44.0379 17.6151 43.2579 18.1012C41.5695 19.153 39.8066 20.091 37.9752 20.8778C37.9175 20.9026 37.8597 20.927 37.802 20.9518C37.7711 20.9648 37.572 21.0473 37.706 20.9924C37.8387 20.938 37.635 21.0217 37.6091 21.0323C37.5423 21.0595 37.4755 21.0867 37.4087 21.1136C37.1733 21.2082 36.937 21.3001 36.6995 21.3895C36.2027 21.5765 35.7014 21.7516 35.1959 21.9146C34.1652 22.2466 33.1171 22.5271 32.0563 22.7482C31.5249 22.8591 30.9901 22.955 30.4529 23.0359C30.3197 23.0558 30.1866 23.0733 30.0534 23.0928C30.0497 23.0932 30.0472 23.0936 30.0443 23.094C30.0352 23.0948 30.0274 23.0956 30.0241 23.0961C29.9474 23.1058 29.8707 23.1152 29.794 23.1241C29.5145 23.157 29.2346 23.1855 28.9542 23.2094C27.8183 23.3074 26.6763 23.3334 25.5375 23.2846C24.9459 23.2594 24.3547 23.2139 23.7663 23.1481C23.622 23.1318 23.4781 23.1143 23.3342 23.0965C23.3342 23.0965 23.3338 23.0965 23.3334 23.0965C23.3281 23.0956 23.3223 23.0948 23.3153 23.094C23.2324 23.0822 23.1499 23.0709 23.0671 23.0587C22.7649 23.014 22.4635 22.964 22.1629 22.9087C20.926 22.6811 19.7061 22.3649 18.5137 21.9678C17.894 21.7614 17.2826 21.5322 16.6782 21.2851C16.644 21.2708 16.5805 21.2444 16.5512 21.2318C16.4749 21.1993 16.3991 21.1668 16.3232 21.1339C16.1591 21.0627 15.9958 20.9896 15.8334 20.9156C15.5139 20.7697 15.1972 20.6185 14.8831 20.4621C13.5641 19.8045 12.293 19.055 11.0722 18.2337C10.7453 18.0138 10.422 17.7886 10.1021 17.5586C9.94461 17.4452 9.78836 17.331 9.63251 17.2156C9.55376 17.1575 9.47584 17.0985 9.3975 17.04C9.37483 17.023 9.35215 17.0059 9.32947 16.9888C9.31999 16.9815 9.25856 16.9348 9.23547 16.9169C8.57951 16.4121 7.93963 15.8874 7.31419 15.3461C6.19316 14.3751 5.12161 13.3498 4.09294 12.2841C5.91899 12.9604 7.79121 13.5184 9.6824 13.9866C13.2355 14.8657 16.874 15.42 20.5253 15.6997C25.2452 16.0614 29.999 15.9423 34.7003 15.4046C40.296 14.7649 45.8112 13.5591 51.1743 11.8667C51.0288 12.0082 50.8832 12.1492 50.736 12.289C49.6851 13.2868 48.5897 14.239 47.4546 15.1421L47.4563 15.1404Z" fill="black"/>
<g id="Mask group">
<mask id="mask0_1240_6449" style="mask-type:alpha" maskUnits="userSpaceOnUse" x="13" y="0" width="29" height="11">
<g id="Group 3388">
<circle id="Ellipse 7" cx="18.5" cy="5.5" r="5.5" fill="#D9D9D9"/>
<circle id="Ellipse 8" cx="36.5" cy="5.5" r="5.5" fill="#D9D9D9"/>
</g>
</mask>
<g mask="url(#mask0_1240_6449)">
<path id="-ic_2" d="M54.9633 9.75336C54.8446 9.39165 54.4644 9.08237 54.0653 9.12463C53.7103 9.09456 53.3562 9.05595 53.0024 9.0149C52.8218 8.99377 52.6417 8.97182 52.4615 8.94906C52.4174 8.94337 52.3733 8.93768 52.3292 8.93199C52.3292 8.93199 52.3292 8.93199 52.3287 8.93199C52.2001 8.91411 52.0711 8.89663 51.9424 8.87835C51.4534 8.80844 50.9657 8.73122 50.4792 8.64547C49.3879 8.45323 48.301 8.22117 47.2369 7.9127C46.0334 7.56358 45.1247 7.17749 44.0173 6.63411C41.8083 5.55019 39.6788 4.20983 37.299 3.50754C36.1974 3.1824 35.0252 3.02065 33.879 3.16615C32.7151 3.31367 31.6222 3.67864 30.5687 4.18503C29.4667 4.715 28.389 5.39535 27.4345 6.18298C26.8598 5.614 26.1923 5.11532 25.5285 4.68249C23.676 3.4738 21.4146 2.79834 19.1878 3.05357C18.4642 3.13648 17.7563 3.28197 17.0686 3.52095C16.397 3.75464 15.7641 4.07205 15.1177 4.36386C14.8447 4.487 14.5705 4.6069 14.2947 4.72394C14.2296 4.75158 14.1644 4.77922 14.0993 4.80645C14.0873 4.81132 14.0482 4.82758 14.023 4.83815C14.016 4.84099 14.0106 4.84343 14.0082 4.84424C13.863 4.90358 13.7183 4.96292 13.5728 5.02144C12.9638 5.26611 12.3503 5.5002 11.7344 5.72617C9.38678 6.58859 7.00002 7.34737 4.59965 8.05413C3.30299 8.43576 1.99354 8.77186 0.694822 9.14536C0.675444 9.15105 0.655654 9.15552 0.635864 9.16081C0.601232 9.16975 0.567836 9.18194 0.534852 9.19535C0.517124 9.20226 0.50022 9.21039 0.483316 9.21811C0.481667 9.21892 0.48043 9.21933 0.478781 9.22014C0.461052 9.22868 0.443323 9.23762 0.426419 9.24737C0.4157 9.25306 0.405805 9.25916 0.395497 9.26566C0.388076 9.27054 0.380655 9.27501 0.373234 9.27989C0.270573 9.34695 0.182754 9.43636 0.121735 9.55056C0.109366 9.57373 0.0982342 9.5973 0.0879269 9.62087C-0.00112841 9.80132 -0.0291643 10.0094 0.0347411 10.2041C0.0442238 10.2333 0.0553557 10.2614 0.0673122 10.289C0.109778 10.4044 0.177807 10.5101 0.271397 10.5967C2.63425 13.3847 5.23623 15.9894 8.15279 18.2178C10.6084 20.0943 13.2483 21.6886 16.1154 22.8774C18.5327 23.8796 21.0687 24.534 23.6731 24.8339C26.0368 25.1062 28.4158 25.033 30.7679 24.6925C32.9254 24.3799 35.0417 23.8154 37.0801 23.0538C39.0562 22.3157 40.9668 21.4102 42.7932 20.3633C44.4028 19.4407 45.9489 18.4113 47.4295 17.2989C48.729 16.3223 49.9853 15.2924 51.1863 14.2C52.0224 13.4392 52.8334 12.6511 53.611 11.8322C53.982 11.4412 54.351 11.0458 54.6965 10.6324C54.7114 10.6146 54.7266 10.5967 54.7415 10.5784C54.7691 10.5451 54.7938 10.5105 54.8161 10.476C54.9761 10.2768 55.0503 10.0192 54.9629 9.75296L54.9633 9.75336ZM11.0524 7.77167C12.2807 7.34046 13.4998 6.88283 14.7012 6.38294C15.276 6.14397 15.8478 5.89768 16.4114 5.63351C16.5401 5.57336 16.6675 5.51117 16.7961 5.45143C16.8744 5.41485 16.9536 5.3799 17.0328 5.34495C17.0455 5.33926 17.0546 5.3352 17.0612 5.33235C17.1004 5.3165 17.1395 5.30065 17.1787 5.28521C17.5032 5.158 17.8347 5.04827 18.1719 4.95804C18.4873 4.87351 18.8069 4.80889 19.1297 4.75768C19.142 4.75564 19.1511 4.75402 19.1594 4.7528C19.1672 4.75199 19.1763 4.75117 19.1882 4.74995C19.2591 4.74223 19.3301 4.73451 19.4014 4.72841C19.5638 4.71378 19.7271 4.70444 19.8904 4.69956C20.1715 4.69143 20.4531 4.69793 20.7335 4.71907C20.8531 4.72801 20.9726 4.74101 21.0918 4.75443C21.1116 4.75727 21.1466 4.76215 21.1825 4.76784C21.2559 4.77962 21.3288 4.79222 21.4018 4.80563C21.9217 4.90236 22.4317 5.04867 22.9252 5.23644C22.9797 5.25716 23.0337 5.28033 23.0885 5.30024C23.0885 5.30024 23.0885 5.30024 23.0893 5.30024C23.0918 5.30146 23.0935 5.30228 23.0963 5.30309C23.2089 5.35227 23.3215 5.40266 23.4324 5.4555C23.6468 5.55751 23.8574 5.66724 24.064 5.78388C24.4421 5.99725 24.807 6.23379 25.157 6.48983C25.1883 6.51259 25.2192 6.53575 25.2502 6.55892C25.3244 6.61744 25.3986 6.67556 25.472 6.73531C25.599 6.83894 25.7239 6.94542 25.8463 7.05434C26.1572 7.33071 26.4388 7.6278 26.7216 7.93099C26.7352 7.94562 26.7476 7.96147 26.7604 7.97691C27.056 8.33984 27.6707 8.26628 27.9775 7.97691C28.2339 7.73509 28.5106 7.51156 28.7885 7.29413C28.8054 7.28112 28.8219 7.26731 28.8388 7.25349C28.8437 7.24983 28.8487 7.24658 28.8532 7.24333C28.9262 7.18887 28.9987 7.13441 29.0721 7.08076C29.2502 6.95111 29.4304 6.82472 29.6135 6.70157C29.9919 6.44756 30.3807 6.20859 30.7807 5.98872C30.9967 5.87004 31.2156 5.75665 31.4379 5.64976C31.5517 5.5949 31.6663 5.54206 31.7817 5.49085C31.8361 5.46647 31.891 5.4433 31.9462 5.41973C31.9693 5.41079 32.0452 5.38031 32.0728 5.36974C32.5696 5.1771 33.0813 5.01982 33.6049 4.91537C33.7203 4.8922 33.8366 4.87351 33.9524 4.854C33.9665 4.85156 33.978 4.84953 33.9883 4.8479C34.0007 4.84709 34.0155 4.84546 34.0349 4.84384C34.0868 4.83896 34.1388 4.83327 34.1912 4.8288C34.476 4.80482 34.7626 4.79954 35.0483 4.81295C35.1778 4.81905 35.3072 4.82839 35.4363 4.84181C35.4631 4.84465 35.4903 4.8479 35.5171 4.85075C35.5191 4.85197 35.6569 4.87025 35.6733 4.8731C35.9483 4.91781 36.2209 4.97674 36.4905 5.04623C37.0376 5.18767 37.5678 5.37787 38.0931 5.58392C38.1104 5.59083 38.1248 5.59652 38.1368 5.60099C38.143 5.60384 38.1512 5.60709 38.1624 5.61197C38.2279 5.6396 38.2935 5.66765 38.359 5.69609C38.491 5.7534 38.6221 5.81192 38.7528 5.87167C39.0315 5.99928 39.3077 6.13177 39.5823 6.26711C40.6864 6.81252 41.7641 7.40711 42.8654 7.95781C43.9716 8.51094 45.1058 9.02222 46.2874 9.39856C47.3338 9.73182 48.4078 9.97811 49.4868 10.1829C49.7762 10.2378 50.0669 10.2898 50.358 10.3402C45.8063 11.757 41.1457 12.8324 36.4171 13.49C36.3318 13.5018 36.2464 13.5135 36.1611 13.5253C36.1553 13.5261 36.0456 13.5408 36.0052 13.5461C35.8791 13.5627 35.7525 13.579 35.6263 13.5948C35.2631 13.6407 34.8995 13.6838 34.5358 13.7249C33.9054 13.7956 33.2738 13.859 32.6418 13.9143C31.402 14.0232 30.1598 14.1024 28.9163 14.1512C26.6363 14.2402 24.3518 14.2264 22.0735 14.102C21.0374 14.0455 20.0021 13.9663 18.9697 13.8639C18.4894 13.8163 18.0099 13.7635 17.5308 13.7054C17.4088 13.6907 17.2863 13.6753 17.1643 13.6599C17.1037 13.6521 17.0431 13.6444 16.9825 13.6367C16.9664 13.6347 16.766 13.6095 16.9161 13.6281C17.0653 13.6468 16.8666 13.6216 16.8505 13.6192C16.7907 13.6111 16.731 13.603 16.6712 13.5948C16.5331 13.5757 16.3949 13.5562 16.2568 13.5363C14.5561 13.2912 12.8649 12.9799 11.1906 12.5975C8.76175 12.0427 6.36179 11.3433 4.03769 10.4516C3.83072 10.3719 3.62416 10.2911 3.41843 10.2081C3.39699 10.1996 3.37555 10.1907 3.35411 10.1821C3.64684 10.0992 3.93957 10.0155 4.2323 9.93137C6.52464 9.27054 8.8038 8.56175 11.0537 7.77167H11.0524ZM30.0451 23.094C30.0777 23.0891 30.14 23.0806 30.1395 23.0814C30.1383 23.0851 30.0785 23.0908 30.0451 23.094ZM30.0389 23.0948C30.0192 23.0977 30.0241 23.0969 30.0389 23.0948V23.0948ZM47.4563 15.1404C47.2934 15.2697 47.1301 15.3981 46.9656 15.5257C46.8906 15.5838 46.8156 15.6415 46.7405 15.6993C46.7385 15.7009 46.7376 15.7017 46.7356 15.7029C46.6894 15.7379 46.6432 15.7728 46.597 15.8074C46.252 16.0671 45.9032 16.3223 45.5511 16.5726C44.8027 17.1046 44.0379 17.6151 43.2579 18.1012C41.5695 19.153 39.8066 20.091 37.9752 20.8778C37.9175 20.9026 37.8597 20.927 37.802 20.9518C37.7711 20.9648 37.572 21.0473 37.706 20.9924C37.8387 20.938 37.635 21.0217 37.6091 21.0323C37.5423 21.0595 37.4755 21.0867 37.4087 21.1136C37.1733 21.2082 36.937 21.3001 36.6995 21.3895C36.2027 21.5765 35.7014 21.7516 35.1959 21.9146C34.1652 22.2466 33.1171 22.5271 32.0563 22.7482C31.5249 22.8591 30.9901 22.955 30.4529 23.0359C30.3197 23.0558 30.1866 23.0733 30.0534 23.0928C30.0497 23.0932 30.0472 23.0936 30.0443 23.094C30.0352 23.0948 30.0274 23.0956 30.0241 23.0961C29.9474 23.1058 29.8707 23.1152 29.794 23.1241C29.5145 23.157 29.2346 23.1855 28.9542 23.2094C27.8183 23.3074 26.6763 23.3334 25.5375 23.2846C24.9459 23.2594 24.3547 23.2139 23.7663 23.1481C23.622 23.1318 23.4781 23.1143 23.3342 23.0965C23.3342 23.0965 23.3338 23.0965 23.3334 23.0965C23.3281 23.0956 23.3223 23.0948 23.3153 23.094C23.2324 23.0822 23.1499 23.0709 23.0671 23.0587C22.7649 23.014 22.4635 22.964 22.1629 22.9087C20.926 22.6811 19.7061 22.3649 18.5137 21.9678C17.894 21.7614 17.2826 21.5322 16.6782 21.2851C16.644 21.2708 16.5805 21.2444 16.5512 21.2318C16.4749 21.1993 16.3991 21.1668 16.3232 21.1339C16.1591 21.0627 15.9958 20.9896 15.8334 20.9156C15.5139 20.7697 15.1972 20.6185 14.8831 20.4621C13.5641 19.8045 12.293 19.055 11.0722 18.2337C10.7453 18.0138 10.422 17.7886 10.1021 17.5586C9.94461 17.4452 9.78836 17.331 9.63251 17.2156C9.55376 17.1575 9.47584 17.0985 9.3975 17.04C9.37483 17.023 9.35215 17.0059 9.32947 16.9888C9.31999 16.9815 9.25856 16.9348 9.23547 16.9169C8.57951 16.4121 7.93963 15.8874 7.31419 15.3461C6.19316 14.3751 5.12161 13.3498 4.09294 12.2841C5.91899 12.9604 7.79121 13.5184 9.6824 13.9866C13.2355 14.8657 16.874 15.42 20.5253 15.6997C25.2452 16.0614 29.999 15.9423 34.7003 15.4046C40.296 14.7649 45.8112 13.5591 51.1743 11.8667C51.0288 12.0082 50.8832 12.1492 50.736 12.289C49.6851 13.2868 48.5897 14.239 47.4546 15.1421L47.4563 15.1404Z" fill="#FF3939"/>
</g>
</g>
</g>
</svg>
