<svg width="29" height="41" viewBox="0 0 29 41" fill="none" xmlns="http://www.w3.org/2000/svg">
<path d="M17.4544 40.8302H11.5422C11.4213 40.8302 11.3037 40.8024 11.1927 40.7518C8.46357 39.4615 4.89828 35.434 3.34837 33.1182C2.5726 31.9227 1.94708 29.7668 1.42445 26.5216C1.05698 24.2009 0.753204 21.3297 0.518022 17.9898C0.434729 16.8988 0.3694 15.7849 0.304072 14.6744C0.096655 10.802 1.44078 7.13385 4.09474 4.3329C6.74054 1.53848 10.3189 0 14.1716 0H14.8412C18.6907 0 22.2707 1.54175 24.9214 4.33943C27.5721 7.13875 28.9162 10.7988 28.7055 14.645L28.5095 17.9653C28.2531 21.3607 27.9428 24.2286 27.5868 26.5037C27.0625 29.7913 26.4158 31.9651 25.6106 33.1557C24.0297 35.4896 20.4562 39.5171 17.799 40.755C17.6912 40.804 17.5736 40.8302 17.4544 40.8302ZM11.7333 39.197H17.2666C19.3554 38.1321 22.5336 34.7873 24.2583 32.2395C24.7107 31.5699 25.3771 29.9873 25.9732 26.2489C26.3243 24.0196 26.6281 21.1958 26.8812 17.8558L27.0772 14.5535C27.2618 11.163 26.0761 7.93412 23.7357 5.46308C21.3969 2.99367 18.2383 1.63321 14.8412 1.63321H14.1716C10.7729 1.63321 7.6143 2.9904 5.28045 5.45654C2.93843 7.92922 1.75273 11.1662 1.93728 14.5731C2.00261 15.6804 2.06793 16.7845 2.15123 17.8722C2.38314 21.1713 2.68039 23.9934 3.04133 26.2669C3.63418 29.9693 4.2793 31.5487 4.71536 32.2215C6.3649 34.686 9.61008 38.1027 11.7333 39.197Z" fill="black"/>
<path fill-rule="evenodd" clip-rule="evenodd" d="M14.5 15C15.2451 14.6236 17.2941 13.7578 19.5294 13.3061C22.3235 12.7415 24 12.1769 24 10.483C24 8.78919 22.3235 6.53071 19.5294 5.40147C17.8601 4.72682 16.2947 5.0599 15.2987 5.27183C14.9609 5.34369 14.6887 5.40162 14.5 5.40162C14.3113 5.40162 14.0391 5.34369 13.7013 5.27183C12.7053 5.05991 11.1399 4.72683 9.47059 5.40148C6.67647 6.53072 5 8.78919 5 10.4831C5 12.1769 6.67647 12.7415 9.47059 13.3062C11.7059 13.7578 13.7549 14.6236 14.5 15Z" fill="#FF3939"/>
<path d="M12.4155 17.986C12.6483 18.0928 12.892 17.5574 12.9448 17.3885C12.9977 17.2197 13.1185 16.9582 12.6669 16.6742C11.9084 16.197 10.4314 15.1966 9.26522 15.0404C7.59581 14.8169 6.19522 15.5702 5.4805 16.0768C5.01862 16.4041 4.2364 17.0769 4.05116 17.2717C3.86593 17.4666 4.19673 17.3107 4.832 17.038C5.46727 16.7652 7.19199 15.5058 9.74216 16.3497C10.6377 16.6461 11.8433 17.7236 12.4155 17.9861V17.986Z" fill="black"/>
<path d="M16.5845 17.986C16.3517 18.0928 16.108 17.5574 16.0552 17.3885C16.0023 17.2197 15.8815 16.9582 16.3331 16.6742C17.0916 16.197 18.5686 15.1966 19.7348 15.0404C21.4042 14.8169 22.8048 15.5702 23.5195 16.0768C23.9814 16.4041 24.7636 17.0769 24.9488 17.2717C25.1341 17.4666 24.8033 17.3107 24.168 17.038C23.5327 16.7652 21.808 15.5058 19.2578 16.3497C18.3623 16.6461 17.1567 17.7236 16.5845 17.9861V17.986Z" fill="black"/>
</svg>
