<svg width="49" height="49" viewBox="0 0 49 49" fill="none" xmlns="http://www.w3.org/2000/svg">
<path d="M0.817242 48.9962C0.482434 48.9962 0.168859 48.7888 0.0480016 48.4556C-0.103887 48.031 0.116596 47.5639 0.54123 47.4104L13.0532 42.9174C14.0413 42.5712 14.6995 41.6419 14.6995 40.6032V34.7873C14.6995 34.3365 15.0653 33.9707 15.5161 33.9707C15.9669 33.9707 16.3327 34.3365 16.3327 34.7873V40.6032C16.3327 42.336 15.2336 43.8843 13.5987 44.4575L1.09325 48.9488C1.00179 48.9815 0.908701 48.9962 0.817242 48.9962Z" fill="black"/>
<path d="M48.1815 48.9955C48.09 48.9955 47.9969 48.9808 47.9055 48.9481L35.3935 44.4551C33.7652 43.8835 32.666 42.3336 32.666 40.6024V34.6232C32.666 34.1725 33.0319 33.8066 33.4826 33.8066C33.9334 33.8066 34.2992 34.1725 34.2992 34.6232V40.6024C34.2992 41.6411 34.9574 42.5721 35.939 42.9167L48.4575 47.4113C48.8821 47.5631 49.1026 48.0319 48.9507 48.4565C48.8299 48.788 48.5163 48.9955 48.1815 48.9955Z" fill="black"/>
<path d="M36.7838 27.1931C36.4474 27.1931 36.1338 26.9857 36.0146 26.6493C35.8627 26.2246 36.0848 25.7575 36.5095 25.6057C38.1198 25.034 39.201 23.4988 39.201 21.7872V19.4191C39.201 19.1512 39.0752 18.9079 38.8564 18.7511C38.6392 18.5959 38.373 18.5584 38.1231 18.64L37.9369 18.6972C37.4992 18.8295 37.0484 18.5845 36.9178 18.1533C36.7871 17.7222 37.0305 17.2665 37.4616 17.1342L37.6249 17.0852C38.355 16.8402 39.1585 16.9595 39.8102 17.4249C40.452 17.8855 40.8342 18.6319 40.8342 19.4191V21.7872C40.8342 24.1897 39.3153 26.3422 37.0566 27.1458C36.9668 27.1784 36.8737 27.1931 36.7838 27.1931Z" fill="black"/>
<path d="M12.2327 27.2091C12.1412 27.2091 12.0514 27.1944 11.9616 27.1634C9.69143 26.3631 8.16602 24.2007 8.16602 21.7868V19.4187C8.16602 18.6315 8.54819 17.8851 9.19167 17.4245C9.84005 16.9591 10.6469 16.8399 11.4014 17.093L11.5941 17.1583C12.022 17.3004 12.2523 17.7626 12.1102 18.1905C11.9665 18.6201 11.5043 18.852 11.0764 18.7066L10.8804 18.6413C10.6256 18.5564 10.361 18.5972 10.1438 18.7507C9.92498 18.9091 9.79922 19.1525 9.79922 19.4187V21.7868C9.79922 23.5099 10.8869 25.0533 12.5038 25.6232C12.9301 25.7735 13.1522 26.239 13.0036 26.6652C12.886 27 12.5691 27.2091 12.2327 27.2091Z" fill="black"/>
<path d="M27.4544 40.8302H21.5422C21.4213 40.8302 21.3037 40.8024 21.1927 40.7518C18.4636 39.4615 14.8983 35.434 13.3484 33.1182C12.5726 31.9227 11.9471 29.7668 11.4245 26.5216C11.057 24.2009 10.7532 21.3297 10.518 17.9898C10.4347 16.8988 10.3694 15.7849 10.3041 14.6744C10.0967 10.802 11.4408 7.13385 14.0947 4.3329C16.7405 1.53848 20.3189 0 24.1716 0H24.8412C28.6907 0 32.2707 1.54175 34.9214 4.33943C37.5721 7.13875 38.9162 10.7988 38.7055 14.645L38.5095 17.9653C38.2531 21.3607 37.9428 24.2286 37.5868 26.5037C37.0625 29.7913 36.4158 31.9651 35.6106 33.1557C34.0297 35.4896 30.4562 39.5171 27.799 40.755C27.6912 40.804 27.5736 40.8302 27.4544 40.8302ZM21.7333 39.197H27.2666C29.3554 38.1321 32.5336 34.7873 34.2583 32.2395C34.7107 31.5699 35.3771 29.9873 35.9732 26.2489C36.3243 24.0196 36.6281 21.1958 36.8812 17.8558L37.0772 14.5535C37.2618 11.163 36.0761 7.93412 33.7357 5.46308C31.3969 2.99367 28.2383 1.63321 24.8412 1.63321H24.1716C20.7729 1.63321 17.6143 2.9904 15.2805 5.45654C12.9384 7.92922 11.7527 11.1662 11.9373 14.5731C12.0026 15.6804 12.0679 16.7845 12.1512 17.8722C12.3831 21.1713 12.6804 23.9934 13.0413 26.2669C13.6342 29.9693 14.2793 31.5487 14.7154 32.2215C16.3649 34.686 19.6101 38.1027 21.7333 39.197Z" fill="black"/>
<path d="M22.4155 17.986C22.6483 18.0928 22.892 17.5574 22.9448 17.3885C22.9977 17.2197 23.1185 16.9582 22.6669 16.6742C21.9084 16.197 20.4314 15.1966 19.2652 15.0404C17.5958 14.8169 16.1952 15.5702 15.4805 16.0768C15.0186 16.4041 14.2364 17.0769 14.0512 17.2717C13.8659 17.4666 14.1967 17.3107 14.832 17.038C15.4673 16.7652 17.192 15.5058 19.7422 16.3497C20.6377 16.6461 21.8433 17.7236 22.4155 17.9861V17.986Z" fill="black"/>
<path d="M26.5845 17.986C26.3517 18.0928 26.108 17.5574 26.0552 17.3885C26.0023 17.2197 25.8815 16.9582 26.3331 16.6742C27.0916 16.197 28.5686 15.1966 29.7348 15.0404C31.4042 14.8169 32.8048 15.5702 33.5195 16.0768C33.9814 16.4041 34.7636 17.0769 34.9488 17.2717C35.1341 17.4666 34.8033 17.3107 34.168 17.038C33.5327 16.7652 31.808 15.5058 29.2578 16.3497C28.3623 16.6461 27.1567 17.7236 26.5845 17.9861V17.986Z" fill="black"/>
<ellipse cx="22.1725" cy="14.0454" rx="1.95843" ry="1.03809" transform="rotate(39.4089 22.1725 14.0454)" fill="#FF3939"/>
<ellipse cx="22.1725" cy="14.0454" rx="1.95843" ry="1.03809" transform="rotate(39.4089 22.1725 14.0454)" fill="#FF3939"/>
<ellipse cx="22.1725" cy="14.0454" rx="1.95843" ry="1.03809" transform="rotate(39.4089 22.1725 14.0454)" fill="#FF3939"/>
<ellipse cx="22.1725" cy="14.0454" rx="1.95843" ry="1.03809" transform="rotate(39.4089 22.1725 14.0454)" fill="#FF3939"/>
<ellipse cx="1.95843" cy="1.03809" rx="1.95843" ry="1.03809" transform="matrix(-0.772635 0.63485 0.63485 0.772635 28.0254 12)" fill="#FF3939"/>
<ellipse cx="1.95843" cy="1.03809" rx="1.95843" ry="1.03809" transform="matrix(-0.772635 0.63485 0.63485 0.772635 28.0254 12)" fill="#FF3939"/>
<ellipse cx="1.95843" cy="1.03809" rx="1.95843" ry="1.03809" transform="matrix(-0.772635 0.63485 0.63485 0.772635 28.0254 12)" fill="#FF3939"/>
<ellipse cx="1.95843" cy="1.03809" rx="1.95843" ry="1.03809" transform="matrix(-0.772635 0.63485 0.63485 0.772635 28.0254 12)" fill="#FF3939"/>
</svg>
