<svg width="34" height="11" viewBox="0 0 34 11" fill="none" xmlns="http://www.w3.org/2000/svg">
<path d="M11.914 1.99994C9.91396 3.19994 6.41406 6 4.41406 8C3.7474 8 2.21416 7.90009 1.41416 7.5C0.414163 6.99989 -0.585773 5.00007 0.414227 3.50007C1.41423 2.00007 5.91402 0 10.414 0C12.4756 0 14.414 0.499942 11.914 1.99994Z" fill="#FF3939"/>
<path d="M32.0955 10.4534C32.8199 10.8095 33.5779 9.02475 33.7425 8.46183C33.907 7.8989 34.2826 7.02739 32.8779 6.08079C30.518 4.49009 25.9227 1.15528 22.2947 0.63474C17.101 -0.11032 12.7436 2.40076 10.52 4.08918C9.08309 5.18018 6.64953 7.42291 6.07324 8.07241C5.49696 8.72192 6.52611 8.20246 8.50251 7.29322C10.4789 6.38399 15.8447 2.18593 23.7786 4.99913C26.5648 5.98703 30.3155 9.5787 32.0955 10.4538V10.4534Z" fill="#231F20"/>
</svg>
