<svg width="72" height="11" viewBox="0 0 72 11" fill="none" xmlns="http://www.w3.org/2000/svg">
<g id="ic-brow-1">
<path id="Vector 5" d="M11.9999 2.49994C9.99989 3.69994 6.5 6.5 4.5 8.5C3.83333 8.5 2.3001 8.40009 1.5001 8C0.5001 7.49989 -0.499836 5.50007 0.500164 4.00007C1.50016 2.50007 5.99996 0.5 10.5 0.5C12.5615 0.5 14.4999 0.999942 11.9999 2.49994Z" fill="#FF3939"/>
<g id="Group 3389">
<g id="ic-brow-1_2">
<path id="Vector" d="M32.1815 10.9534C32.9059 11.3095 33.6639 9.52475 33.8284 8.96183C33.993 8.3989 34.3686 7.52739 32.9638 6.58079C30.6039 4.99009 26.0087 1.65528 22.3807 1.13474C17.1869 0.38968 12.8296 2.90076 10.606 4.58918C9.16903 5.68018 6.73546 7.92291 6.15918 8.57241C5.58289 9.22192 6.61205 8.70246 8.58845 7.79322C10.5648 6.88399 15.9306 2.68593 23.8645 5.49913C26.6508 6.48703 30.4015 10.0787 32.1815 10.9538V10.9534Z" fill="#231F20"/>
<path id="Vector_2" d="M38.8185 10.9534C38.0941 11.3095 37.3361 9.52475 37.1716 8.96183C37.007 8.3989 36.6314 7.52739 38.0362 6.58079C40.3961 4.99009 44.9913 1.65528 48.6193 1.13474C53.8131 0.38968 58.1704 2.90076 60.394 4.58918C61.831 5.68018 64.2645 7.92291 64.8408 8.57241C65.4171 9.22192 64.3879 8.70246 62.4115 7.79322C60.4352 6.88399 55.0694 2.68593 47.1355 5.49913C44.3492 6.48703 40.5985 10.0787 38.8185 10.9538V10.9534Z" fill="#231F20"/>
</g>
<path id="Vector 6" d="M59.1798 2.49994C61.1798 3.69994 64.6797 6.5 66.6797 8.5C67.3464 8.5 68.8796 8.40009 69.6796 8C70.6796 7.49989 71.6795 5.50007 70.6795 4.00007C69.6795 2.50007 65.1797 0.5 60.6797 0.5C58.6182 0.5 56.6798 0.999942 59.1798 2.49994Z" fill="#FF3939"/>
</g>
</g>
</svg>
