<svg width="35" height="11" viewBox="0 0 35 11" fill="none" xmlns="http://www.w3.org/2000/svg">
<path d="M1.81853 10.4534C1.09415 10.8095 0.336143 9.02475 0.171593 8.46183C0.00704193 7.8989 -0.368565 7.02739 1.0362 6.08079C3.39607 4.49009 7.99133 1.15528 11.6193 0.63474C16.8131 -0.11032 21.1704 2.40076 23.394 4.08918C24.831 5.18018 27.2645 7.42291 27.8408 8.07241C28.4171 8.72192 27.3879 8.20246 25.4115 7.29322C23.4352 6.38399 18.0694 2.18593 10.1355 4.99913C7.34923 5.98703 3.59854 9.5787 1.81853 10.4538V10.4534Z" fill="#231F20"/>
<path d="M22.1798 1.99994C24.1798 3.19994 27.6797 6 29.6797 8C30.3464 8 31.8796 7.90009 32.6796 7.5C33.6796 6.99989 34.6795 5.00007 33.6795 3.50007C32.6795 2.00007 28.1797 0 23.6797 0C21.6182 0 19.6798 0.499942 22.1798 1.99994Z" fill="#FF3939"/>
</svg>
