<svg width="43" height="43" viewBox="0 0 43 43" fill="none" xmlns="http://www.w3.org/2000/svg">
<path d="M26.71 8.29453C26.3643 8.27438 26.0649 8.5396 26.0448 8.88696C26.039 8.98665 25.9268 11.3382 27.959 12.2596C28.0434 12.2978 28.1318 12.316 28.2187 12.316C28.4584 12.316 28.6874 12.1785 28.7928 11.946C28.9365 11.6292 28.796 11.2559 28.4792 11.1122C27.2444 10.5524 27.2993 9.0299 27.3026 8.95725C27.3214 8.61099 27.0565 8.31461 26.71 8.29453Z" fill="black"/>
<path d="M42.9906 40.511C42.9057 39.5974 42.2851 38.83 41.4094 38.5562L38.3307 37.593C37.9984 37.4895 37.6454 37.6742 37.5415 38.0062C37.4377 38.3381 37.6226 38.6915 37.9546 38.7954L41.0333 39.7585C41.4227 39.8802 41.6985 40.2213 41.7363 40.6276C41.7646 40.9318 41.6554 41.2288 41.4367 41.4424C41.218 41.6559 40.918 41.7579 40.6149 41.7223L33.5937 40.8995C31.9183 40.7032 30.228 40.7586 28.5691 41.0638L25.2221 41.6795C25.0343 41.7141 24.8441 41.7121 24.6569 41.6735C24.1755 41.5741 23.7892 41.2576 23.5971 40.8051C23.405 40.3527 23.4455 39.855 23.7084 39.4395L23.9573 39.046C24.469 38.2372 24.7909 37.3064 24.8881 36.354L25.3136 32.187C25.6694 28.704 25.1862 25.1165 23.9164 21.8126C23.589 20.9608 23.3195 20.1742 23.0923 19.408C22.9935 19.0744 22.6427 18.8844 22.3094 18.9831C21.9759 19.082 21.7857 19.4325 21.8845 19.766C22.1211 20.5642 22.4011 21.3815 22.7404 22.2645C23.9397 25.3847 24.3962 28.7717 24.0604 32.059L23.6349 36.2259C23.5573 36.9853 23.3007 37.7275 22.8927 38.3724L22.6437 38.766C22.1637 39.5247 22.0866 40.4711 22.4376 41.2975C22.7885 42.1239 23.5229 42.7257 24.4022 42.9071C24.7497 42.9789 25.1021 42.9827 25.4503 42.9185L28.7971 42.3027C30.3323 42.0202 31.8968 41.969 33.4471 42.1507L40.4683 42.9735C40.5576 42.984 40.6469 42.9892 40.7356 42.9892C41.3244 42.9892 41.8893 42.7611 42.3168 42.3437C42.8086 41.8635 43.0542 41.1955 42.9906 40.511Z" fill="black"/>
<path d="M22.0137 17.7786C22.3557 17.7149 22.5813 17.3861 22.5176 17.0441C22.2123 15.4039 22.1177 13.8214 22.2299 12.2187C22.4874 12.0993 22.8905 11.9088 23.4457 11.6361C23.7335 11.4948 23.8888 11.1617 23.7843 10.8586C23.6582 10.4926 23.2462 10.3308 22.9099 10.4957C22.4406 10.7263 22.0797 10.8982 21.8264 11.0167C21.5634 11.1398 21.2928 11.2449 21.0144 11.3278C17.4301 12.3955 13.649 13.0411 10.318 13.1511C6.30071 13.2841 3.06866 12.6337 0.973332 11.2709C0.681738 11.0812 0.291547 11.1639 0.10191 11.4555C-0.0877263 11.7471 -0.00508563 12.1373 0.286508 12.3269C5.23789 15.5471 14.3005 14.5653 20.943 12.6609C20.8765 14.1906 20.9875 15.7085 21.279 17.2746C21.3354 17.5776 21.6001 17.7893 21.8975 17.7893C21.9359 17.7893 21.9747 17.7858 22.0137 17.7786Z" fill="black"/>
<path d="M0.629883 1.27051H13.3246C13.6725 1.27051 13.9545 0.988572 13.9545 0.640625C13.9545 0.292678 13.6725 0.0107422 13.3246 0.0107422H0.629883C0.28202 0.0107422 0 0.292678 0 0.640625C0 0.988572 0.28202 1.27051 0.629883 1.27051Z" fill="black"/>
<path d="M15.7598 1.27051H21.9534C24.8407 1.27051 27.5244 2.42496 29.5099 4.52112C31.4956 6.61737 32.503 9.35955 32.3465 12.2426L31.1689 33.9573C31.0836 35.5298 32.0736 36.9562 33.5765 37.4263L35.6117 38.063C35.6742 38.0825 35.7376 38.0919 35.7999 38.0919C36.0679 38.0919 36.3165 37.9193 36.4009 37.6499C36.5047 37.3179 36.3197 36.9645 35.9877 36.8606L33.9525 36.224C33.0002 35.9261 32.3726 35.0221 32.4268 34.0256L33.6044 12.3109C33.7797 9.07887 32.6505 6.00471 30.4245 3.65482C28.1986 1.30494 25.1902 0.0107422 21.9534 0.0107422H15.7598C15.4119 0.0107422 15.1299 0.292678 15.1299 0.640625C15.1299 0.988572 15.4119 1.27051 15.7598 1.27051Z" fill="black"/>
<path fill-rule="evenodd" clip-rule="evenodd" d="M20.9268 13.2063C20.9296 13.0245 20.935 12.8425 20.943 12.6604C14.3005 14.5648 5.23789 15.5466 0.286508 12.3264C-0.00508562 12.1368 -0.0877262 11.7466 0.10191 11.455C0.291547 11.1634 0.681738 11.0807 0.973332 11.2704C3.06866 12.6332 6.30071 13.2836 10.318 13.1507C13.649 13.0406 17.4301 12.395 21.0144 11.3273C21.2928 11.2445 21.5634 11.1393 21.8264 11.0162C22.0797 10.8977 22.4406 10.7259 22.9099 10.4952C23.2462 10.3303 23.6582 10.4921 23.7843 10.8581C23.8888 11.1612 23.7335 11.4943 23.4457 11.6357C22.8905 11.9084 22.4874 12.0988 22.2299 12.2182C22.221 12.3463 22.2133 12.4743 22.207 12.6022C21.8149 12.8146 21.3869 13.0164 20.9268 13.2063Z" fill="#FF3939"/>
</svg>
