<svg width="43" height="43" viewBox="0 0 43 43" fill="none" xmlns="http://www.w3.org/2000/svg">
<path d="M16.29 8.29453C16.6357 8.27438 16.9351 8.5396 16.9552 8.88696C16.961 8.98665 17.0732 11.3382 15.041 12.2596C14.9566 12.2978 14.8682 12.316 14.7813 12.316C14.5416 12.316 14.3126 12.1785 14.2072 11.946C14.0635 11.6292 14.204 11.2559 14.5208 11.1122C15.7556 10.5524 15.7007 9.0299 15.6974 8.95725C15.6786 8.61099 15.9435 8.31461 16.29 8.29453Z" fill="black"/>
<path d="M0.00944328 40.511C0.0942669 39.5974 0.714911 38.83 1.59062 38.5562L4.66931 37.593C5.00164 37.4895 5.35463 37.6742 5.45852 38.0062C5.56232 38.3381 5.37739 38.6915 5.04539 38.7954L1.9667 39.7585C1.57735 39.8802 1.30146 40.2213 1.26375 40.6276C1.23545 40.9318 1.34463 41.2288 1.56332 41.4424C1.78201 41.6559 2.08201 41.7579 2.38511 41.7223L9.40629 40.8995C11.0817 40.7032 12.772 40.7586 14.4309 41.0638L17.7779 41.6795C17.9657 41.7141 18.1559 41.7121 18.3431 41.6735C18.8245 41.5741 19.2108 41.2576 19.4029 40.8051C19.595 40.3527 19.5545 39.855 19.2916 39.4395L19.0427 39.046C18.531 38.2372 18.2091 37.3064 18.1119 36.354L17.6864 32.187C17.3306 28.704 17.8138 25.1165 19.0836 21.8126C19.411 20.9608 19.6805 20.1742 19.9077 19.408C20.0065 19.0744 20.3573 18.8844 20.6906 18.9831C21.0241 19.082 21.2143 19.4325 21.1155 19.766C20.8789 20.5642 20.5989 21.3815 20.2596 22.2645C19.0603 25.3847 18.6038 28.7717 18.9396 32.059L19.3651 36.2259C19.4427 36.9853 19.6993 37.7275 20.1073 38.3724L20.3563 38.766C20.8363 39.5247 20.9134 40.4711 20.5624 41.2975C20.2115 42.1239 19.4771 42.7257 18.5978 42.9071C18.2503 42.9789 17.8979 42.9827 17.5497 42.9185L14.2029 42.3027C12.6677 42.0202 11.1032 41.969 9.55292 42.1507L2.53174 42.9735C2.44238 42.984 2.35311 42.9892 2.26442 42.9892C1.67561 42.9892 1.11073 42.7611 0.683247 42.3437C0.191435 41.8635 -0.0542183 41.1955 0.00944328 40.511Z" fill="black"/>
<path d="M20.9863 17.7786C20.6443 17.7149 20.4187 17.3861 20.4824 17.0441C20.7877 15.4039 20.8823 13.8214 20.7701 12.2187C20.5126 12.0993 20.1095 11.9088 19.5543 11.6361C19.2665 11.4948 19.1112 11.1617 19.2157 10.8586C19.3418 10.4926 19.7538 10.3308 20.0901 10.4957C20.5594 10.7263 20.9203 10.8982 21.1736 11.0167C21.4366 11.1398 21.7072 11.2449 21.9856 11.3278C25.5699 12.3955 29.351 13.0411 32.682 13.1511C36.6993 13.2841 39.9313 12.6337 42.0267 11.2709C42.3183 11.0812 42.7085 11.1639 42.8981 11.4555C43.0877 11.7471 43.0051 12.1373 42.7135 12.3269C37.7621 15.5471 28.6995 14.5653 22.057 12.6609C22.1235 14.1906 22.0125 15.7085 21.721 17.2746C21.6646 17.5776 21.3999 17.7893 21.1025 17.7893C21.0641 17.7893 21.0253 17.7858 20.9863 17.7786Z" fill="black"/>
<path d="M42.3701 1.27051H29.6754C29.3275 1.27051 29.0455 0.988572 29.0455 0.640625C29.0455 0.292678 29.3275 0.0107422 29.6754 0.0107422H42.3701C42.718 0.0107422 43 0.292678 43 0.640625C43 0.988572 42.718 1.27051 42.3701 1.27051Z" fill="black"/>
<path d="M27.2402 1.27051H21.0466C18.1593 1.27051 15.4756 2.42496 13.4901 4.52112C11.5044 6.61737 10.497 9.35955 10.6535 12.2426L11.8311 33.9573C11.9164 35.5298 10.9264 36.9562 9.42345 37.4263L7.38834 38.063C7.32577 38.0825 7.26245 38.0919 7.20013 38.0919C6.93205 38.0919 6.68346 37.9193 6.59914 37.6499C6.49534 37.3179 6.68027 36.9645 7.01226 36.8606L9.04745 36.224C9.99984 35.9261 10.6274 35.0221 10.5732 34.0256L9.39557 12.3109C9.22029 9.07887 10.3495 6.00471 12.5755 3.65482C14.8014 1.30494 17.8098 0.0107422 21.0466 0.0107422H27.2402C27.5881 0.0107422 27.8701 0.292678 27.8701 0.640625C27.8701 0.988572 27.5881 1.27051 27.2402 1.27051Z" fill="black"/>
<path fill-rule="evenodd" clip-rule="evenodd" d="M22.0732 13.2063C22.0704 13.0245 22.065 12.8425 22.057 12.6604C28.6995 14.5648 37.7621 15.5466 42.7135 12.3264C43.0051 12.1368 43.0877 11.7466 42.8981 11.455C42.7085 11.1634 42.3183 11.0807 42.0267 11.2704C39.9313 12.6332 36.6993 13.2836 32.682 13.1507C29.351 13.0406 25.5699 12.395 21.9856 11.3273C21.7072 11.2445 21.4366 11.1393 21.1736 11.0162C20.9203 10.8977 20.5594 10.7259 20.0901 10.4952C19.7538 10.3303 19.3418 10.4921 19.2157 10.8581C19.1112 11.1612 19.2665 11.4943 19.5543 11.6357C20.1095 11.9084 20.5126 12.0988 20.7701 12.2182C20.779 12.3463 20.7867 12.4743 20.793 12.6022C21.1851 12.8146 21.6131 13.0164 22.0732 13.2063Z" fill="#FF3939"/>
</svg>
