<svg width="44" height="46" viewBox="0 0 44 46" fill="none" xmlns="http://www.w3.org/2000/svg">
<path d="M3 1C3.56275 7.86108 5.02329 12.2407 6.90117 15.986C7.63454 17.4584 7.91306 19.1154 7.7013 20.7463C7.6567 21.1099 7.63502 21.4758 7.63636 21.8421C7.58854 22.4485 7.70717 23.0565 7.97949 23.6005C8.25181 24.1446 8.6675 24.6042 9.18182 24.9298C10.7273 29.5614 11.5 36.5088 9.95455 40.3684C9.95455 40.3684 5.31818 41.1403 4.54545 42.6842C4.4969 42.7812 4.45133 42.8752 4.40875 42.9661C4.30563 43.183 4.25911 43.4224 4.27354 43.6621C4.28796 43.9018 4.36286 44.134 4.49126 44.337C4.61966 44.54 4.79738 44.7072 5.00789 44.8231C5.21839 44.9391 5.45484 44.9999 5.69521 45H15.3483C15.5475 44.9993 15.7444 44.9583 15.9273 44.8795C16.1102 44.8007 16.2752 44.6857 16.4124 44.5415C16.5496 44.3972 16.6561 44.2267 16.7255 44.0402C16.795 43.8538 16.8259 43.6552 16.8165 43.4564C16.4618 34.9468 19.2273 34.6307 19.2273 28.7895C19.2256 26.4524 18.9665 24.1226 18.4545 21.8421C19.5881 14.6413 20 11.8077 20 7.17544" stroke="black" stroke-width="1.2" stroke-linecap="round" stroke-linejoin="round"/>
<path d="M12 40H10" stroke="black" stroke-width="1.2" stroke-linecap="round" stroke-linejoin="round"/>
<path d="M14.611 19C14.9483 19.6578 15.0681 20.3515 14.9631 21.039C14.8581 21.7266 14.5305 22.3937 14 23" stroke="black" stroke-width="1.2" stroke-linecap="round" stroke-linejoin="round"/>
<path d="M17 21L19 22" stroke="black" stroke-width="1.2" stroke-linecap="round" stroke-linejoin="round"/>
<path d="M38 1C37.4041 7.86108 35.8577 12.2407 33.8694 15.986C33.0928 17.4584 32.7979 19.1154 33.0222 20.7463C33.0694 21.1099 33.0923 21.4758 33.0909 21.8421C33.1415 22.4485 33.0159 23.0565 32.7276 23.6005C32.4393 24.1446 31.9991 24.6042 31.4545 24.9298C29.8182 29.5614 29 36.5088 30.6364 40.3684C30.6364 40.3684 35.5455 41.1403 36.3636 42.6842C36.415 42.7812 36.4633 42.8752 36.5084 42.9661C36.6176 43.183 36.6668 43.4224 36.6515 43.6621C36.6363 43.9018 36.557 44.134 36.421 44.337C36.2851 44.54 36.0969 44.7072 35.874 44.8231C35.6511 44.9391 35.4008 44.9999 35.1462 45H24.9253C24.7145 44.9993 24.5059 44.9583 24.3123 44.8795C24.1186 44.8007 23.9439 44.6857 23.7987 44.5415C23.6534 44.3972 23.5406 44.2267 23.4671 44.0402C23.3935 43.8538 23.3608 43.6552 23.3708 43.4564C23.7463 34.9468 20.8182 34.6307 20.8182 28.7895C20.8199 26.4524 21.0943 24.1226 21.6364 21.8421C20.4361 14.6413 20 11.8077 20 7.17544" stroke="black" stroke-width="1.2" stroke-linecap="round" stroke-linejoin="round"/>
<path d="M31 40H29" stroke="black" stroke-width="1.2" stroke-linecap="round" stroke-linejoin="round"/>
<path d="M26.389 19C26.0517 19.6578 25.9319 20.3515 26.0369 21.039C26.1419 21.7266 26.4695 22.3937 27 23" stroke="black" stroke-width="1.2" stroke-linecap="round" stroke-linejoin="round"/>
<path d="M24 21L22 22" stroke="black" stroke-width="1.2" stroke-linecap="round" stroke-linejoin="round"/>
<path d="M1 45H38" stroke="black" stroke-width="1.2" stroke-linecap="round" stroke-linejoin="round"/>
<path d="M41 45H43" stroke="black" stroke-width="1.2" stroke-linecap="round" stroke-linejoin="round"/>
<path fill-rule="evenodd" clip-rule="evenodd" d="M2.44409 2.1167C3.00171 8.30444 4.41207 12.4541 6.23249 16.0543C6.92369 17.431 7.1648 18.9665 6.92801 20.4671L6.92731 20.4715C6.87986 20.7876 6.84955 21.1058 6.8365 21.4248C7.37166 20.3639 7.79619 19.1542 8.08203 17.8405C7.93743 17.0395 7.67696 16.2567 7.30449 15.5151L7.30375 15.5136C5.62052 12.1848 4.28986 8.35696 3.70601 2.70015C3.3012 2.44919 2.87938 2.25282 2.44409 2.1167Z" fill="#FF3939"/>
</svg>
