<svg width="44" height="50" viewBox="0 0 44 50" fill="none" xmlns="http://www.w3.org/2000/svg">
<path d="M3 5C3.56275 11.8611 5.02329 16.2407 6.90117 19.986C7.63454 21.4584 7.91306 23.1154 7.7013 24.7463C7.6567 25.1099 7.63502 25.4758 7.63636 25.8421C7.58854 26.4485 7.70717 27.0565 7.97949 27.6005C8.25181 28.1446 8.6675 28.6042 9.18182 28.9298C10.7273 33.5614 11.5 40.5088 9.95455 44.3684C9.95455 44.3684 5.31818 45.1403 4.54545 46.6842C4.4969 46.7812 4.45133 46.8752 4.40875 46.9661C4.30563 47.183 4.25911 47.4224 4.27354 47.6621C4.28796 47.9018 4.36286 48.134 4.49126 48.337C4.61966 48.54 4.79738 48.7072 5.00789 48.8231C5.21839 48.9391 5.45484 48.9999 5.69521 49H15.3483C15.5475 48.9993 15.7444 48.9583 15.9273 48.8795C16.1102 48.8007 16.2752 48.6857 16.4124 48.5415C16.5496 48.3972 16.6561 48.2267 16.7255 48.0402C16.795 47.8538 16.8259 47.6552 16.8165 47.4564C16.4618 38.9468 19.2273 38.6307 19.2273 32.7895C19.2256 30.4524 18.9665 28.1226 18.4545 25.8421C19.5881 18.6413 20 15.8077 20 11.1754" stroke="black" stroke-width="1.2" stroke-linecap="round" stroke-linejoin="round"/>
<path d="M12 44H10" stroke="black" stroke-width="1.2" stroke-linecap="round" stroke-linejoin="round"/>
<path d="M14.611 23C14.9483 23.6578 15.0681 24.3515 14.9631 25.039C14.8581 25.7266 14.5305 26.3937 14 27" stroke="black" stroke-width="1.2" stroke-linecap="round" stroke-linejoin="round"/>
<path d="M17 25L19 26" stroke="black" stroke-width="1.2" stroke-linecap="round" stroke-linejoin="round"/>
<path d="M38 5C37.4041 11.8611 35.8577 16.2407 33.8694 19.986C33.0928 21.4584 32.7979 23.1154 33.0222 24.7463C33.0694 25.1099 33.0923 25.4758 33.0909 25.8421C33.1415 26.4485 33.0159 27.0565 32.7276 27.6005C32.4393 28.1446 31.9991 28.6042 31.4545 28.9298C29.8182 33.5614 29 40.5088 30.6364 44.3684C30.6364 44.3684 35.5455 45.1403 36.3636 46.6842C36.415 46.7812 36.4633 46.8752 36.5084 46.9661C36.6176 47.183 36.6668 47.4224 36.6515 47.6621C36.6363 47.9018 36.557 48.134 36.421 48.337C36.2851 48.54 36.0969 48.7072 35.874 48.8231C35.6511 48.9391 35.4008 48.9999 35.1462 49H24.9253C24.7145 48.9993 24.5059 48.9583 24.3123 48.8795C24.1186 48.8007 23.9439 48.6857 23.7987 48.5415C23.6534 48.3972 23.5406 48.2267 23.4671 48.0402C23.3935 47.8538 23.3608 47.6552 23.3708 47.4564C23.7463 38.9468 20.8182 38.6307 20.8182 32.7895C20.8199 30.4524 21.0943 28.1226 21.6364 25.8421C20.4361 18.6413 20 15.8077 20 11.1754" stroke="black" stroke-width="1.2" stroke-linecap="round" stroke-linejoin="round"/>
<path d="M31 44H29" stroke="black" stroke-width="1.2" stroke-linecap="round" stroke-linejoin="round"/>
<path d="M26.389 23C26.0517 23.6578 25.9319 24.3515 26.0369 25.039C26.1419 25.7266 26.4695 26.3937 27 27" stroke="black" stroke-width="1.2" stroke-linecap="round" stroke-linejoin="round"/>
<path d="M24 25L22 26" stroke="black" stroke-width="1.2" stroke-linecap="round" stroke-linejoin="round"/>
<path d="M1 49H38" stroke="black" stroke-width="1.2" stroke-linecap="round" stroke-linejoin="round"/>
<path d="M41 49H43" stroke="black" stroke-width="1.2" stroke-linecap="round" stroke-linejoin="round"/>
<path fill-rule="evenodd" clip-rule="evenodd" d="M20.7392 10.2246C14.9914 7.46087 10.6269 6.54344 6.53602 6.27885C4.99909 6.17508 3.55389 5.60289 2.38154 4.6368L2.37808 4.63395C2.13994 4.44069 1.89212 4.26003 1.63551 4.09264C2.21902 5.05249 2.96877 5.99866 3.86478 6.89077C4.68488 7.21697 5.55786 7.41563 6.45609 7.47618L6.45773 7.47629C10.2698 7.72276 14.3449 8.55362 19.6985 11.059C20.0852 10.8216 20.4341 10.5434 20.7392 10.2246Z" fill="#FF3939"/>
</svg>
