<svg width="45" height="52" viewBox="0 0 45 52" fill="none" xmlns="http://www.w3.org/2000/svg">
<path d="M39.7692 51C39.4267 51 39.1134 50.7705 39.0202 50.4219C38.8194 49.6719 38.51 48.8174 38.183 47.9131C36.722 43.8779 34.7225 38.3525 38.5371 32.1797C38.5517 32.1553 38.5682 32.1328 38.5856 32.1104C41.1119 28.8662 42.4478 24.9717 42.4478 20.8496C42.4468 10.7656 34.2869 2.5625 24.2566 2.5625C17.2871 2.5625 11.7456 4.94922 8.65182 9.2832C6.11295 12.8398 5.41833 17.4199 6.79399 21.5342C7.8369 24.6279 6.27884 27.874 4.16878 29.2256C2.55155 30.2598 2.54767 30.7783 2.55349 30.834C2.5923 31.2744 3.93401 31.8252 4.50639 32.0605C5.33974 32.4033 5.89079 32.6299 6.02273 33.1982C6.14108 33.7129 5.97907 34.3018 5.32907 35.7217C5.23497 35.9258 5.49691 36.208 5.98198 36.6279C6.14302 36.7676 6.28175 36.8877 6.39526 37.0195C6.58153 37.2412 6.66011 37.5078 6.62131 37.7744C6.56892 38.1348 6.33414 38.3574 6.12168 38.5107C7.95816 39.918 7.93779 41.2617 7.91742 42.5625C7.91645 42.6543 7.91451 42.7471 7.91354 42.8408C7.90869 43.665 7.92712 44.5098 8.18906 44.9697C8.28219 45.1328 8.49951 45.5137 9.69957 45.5361C9.75584 45.5371 9.81405 45.5381 9.87226 45.5381C13.3949 45.5381 19.7629 43.2725 22.3862 40.5303C23.2127 39.666 23.6085 38.834 23.5629 38.0586C23.5377 37.6279 23.8637 37.2578 24.2915 37.2324C24.7193 37.207 25.087 37.5352 25.1123 37.9658C25.185 39.1953 24.6446 40.4229 23.5047 41.6143C22.3842 42.7861 20.7466 43.8477 18.9305 44.7188C20.2198 46.1553 20.7864 47.7822 20.8902 50.1826C20.9086 50.6133 20.5768 50.9785 20.149 50.9971C19.7202 51.0176 19.3583 50.6816 19.3399 50.251C19.2429 48.0186 18.7112 46.6494 17.4122 45.3857C14.6687 46.4902 11.7427 47.1445 9.66853 47.0986C6.33996 47.0342 6.35258 44.6035 6.36228 42.8301C6.36325 42.7305 6.36422 42.6338 6.36616 42.5381C6.38459 41.3574 6.39526 40.6445 5.08557 39.6807C4.89251 39.5381 4.30945 39.1064 4.32788 38.4375C4.33856 38.0615 4.52579 37.792 4.73146 37.5996C4.16587 37.082 3.39461 36.2031 3.92139 35.0635C4.24833 34.3496 4.39676 33.9541 4.45982 33.7354C4.30072 33.6621 4.09117 33.5762 3.91945 33.5059C2.74267 33.0225 1.13029 32.3594 1.00708 30.9717C0.888722 29.6348 2.27894 28.5811 3.3364 27.9053C4.90512 26.9004 6.11198 24.3691 5.32422 22.0332C3.78945 17.4404 4.56169 12.334 7.3916 8.37012C9.00301 6.11328 11.1858 4.33203 13.879 3.0752C16.833 1.69824 20.3246 1 24.2566 1C29.4915 1 34.4353 3.06445 38.1772 6.81152C41.9317 10.5723 44 15.5576 44 20.8486C44 25.3096 42.5593 29.5244 39.8342 33.04C36.4474 38.5518 38.2189 43.4443 39.6421 47.3779C39.9817 48.3154 40.3018 49.2002 40.5201 50.0156C40.6317 50.4326 40.3862 50.8613 39.972 50.9727C39.904 50.9912 39.8361 51 39.7692 51Z" fill="black" stroke="black" stroke-width="0.1"/>
<path d="M18 22.5001C15 25.0006 11.5 26.8338 9.5 29.0005C11.5 29.5005 16 31.5005 17 31.5005C18 31.5005 20.0001 30.5005 21.5 26.0005C22.2071 23.8792 19.3848 21.3459 18 22.5001Z" fill="#FF3939"/>
<path d="M10.3342 21.6105C10.3747 21.5644 10.4101 21.5233 10.4506 21.4772C10.5924 21.4618 10.7291 21.4618 10.8709 21.4772C10.9722 21.4874 11.0684 21.5028 11.1696 21.5233C11.2709 21.5438 11.3722 21.5644 11.4684 21.5951C11.6709 21.6515 11.8684 21.7336 12.0608 21.8259C12.8253 22.2207 13.5038 22.8156 14 23.5489C13.5899 22.7592 12.9772 22.0618 12.2177 21.549C12.0304 21.4208 11.8329 21.2823 11.6203 21.1746C11.4025 21.0618 11.1544 20.9951 10.9013 21.0003C10.643 21.0003 10.3899 21.0669 10.1671 21.1951C9.94937 21.3182 9.76203 21.5182 9.68608 21.7541C9.83291 21.6567 9.98481 21.5849 10.1418 21.5387C10.0709 21.59 10.0101 21.6515 9.94937 21.7182C9.86835 21.8105 9.79747 21.9131 9.74684 22.0259C9.70633 22.113 9.67089 22.2105 9.6557 22.3079C9.6557 22.3028 9.65063 22.2976 9.64557 22.2925C9.60506 22.231 9.57975 22.1643 9.55443 22.0925C9.50886 21.9489 9.48354 21.8002 9.49873 21.6208H9.48354C9.41266 21.7695 9.39747 21.9489 9.42785 22.1182C9.45823 22.2874 9.53418 22.4464 9.65063 22.5746C9.68101 22.6105 9.71646 22.6412 9.7519 22.6771C9.7519 22.6771 9.7519 22.6822 9.74684 22.6874C9.71139 22.6566 9.67089 22.6258 9.63544 22.5899C9.49873 22.4669 9.37722 22.3335 9.27595 22.1746C9.33165 22.3541 9.44304 22.5182 9.57468 22.6515C9.59494 22.672 9.61519 22.6925 9.63544 22.713C9.61013 22.713 9.58481 22.7079 9.55949 22.7028C9.50886 22.672 9.45823 22.6361 9.41772 22.6002C9.37215 22.5592 9.32658 22.513 9.2962 22.4669C9.26076 22.4207 9.22532 22.3694 9.2 22.3182C9.16962 22.2669 9.14937 22.2053 9.12911 22.1489C9.10886 22.0874 9.09367 22.0259 9.07848 21.9592C9.05316 21.8259 9.03291 21.6874 9.00759 21.5336H8.99241C8.95696 21.672 8.94177 21.8208 8.94684 21.9643C8.9519 22.113 8.98228 22.2566 9.0481 22.39C9.09873 22.4925 9.17468 22.5848 9.26582 22.6566C9.2557 22.6566 9.24051 22.6515 9.23038 22.6464C9.13924 22.6207 9.05316 22.5848 8.97215 22.5335C8.88608 22.4874 8.80506 22.4259 8.73418 22.3643C8.65823 22.3028 8.58734 22.2259 8.51646 22.1489C8.38481 21.99 8.26329 21.8207 8.18228 21.6105H8.16709C8.19241 21.8361 8.28861 22.0413 8.41519 22.2259C8.54177 22.4053 8.7038 22.5643 8.8962 22.6771C8.9924 22.7335 9.09873 22.7746 9.20506 22.7951C9.29114 22.8156 9.38228 22.8207 9.46835 22.8258C9.47848 22.8412 9.48861 22.8515 9.5038 22.8669C9.47342 22.8771 9.44304 22.8822 9.41266 22.8874C9.36709 22.8976 9.32152 22.9079 9.27595 22.913C9.2557 22.913 9.23038 22.913 9.21013 22.9181H9.18481H9.15949C9.11899 22.9181 9.07848 22.9079 9.03291 22.8976C8.8557 22.8515 8.67342 22.7746 8.4962 22.6822C8.4557 22.6566 8.41013 22.6361 8.36456 22.6105C8.32405 22.5848 8.27848 22.5592 8.23797 22.5335C8.15696 22.4771 8.07595 22.4156 8.01519 22.3335H8C8.03544 22.4412 8.11139 22.5182 8.18228 22.5899C8.25823 22.6617 8.33924 22.7233 8.42532 22.7848C8.59747 22.8976 8.78481 22.9951 8.98228 23.0566C9.03291 23.072 9.08354 23.0822 9.13418 23.0874C9.14937 23.0874 9.16456 23.0874 9.17975 23.0874C9.26076 23.1233 9.34177 23.1489 9.43291 23.1591C9.56456 23.1797 9.6962 23.1745 9.82785 23.1438C9.82785 23.1438 9.83291 23.1438 9.83797 23.1438C9.97975 23.2258 10.1418 23.2771 10.3038 23.3027C10.2785 23.3899 10.2582 23.4771 10.243 23.5694C10.2228 23.6925 10.2127 23.8207 10.2076 23.9489C10.2076 24.0155 10.2076 24.0771 10.2076 24.1386C10.2076 24.2001 10.2177 24.2668 10.2228 24.3283L10.2329 24.4206L10.2481 24.5129C10.2582 24.5745 10.2734 24.636 10.2937 24.7027C10.3291 24.8257 10.3747 24.9488 10.4405 25.0616C10.5063 25.1744 10.5924 25.2821 10.6937 25.359C10.7848 25.4308 10.8861 25.477 10.9924 25.5078C10.962 25.5283 10.9266 25.5539 10.8962 25.5744C10.7949 25.6411 10.6937 25.6975 10.5873 25.7539C10.5924 25.7129 10.6025 25.6719 10.6329 25.6513C10.6633 25.6257 10.7291 25.6103 10.7595 25.6565C10.7595 25.6257 10.7291 25.6052 10.6987 25.5949C10.6684 25.5847 10.6329 25.5898 10.6025 25.6052C10.5418 25.6411 10.5114 25.7078 10.5013 25.7642C10.5013 25.7744 10.5013 25.7898 10.4962 25.8001C10.3848 25.8513 10.2684 25.8975 10.1468 25.9283C10.0506 25.918 9.95443 25.9129 9.85823 25.9283C9.71646 25.9436 9.56962 26 9.45316 26.0975C9.34177 26.2 9.26582 26.3385 9.22532 26.4769C9.18481 26.6154 9.16962 26.759 9.17468 26.9026C9.21519 26.7692 9.25063 26.6308 9.30633 26.5077C9.36203 26.3846 9.42785 26.2667 9.52405 26.1847C9.62025 26.0975 9.74177 26.0462 9.86835 26.0154C9.9038 26.0052 9.9443 26 9.98481 25.9949C9.88354 26.0411 9.78734 26.1026 9.71646 26.1898C9.62532 26.2975 9.57468 26.4308 9.55949 26.5692C9.5443 26.7026 9.56456 26.8359 9.61013 26.959C9.61013 26.8256 9.62025 26.7026 9.64557 26.5795C9.67089 26.4616 9.72152 26.3487 9.79747 26.2616C9.87342 26.1693 9.97468 26.1026 10.081 26.0462C10.1418 26.0154 10.2025 25.9898 10.2633 25.9641C10.2684 25.9641 10.2734 25.9641 10.2785 25.9641C10.238 26 10.1975 26.0359 10.162 26.077C10.0911 26.159 10.0304 26.2513 9.97975 26.3539C9.93418 26.4564 9.9038 26.5641 9.89873 26.6769C9.89367 26.7898 9.91392 26.9026 9.96456 27H9.97468C9.95949 26.8769 9.96456 26.7795 9.98481 26.6821C9.99494 26.6359 10.0051 26.5846 10.0253 26.5385C10.0354 26.518 10.0405 26.4923 10.0506 26.4667L10.081 26.4L10.1114 26.3334C10.1215 26.3129 10.1367 26.2872 10.1468 26.2667C10.1722 26.2205 10.1975 26.1795 10.2228 26.1334C10.2532 26.0923 10.2785 26.0462 10.3139 26.0103C10.3342 25.9898 10.3494 25.9693 10.3696 25.9488C10.4051 25.9436 10.4405 25.9334 10.4759 25.9231C10.4709 25.9847 10.4709 26.0462 10.4709 26.1077C10.481 26.3334 10.5316 26.5641 10.643 26.759C10.6278 26.6462 10.6127 26.5385 10.6025 26.4308C10.5924 26.3231 10.5823 26.2154 10.5823 26.1077C10.5823 26.0359 10.5823 25.9693 10.5823 25.8975C10.6835 25.8667 10.7848 25.8257 10.881 25.7795C10.8506 25.8206 10.8253 25.8616 10.8 25.9026C10.7646 25.9744 10.7342 26.0462 10.7139 26.1231C10.6937 26.2 10.6886 26.2821 10.6937 26.359C10.7291 26.2872 10.7595 26.2205 10.7949 26.1488C10.8253 26.0821 10.8608 26.0154 10.8962 25.9488C10.9316 25.8821 10.9671 25.8206 11.0076 25.7539C11.0177 25.7334 11.0329 25.7129 11.043 25.6924C11.043 25.7283 11.043 25.7693 11.0481 25.8052C11.0684 26.0103 11.1342 26.2103 11.2456 26.3795C11.1949 26.1847 11.1595 25.9898 11.1494 25.7949C11.1494 25.7385 11.1494 25.677 11.1494 25.6206C11.2405 25.5642 11.3316 25.5026 11.4228 25.4411C11.438 25.4308 11.4532 25.4155 11.4734 25.4052C11.4937 25.5078 11.5342 25.6103 11.6 25.6924C11.6658 25.7744 11.7519 25.8411 11.8481 25.8718C11.7772 25.8001 11.7165 25.7231 11.6709 25.6411C11.6253 25.559 11.5949 25.4719 11.5797 25.3796C11.5797 25.359 11.5747 25.3437 11.5696 25.3232C11.6557 25.2565 11.7418 25.1847 11.8228 25.1129C11.8532 25.0873 11.8785 25.0668 11.9038 25.0411C11.919 25.0565 11.9443 25.0668 11.9646 25.0668C11.9848 25.0668 12.0101 25.0668 12.0304 25.0514C12.0506 25.0411 12.0658 25.0206 12.0709 24.9898C12.0456 24.9796 12.0253 24.9693 12.0101 24.9642C12 24.9642 11.9949 24.9591 11.9848 24.9591C12.1823 24.7898 12.3797 24.6257 12.5924 24.477C12.8608 24.2822 13.1544 24.1232 13.4633 23.9848C13.1291 24.036 12.8 24.1591 12.5013 24.3335C12.3494 24.4155 12.2076 24.5181 12.0709 24.6155C11.9392 24.7129 11.8177 24.8206 11.6911 24.9232C11.6911 24.9129 11.6861 24.9027 11.6759 24.8975C11.6608 24.8873 11.6456 24.8873 11.6304 24.8924C11.6 24.8924 11.5747 24.9078 11.5544 24.9283C11.5443 24.9386 11.5342 24.9488 11.5241 24.9642L11.5038 25.0001C11.4886 25.0257 11.4835 25.0514 11.4734 25.0719C11.4734 25.0873 11.4633 25.0975 11.4633 25.1129C11.4278 25.1385 11.3975 25.1693 11.362 25.195C11.3418 25.1693 11.3215 25.1488 11.2911 25.1334C11.2911 25.1334 11.2861 25.1334 11.281 25.1334C11.3266 24.9898 11.3519 24.8463 11.3722 24.6975C11.3924 24.5283 11.4025 24.354 11.3975 24.1796C11.3975 24.0155 11.3772 23.8514 11.3468 23.6873C11.4278 23.6976 11.5139 23.6873 11.5949 23.6668C11.6962 23.6361 11.7924 23.5796 11.8633 23.4976C11.8835 23.472 11.9038 23.4463 11.919 23.4155C12.0405 23.4617 12.157 23.513 12.2785 23.5591C12.243 23.6002 12.2076 23.6412 12.1772 23.6822C12.1468 23.7232 12.1165 23.7643 12.0861 23.8104C12.0557 23.8566 12.0203 23.9078 11.9747 23.9848V24.0001C12.1114 23.9694 12.2228 23.8873 12.3089 23.7848C12.3494 23.7284 12.3848 23.6719 12.4051 23.6053C12.4759 23.6309 12.5519 23.6617 12.6228 23.6873C12.6278 23.6873 12.6329 23.6873 12.638 23.6925C12.6127 23.7078 12.5924 23.7181 12.5671 23.7335C12.5165 23.7643 12.4709 23.8053 12.4253 23.8514C12.3797 23.8976 12.3392 23.9489 12.2937 24.0258V24.0412C12.4253 24.0053 12.5418 23.9437 12.6532 23.8719C12.7038 23.836 12.7544 23.795 12.8051 23.754C12.9013 23.7899 13.0025 23.8207 13.0987 23.8566C13.0785 23.8771 13.0532 23.8924 13.0278 23.9181C13.0684 23.9335 13.1139 23.9283 13.1544 23.9181C13.1747 23.913 13.1949 23.9027 13.2101 23.8924C13.3013 23.9232 13.3924 23.9489 13.4886 23.9745C13.4177 23.9283 13.3468 23.8873 13.2759 23.8463C13.3063 23.8207 13.3266 23.7848 13.3418 23.7489C13.3418 23.7489 13.3418 23.7386 13.3468 23.7335C13.5342 23.8053 13.7266 23.8719 13.919 23.9335C13.5899 23.7335 13.2557 23.5489 12.9114 23.3797C12.5671 23.2104 12.2177 23.0566 11.8582 22.9181C11.6759 22.8515 11.4987 22.7899 11.3114 22.7284C11.2203 22.7028 11.1291 22.672 11.0329 22.6515C10.9418 22.6258 10.8405 22.6053 10.7443 22.5899C10.5519 22.5592 10.3595 22.5438 10.162 22.5438C10.162 22.5438 10.157 22.5438 10.1519 22.5438C10.1468 22.5387 10.1367 22.5284 10.1316 22.5233C10.0203 22.4105 9.92911 22.272 9.88354 22.0874H9.86835L10.0759 21.8515L10.2987 21.6002L10.3342 21.6105ZM11.6 25.0052C11.6 24.995 11.6051 24.9898 11.6101 24.9796C11.6203 24.9642 11.6354 24.9437 11.6557 24.9334C11.6709 24.9232 11.6911 24.9232 11.7013 24.9334C11.7013 24.9334 11.6911 24.9386 11.6861 24.9437C11.6557 24.9745 11.6203 25.0001 11.5899 25.0309V25.0001L11.6 25.0052ZM9.5038 22.831C9.50886 22.831 9.51392 22.831 9.51899 22.831C9.52911 22.8361 9.53924 22.8463 9.55443 22.8515C9.55443 22.8515 9.54937 22.8515 9.5443 22.8515C9.52911 22.8412 9.51392 22.8361 9.5038 22.8258V22.831ZM9.51899 23.0207C9.5443 23.0104 9.57468 23.0002 9.6 22.9899C9.60506 22.9899 9.61519 22.9848 9.62025 22.9797C9.63038 22.9899 9.64051 22.9951 9.65063 23.0053C9.61013 23.0104 9.56456 23.0156 9.52405 23.0207H9.51899ZM11.3013 25.195C11.3215 25.2001 11.3468 25.2103 11.3671 25.2257C11.3063 25.277 11.2405 25.3283 11.1747 25.3744C11.1797 25.3232 11.1899 25.2719 11.2 25.2257C11.2253 25.2052 11.2506 25.195 11.2759 25.195C11.2759 25.2052 11.2759 25.2103 11.2759 25.2206C11.2759 25.2103 11.281 25.2052 11.2861 25.195C11.2861 25.195 11.2911 25.195 11.2962 25.195H11.3013ZM11.2253 25.1437C11.1949 25.1488 11.1696 25.1642 11.1443 25.1744H11.1342C11.1342 25.1796 11.1291 25.195 11.1291 25.195C11.0987 25.2821 11.0785 25.3693 11.0633 25.4616C11.0481 25.4719 11.0329 25.4821 11.0177 25.4924C10.9266 25.4257 10.8456 25.359 10.7797 25.277C10.7038 25.1898 10.6481 25.0873 10.6076 24.9796C10.5215 24.7642 10.481 24.5283 10.4557 24.2924L10.4456 24.2053V24.1181C10.4304 24.0565 10.4253 24.0001 10.4253 23.9386C10.4253 23.8155 10.4203 23.6976 10.4253 23.5796C10.4253 23.4873 10.4304 23.4002 10.4405 23.313C10.4709 23.313 10.5013 23.313 10.5316 23.313C10.6532 23.3591 10.7848 23.3899 10.9165 23.4002C11.0127 23.4053 11.1139 23.4002 11.2101 23.3899C11.2101 23.4514 11.2101 23.513 11.2101 23.5745C11.1544 23.5745 11.0987 23.5745 11.0329 23.5745L11.0228 23.5899C11.0835 23.6258 11.1443 23.6514 11.2051 23.6719C11.2051 23.6822 11.2051 23.6925 11.2051 23.7027C11.2051 23.8719 11.2051 24.0412 11.2051 24.2104C11.2051 24.3796 11.2152 24.5488 11.2253 24.7181C11.2354 24.8616 11.2456 25.0052 11.2709 25.1488C11.2557 25.1488 11.2405 25.1488 11.2253 25.1488V25.1437ZM11.7924 23.4309C11.7266 23.4771 11.6557 23.5027 11.5797 23.5284C11.5089 23.5489 11.4278 23.5591 11.3468 23.5643C11.3316 23.4976 11.3114 23.4361 11.2911 23.3745C11.3924 23.354 11.4987 23.3284 11.5949 23.2925C11.6608 23.3181 11.7266 23.3489 11.7975 23.3745C11.8127 23.3797 11.8329 23.3899 11.8481 23.395C11.8329 23.4104 11.8177 23.4207 11.7975 23.4309H11.7924ZM12.8759 23.554C13.0177 23.6104 13.1595 23.6617 13.3013 23.7181L13.2253 23.7848L13.2051 23.8001C13.119 23.7489 13.0278 23.7027 12.9418 23.6566C12.9519 23.6463 12.962 23.6309 12.9722 23.6207L12.962 23.6104C12.9316 23.6104 12.9013 23.6207 12.8759 23.6258C12.8203 23.6002 12.7646 23.5694 12.7089 23.5437C12.4506 23.4155 12.1873 23.2976 11.919 23.1848H11.9342C12.0709 23.2361 12.2025 23.2873 12.3342 23.3438L12.8658 23.554H12.8759ZM10.0304 22.5694C9.98987 22.5694 9.9443 22.5797 9.9038 22.5899C9.9038 22.5899 9.89873 22.5899 9.89367 22.5899C9.8481 22.5489 9.80759 22.5079 9.76709 22.4617C9.73165 22.4259 9.70127 22.3848 9.67595 22.3438C9.7519 22.2669 9.81772 22.19 9.88354 22.1182L9.89873 22.1028C9.88354 22.2669 9.93924 22.4361 10.0304 22.5694Z" fill="black" stroke="black" stroke-width="0.4"/>
<path d="M11.1279 19.0248C10.9524 19.1139 7.87774 20.8642 7.26583 21.1562C7.88276 20.884 11.0226 19.505 11.0978 19.4851C11.4038 19.401 11.7248 19.3911 12.0458 19.4356C12.3417 19.4752 14.7527 20.6337 15.5 21L15 20.6436C15 20.6436 14.99 20.6337 14.985 20.6287C14.985 20.6287 14.995 20.6386 15 20.6386L15.5 20.9901C15.0887 20.6139 12.0558 18.0495 11.9103 18H11.9003H11.8853C10.6364 18.0347 7.50157 19.5099 7.36614 19.5743C7.30094 19.6089 7.23072 19.6485 7.17053 19.698C7.15047 19.7129 7.28589 19.8564 7.26583 19.8812C7.26583 19.8812 7.01003 19.9951 7.13542 19.7723C7.08025 19.8267 7.03009 19.896 7.01003 19.9951C7 20.0446 7 20.0792 7 20.1188C7 20.1584 7.00502 20.198 7.01505 20.2376C7.04514 20.3911 7.11034 20.5198 7.17555 20.6436C7.24075 20.7673 7.31599 20.8861 7.40627 21L7.43636 20.9901C7.4163 20.8465 8.57982 20.6881 8.5397 20.5545C8.49957 20.4208 8.02508 20.8608 8 20.742C7.99498 20.7123 9.30812 20.0594 9.30812 20.0297L7.21567 20.0693C7.55756 19.4851 7.21066 20.0396 7.21066 20.0297C7.21066 19.9851 7.23574 19.9307 7.26583 19.8812C7.70312 20.1188 12.3475 19.0347 12.3575 19.0248C12.6283 18.9059 10.9172 18.3267 11.7599 18.4208C11.8502 18.4455 13.5103 19.5644 14.4332 20.2228C13.5956 19.6733 12.1712 18.8861 11.9505 18.8515C11.6194 18.7921 11.4138 18.9208 11.1379 19.0396L11.1279 19.0248Z" fill="black"/>
<path d="M7.26583 19.8812C7.28589 19.8564 7.15047 19.7129 7.17053 19.698C7.23072 19.6485 7.30094 19.6089 7.36614 19.5743C7.50157 19.5099 10.6364 18.0347 11.8853 18H11.9003H11.9103C12.0558 18.0495 15.0887 20.6139 15.5 20.9901L15 20.6386C14.995 20.6386 14.985 20.6287 14.985 20.6287C14.99 20.6337 15 20.6436 15 20.6436L15.5 21C14.7527 20.6337 12.3417 19.4752 12.0458 19.4356C11.7248 19.3911 11.4038 19.401 11.0978 19.4851C11.0226 19.505 7.88276 20.884 7.26583 21.1562C7.87774 20.8642 10.9524 19.1139 11.1279 19.0248L11.1379 19.0396C11.4138 18.9208 11.6194 18.7921 11.9505 18.8515C12.1712 18.8861 13.5956 19.6733 14.4332 20.2228C13.5103 19.5644 11.8502 18.4455 11.7599 18.4208C10.9172 18.3267 12.6283 18.9059 12.3575 19.0248C12.3475 19.0347 7.70312 20.1188 7.26583 19.8812ZM7.26583 19.8812C7.26583 19.8812 7.01003 19.9951 7.13542 19.7723C7.08025 19.8267 7.03009 19.896 7.01003 19.9951C7 20.0446 7 20.0792 7 20.1188C7 20.1584 7.00502 20.198 7.01505 20.2376C7.04514 20.3911 7.11034 20.5198 7.17555 20.6436C7.24075 20.7673 7.31599 20.8861 7.40627 21L7.43636 20.9901C7.4163 20.8465 8.57982 20.6881 8.5397 20.5545C8.49957 20.4208 8.02508 20.8608 8 20.742C7.99498 20.7123 9.30812 20.0594 9.30812 20.0297L7.21567 20.0693C7.55756 19.4851 7.21066 20.0396 7.21066 20.0297C7.21066 19.9851 7.23574 19.9307 7.26583 19.8812Z" stroke="black" stroke-width="0.4"/>
</svg>
